<?xml version="1.0" encoding="UTF-8" standalone="no"?>
<!DOCTYPE svg PUBLIC "-//W3C//DTD SVG 1.1//EN"
 "http://www.w3.org/Graphics/SVG/1.1/DTD/svg11.dtd">
<!-- Generated by graphviz version 2.44.0 (20200408.0750)
 -->
<!-- Title: G Pages: 1 -->
<svg width="1594pt" height="837pt"
 viewBox="0.00 0.00 1594.00 837.00" xmlns="http://www.w3.org/2000/svg" xmlns:xlink="http://www.w3.org/1999/xlink">
<g id="graph0" class="graph" transform="scale(1 1) rotate(0) translate(4 833)">
<title>G</title>
<polygon fill="white" stroke="transparent" points="-4,4 -4,-833 1590,-833 1590,4 -4,4"/>
<text text-anchor="start" x="649" y="-29" font-family="Times,serif" font-size="14.00"> </text>
<text text-anchor="start" x="653" y="-29" font-family="Times,serif" font-size="80.00">citizenry</text>
<text text-anchor="start" x="933" y="-29" font-family="Times,serif" font-size="14.00"> </text>
<!-- authentication -->
<g id="node1" class="node">
<title>authentication</title>
<ellipse fill="teal" stroke="black" cx="959" cy="-811" rx="60.39" ry="18"/>
<text text-anchor="middle" x="959" y="-807.3" font-family="Times,serif" font-size="14.00">authentication</text>
</g>
<!-- user -->
<g id="node13" class="node">
<title>user</title>
<ellipse fill="teal" stroke="black" cx="959" cy="-728" rx="27" ry="18"/>
<text text-anchor="middle" x="959" y="-724.3" font-family="Times,serif" font-size="14.00">user</text>
</g>
<!-- authentication&#45;&gt;user -->
<g id="edge1" class="edge">
<title>authentication&#45;&gt;user</title>
<path fill="none" stroke="black" d="M935.96,-794.27C926.79,-785.93 919.39,-775.13 924,-764 926.32,-758.41 930.01,-753.24 934.15,-748.69"/>
<polygon fill="black" stroke="black" points="936.65,-751.14 941.36,-741.65 931.76,-746.13 936.65,-751.14"/>
<text text-anchor="middle" x="948.5" y="-767" font-family="Times,serif" font-size="10.00">belongs_to </text>
</g>
<!-- company -->
<g id="node2" class="node">
<title>company</title>
<ellipse fill="teal" stroke="black" cx="774" cy="-551" rx="43.59" ry="18"/>
<text text-anchor="middle" x="774" y="-547.3" font-family="Times,serif" font-size="14.00">company</text>
</g>
<!-- company_project -->
<g id="node3" class="node">
<title>company_project</title>
<ellipse fill="teal" stroke="black" cx="966" cy="-457" rx="72.29" ry="18"/>
<text text-anchor="middle" x="966" y="-453.3" font-family="Times,serif" font-size="14.00">company_project</text>
</g>
<!-- company&#45;&gt;company_project -->
<g id="edge2" class="edge">
<title>company&#45;&gt;company_project</title>
<path fill="none" stroke="black" d="M805.15,-538.18C819.13,-532.2 835.48,-524.25 849,-515 860.68,-507.01 860.01,-500.51 872,-493 883.76,-485.63 897.3,-479.46 910.38,-474.46"/>
<polygon fill="black" stroke="black" points="911.59,-477.74 919.78,-471.02 909.19,-471.16 911.59,-477.74"/>
<text text-anchor="middle" x="894" y="-501.5" font-family="Times,serif" font-size="10.00">has_many </text>
</g>
<!-- employment -->
<g id="node4" class="node">
<title>employment</title>
<ellipse fill="teal" stroke="black" cx="1112" cy="-457" rx="55.79" ry="18"/>
<text text-anchor="middle" x="1112" y="-453.3" font-family="Times,serif" font-size="14.00">employment</text>
</g>
<!-- company&#45;&gt;employment -->
<g id="edge6" class="edge">
<title>company&#45;&gt;employment</title>
<path fill="none" stroke="black" d="M815.54,-545.55C845.02,-541.04 884.73,-532.18 916,-515 928.4,-508.19 926.35,-499.33 939,-493 982.51,-471.22 999.41,-485.17 1047,-475 1051.61,-474.02 1056.38,-472.92 1061.14,-471.77"/>
<polygon fill="black" stroke="black" points="1062.01,-475.16 1070.87,-469.36 1060.32,-468.37 1062.01,-475.16"/>
<text text-anchor="middle" x="961" y="-501.5" font-family="Times,serif" font-size="10.00">has_many </text>
</g>
<!-- group -->
<g id="node5" class="node">
<title>group</title>
<ellipse fill="teal" stroke="black" cx="631" cy="-197" rx="31.4" ry="18"/>
<text text-anchor="middle" x="631" y="-193.3" font-family="Times,serif" font-size="14.00">group</text>
</g>
<!-- company&#45;&gt;group -->
<g id="edge5" class="edge">
<title>company&#45;&gt;group</title>
<path fill="none" stroke="black" stroke-dasharray="5,2" d="M731.14,-547.8C703.03,-544.32 666.98,-535.76 642,-515 626.86,-502.42 629.52,-493.57 623,-475 599.02,-406.73 575.42,-387.26 588,-316 588.83,-311.31 608.6,-257.94 621.04,-224.61"/>
<polygon fill="black" stroke="black" points="624.41,-225.57 624.64,-214.98 617.86,-223.12 624.41,-225.57"/>
<text text-anchor="middle" x="632" y="-366" font-family="Times,serif" font-size="10.00">has_many </text>
<text text-anchor="middle" x="632" y="-355" font-family="Times,serif" font-size="10.00">through sponsorships</text>
</g>
<!-- person -->
<g id="node8" class="node">
<title>person</title>
<ellipse fill="teal" stroke="black" cx="959" cy="-645" rx="34.39" ry="18"/>
<text text-anchor="middle" x="959" y="-641.3" font-family="Times,serif" font-size="14.00">person</text>
</g>
<!-- company&#45;&gt;person -->
<g id="edge7" class="edge">
<title>company&#45;&gt;person</title>
<path fill="none" stroke="black" stroke-dasharray="5,2" d="M809.42,-561.56C829.49,-567.62 854.76,-576.31 876,-587 896.16,-597.14 917.09,-611.55 932.89,-623.34"/>
<polygon fill="black" stroke="black" points="931.03,-626.32 941.11,-629.58 935.26,-620.75 931.03,-626.32"/>
<text text-anchor="middle" x="957" y="-601" font-family="Times,serif" font-size="10.00">has_many </text>
<text text-anchor="middle" x="957" y="-590" font-family="Times,serif" font-size="10.00">through employments</text>
</g>
<!-- project -->
<g id="node9" class="node">
<title>project</title>
<ellipse fill="teal" stroke="black" cx="847" cy="-363" rx="35.19" ry="18"/>
<text text-anchor="middle" x="847" y="-359.3" font-family="Times,serif" font-size="14.00">project</text>
</g>
<!-- company&#45;&gt;project -->
<g id="edge3" class="edge">
<title>company&#45;&gt;project</title>
<path fill="none" stroke="black" stroke-dasharray="5,2" d="M739.6,-539.79C688.24,-522.74 600.93,-485.71 634,-439 671.94,-385.42 751.39,-369.84 801.8,-365.48"/>
<polygon fill="black" stroke="black" points="802.08,-368.97 811.79,-364.73 801.55,-361.99 802.08,-368.97"/>
<text text-anchor="middle" x="689" y="-460" font-family="Times,serif" font-size="10.00">has_many </text>
<text text-anchor="middle" x="689" y="-449" font-family="Times,serif" font-size="10.00">through company_projects</text>
</g>
<!-- sponsorship -->
<g id="node12" class="node">
<title>sponsorship</title>
<ellipse fill="teal" stroke="black" cx="379" cy="-114" rx="52.79" ry="18"/>
<text text-anchor="middle" x="379" y="-110.3" font-family="Times,serif" font-size="14.00">sponsorship</text>
</g>
<!-- company&#45;&gt;sponsorship -->
<g id="edge4" class="edge">
<title>company&#45;&gt;sponsorship</title>
<path fill="none" stroke="black" d="M730.45,-549.44C567.08,-546.76 0,-532.13 0,-458 0,-458 0,-458 0,-196 0,-132.12 208.49,-118.44 316.2,-115.64"/>
<polygon fill="black" stroke="black" points="316.39,-119.13 326.3,-115.4 316.22,-112.13 316.39,-119.13"/>
<text text-anchor="middle" x="22" y="-319" font-family="Times,serif" font-size="10.00">has_many </text>
</g>
<!-- company_project&#45;&gt;company -->
<g id="edge9" class="edge">
<title>company_project&#45;&gt;company</title>
<path fill="none" stroke="black" d="M911.3,-468.94C862.03,-478.85 797.14,-492.04 796,-493 787.04,-500.59 781.72,-512.26 778.56,-523.07"/>
<polygon fill="black" stroke="black" points="775.11,-522.47 776.15,-533.02 781.91,-524.12 775.11,-522.47"/>
<text text-anchor="middle" x="820.5" y="-501.5" font-family="Times,serif" font-size="10.00">belongs_to </text>
</g>
<!-- company_project&#45;&gt;project -->
<g id="edge8" class="edge">
<title>company_project&#45;&gt;project</title>
<path fill="none" stroke="black" d="M913.06,-444.51C898.39,-439.28 883.39,-431.76 872,-421 863.43,-412.9 857.62,-401.35 853.78,-390.76"/>
<polygon fill="black" stroke="black" points="857.05,-389.51 850.67,-381.05 850.39,-391.64 857.05,-389.51"/>
<text text-anchor="middle" x="896.5" y="-407.5" font-family="Times,serif" font-size="10.00">belongs_to </text>
</g>
<!-- employment&#45;&gt;company -->
<g id="edge11" class="edge">
<title>employment&#45;&gt;company</title>
<path fill="none" stroke="black" d="M1071.41,-469.39C1046.51,-476.76 1017.3,-486.21 1006,-493 993.87,-500.29 995.65,-508.66 983,-515 934.13,-539.49 871.58,-547.34 827.69,-549.62"/>
<polygon fill="black" stroke="black" points="827.35,-546.13 817.52,-550.07 827.66,-553.13 827.35,-546.13"/>
<text text-anchor="middle" x="1030.5" y="-501.5" font-family="Times,serif" font-size="10.00">belongs_to </text>
</g>
<!-- employment&#45;&gt;person -->
<g id="edge10" class="edge">
<title>employment&#45;&gt;person</title>
<path fill="none" stroke="black" d="M1096.53,-474.5C1085.34,-486.18 1069.67,-502.01 1055,-515 1045.28,-523.61 1039.65,-522.51 1032,-533 1010.8,-562.09 1025.25,-579.94 1004,-609 999.84,-614.69 994.51,-619.92 988.99,-624.51"/>
<polygon fill="black" stroke="black" points="986.66,-621.89 980.87,-630.76 990.93,-627.44 986.66,-621.89"/>
<text text-anchor="middle" x="1056.5" y="-548.5" font-family="Times,serif" font-size="10.00">belongs_to </text>
</g>
<!-- group&#45;&gt;company -->
<g id="edge17" class="edge">
<title>group&#45;&gt;company</title>
<path fill="none" stroke="black" stroke-dasharray="5,2" d="M599.6,-197.87C551.54,-199.44 459.88,-209.64 408,-262 374.62,-295.69 363,-440 395,-475 438.14,-522.18 627.14,-540.68 720.89,-547.05"/>
<polygon fill="black" stroke="black" points="720.81,-550.56 731.01,-547.72 721.27,-543.57 720.81,-550.56"/>
<text text-anchor="middle" x="424" y="-366" font-family="Times,serif" font-size="10.00">has_many </text>
<text text-anchor="middle" x="424" y="-355" font-family="Times,serif" font-size="10.00">through sponsorships</text>
</g>
<!-- group_membership -->
<g id="node6" class="node">
<title>group_membership</title>
<ellipse fill="teal" stroke="black" cx="1273" cy="-114" rx="79.89" ry="18"/>
<text text-anchor="middle" x="1273" y="-110.3" font-family="Times,serif" font-size="14.00">group_membership</text>
</g>
<!-- group&#45;&gt;group_membership -->
<g id="edge14" class="edge">
<title>group&#45;&gt;group_membership</title>
<path fill="none" stroke="black" d="M661.1,-192.2C756.25,-180.2 1052.57,-142.81 1195.01,-124.84"/>
<polygon fill="black" stroke="black" points="1195.51,-128.3 1204.99,-123.58 1194.63,-121.36 1195.51,-128.3"/>
<text text-anchor="middle" x="1013" y="-153" font-family="Times,serif" font-size="10.00">has_many </text>
</g>
<!-- group_project -->
<g id="node7" class="node">
<title>group_project</title>
<ellipse fill="teal" stroke="black" cx="732" cy="-280" rx="59.59" ry="18"/>
<text text-anchor="middle" x="732" y="-276.3" font-family="Times,serif" font-size="14.00">group_project</text>
</g>
<!-- group&#45;&gt;group_project -->
<g id="edge12" class="edge">
<title>group&#45;&gt;group_project</title>
<path fill="none" stroke="black" d="M657.41,-206.73C672.03,-212.52 689.85,-221.22 703,-233 709.33,-238.67 714.79,-246.04 719.22,-253.21"/>
<polygon fill="black" stroke="black" points="716.26,-255.09 724.25,-262.05 722.34,-251.63 716.26,-255.09"/>
<text text-anchor="middle" x="735" y="-236" font-family="Times,serif" font-size="10.00">has_many </text>
</g>
<!-- group&#45;&gt;person -->
<g id="edge15" class="edge">
<title>group&#45;&gt;person</title>
<path fill="none" stroke="black" stroke-dasharray="5,2" d="M600.35,-200.51C501.88,-208.96 200,-238.22 200,-279 200,-552 200,-552 200,-552 200,-624.41 751.45,-640.22 914.26,-643.31"/>
<polygon fill="black" stroke="black" points="914.35,-646.81 924.42,-643.5 914.48,-639.81 914.35,-646.81"/>
<text text-anchor="middle" x="259" y="-413" font-family="Times,serif" font-size="10.00">has_many </text>
<text text-anchor="middle" x="259" y="-402" font-family="Times,serif" font-size="10.00">through group_memberships</text>
</g>
<!-- group&#45;&gt;project -->
<g id="edge13" class="edge">
<title>group&#45;&gt;project</title>
<path fill="none" stroke="black" stroke-dasharray="5,2" d="M662.17,-198.54C740.37,-200.64 941.24,-211 978,-262 1007.27,-302.61 935.35,-334.42 886.88,-350.49"/>
<polygon fill="black" stroke="black" points="885.69,-347.19 877.24,-353.58 887.83,-353.86 885.69,-347.19"/>
<text text-anchor="middle" x="1033.5" y="-283" font-family="Times,serif" font-size="10.00">has_many </text>
<text text-anchor="middle" x="1033.5" y="-272" font-family="Times,serif" font-size="10.00">through group_projects</text>
</g>
<!-- group&#45;&gt;sponsorship -->
<g id="edge16" class="edge">
<title>group&#45;&gt;sponsorship</title>
<path fill="none" stroke="black" d="M601.96,-190.03C573.4,-183.86 528.73,-173.39 491,-161 466.58,-152.98 439.94,-142.13 418.77,-132.98"/>
<polygon fill="black" stroke="black" points="420.02,-129.7 409.45,-128.91 417.21,-136.12 420.02,-129.7"/>
<text text-anchor="middle" x="513" y="-153" font-family="Times,serif" font-size="10.00">has_many </text>
</g>
<!-- group_membership&#45;&gt;group -->
<g id="edge18" class="edge">
<title>group_membership&#45;&gt;group</title>
<path fill="none" stroke="black" d="M1218.91,-127.37C1171.66,-137.75 1101.11,-152.26 1039,-161 905.64,-179.77 746.24,-189.93 672.36,-193.94"/>
<polygon fill="black" stroke="black" points="671.89,-190.46 662.1,-194.49 672.27,-197.45 671.89,-190.46"/>
<text text-anchor="middle" x="1128.5" y="-153" font-family="Times,serif" font-size="10.00">belongs_to </text>
</g>
<!-- group_membership&#45;&gt;person -->
<g id="edge19" class="edge">
<title>group_membership&#45;&gt;person</title>
<path fill="none" stroke="black" d="M1343.4,-122.62C1421.61,-133.1 1537,-155.43 1537,-196 1537,-552 1537,-552 1537,-552 1537,-590.76 1506.84,-594.25 1471,-609 1387.07,-643.53 1112.5,-645.27 1003.84,-644.54"/>
<polygon fill="black" stroke="black" points="1003.58,-641.04 993.55,-644.46 1003.53,-648.04 1003.58,-641.04"/>
<text text-anchor="middle" x="1561.5" y="-360.5" font-family="Times,serif" font-size="10.00">belongs_to </text>
</g>
<!-- group_project&#45;&gt;group -->
<g id="edge21" class="edge">
<title>group_project&#45;&gt;group</title>
<path fill="none" stroke="black" d="M688.19,-267.46C674.59,-262.13 660.45,-254.57 650,-244 644.78,-238.71 640.92,-231.79 638.1,-224.92"/>
<polygon fill="black" stroke="black" points="641.27,-223.39 634.67,-215.1 634.66,-225.7 641.27,-223.39"/>
<text text-anchor="middle" x="674.5" y="-236" font-family="Times,serif" font-size="10.00">belongs_to </text>
</g>
<!-- group_project&#45;&gt;project -->
<g id="edge20" class="edge">
<title>group_project&#45;&gt;project</title>
<path fill="none" stroke="black" d="M733.86,-298.24C735.73,-307.82 739.48,-319.32 747,-327 761.9,-342.22 783.79,-350.84 803.29,-355.7"/>
<polygon fill="black" stroke="black" points="802.69,-359.16 813.22,-357.92 804.22,-352.33 802.69,-359.16"/>
<text text-anchor="middle" x="771.5" y="-319" font-family="Times,serif" font-size="10.00">belongs_to </text>
</g>
<!-- person&#45;&gt;company -->
<g id="edge28" class="edge">
<title>person&#45;&gt;company</title>
<path fill="none" stroke="black" stroke-dasharray="5,2" d="M925.05,-641.87C879.25,-638.26 801.16,-629.26 782,-609 774.58,-601.16 772,-589.79 771.49,-579.26"/>
<polygon fill="black" stroke="black" points="774.99,-579.21 771.58,-569.18 768,-579.15 774.99,-579.21"/>
<text text-anchor="middle" x="827" y="-601" font-family="Times,serif" font-size="10.00">has_many </text>
<text text-anchor="middle" x="827" y="-590" font-family="Times,serif" font-size="10.00">through employments</text>
</g>
<!-- person&#45;&gt;employment -->
<g id="edge27" class="edge">
<title>person&#45;&gt;employment</title>
<path fill="none" stroke="black" d="M986.86,-634.39C1015.06,-623.18 1057.74,-601.88 1081,-569 1098.63,-544.07 1106.26,-509.41 1109.54,-485.49"/>
<polygon fill="black" stroke="black" points="1113.05,-485.67 1110.77,-475.32 1106.1,-484.83 1113.05,-485.67"/>
<text text-anchor="middle" x="1121" y="-548.5" font-family="Times,serif" font-size="10.00">has_many </text>
</g>
<!-- person&#45;&gt;group -->
<g id="edge26" class="edge">
<title>person&#45;&gt;group</title>
<path fill="none" stroke="black" stroke-dasharray="5,2" d="M924.54,-644.16C759.65,-644.5 59,-640.69 59,-552 59,-552 59,-552 59,-279 59,-225.35 458.54,-204.8 589.78,-199.5"/>
<polygon fill="black" stroke="black" points="589.99,-202.99 599.84,-199.1 589.71,-196 589.99,-202.99"/>
<text text-anchor="middle" x="118" y="-413" font-family="Times,serif" font-size="10.00">has_many </text>
<text text-anchor="middle" x="118" y="-402" font-family="Times,serif" font-size="10.00">through group_memberships</text>
</g>
<!-- person&#45;&gt;group_membership -->
<g id="edge25" class="edge">
<title>person&#45;&gt;group_membership</title>
<path fill="none" stroke="black" d="M992.84,-641.35C1104.92,-632.1 1457,-599.31 1457,-552 1457,-552 1457,-552 1457,-196 1457,-149.57 1407.31,-129.52 1359.57,-120.97"/>
<polygon fill="black" stroke="black" points="1359.87,-117.47 1349.43,-119.32 1358.74,-124.38 1359.87,-117.47"/>
<text text-anchor="middle" x="1479" y="-360.5" font-family="Times,serif" font-size="10.00">has_many </text>
</g>
<!-- person&#45;&gt;project -->
<g id="edge24" class="edge">
<title>person&#45;&gt;project</title>
<path fill="none" stroke="black" stroke-dasharray="5,2" d="M992.23,-640.11C1034.6,-633.34 1107.12,-615.35 1147,-569 1175.6,-535.76 1170.25,-518.33 1177,-475 1179.46,-459.19 1186.98,-451.5 1177,-439 1141.76,-394.86 973.3,-374.71 891.61,-367.42"/>
<polygon fill="black" stroke="black" points="891.89,-363.93 881.62,-366.56 891.28,-370.91 891.89,-363.93"/>
<text text-anchor="middle" x="1235" y="-507" font-family="Times,serif" font-size="10.00">has_many </text>
<text text-anchor="middle" x="1235" y="-496" font-family="Times,serif" font-size="10.00">through project_memberships</text>
</g>
<!-- project_membership -->
<g id="node10" class="node">
<title>project_membership</title>
<ellipse fill="teal" stroke="black" cx="501" cy="-280" rx="83.69" ry="18"/>
<text text-anchor="middle" x="501" y="-276.3" font-family="Times,serif" font-size="14.00">project_membership</text>
</g>
<!-- person&#45;&gt;project_membership -->
<g id="edge23" class="edge">
<title>person&#45;&gt;project_membership</title>
<path fill="none" stroke="black" d="M924.41,-643.56C820.86,-641.97 518.26,-635.09 483,-609 419.48,-562 407.07,-514.3 431,-439 440.56,-408.91 458.3,-409.44 472,-381 483.29,-357.56 491.05,-328.87 495.68,-308.24"/>
<polygon fill="black" stroke="black" points="499.15,-308.77 497.82,-298.26 492.3,-307.31 499.15,-308.77"/>
<text text-anchor="middle" x="453" y="-454.5" font-family="Times,serif" font-size="10.00">has_many </text>
</g>
<!-- person&#45;&gt;user -->
<g id="edge22" class="edge">
<title>person&#45;&gt;user</title>
<path fill="none" stroke="black" d="M964.3,-662.97C966.4,-671.62 968.09,-682.33 967,-692 966.7,-694.69 966.26,-697.48 965.76,-700.26"/>
<polygon fill="black" stroke="black" points="962.33,-699.53 963.68,-710.04 969.18,-700.99 962.33,-699.53"/>
<text text-anchor="middle" x="992.5" y="-684" font-family="Times,serif" font-size="10.00">belongs_to </text>
</g>
<!-- project&#45;&gt;company -->
<g id="edge32" class="edge">
<title>project&#45;&gt;company</title>
<path fill="none" stroke="black" stroke-dasharray="5,2" d="M826.81,-377.97C809.42,-391.35 785.49,-413.26 775,-439 764.07,-465.81 765.63,-499.37 768.77,-522.53"/>
<polygon fill="black" stroke="black" points="765.36,-523.34 770.35,-532.69 772.27,-522.27 765.36,-523.34"/>
<text text-anchor="middle" x="830" y="-460" font-family="Times,serif" font-size="10.00">has_many </text>
<text text-anchor="middle" x="830" y="-449" font-family="Times,serif" font-size="10.00">through company_projects</text>
</g>
<!-- project&#45;&gt;company_project -->
<g id="edge31" class="edge">
<title>project&#45;&gt;company_project</title>
<path fill="none" stroke="black" d="M875.45,-373.86C889.99,-379.75 907.43,-388.2 921,-399 932.13,-407.86 942.19,-419.98 949.96,-430.77"/>
<polygon fill="black" stroke="black" points="947.12,-432.81 955.68,-439.05 952.88,-428.83 947.12,-432.81"/>
<text text-anchor="middle" x="964" y="-407.5" font-family="Times,serif" font-size="10.00">has_many </text>
</g>
<!-- project&#45;&gt;group -->
<g id="edge34" class="edge">
<title>project&#45;&gt;group</title>
<path fill="none" stroke="black" stroke-dasharray="5,2" d="M855.97,-345.38C859.57,-336.44 862.02,-325.35 858,-316 835.58,-263.88 812.21,-257.43 761,-233 732.23,-219.27 697.21,-210.24 670.77,-204.79"/>
<polygon fill="black" stroke="black" points="671.22,-201.31 660.73,-202.81 669.87,-208.18 671.22,-201.31"/>
<text text-anchor="middle" x="897.5" y="-283" font-family="Times,serif" font-size="10.00">has_many </text>
<text text-anchor="middle" x="897.5" y="-272" font-family="Times,serif" font-size="10.00">through group_projects</text>
</g>
<!-- project&#45;&gt;group_project -->
<g id="edge33" class="edge">
<title>project&#45;&gt;group_project</title>
<path fill="none" stroke="black" d="M831.73,-346.49C821.99,-337.05 808.84,-325.11 796,-316 788.26,-310.51 779.58,-305.24 771.15,-300.52"/>
<polygon fill="black" stroke="black" points="772.64,-297.34 762.18,-295.64 769.29,-303.49 772.64,-297.34"/>
<text text-anchor="middle" x="832" y="-319" font-family="Times,serif" font-size="10.00">has_many </text>
</g>
<!-- project&#45;&gt;person -->
<g id="edge30" class="edge">
<title>project&#45;&gt;person</title>
<path fill="none" stroke="black" stroke-dasharray="5,2" d="M882.51,-363.65C938.37,-364.11 1049.53,-369.15 1138,-399 1216.15,-425.37 1257.03,-421.42 1298,-493 1363.27,-607.05 1109.36,-635.22 1003.42,-641.96"/>
<polygon fill="black" stroke="black" points="1003.12,-638.47 993.35,-642.56 1003.54,-645.46 1003.12,-638.47"/>
<text text-anchor="middle" x="1368" y="-507" font-family="Times,serif" font-size="10.00">has_many </text>
<text text-anchor="middle" x="1368" y="-496" font-family="Times,serif" font-size="10.00">through project_memberships</text>
</g>
<!-- project&#45;&gt;project_membership -->
<g id="edge29" class="edge">
<title>project&#45;&gt;project_membership</title>
<path fill="none" stroke="black" d="M814.75,-355.53C783.26,-349.02 734.09,-338.34 692,-327 676.26,-322.76 672.75,-320.23 657,-316 628.59,-308.36 596.97,-301.05 569.66,-295.1"/>
<polygon fill="black" stroke="black" points="570.32,-291.67 559.81,-292.98 568.84,-298.51 570.32,-291.67"/>
<text text-anchor="middle" x="714" y="-319" font-family="Times,serif" font-size="10.00">has_many </text>
</g>
<!-- project_membership&#45;&gt;person -->
<g id="edge36" class="edge">
<title>project_membership&#45;&gt;person</title>
<path fill="none" stroke="black" d="M504.24,-298.22C512.38,-340.2 534.6,-446.42 556,-475 623.04,-564.52 664.8,-568.36 769,-609 816.9,-627.68 875.57,-636.54 914.93,-640.64"/>
<polygon fill="black" stroke="black" points="914.7,-644.14 925,-641.63 915.39,-637.17 914.7,-644.14"/>
<text text-anchor="middle" x="580.5" y="-454.5" font-family="Times,serif" font-size="10.00">belongs_to </text>
</g>
<!-- project_membership&#45;&gt;project -->
<g id="edge35" class="edge">
<title>project_membership&#45;&gt;project</title>
<path fill="none" stroke="black" d="M530.81,-296.97C550.94,-307.08 578.41,-319.6 604,-327 671.47,-346.51 752.76,-355.41 802.13,-359.27"/>
<polygon fill="black" stroke="black" points="801.93,-362.76 812.16,-360.02 802.45,-355.78 801.93,-362.76"/>
<text text-anchor="middle" x="628.5" y="-319" font-family="Times,serif" font-size="10.00">belongs_to </text>
</g>
<!-- resource_link -->
<g id="node11" class="node">
<title>resource_link</title>
<ellipse fill="teal" stroke="black" cx="1096" cy="-811" rx="58.49" ry="18"/>
<text text-anchor="middle" x="1096" y="-807.3" font-family="Times,serif" font-size="14.00">resource_link</text>
</g>
<!-- sponsorship&#45;&gt;company -->
<g id="edge37" class="edge">
<title>sponsorship&#45;&gt;company</title>
<path fill="none" stroke="black" d="M360.11,-130.93C344.54,-145.95 325,-169.97 325,-196 325,-322.5 325,-322.5 325,-322.5 325,-417.52 331.85,-474.91 418,-515 470.35,-539.36 634.46,-546.8 720.37,-549.04"/>
<polygon fill="black" stroke="black" points="720.36,-552.54 730.44,-549.29 720.53,-545.55 720.36,-552.54"/>
<text text-anchor="middle" x="350.5" y="-319" font-family="Times,serif" font-size="10.00">belongs_to </text>
</g>
<!-- sponsorship&#45;&gt;group -->
<g id="edge38" class="edge">
<title>sponsorship&#45;&gt;group</title>
<path fill="none" stroke="black" d="M425.5,-122.58C456.92,-128.39 499.07,-137.54 535,-150 557.71,-157.87 582.11,-169.62 600.64,-179.27"/>
<polygon fill="black" stroke="black" points="599.01,-182.36 609.48,-183.95 602.28,-176.18 599.01,-182.36"/>
<text text-anchor="middle" x="587.5" y="-153" font-family="Times,serif" font-size="10.00">belongs_to </text>
</g>
<!-- user&#45;&gt;authentication -->
<g id="edge40" class="edge">
<title>user&#45;&gt;authentication</title>
<path fill="none" stroke="black" d="M968.07,-745.4C971.84,-754.08 974.93,-765 973,-775 972.47,-777.74 971.73,-780.53 970.87,-783.29"/>
<polygon fill="black" stroke="black" points="967.48,-782.35 967.33,-792.95 974.05,-784.76 967.48,-782.35"/>
<text text-anchor="middle" x="996" y="-767" font-family="Times,serif" font-size="10.00">has_many </text>
</g>
<!-- user&#45;&gt;person -->
<g id="edge39" class="edge">
<title>user&#45;&gt;person</title>
<path fill="none" stroke="black" d="M940.79,-714.34C930.69,-705.63 921.07,-693.42 926,-681 927.83,-676.39 930.59,-672.04 933.74,-668.07"/>
<polygon fill="black" stroke="black" points="936.48,-670.26 940.61,-660.5 931.29,-665.56 936.48,-670.26"/>
<text text-anchor="middle" x="944.5" y="-684" font-family="Times,serif" font-size="10.00">has_one </text>
</g>
</g>
</svg>
