<?xml version="1.0" encoding="UTF-8" standalone="no"?>
<!DOCTYPE svg PUBLIC "-//W3C//DTD SVG 1.1//EN"
 "http://www.w3.org/Graphics/SVG/1.1/DTD/svg11.dtd">
<!-- Generated by graphviz version 2.44.0 (20200408.0750)
 -->
<!-- Title: G Pages: 1 -->
<svg width="673pt" height="555pt"
 viewBox="0.00 0.00 673.10 555.00" xmlns="http://www.w3.org/2000/svg" xmlns:xlink="http://www.w3.org/1999/xlink">
<g id="graph0" class="graph" transform="scale(1 1) rotate(0) translate(4 551)">
<title>G</title>
<polygon fill="white" stroke="transparent" points="-4,4 -4,-551 669.1,-551 669.1,4 -4,4"/>
<text text-anchor="start" x="201.55" y="-29" font-family="Times,serif" font-size="14.00"> </text>
<text text-anchor="start" x="205.55" y="-29" font-family="Times,serif" font-size="80.00">fulcrum</text>
<text text-anchor="start" x="459.55" y="-29" font-family="Times,serif" font-size="14.00"> </text>
<!-- changeset -->
<g id="node1" class="node">
<title>changeset</title>
<ellipse fill="teal" stroke="black" cx="307.1" cy="-446" rx="45.49" ry="18"/>
<text text-anchor="middle" x="307.1" y="-442.3" font-family="Times,serif" font-size="14.00">changeset</text>
</g>
<!-- project -->
<g id="node3" class="node">
<title>project</title>
<ellipse fill="teal" stroke="black" cx="176.1" cy="-363" rx="35.19" ry="18"/>
<text text-anchor="middle" x="176.1" y="-359.3" font-family="Times,serif" font-size="14.00">project</text>
</g>
<!-- changeset&#45;&gt;project -->
<g id="edge1" class="edge">
<title>changeset&#45;&gt;project</title>
<path fill="none" stroke="black" d="M281.05,-431.2C269.59,-424.95 256.04,-417.34 244.1,-410 230.71,-401.77 216.24,-392.1 204.11,-383.76"/>
<polygon fill="black" stroke="black" points="205.94,-380.77 195.73,-377.95 201.96,-386.52 205.94,-380.77"/>
<text text-anchor="middle" x="268.6" y="-402" font-family="Times,serif" font-size="10.00">belongs_to </text>
</g>
<!-- story -->
<g id="node4" class="node">
<title>story</title>
<ellipse fill="teal" stroke="black" cx="307.1" cy="-280" rx="28.7" ry="18"/>
<text text-anchor="middle" x="307.1" y="-276.3" font-family="Times,serif" font-size="14.00">story</text>
</g>
<!-- changeset&#45;&gt;story -->
<g id="edge2" class="edge">
<title>changeset&#45;&gt;story</title>
<path fill="none" stroke="black" d="M307.1,-427.76C307.1,-399.26 307.1,-342.12 307.1,-308.16"/>
<polygon fill="black" stroke="black" points="310.6,-308.01 307.1,-298.01 303.6,-308.01 310.6,-308.01"/>
<text text-anchor="middle" x="331.6" y="-360.5" font-family="Times,serif" font-size="10.00">belongs_to </text>
</g>
<!-- note -->
<g id="node2" class="node">
<title>note</title>
<ellipse fill="teal" stroke="black" cx="413.1" cy="-197" rx="27" ry="18"/>
<text text-anchor="middle" x="413.1" y="-193.3" font-family="Times,serif" font-size="14.00">note</text>
</g>
<!-- note&#45;&gt;story -->
<g id="edge4" class="edge">
<title>note&#45;&gt;story</title>
<path fill="none" stroke="black" d="M391.1,-207.5C373.37,-215.41 350.1,-226.4 342.1,-233 334.75,-239.05 328.04,-246.94 322.5,-254.47"/>
<polygon fill="black" stroke="black" points="319.4,-252.8 316.58,-263.01 325.16,-256.79 319.4,-252.8"/>
<text text-anchor="middle" x="366.6" y="-236" font-family="Times,serif" font-size="10.00">belongs_to </text>
</g>
<!-- user -->
<g id="node6" class="node">
<title>user</title>
<ellipse fill="teal" stroke="black" cx="319.1" cy="-114" rx="27" ry="18"/>
<text text-anchor="middle" x="319.1" y="-110.3" font-family="Times,serif" font-size="14.00">user</text>
</g>
<!-- note&#45;&gt;user -->
<g id="edge3" class="edge">
<title>note&#45;&gt;user</title>
<path fill="none" stroke="black" d="M397.15,-182.26C382.29,-169.46 359.95,-150.2 342.97,-135.57"/>
<polygon fill="black" stroke="black" points="344.98,-132.68 335.12,-128.81 340.41,-137.99 344.98,-132.68"/>
<text text-anchor="middle" x="395.6" y="-153" font-family="Times,serif" font-size="10.00">belongs_to </text>
</g>
<!-- project&#45;&gt;changeset -->
<g id="edge7" class="edge">
<title>project&#45;&gt;changeset</title>
<path fill="none" stroke="black" d="M172.74,-381.05C171.87,-390.56 172.62,-402.06 179.1,-410 188.95,-422.08 224.17,-431.17 255.17,-437.05"/>
<polygon fill="black" stroke="black" points="254.59,-440.51 265.05,-438.85 255.84,-433.62 254.59,-440.51"/>
<text text-anchor="middle" x="201.1" y="-402" font-family="Times,serif" font-size="10.00">has_many </text>
</g>
<!-- project&#45;&gt;story -->
<g id="edge6" class="edge">
<title>project&#45;&gt;story</title>
<path fill="none" stroke="black" d="M171.86,-345.04C170.54,-335.55 170.79,-324.05 177.1,-316 188.43,-301.54 234.88,-291.64 269.04,-286.15"/>
<polygon fill="black" stroke="black" points="269.84,-289.57 279.19,-284.59 268.78,-282.65 269.84,-289.57"/>
<text text-anchor="middle" x="199.1" y="-319" font-family="Times,serif" font-size="10.00">has_many </text>
</g>
<!-- project&#45;&gt;user -->
<g id="edge5" class="edge">
<title>project&#45;&gt;user</title>
<path fill="none" stroke="black" d="M145.07,-354.13C87.38,-337.82 -27.64,-296.47 6.1,-233 58.86,-133.74 210.77,-117.12 281.74,-114.92"/>
<polygon fill="black" stroke="black" points="282.08,-118.41 292,-114.69 281.92,-111.42 282.08,-118.41"/>
<text text-anchor="middle" x="63.6" y="-236" font-family="Times,serif" font-size="10.00">has_and_belongs_to_many </text>
</g>
<!-- story&#45;&gt;changeset -->
<g id="edge11" class="edge">
<title>story&#45;&gt;changeset</title>
<path fill="none" stroke="black" d="M323.57,-294.84C336.27,-306.66 352.86,-324.91 360.1,-345 365.52,-360.05 365.52,-365.95 360.1,-381 354.49,-396.55 343.29,-411 332.62,-422.22"/>
<polygon fill="black" stroke="black" points="329.99,-419.9 325.4,-429.44 334.94,-424.85 329.99,-419.9"/>
<text text-anchor="middle" x="386.1" y="-360.5" font-family="Times,serif" font-size="10.00">has_many </text>
</g>
<!-- story&#45;&gt;note -->
<g id="edge12" class="edge">
<title>story&#45;&gt;note</title>
<path fill="none" stroke="black" d="M333.72,-273.23C351.78,-268.14 375.17,-259.12 391.1,-244 396.74,-238.63 401.11,-231.52 404.4,-224.5"/>
<polygon fill="black" stroke="black" points="407.68,-225.73 408.26,-215.15 401.21,-223.06 407.68,-225.73"/>
<text text-anchor="middle" x="421.1" y="-236" font-family="Times,serif" font-size="10.00">has_many </text>
</g>
<!-- story&#45;&gt;project -->
<g id="edge8" class="edge">
<title>story&#45;&gt;project</title>
<path fill="none" stroke="black" d="M285.83,-292.21C273.49,-298.87 257.74,-307.62 244.1,-316 230.71,-324.23 216.24,-333.9 204.11,-342.24"/>
<polygon fill="black" stroke="black" points="201.96,-339.48 195.73,-348.05 205.94,-345.23 201.96,-339.48"/>
<text text-anchor="middle" x="268.6" y="-319" font-family="Times,serif" font-size="10.00">belongs_to </text>
</g>
<!-- story&#45;&gt;user -->
<g id="edge9" class="edge">
<title>story&#45;&gt;user</title>
<path fill="none" stroke="black" d="M291.46,-264.62C275.55,-249.56 252.6,-226.54 248.1,-215 242.27,-200.1 241.59,-193.62 248.1,-179 256.86,-159.3 275.02,-143.11 290.78,-131.94"/>
<polygon fill="black" stroke="black" points="292.87,-134.75 299.21,-126.26 288.96,-128.95 292.87,-134.75"/>
<text text-anchor="middle" x="272.6" y="-194.5" font-family="Times,serif" font-size="10.00">belongs_to </text>
</g>
<!-- story&#45;&gt;user -->
<g id="edge10" class="edge">
<title>story&#45;&gt;user</title>
<path fill="none" stroke="black" d="M308.36,-261.76C310.44,-233.26 314.62,-176.12 317.11,-142.16"/>
<polygon fill="black" stroke="black" points="320.61,-142.24 317.85,-132.01 313.63,-141.73 320.61,-142.24"/>
<text text-anchor="middle" x="338.6" y="-194.5" font-family="Times,serif" font-size="10.00">belongs_to </text>
</g>
<!-- notes -->
<g id="node5" class="node">
<title>notes</title>
<ellipse fill="teal" stroke="black" cx="472.1" cy="-529" rx="29.5" ry="18"/>
<text text-anchor="middle" x="472.1" y="-525.3" font-family="Times,serif" font-size="14.00">notes</text>
</g>
<!-- notes&#45;&gt;changeset -->
<g id="edge16" class="edge">
<title>notes&#45;&gt;changeset</title>
<path fill="none" stroke="black" d="M449.84,-517.08C422.62,-503.71 376.16,-480.9 343.66,-464.95"/>
<polygon fill="black" stroke="black" points="344.99,-461.71 334.47,-460.44 341.91,-467.99 344.99,-461.71"/>
<text text-anchor="middle" x="421.1" y="-485" font-family="Times,serif" font-size="10.00">has_many </text>
</g>
<!-- notes&#45;&gt;note -->
<g id="edge17" class="edge">
<title>notes&#45;&gt;note</title>
<path fill="none" stroke="black" d="M472.1,-510.93C472.1,-494.54 472.1,-469.08 472.1,-447 472.1,-447 472.1,-447 472.1,-279 472.1,-254.48 454.21,-232.41 438.14,-217.52"/>
<polygon fill="black" stroke="black" points="440.31,-214.77 430.48,-210.81 435.69,-220.03 440.31,-214.77"/>
<text text-anchor="middle" x="494.1" y="-360.5" font-family="Times,serif" font-size="10.00">has_many </text>
</g>
<!-- notes&#45;&gt;project -->
<g id="edge13" class="edge">
<title>notes&#45;&gt;project</title>
<path fill="none" stroke="black" d="M442.57,-527.99C389.82,-526.55 277.98,-516.93 204.1,-464 181.04,-447.48 177.96,-437.25 170.1,-410 168.35,-403.95 168.23,-397.31 168.9,-391"/>
<polygon fill="black" stroke="black" points="172.4,-391.3 170.65,-380.86 165.5,-390.12 172.4,-391.3"/>
<text text-anchor="middle" x="228.6" y="-443.5" font-family="Times,serif" font-size="10.00">belongs_to </text>
</g>
<!-- notes&#45;&gt;user -->
<g id="edge14" class="edge">
<title>notes&#45;&gt;user</title>
<path fill="none" stroke="black" d="M492.92,-516.34C514.19,-502.72 544.1,-478.04 544.1,-447 544.1,-447 544.1,-447 544.1,-196 544.1,-156.38 419.01,-130.81 355.37,-120.37"/>
<polygon fill="black" stroke="black" points="355.77,-116.89 345.35,-118.76 354.67,-123.8 355.77,-116.89"/>
<text text-anchor="middle" x="568.6" y="-319" font-family="Times,serif" font-size="10.00">belongs_to </text>
</g>
<!-- notes&#45;&gt;user -->
<g id="edge15" class="edge">
<title>notes&#45;&gt;user</title>
<path fill="none" stroke="black" d="M500.55,-524.8C542.51,-518.33 616.1,-499.49 616.1,-447 616.1,-447 616.1,-447 616.1,-196 616.1,-142.68 435.65,-123.27 356.06,-117.3"/>
<polygon fill="black" stroke="black" points="356.2,-113.8 345.98,-116.58 355.7,-120.78 356.2,-113.8"/>
<text text-anchor="middle" x="640.6" y="-319" font-family="Times,serif" font-size="10.00">belongs_to </text>
</g>
<!-- user&#45;&gt;project -->
<g id="edge18" class="edge">
<title>user&#45;&gt;project</title>
<path fill="none" stroke="black" d="M294.93,-122.46C254.28,-136.49 173.59,-171.12 142.1,-233 124.9,-266.79 143.6,-310.11 159.32,-336.96"/>
<polygon fill="black" stroke="black" points="156.48,-339.03 164.69,-345.73 162.45,-335.37 156.48,-339.03"/>
<text text-anchor="middle" x="199.6" y="-236" font-family="Times,serif" font-size="10.00">has_and_belongs_to_many </text>
</g>
</g>
</svg>
