<?xml version="1.0" encoding="UTF-8" standalone="no"?>
<!DOCTYPE svg PUBLIC "-//W3C//DTD SVG 1.1//EN"
 "http://www.w3.org/Graphics/SVG/1.1/DTD/svg11.dtd">
<!-- Generated by graphviz version 2.44.0 (20200408.0750)
 -->
<!-- Title: G Pages: 1 -->
<svg width="1293pt" height="306pt"
 viewBox="0.00 0.00 1293.13 306.00" xmlns="http://www.w3.org/2000/svg" xmlns:xlink="http://www.w3.org/1999/xlink">
<g id="graph0" class="graph" transform="scale(1 1) rotate(0) translate(4 302)">
<title>G</title>
<polygon fill="white" stroke="transparent" points="-4,4 -4,-302 1289.13,-302 1289.13,4 -4,4"/>
<text text-anchor="start" x="432.07" y="-29" font-family="Droid Sans Mono" font-size="14.00"> </text>
<text text-anchor="start" x="436.07" y="-29" font-family="Droid Sans Mono" font-size="80.00">refinerycms</text>
<text text-anchor="start" x="849.07" y="-29" font-family="Droid Sans Mono" font-size="14.00"> </text>
<!-- Refinery::Core::BaseModel -->
<g id="node1" class="node">
<title>Refinery::Core::BaseModel</title>
<ellipse fill="#ffa630" stroke="#ffa630" cx="116.34" cy="-280" rx="116.18" ry="18"/>
<text text-anchor="middle" x="116.34" y="-276.3" font-family="Droid Sans Mono" font-size="14.00">Refinery::Core::BaseModel</text>
</g>
<!-- Refinery::&lt;%=::&lt;%= -->
<g id="node2" class="node">
<title>Refinery::&lt;%=::&lt;%=</title>
<ellipse fill="#ffa630" stroke="#ffa630" cx="341.34" cy="-280" rx="90.98" ry="18"/>
<text text-anchor="middle" x="341.34" y="-276.3" font-family="Droid Sans Mono" font-size="14.00">Refinery::&lt;%=::&lt;%=</text>
</g>
<!-- :Refinery::Image -->
<g id="node8" class="node">
<title>:Refinery::Image</title>
<ellipse fill="none" stroke="black" cx="500.34" cy="-197" rx="70.69" ry="18"/>
<text text-anchor="middle" x="500.34" y="-193.3" font-family="Times,serif" font-size="14.00">:Refinery::Image</text>
</g>
<!-- Refinery::&lt;%=::&lt;%=&#45;&gt;:Refinery::Image -->
<g id="edge1" class="edge">
<title>Refinery::&lt;%=::&lt;%=&#45;&gt;:Refinery::Image</title>
<path fill="none" stroke="#00a7e1" d="M372.75,-263C398.01,-250.13 433.64,-231.98 460.84,-218.12"/>
<polygon fill="#00a7e1" stroke="#00a7e1" points="462.75,-221.08 470.07,-213.42 459.57,-214.84 462.75,-221.08"/>
<text text-anchor="middle" x="455.34" y="-236" font-family="Droid Sans Mono" font-size="10.00">belongs_to</text>
</g>
<!-- :Refinery::Resource -->
<g id="node9" class="node">
<title>:Refinery::Resource</title>
<ellipse fill="none" stroke="black" cx="330.34" cy="-197" rx="81.49" ry="18"/>
<text text-anchor="middle" x="330.34" y="-193.3" font-family="Times,serif" font-size="14.00">:Refinery::Resource</text>
</g>
<!-- Refinery::&lt;%=::&lt;%=&#45;&gt;:Refinery::Resource -->
<g id="edge2" class="edge">
<title>Refinery::&lt;%=::&lt;%=&#45;&gt;:Refinery::Resource</title>
<path fill="none" stroke="#00a7e1" d="M339.01,-261.82C337.56,-251.19 335.68,-237.31 334.03,-225.2"/>
<polygon fill="#00a7e1" stroke="#00a7e1" points="337.48,-224.59 332.67,-215.15 330.55,-225.53 337.48,-224.59"/>
<text text-anchor="middle" x="361.34" y="-236" font-family="Droid Sans Mono" font-size="10.00">belongs_to</text>
</g>
<!-- Refinery::Image -->
<g id="node3" class="node">
<title>Refinery::Image</title>
<ellipse fill="#ffa630" stroke="#ffa630" cx="544.34" cy="-280" rx="73.39" ry="18"/>
<text text-anchor="middle" x="544.34" y="-276.3" font-family="Droid Sans Mono" font-size="14.00">Refinery::Image</text>
</g>
<!-- Refinery::Image&#45;&gt;:Refinery::Image -->
<g id="edge3" class="edge">
<title>Refinery::Image&#45;&gt;:Refinery::Image</title>
<path fill="none" stroke="#00a7e1" d="M507.88,-264.18C499.69,-259.05 492.05,-252.41 487.34,-244 483.96,-237.97 484.16,-230.99 485.97,-224.32"/>
<polygon fill="#00a7e1" stroke="#00a7e1" points="489.26,-225.51 489.53,-214.91 482.71,-223.03 489.26,-225.51"/>
<text text-anchor="middle" x="510.34" y="-236" font-family="Droid Sans Mono" font-size="10.00">has_many</text>
</g>
<!-- Refinery::Image&#45;&gt;:Refinery::Image -->
<g id="edge4" class="edge">
<title>Refinery::Image&#45;&gt;:Refinery::Image</title>
<path fill="none" stroke="#00a7e1" d="M542.37,-261.63C540.82,-252.67 538.1,-241.81 533.34,-233 531.29,-229.2 528.71,-225.5 525.92,-222.03"/>
<polygon fill="#00a7e1" stroke="#00a7e1" points="528.37,-219.52 519.12,-214.37 523.14,-224.17 528.37,-219.52"/>
<text text-anchor="middle" x="562.34" y="-236" font-family="Droid Sans Mono" font-size="10.00">belongs_to</text>
</g>
<!-- Refinery::ThumbnailDimensions -->
<g id="node4" class="node">
<title>Refinery::ThumbnailDimensions</title>
<ellipse fill="#ffa630" stroke="#ffa630" cx="771.34" cy="-280" rx="135.68" ry="18"/>
<text text-anchor="middle" x="771.34" y="-276.3" font-family="Droid Sans Mono" font-size="14.00">Refinery::ThumbnailDimensions</text>
</g>
<!-- Refinery::Page -->
<g id="node5" class="node">
<title>Refinery::Page</title>
<ellipse fill="#ffa630" stroke="#ffa630" cx="1010.34" cy="-197" rx="68.79" ry="18"/>
<text text-anchor="middle" x="1010.34" y="-193.3" font-family="Droid Sans Mono" font-size="14.00">Refinery::Page</text>
</g>
<!-- Part -->
<g id="node10" class="node">
<title>Part</title>
<ellipse fill="none" stroke="black" cx="1010.34" cy="-114" rx="27" ry="18"/>
<text text-anchor="middle" x="1010.34" y="-110.3" font-family="Times,serif" font-size="14.00">Part</text>
</g>
<!-- Refinery::Page&#45;&gt;Part -->
<g id="edge5" class="edge">
<title>Refinery::Page&#45;&gt;Part</title>
<path fill="none" stroke="#00a7e1" d="M1010.34,-178.82C1010.34,-168.19 1010.34,-154.31 1010.34,-142.2"/>
<polygon fill="#00a7e1" stroke="#00a7e1" points="1013.84,-142.15 1010.34,-132.15 1006.84,-142.15 1013.84,-142.15"/>
<text text-anchor="middle" x="1033.34" y="-153" font-family="Droid Sans Mono" font-size="10.00">has_many</text>
</g>
<!-- Refinery::PagePart -->
<g id="node6" class="node">
<title>Refinery::PagePart</title>
<ellipse fill="#ffa630" stroke="#ffa630" cx="1010.34" cy="-280" rx="85.29" ry="18"/>
<text text-anchor="middle" x="1010.34" y="-276.3" font-family="Droid Sans Mono" font-size="14.00">Refinery::PagePart</text>
</g>
<!-- Refinery::PagePart&#45;&gt;Refinery::Page -->
<g id="edge6" class="edge">
<title>Refinery::PagePart&#45;&gt;Refinery::Page</title>
<path fill="none" stroke="#00a7e1" d="M1010.34,-261.82C1010.34,-251.19 1010.34,-237.31 1010.34,-225.2"/>
<polygon fill="#00a7e1" stroke="#00a7e1" points="1013.84,-225.15 1010.34,-215.15 1006.84,-225.15 1013.84,-225.15"/>
<text text-anchor="middle" x="1034.34" y="-236" font-family="Droid Sans Mono" font-size="10.00">belongs_to</text>
</g>
<!-- Refinery::Resource -->
<g id="node7" class="node">
<title>Refinery::Resource</title>
<ellipse fill="#ffa630" stroke="#ffa630" cx="1199.34" cy="-280" rx="85.59" ry="18"/>
<text text-anchor="middle" x="1199.34" y="-276.3" font-family="Droid Sans Mono" font-size="14.00">Refinery::Resource</text>
</g>
</g>
</svg>
