<?xml version="1.0" encoding="UTF-8" standalone="no"?>
<!DOCTYPE svg PUBLIC "-//W3C//DTD SVG 1.1//EN"
 "http://www.w3.org/Graphics/SVG/1.1/DTD/svg11.dtd">
<!-- Generated by graphviz version 2.44.0 (20200408.0750)
 -->
<!-- Title: G Pages: 1 -->
<svg width="637pt" height="389pt"
 viewBox="0.00 0.00 636.94 389.00" xmlns="http://www.w3.org/2000/svg" xmlns:xlink="http://www.w3.org/1999/xlink">
<g id="graph0" class="graph" transform="scale(1 1) rotate(0) translate(4 385)">
<title>G</title>
<polygon fill="white" stroke="transparent" points="-4,4 -4,-385 632.94,-385 632.94,4 -4,4"/>
<text text-anchor="start" x="183.47" y="-29" font-family="Times,serif" font-size="14.00"> </text>
<text text-anchor="start" x="187.47" y="-29" font-family="Times,serif" font-size="80.00">fulcrum</text>
<text text-anchor="start" x="441.47" y="-29" font-family="Times,serif" font-size="14.00"> </text>
<!-- changeset -->
<g id="node1" class="node">
<title>changeset</title>
<ellipse fill="teal" stroke="black" cx="217.6" cy="-363" rx="45.49" ry="18"/>
<text text-anchor="middle" x="217.6" y="-359.3" font-family="Times,serif" font-size="14.00">changeset</text>
</g>
<!-- project -->
<g id="node3" class="node">
<title>project</title>
<ellipse fill="teal" stroke="black" cx="123.6" cy="-197" rx="35.19" ry="18"/>
<text text-anchor="middle" x="123.6" y="-193.3" font-family="Times,serif" font-size="14.00">project</text>
</g>
<!-- changeset&#45;&gt;project -->
<g id="edge1" class="edge">
<title>changeset&#45;&gt;project</title>
<path fill="none" stroke="black" d="M207.34,-345.36C193.43,-322.66 168,-280.63 147.6,-244 144,-237.55 140.25,-230.51 136.81,-223.93"/>
<polygon fill="black" stroke="black" points="139.75,-222 132.05,-214.72 133.53,-225.21 139.75,-222"/>
<text text-anchor="middle" x="186.6" y="-277.5" font-family="Times,serif" font-size="10.00">xxx</text>
</g>
<!-- story -->
<g id="node4" class="node">
<title>story</title>
<ellipse fill="teal" stroke="black" cx="286.6" cy="-280" rx="28.7" ry="18"/>
<text text-anchor="middle" x="286.6" y="-276.3" font-family="Times,serif" font-size="14.00">story</text>
</g>
<!-- changeset&#45;&gt;story -->
<g id="edge2" class="edge">
<title>changeset&#45;&gt;story</title>
<path fill="none" stroke="black" d="M231.56,-345.61C241.74,-333.66 255.66,-317.32 266.95,-304.06"/>
<polygon fill="black" stroke="black" points="269.77,-306.15 273.59,-296.27 264.44,-301.61 269.77,-306.15"/>
<text text-anchor="middle" x="264.6" y="-319" font-family="Times,serif" font-size="10.00">xxx</text>
</g>
<!-- note -->
<g id="node2" class="node">
<title>note</title>
<ellipse fill="teal" stroke="black" cx="340.6" cy="-363" rx="27" ry="18"/>
<text text-anchor="middle" x="340.6" y="-359.3" font-family="Times,serif" font-size="14.00">note</text>
</g>
<!-- note&#45;&gt;story -->
<g id="edge4" class="edge">
<title>note&#45;&gt;story</title>
<path fill="none" stroke="black" d="M330.19,-346.38C322.47,-334.8 311.79,-318.79 302.94,-305.51"/>
<polygon fill="black" stroke="black" points="305.62,-303.23 297.16,-296.85 299.8,-307.11 305.62,-303.23"/>
<text text-anchor="middle" x="325.6" y="-319" font-family="Times,serif" font-size="10.00">xxx</text>
</g>
<!-- user -->
<g id="node6" class="node">
<title>user</title>
<ellipse fill="teal" stroke="black" cx="475.6" cy="-280" rx="27" ry="18"/>
<text text-anchor="middle" x="475.6" y="-276.3" font-family="Times,serif" font-size="14.00">user</text>
</g>
<!-- note&#45;&gt;user -->
<g id="edge3" class="edge">
<title>note&#45;&gt;user</title>
<path fill="none" stroke="black" d="M359.94,-350.39C382.9,-336.62 421.36,-313.54 447.57,-297.81"/>
<polygon fill="black" stroke="black" points="449.52,-300.73 456.29,-292.58 445.92,-294.73 449.52,-300.73"/>
<text text-anchor="middle" x="424.6" y="-319" font-family="Times,serif" font-size="10.00">xxx</text>
</g>
<!-- users -->
<g id="node7" class="node">
<title>users</title>
<ellipse fill="none" stroke="black" cx="28.6" cy="-114" rx="28.7" ry="18"/>
<text text-anchor="middle" x="28.6" y="-110.3" font-family="Times,serif" font-size="14.00">users</text>
</g>
<!-- project&#45;&gt;users -->
<g id="edge5" class="edge">
<title>project&#45;&gt;users</title>
<path fill="none" stroke="black" d="M106.17,-181.14C91.17,-168.35 69.36,-149.75 52.68,-135.53"/>
<polygon fill="black" stroke="black" points="54.84,-132.78 44.96,-128.95 50.3,-138.1 54.84,-132.78"/>
<text text-anchor="middle" x="90.6" y="-153" font-family="Times,serif" font-size="10.00">xxx</text>
</g>
<!-- stories -->
<g id="node8" class="node">
<title>stories</title>
<ellipse fill="none" stroke="black" cx="108.6" cy="-114" rx="33.6" ry="18"/>
<text text-anchor="middle" x="108.6" y="-110.3" font-family="Times,serif" font-size="14.00">stories</text>
</g>
<!-- project&#45;&gt;stories -->
<g id="edge6" class="edge">
<title>project&#45;&gt;stories</title>
<path fill="none" stroke="black" d="M120.42,-178.82C118.45,-168.19 115.88,-154.31 113.64,-142.2"/>
<polygon fill="black" stroke="black" points="117.04,-141.35 111.77,-132.15 110.15,-142.62 117.04,-141.35"/>
<text text-anchor="middle" x="125.6" y="-153" font-family="Times,serif" font-size="10.00">xxx</text>
</g>
<!-- changesets -->
<g id="node9" class="node">
<title>changesets</title>
<ellipse fill="none" stroke="black" cx="209.6" cy="-114" rx="48.99" ry="18"/>
<text text-anchor="middle" x="209.6" y="-110.3" font-family="Times,serif" font-size="14.00">changesets</text>
</g>
<!-- project&#45;&gt;changesets -->
<g id="edge7" class="edge">
<title>project&#45;&gt;changesets</title>
<path fill="none" stroke="black" d="M136.6,-180.01C144.35,-170.85 154.6,-159.35 164.6,-150 169.44,-145.47 174.82,-140.92 180.14,-136.67"/>
<polygon fill="black" stroke="black" points="182.61,-139.18 188.34,-130.27 178.3,-133.66 182.61,-139.18"/>
<text text-anchor="middle" x="172.6" y="-153" font-family="Times,serif" font-size="10.00">xxx</text>
</g>
<!-- story&#45;&gt;project -->
<g id="edge8" class="edge">
<title>story&#45;&gt;project</title>
<path fill="none" stroke="black" d="M258.62,-275.52C232.64,-271.29 193.7,-262.29 164.6,-244 155.59,-238.34 147.39,-230.13 140.74,-222.22"/>
<polygon fill="black" stroke="black" points="143.34,-219.86 134.39,-214.19 137.84,-224.2 143.34,-219.86"/>
<text text-anchor="middle" x="172.6" y="-236" font-family="Times,serif" font-size="10.00">xxx</text>
</g>
<!-- story&#45;&gt;changesets -->
<g id="edge11" class="edge">
<title>story&#45;&gt;changesets</title>
<path fill="none" stroke="black" d="M263.84,-268.79C243.84,-258.43 216.04,-240.31 203.6,-215 192.37,-192.17 195.93,-162.78 201.05,-141.78"/>
<polygon fill="black" stroke="black" points="204.48,-142.49 203.71,-131.93 197.72,-140.67 204.48,-142.49"/>
<text text-anchor="middle" x="211.6" y="-194.5" font-family="Times,serif" font-size="10.00">xxx</text>
</g>
<!-- requested_by -->
<g id="node10" class="node">
<title>requested_by</title>
<ellipse fill="none" stroke="black" cx="286.6" cy="-197" rx="57.69" ry="18"/>
<text text-anchor="middle" x="286.6" y="-193.3" font-family="Times,serif" font-size="14.00">requested_by</text>
</g>
<!-- story&#45;&gt;requested_by -->
<g id="edge9" class="edge">
<title>story&#45;&gt;requested_by</title>
<path fill="none" stroke="black" d="M286.6,-261.82C286.6,-251.19 286.6,-237.31 286.6,-225.2"/>
<polygon fill="black" stroke="black" points="290.1,-225.15 286.6,-215.15 283.1,-225.15 290.1,-225.15"/>
<text text-anchor="middle" x="294.6" y="-236" font-family="Times,serif" font-size="10.00">xxx</text>
</g>
<!-- owned_by -->
<g id="node11" class="node">
<title>owned_by</title>
<ellipse fill="none" stroke="black" cx="409.6" cy="-197" rx="47.39" ry="18"/>
<text text-anchor="middle" x="409.6" y="-193.3" font-family="Times,serif" font-size="14.00">owned_by</text>
</g>
<!-- story&#45;&gt;owned_by -->
<g id="edge10" class="edge">
<title>story&#45;&gt;owned_by</title>
<path fill="none" stroke="black" d="M305.82,-266.34C325.23,-253.56 355.53,-233.6 378.39,-218.55"/>
<polygon fill="black" stroke="black" points="380.32,-221.47 386.75,-213.05 376.47,-215.62 380.32,-221.47"/>
<text text-anchor="middle" x="363.6" y="-236" font-family="Times,serif" font-size="10.00">xxx</text>
</g>
<!-- notes -->
<g id="node12" class="node">
<title>notes</title>
<ellipse fill="none" stroke="black" cx="504.6" cy="-197" rx="29.5" ry="18"/>
<text text-anchor="middle" x="504.6" y="-193.3" font-family="Times,serif" font-size="14.00">notes</text>
</g>
<!-- story&#45;&gt;notes -->
<g id="edge12" class="edge">
<title>story&#45;&gt;notes</title>
<path fill="none" stroke="black" d="M311.41,-270.72C346.14,-259 411.14,-236.58 465.6,-215 467.8,-214.13 470.06,-213.21 472.33,-212.26"/>
<polygon fill="black" stroke="black" points="473.77,-215.46 481.61,-208.33 471.04,-209.01 473.77,-215.46"/>
<text text-anchor="middle" x="425.6" y="-236" font-family="Times,serif" font-size="10.00">xxx</text>
</g>
<!-- story_observer -->
<g id="node5" class="node">
<title>story_observer</title>
<ellipse fill="teal" stroke="black" cx="448.6" cy="-363" rx="63.09" ry="18"/>
<text text-anchor="middle" x="448.6" y="-359.3" font-family="Times,serif" font-size="14.00">story_observer</text>
</g>
<!-- projects -->
<g id="node13" class="node">
<title>projects</title>
<ellipse fill="none" stroke="black" cx="590.6" cy="-197" rx="38.19" ry="18"/>
<text text-anchor="middle" x="590.6" y="-193.3" font-family="Times,serif" font-size="14.00">projects</text>
</g>
<!-- user&#45;&gt;projects -->
<g id="edge13" class="edge">
<title>user&#45;&gt;projects</title>
<path fill="none" stroke="black" d="M493.57,-266.34C511.78,-253.52 540.24,-233.47 561.64,-218.4"/>
<polygon fill="black" stroke="black" points="563.88,-221.1 570.04,-212.48 559.85,-215.38 563.88,-221.1"/>
<text text-anchor="middle" x="547.6" y="-236" font-family="Times,serif" font-size="10.00">xxx</text>
</g>
</g>
</svg>
