<?xml version="1.0" encoding="UTF-8" standalone="no"?>
<!DOCTYPE svg PUBLIC "-//W3C//DTD SVG 1.1//EN"
 "http://www.w3.org/Graphics/SVG/1.1/DTD/svg11.dtd">
<!-- Generated by graphviz version 2.44.0 (20200408.0750)
 -->
<!-- Title: G Pages: 1 -->
<svg width="496pt" height="472pt"
 viewBox="0.00 0.00 495.89 472.00" xmlns="http://www.w3.org/2000/svg" xmlns:xlink="http://www.w3.org/1999/xlink">
<g id="graph0" class="graph" transform="scale(1 1) rotate(0) translate(4 468)">
<title>G</title>
<polygon fill="white" stroke="transparent" points="-4,4 -4,-468 491.89,-468 491.89,4 -4,4"/>
<text text-anchor="start" x="108.45" y="-29" font-family="Droid Sans Mono" font-size="14.00"> </text>
<text text-anchor="start" x="112.45" y="-29" font-family="Droid Sans Mono" font-size="80.00">fulcrum</text>
<text text-anchor="start" x="375.45" y="-29" font-family="Droid Sans Mono" font-size="14.00"> </text>
<!-- changesets -->
<g id="node1" class="node">
<title>changesets</title>
<ellipse fill="#ffa630" stroke="#ffa630" cx="281.3" cy="-446" rx="53.09" ry="18"/>
<text text-anchor="middle" x="281.3" y="-442.3" font-family="Droid Sans Mono" font-size="14.00">Changeset</text>
</g>
<!-- projects -->
<g id="node3" class="node">
<title>projects</title>
<ellipse fill="#ffa630" stroke="#ffa630" cx="180.3" cy="-363" rx="38.19" ry="18"/>
<text text-anchor="middle" x="180.3" y="-359.3" font-family="Droid Sans Mono" font-size="14.00">Project</text>
</g>
<!-- changesets&#45;&gt;projects -->
<g id="edge1" class="edge">
<title>changesets&#45;&gt;projects</title>
<path fill="none" stroke="#00a7e1" d="M231.37,-439.55C212.59,-434.82 192.97,-426.08 181.3,-410 177.42,-404.65 175.94,-397.96 175.72,-391.35"/>
<polygon fill="#00a7e1" stroke="#00a7e1" points="179.22,-391.4 176.23,-381.24 172.23,-391.05 179.22,-391.4"/>
<text text-anchor="middle" x="205.3" y="-402" font-family="Droid Sans Mono" font-size="10.00">belongs_to</text>
</g>
<!-- stories -->
<g id="node4" class="node">
<title>stories</title>
<ellipse fill="#ffa630" stroke="#ffa630" cx="312.3" cy="-280" rx="31.4" ry="18"/>
<text text-anchor="middle" x="312.3" y="-276.3" font-family="Droid Sans Mono" font-size="14.00">Story</text>
</g>
<!-- changesets&#45;&gt;stories -->
<g id="edge2" class="edge">
<title>changesets&#45;&gt;stories</title>
<path fill="none" stroke="#00a7e1" d="M287.79,-428.1C289.79,-422.41 291.84,-415.99 293.3,-410 301.7,-375.39 306.95,-334.6 309.75,-308.3"/>
<polygon fill="#00a7e1" stroke="#00a7e1" points="313.24,-308.61 310.77,-298.3 306.27,-307.9 313.24,-308.61"/>
<text text-anchor="middle" x="328.3" y="-360.5" font-family="Droid Sans Mono" font-size="10.00">belongs_to</text>
</g>
<!-- notes -->
<g id="node2" class="node">
<title>notes</title>
<ellipse fill="#ffa630" stroke="#ffa630" cx="407.3" cy="-197" rx="29.5" ry="18"/>
<text text-anchor="middle" x="407.3" y="-193.3" font-family="Droid Sans Mono" font-size="14.00">Note</text>
</g>
<!-- notes&#45;&gt;stories -->
<g id="edge4" class="edge">
<title>notes&#45;&gt;stories</title>
<path fill="none" stroke="#00a7e1" d="M405.22,-215.03C403.27,-224.54 399.52,-236.04 392.3,-244 381.37,-256.04 365.56,-264.14 350.87,-269.48"/>
<polygon fill="#00a7e1" stroke="#00a7e1" points="349.36,-266.29 340.96,-272.75 351.55,-272.94 349.36,-266.29"/>
<text text-anchor="middle" x="423.3" y="-236" font-family="Droid Sans Mono" font-size="10.00">belongs_to</text>
</g>
<!-- users -->
<g id="node6" class="node">
<title>users</title>
<ellipse fill="#ffa630" stroke="#ffa630" cx="228.3" cy="-114" rx="29.5" ry="18"/>
<text text-anchor="middle" x="228.3" y="-110.3" font-family="Droid Sans Mono" font-size="14.00">User</text>
</g>
<!-- notes&#45;&gt;users -->
<g id="edge3" class="edge">
<title>notes&#45;&gt;users</title>
<path fill="none" stroke="#00a7e1" d="M387.5,-183.47C371.41,-173.6 347.91,-159.9 326.3,-150 306.11,-140.75 282.72,-132.31 263.85,-126.04"/>
<polygon fill="#00a7e1" stroke="#00a7e1" points="264.75,-122.65 254.16,-122.88 262.58,-129.31 264.75,-122.65"/>
<text text-anchor="middle" x="370.3" y="-153" font-family="Droid Sans Mono" font-size="10.00">belongs_to</text>
</g>
<!-- projects&#45;&gt;changesets -->
<g id="edge7" class="edge">
<title>projects&#45;&gt;changesets</title>
<path fill="none" stroke="#00a7e1" d="M201.15,-378.18C209.99,-384.37 220.3,-391.84 229.3,-399 238.3,-406.17 247.82,-414.39 256.22,-421.88"/>
<polygon fill="#00a7e1" stroke="#00a7e1" points="254.11,-424.68 263.88,-428.78 258.79,-419.48 254.11,-424.68"/>
<text text-anchor="middle" x="266.3" y="-402" font-family="Droid Sans Mono" font-size="10.00">has_many</text>
</g>
<!-- projects&#45;&gt;stories -->
<g id="edge6" class="edge">
<title>projects&#45;&gt;stories</title>
<path fill="none" stroke="#00a7e1" d="M176.06,-345.03C174.73,-335.54 174.98,-324.04 181.3,-316 192.5,-301.74 237.66,-291.97 271.85,-286.45"/>
<polygon fill="#00a7e1" stroke="#00a7e1" points="272.71,-289.85 282.06,-284.87 271.65,-282.94 272.71,-289.85"/>
<text text-anchor="middle" x="204.3" y="-319" font-family="Droid Sans Mono" font-size="10.00">has_many</text>
</g>
<!-- projects&#45;&gt;users -->
<g id="edge5" class="edge">
<title>projects&#45;&gt;users</title>
<path fill="none" stroke="#00a7e1" d="M147.13,-353.88C87.59,-337.53 -28.15,-296.67 6.3,-233 43.49,-164.26 137.27,-133.95 190.27,-121.94"/>
<polygon fill="#00a7e1" stroke="#00a7e1" points="191.26,-125.31 200.3,-119.78 189.79,-118.47 191.26,-125.31"/>
<text text-anchor="middle" x="65.8" y="-236" font-family="Droid Sans Mono" font-size="10.00">has_and_belongs_to_many</text>
</g>
<!-- stories&#45;&gt;changesets -->
<g id="edge11" class="edge">
<title>stories&#45;&gt;changesets</title>
<path fill="none" stroke="#00a7e1" d="M327.2,-295.98C344.83,-315.6 370.12,-351.03 356.3,-381 347.95,-399.1 331.68,-413.97 316.42,-424.81"/>
<polygon fill="#00a7e1" stroke="#00a7e1" points="314.44,-421.92 308.1,-430.41 318.35,-427.73 314.44,-421.92"/>
<text text-anchor="middle" x="382.3" y="-360.5" font-family="Droid Sans Mono" font-size="10.00">has_many</text>
</g>
<!-- stories&#45;&gt;notes -->
<g id="edge12" class="edge">
<title>stories&#45;&gt;notes</title>
<path fill="none" stroke="#00a7e1" d="M320.56,-262.19C325.81,-252.76 333.31,-241.26 342.3,-233 351.49,-224.55 363.11,-217.46 373.96,-211.92"/>
<polygon fill="#00a7e1" stroke="#00a7e1" points="375.74,-214.95 383.23,-207.45 372.7,-208.64 375.74,-214.95"/>
<text text-anchor="middle" x="365.3" y="-236" font-family="Droid Sans Mono" font-size="10.00">has_many</text>
</g>
<!-- stories&#45;&gt;projects -->
<g id="edge8" class="edge">
<title>stories&#45;&gt;projects</title>
<path fill="none" stroke="#00a7e1" d="M290.28,-292.95C278.34,-299.56 263.38,-308.02 250.3,-316 236.81,-324.23 222.16,-333.75 209.77,-342"/>
<polygon fill="#00a7e1" stroke="#00a7e1" points="207.56,-339.27 201.2,-347.74 211.45,-345.08 207.56,-339.27"/>
<text text-anchor="middle" x="274.3" y="-319" font-family="Droid Sans Mono" font-size="10.00">belongs_to</text>
</g>
<!-- stories&#45;&gt;users -->
<g id="edge9" class="edge">
<title>stories&#45;&gt;users</title>
<path fill="none" stroke="#00a7e1" d="M298.33,-263.42C289.74,-254.18 278.31,-242.47 267.3,-233 256.92,-224.07 249.37,-226.72 242.3,-215 229.05,-193.04 226.37,-163.53 226.51,-142.26"/>
<polygon fill="#00a7e1" stroke="#00a7e1" points="230,-142.36 226.78,-132.26 223.01,-142.16 230,-142.36"/>
<text text-anchor="middle" x="266.3" y="-194.5" font-family="Droid Sans Mono" font-size="10.00">belongs_to</text>
</g>
<!-- stories&#45;&gt;users -->
<g id="edge10" class="edge">
<title>stories&#45;&gt;users</title>
<path fill="none" stroke="#00a7e1" d="M311.36,-261.74C309.61,-240.98 304.6,-205.62 290.3,-179 281.26,-162.19 266.53,-146.71 253.7,-135.19"/>
<polygon fill="#00a7e1" stroke="#00a7e1" points="255.87,-132.45 246.02,-128.55 251.3,-137.74 255.87,-132.45"/>
<text text-anchor="middle" x="327.3" y="-194.5" font-family="Droid Sans Mono" font-size="10.00">belongs_to</text>
</g>
<!-- story_observers -->
<g id="node5" class="node">
<title>story_observers</title>
<ellipse fill="#ffa630" stroke="#ffa630" cx="420.3" cy="-446" rx="67.69" ry="18"/>
<text text-anchor="middle" x="420.3" y="-442.3" font-family="Droid Sans Mono" font-size="14.00">StoryObserver</text>
</g>
<!-- users&#45;&gt;projects -->
<g id="edge13" class="edge">
<title>users&#45;&gt;projects</title>
<path fill="none" stroke="#00a7e1" d="M213.11,-129.66C192.81,-150.42 157.85,-190.6 144.3,-233 132.89,-268.7 150.12,-310.59 164.45,-336.72"/>
<polygon fill="#00a7e1" stroke="#00a7e1" points="161.53,-338.66 169.54,-345.59 167.6,-335.18 161.53,-338.66"/>
<text text-anchor="middle" x="203.8" y="-236" font-family="Droid Sans Mono" font-size="10.00">has_and_belongs_to_many</text>
</g>
</g>
</svg>
