<?xml version="1.0" encoding="UTF-8" standalone="no"?>
<!DOCTYPE svg PUBLIC "-//W3C//DTD SVG 1.1//EN"
 "http://www.w3.org/Graphics/SVG/1.1/DTD/svg11.dtd">
<!-- Generated by graphviz version 2.44.0 (20200408.0750)
 -->
<!-- Title: G Pages: 1 -->
<svg width="2016pt" height="804pt"
 viewBox="0.00 0.00 2016.00 804.00" xmlns="http://www.w3.org/2000/svg" xmlns:xlink="http://www.w3.org/1999/xlink">
<g id="graph0" class="graph" transform="scale(1 1) rotate(0) translate(4 800)">
<title>G</title>
<polygon fill="white" stroke="transparent" points="-4,4 -4,-800 2012,-800 2012,4 -4,4"/>
<text text-anchor="start" x="860" y="-29" font-family="Times,serif" font-size="14.00"> </text>
<text text-anchor="start" x="864" y="-29" font-family="Times,serif" font-size="80.00">citizenry</text>
<text text-anchor="start" x="1144" y="-29" font-family="Times,serif" font-size="14.00"> </text>
<!-- authentication -->
<g id="node1" class="node">
<title>authentication</title>
<ellipse fill="teal" stroke="black" cx="1214" cy="-778" rx="60.39" ry="18"/>
<text text-anchor="middle" x="1214" y="-774.3" font-family="Times,serif" font-size="14.00">authentication</text>
</g>
<!-- user -->
<g id="node15" class="node">
<title>user</title>
<ellipse fill="teal" stroke="black" cx="1214" cy="-695" rx="27" ry="18"/>
<text text-anchor="middle" x="1214" y="-691.3" font-family="Times,serif" font-size="14.00">user</text>
</g>
<!-- authentication&#45;&gt;user -->
<g id="edge1" class="edge">
<title>authentication&#45;&gt;user</title>
<path fill="none" stroke="black" d="M1192.27,-761.13C1183.63,-752.75 1176.65,-741.96 1181,-731 1183.08,-725.76 1186.36,-720.85 1190.06,-716.46"/>
<polygon fill="black" stroke="black" points="1192.64,-718.82 1197,-709.16 1187.57,-713.99 1192.64,-718.82"/>
<text text-anchor="middle" x="1204" y="-734" font-family="Times,serif" font-size="10.00">belongs_to</text>
</g>
<!-- company -->
<g id="node2" class="node">
<title>company</title>
<ellipse fill="teal" stroke="black" cx="970" cy="-529" rx="43.59" ry="18"/>
<text text-anchor="middle" x="970" y="-525.3" font-family="Times,serif" font-size="14.00">company</text>
</g>
<!-- company_project -->
<g id="node3" class="node">
<title>company_project</title>
<ellipse fill="teal" stroke="black" cx="1293" cy="-446" rx="72.29" ry="18"/>
<text text-anchor="middle" x="1293" y="-442.3" font-family="Times,serif" font-size="14.00">company_project</text>
</g>
<!-- company&#45;&gt;company_project -->
<g id="edge2" class="edge">
<title>company&#45;&gt;company_project</title>
<path fill="none" stroke="black" d="M1006.47,-519.01C1030.52,-512.69 1062.53,-503.49 1090,-493 1100.58,-488.96 1102.24,-485.54 1113,-482 1153.41,-468.71 1165.25,-472.12 1207,-464 1213.98,-462.64 1221.29,-461.21 1228.56,-459.78"/>
<polygon fill="black" stroke="black" points="1229.28,-463.21 1238.42,-457.84 1227.93,-456.34 1229.28,-463.21"/>
<text text-anchor="middle" x="1134" y="-485" font-family="Times,serif" font-size="10.00">has_many</text>
</g>
<!-- employment -->
<g id="node5" class="node">
<title>employment</title>
<ellipse fill="teal" stroke="black" cx="1439" cy="-446" rx="55.79" ry="18"/>
<text text-anchor="middle" x="1439" y="-442.3" font-family="Times,serif" font-size="14.00">employment</text>
</g>
<!-- company&#45;&gt;employment -->
<g id="edge6" class="edge">
<title>company&#45;&gt;employment</title>
<path fill="none" stroke="black" d="M1011.55,-523.27C1049.56,-518.21 1107.01,-508.72 1155,-493 1165.77,-489.47 1167.08,-485.01 1178,-482 1262.34,-458.76 1287.84,-479.12 1374,-464 1378.78,-463.16 1383.71,-462.15 1388.63,-461.04"/>
<polygon fill="black" stroke="black" points="1389.74,-464.37 1398.66,-458.65 1388.12,-457.56 1389.74,-464.37"/>
<text text-anchor="middle" x="1199" y="-485" font-family="Times,serif" font-size="10.00">has_many</text>
</g>
<!-- group -->
<g id="node6" class="node">
<title>group</title>
<ellipse fill="teal" stroke="black" cx="797" cy="-197" rx="31.4" ry="18"/>
<text text-anchor="middle" x="797" y="-193.3" font-family="Times,serif" font-size="14.00">group</text>
</g>
<!-- company&#45;&gt;group -->
<g id="edge5" class="edge">
<title>company&#45;&gt;group</title>
<path fill="none" stroke="black" stroke-dasharray="5,2" d="M926.24,-527.46C882.26,-524.18 817.56,-511.08 793,-464 761.74,-404.07 747.26,-382.73 758,-316 763.25,-283.38 776.17,-247.57 785.71,-224.05"/>
<polygon fill="black" stroke="black" points="788.96,-225.35 789.56,-214.77 782.5,-222.67 788.96,-225.35"/>
<text text-anchor="middle" x="835.5" y="-360.5" font-family="Times,serif" font-size="10.00">has_many group through sponsorships</text>
</g>
<!-- person -->
<g id="node9" class="node">
<title>person</title>
<ellipse fill="teal" stroke="black" cx="1214" cy="-612" rx="34.39" ry="18"/>
<text text-anchor="middle" x="1214" y="-608.3" font-family="Times,serif" font-size="14.00">person</text>
</g>
<!-- company&#45;&gt;person -->
<g id="edge7" class="edge">
<title>company&#45;&gt;person</title>
<path fill="none" stroke="black" stroke-dasharray="5,2" d="M1007.85,-537.95C1034.78,-544.1 1071.62,-553.48 1103,-565 1113.64,-568.9 1115.62,-571.46 1126,-576 1142.72,-583.31 1161.48,-590.86 1177.37,-597.07"/>
<polygon fill="black" stroke="black" points="1176.26,-600.39 1186.84,-600.75 1178.79,-593.87 1176.26,-600.39"/>
<text text-anchor="middle" x="1207.5" y="-568" font-family="Times,serif" font-size="10.00">has_many person through employments</text>
</g>
<!-- project -->
<g id="node10" class="node">
<title>project</title>
<ellipse fill="teal" stroke="black" cx="1024" cy="-363" rx="35.19" ry="18"/>
<text text-anchor="middle" x="1024" y="-359.3" font-family="Times,serif" font-size="14.00">project</text>
</g>
<!-- company&#45;&gt;project -->
<g id="edge3" class="edge">
<title>company&#45;&gt;project</title>
<path fill="none" stroke="black" stroke-dasharray="5,2" d="M931.13,-520.88C871.09,-508.16 766.43,-478.05 804,-428 825.17,-399.79 922.6,-379.95 980.46,-370.42"/>
<polygon fill="black" stroke="black" points="981.11,-373.86 990.43,-368.82 980,-366.95 981.11,-373.86"/>
<text text-anchor="middle" x="896" y="-443.5" font-family="Times,serif" font-size="10.00">has_many project through company_projects</text>
</g>
<!-- sponsorship -->
<g id="node14" class="node">
<title>sponsorship</title>
<ellipse fill="teal" stroke="black" cx="485" cy="-114" rx="52.79" ry="18"/>
<text text-anchor="middle" x="485" y="-110.3" font-family="Times,serif" font-size="14.00">sponsorship</text>
</g>
<!-- company&#45;&gt;sponsorship -->
<g id="edge4" class="edge">
<title>company&#45;&gt;sponsorship</title>
<path fill="none" stroke="black" d="M926.75,-526.69C738.52,-520.7 0,-494.18 0,-447 0,-447 0,-447 0,-196 0,-153.56 292.67,-128.18 423.31,-118.96"/>
<polygon fill="black" stroke="black" points="423.82,-122.43 433.56,-118.25 423.34,-115.45 423.82,-122.43"/>
<text text-anchor="middle" x="21" y="-319" font-family="Times,serif" font-size="10.00">has_many</text>
</g>
<!-- company_project&#45;&gt;company -->
<g id="edge9" class="edge">
<title>company_project&#45;&gt;company</title>
<path fill="none" stroke="black" d="M1239.91,-458.25C1229.05,-460.34 1217.68,-462.37 1207,-464 1133.2,-475.25 1110.27,-456.8 1040,-482 1035.48,-483.62 1017.02,-495.8 1000.18,-507.22"/>
<polygon fill="black" stroke="black" points="997.9,-504.53 991.61,-513.06 1001.85,-510.32 997.9,-504.53"/>
<text text-anchor="middle" x="1063" y="-485" font-family="Times,serif" font-size="10.00">belongs_to</text>
</g>
<!-- company_project&#45;&gt;project -->
<g id="edge8" class="edge">
<title>company_project&#45;&gt;project</title>
<path fill="none" stroke="black" d="M1238.62,-434.01C1200.88,-426.18 1154.09,-416.02 1135,-410 1108.66,-401.69 1079.87,-389.67 1058.22,-380.01"/>
<polygon fill="black" stroke="black" points="1059.66,-376.81 1049.1,-375.89 1056.77,-383.19 1059.66,-376.81"/>
<text text-anchor="middle" x="1158" y="-402" font-family="Times,serif" font-size="10.00">belongs_to</text>
</g>
<!-- contact_form -->
<g id="node4" class="node">
<title>contact_form</title>
<ellipse fill="teal" stroke="black" cx="1350" cy="-778" rx="57.69" ry="18"/>
<text text-anchor="middle" x="1350" y="-774.3" font-family="Times,serif" font-size="14.00">contact_form</text>
</g>
<!-- employment&#45;&gt;company -->
<g id="edge11" class="edge">
<title>employment&#45;&gt;company</title>
<path fill="none" stroke="black" d="M1398.26,-458.45C1390.25,-460.47 1381.89,-462.43 1374,-464 1316.36,-475.46 1299.29,-465.12 1243,-482 1232.15,-485.25 1230.85,-489.73 1220,-493 1154.05,-512.87 1074.84,-521.53 1023.52,-525.26"/>
<polygon fill="black" stroke="black" points="1023.06,-521.79 1013.32,-525.96 1023.54,-528.77 1023.06,-521.79"/>
<text text-anchor="middle" x="1266" y="-485" font-family="Times,serif" font-size="10.00">belongs_to</text>
</g>
<!-- employment&#45;&gt;person -->
<g id="edge10" class="edge">
<title>employment&#45;&gt;person</title>
<path fill="none" stroke="black" d="M1400.78,-459.21C1374.25,-469.38 1339.72,-486.24 1317,-511 1295.74,-534.18 1310.91,-553.43 1289,-576 1279.19,-586.11 1265.9,-593.6 1253.23,-599.01"/>
<polygon fill="black" stroke="black" points="1251.76,-595.83 1243.73,-602.74 1254.32,-602.34 1251.76,-595.83"/>
<text text-anchor="middle" x="1340" y="-526.5" font-family="Times,serif" font-size="10.00">belongs_to</text>
</g>
<!-- group&#45;&gt;company -->
<g id="edge17" class="edge">
<title>group&#45;&gt;company</title>
<path fill="none" stroke="black" stroke-dasharray="5,2" d="M766.42,-201.4C675.84,-212.94 418.69,-257.03 475,-381 486.59,-406.52 544.62,-452.1 570,-464 684.88,-517.85 836.48,-527.59 916.01,-528.64"/>
<polygon fill="black" stroke="black" points="916.24,-532.14 926.27,-528.73 916.3,-525.14 916.24,-532.14"/>
<text text-anchor="middle" x="560.5" y="-360.5" font-family="Times,serif" font-size="10.00">has_many company through sponsorships</text>
</g>
<!-- group_membership -->
<g id="node7" class="node">
<title>group_membership</title>
<ellipse fill="teal" stroke="black" cx="1640" cy="-114" rx="79.89" ry="18"/>
<text text-anchor="middle" x="1640" y="-110.3" font-family="Times,serif" font-size="14.00">group_membership</text>
</g>
<!-- group&#45;&gt;group_membership -->
<g id="edge14" class="edge">
<title>group&#45;&gt;group_membership</title>
<path fill="none" stroke="black" d="M827.5,-193.07C945.7,-181.71 1375.99,-140.37 1557.91,-122.89"/>
<polygon fill="black" stroke="black" points="1558.34,-126.36 1567.96,-121.92 1557.67,-119.4 1558.34,-126.36"/>
<text text-anchor="middle" x="1290" y="-153" font-family="Times,serif" font-size="10.00">has_many</text>
</g>
<!-- group_project -->
<g id="node8" class="node">
<title>group_project</title>
<ellipse fill="teal" stroke="black" cx="906" cy="-280" rx="59.59" ry="18"/>
<text text-anchor="middle" x="906" y="-276.3" font-family="Times,serif" font-size="14.00">group_project</text>
</g>
<!-- group&#45;&gt;group_project -->
<g id="edge12" class="edge">
<title>group&#45;&gt;group_project</title>
<path fill="none" stroke="black" d="M823.88,-206.49C839.36,-212.28 858.55,-221.07 873,-233 879.82,-238.63 885.93,-245.99 890.97,-253.16"/>
<polygon fill="black" stroke="black" points="888.36,-255.57 896.78,-262.01 894.22,-251.73 888.36,-255.57"/>
<text text-anchor="middle" x="905" y="-236" font-family="Times,serif" font-size="10.00">has_many</text>
</g>
<!-- group&#45;&gt;person -->
<g id="edge15" class="edge">
<title>group&#45;&gt;person</title>
<path fill="none" stroke="black" stroke-dasharray="5,2" d="M765.82,-199.45C652.22,-205.15 267,-228.21 267,-279 267,-530 267,-530 267,-530 267,-575.9 982.64,-603.21 1169.7,-609.56"/>
<polygon fill="black" stroke="black" points="1169.62,-613.06 1179.74,-609.9 1169.86,-606.07 1169.62,-613.06"/>
<text text-anchor="middle" x="362" y="-402" font-family="Times,serif" font-size="10.00">has_many person through group_memberships</text>
</g>
<!-- group&#45;&gt;project -->
<g id="edge13" class="edge">
<title>group&#45;&gt;project</title>
<path fill="none" stroke="black" stroke-dasharray="5,2" d="M828.2,-197.82C915.48,-198.07 1158.82,-204.04 1207,-262 1250.04,-313.77 1133.99,-343.1 1067.27,-355.27"/>
<polygon fill="black" stroke="black" points="1066.65,-351.82 1057.41,-357 1067.87,-358.71 1066.65,-351.82"/>
<text text-anchor="middle" x="1302.5" y="-277.5" font-family="Times,serif" font-size="10.00">has_many project through group_projects</text>
</g>
<!-- group&#45;&gt;sponsorship -->
<g id="edge16" class="edge">
<title>group&#45;&gt;sponsorship</title>
<path fill="none" stroke="black" d="M768.02,-190.03C736.78,-183.45 685.66,-172.31 642,-161 604.91,-151.39 563.31,-139.13 532.26,-129.69"/>
<polygon fill="black" stroke="black" points="533.15,-126.3 522.57,-126.73 531.11,-133 533.15,-126.3"/>
<text text-anchor="middle" x="663" y="-153" font-family="Times,serif" font-size="10.00">has_many</text>
</g>
<!-- group_membership&#45;&gt;group -->
<g id="edge18" class="edge">
<title>group_membership&#45;&gt;group</title>
<path fill="none" stroke="black" d="M1577.26,-125.27C1511.92,-135.64 1406.53,-151.44 1315,-161 1137.97,-179.48 925.83,-190.28 838.09,-194.25"/>
<polygon fill="black" stroke="black" points="837.85,-190.75 828.01,-194.7 838.16,-197.75 837.85,-190.75"/>
<text text-anchor="middle" x="1427" y="-153" font-family="Times,serif" font-size="10.00">belongs_to</text>
</g>
<!-- group_membership&#45;&gt;person -->
<g id="edge19" class="edge">
<title>group_membership&#45;&gt;person</title>
<path fill="none" stroke="black" d="M1716.72,-119.08C1811.96,-126.29 1962,-145.63 1962,-196 1962,-530 1962,-530 1962,-530 1962,-565.03 1931.06,-564.41 1898,-576 1838,-597.03 1400.75,-607.35 1258.55,-610.18"/>
<polygon fill="black" stroke="black" points="1258.37,-606.68 1248.44,-610.38 1258.5,-613.68 1258.37,-606.68"/>
<text text-anchor="middle" x="1985" y="-360.5" font-family="Times,serif" font-size="10.00">belongs_to</text>
</g>
<!-- group_project&#45;&gt;group -->
<g id="edge21" class="edge">
<title>group_project&#45;&gt;group</title>
<path fill="none" stroke="black" d="M863.68,-267.27C849.59,-261.87 834.56,-254.3 823,-244 816.74,-238.42 811.63,-230.96 807.66,-223.68"/>
<polygon fill="black" stroke="black" points="810.79,-222.11 803.22,-214.7 804.51,-225.21 810.79,-222.11"/>
<text text-anchor="middle" x="846" y="-236" font-family="Times,serif" font-size="10.00">belongs_to</text>
</g>
<!-- group_project&#45;&gt;project -->
<g id="edge20" class="edge">
<title>group_project&#45;&gt;project</title>
<path fill="none" stroke="black" d="M904.03,-298.08C903.87,-307.61 905.37,-319.11 912,-327 928.38,-346.5 955.47,-355.3 978.9,-359.2"/>
<polygon fill="black" stroke="black" points="978.63,-362.7 989.02,-360.63 979.61,-355.77 978.63,-362.7"/>
<text text-anchor="middle" x="935" y="-319" font-family="Times,serif" font-size="10.00">belongs_to</text>
</g>
<!-- person&#45;&gt;company -->
<g id="edge28" class="edge">
<title>person&#45;&gt;company</title>
<path fill="none" stroke="black" stroke-dasharray="5,2" d="M1179.72,-609.34C1107.01,-605.47 942.59,-594.73 926,-576 918.06,-567.03 924.73,-557.42 935.06,-549.3"/>
<polygon fill="black" stroke="black" points="937.29,-552.02 943.49,-543.43 933.28,-546.27 937.29,-552.02"/>
<text text-anchor="middle" x="1012.5" y="-568" font-family="Times,serif" font-size="10.00">has_many company through employments</text>
</g>
<!-- person&#45;&gt;employment -->
<g id="edge27" class="edge">
<title>person&#45;&gt;employment</title>
<path fill="none" stroke="black" d="M1244.5,-603.58C1276.77,-594.52 1327.78,-576.63 1363,-547 1388.26,-525.75 1410.22,-494.67 1423.95,-472.81"/>
<polygon fill="black" stroke="black" points="1427.07,-474.41 1429.32,-464.06 1421.1,-470.75 1427.07,-474.41"/>
<text text-anchor="middle" x="1419" y="-526.5" font-family="Times,serif" font-size="10.00">has_many</text>
</g>
<!-- person&#45;&gt;group -->
<g id="edge26" class="edge">
<title>person&#45;&gt;group</title>
<path fill="none" stroke="black" stroke-dasharray="5,2" d="M1179.37,-610.43C986.86,-607.06 57,-587.77 57,-530 57,-530 57,-530 57,-279 57,-208.17 599.61,-199.25 755.55,-198.15"/>
<polygon fill="black" stroke="black" points="755.7,-201.65 765.68,-198.09 755.65,-194.65 755.7,-201.65"/>
<text text-anchor="middle" x="150.5" y="-402" font-family="Times,serif" font-size="10.00">has_many group through group_memberships</text>
</g>
<!-- person&#45;&gt;group_membership -->
<g id="edge25" class="edge">
<title>person&#45;&gt;group_membership</title>
<path fill="none" stroke="black" d="M1248.61,-610.49C1385.81,-608.04 1884,-594.66 1884,-530 1884,-530 1884,-530 1884,-196 1884,-160.24 1788.43,-137.52 1716.92,-125.52"/>
<polygon fill="black" stroke="black" points="1717.43,-122.05 1707,-123.89 1716.3,-128.96 1717.43,-122.05"/>
<text text-anchor="middle" x="1905" y="-360.5" font-family="Times,serif" font-size="10.00">has_many</text>
</g>
<!-- person&#45;&gt;project -->
<g id="edge24" class="edge">
<title>person&#45;&gt;project</title>
<path fill="none" stroke="black" stroke-dasharray="5,2" d="M1248.79,-611.62C1298.79,-610.51 1390.5,-600.68 1441,-547 1461.32,-525.41 1436.46,-504.3 1456,-482 1471.01,-464.86 1491.02,-482.73 1504,-464 1513.11,-450.85 1514.54,-440.04 1504,-428 1475.5,-395.45 1182.55,-373.87 1068.81,-366.66"/>
<polygon fill="black" stroke="black" points="1068.89,-363.16 1058.69,-366.03 1068.45,-370.15 1068.89,-363.16"/>
<text text-anchor="middle" x="1554" y="-485" font-family="Times,serif" font-size="10.00">has_many project through project_memberships</text>
</g>
<!-- project_membership -->
<g id="node11" class="node">
<title>project_membership</title>
<ellipse fill="teal" stroke="black" cx="660" cy="-280" rx="83.69" ry="18"/>
<text text-anchor="middle" x="660" y="-276.3" font-family="Times,serif" font-size="14.00">project_membership</text>
</g>
<!-- person&#45;&gt;project_membership -->
<g id="edge23" class="edge">
<title>person&#45;&gt;project_membership</title>
<path fill="none" stroke="black" d="M1179.35,-610.89C1064.15,-610.23 698.91,-605.78 656,-576 598.96,-536.41 582.03,-493.16 606,-428 615.47,-402.26 634.76,-406.02 646,-381 656.4,-357.85 659.51,-328.9 660.26,-308.12"/>
<polygon fill="black" stroke="black" points="663.76,-308.14 660.46,-298.07 656.76,-308 663.76,-308.14"/>
<text text-anchor="middle" x="627" y="-443.5" font-family="Times,serif" font-size="10.00">has_many</text>
</g>
<!-- person&#45;&gt;user -->
<g id="edge22" class="edge">
<title>person&#45;&gt;user</title>
<path fill="none" stroke="black" d="M1218.64,-629.99C1220.48,-638.64 1221.96,-649.35 1221,-659 1220.74,-661.59 1220.38,-664.27 1219.96,-666.95"/>
<polygon fill="black" stroke="black" points="1216.47,-666.54 1218.1,-677.01 1223.36,-667.81 1216.47,-666.54"/>
<text text-anchor="middle" x="1245" y="-651" font-family="Times,serif" font-size="10.00">belongs_to</text>
</g>
<!-- project&#45;&gt;company -->
<g id="edge32" class="edge">
<title>project&#45;&gt;company</title>
<path fill="none" stroke="black" stroke-dasharray="5,2" d="M1018.37,-381.09C1008.96,-409.67 989.96,-467.39 978.78,-501.35"/>
<polygon fill="black" stroke="black" points="975.38,-500.47 975.58,-511.07 982.03,-502.66 975.38,-500.47"/>
<text text-anchor="middle" x="1099.5" y="-443.5" font-family="Times,serif" font-size="10.00">has_many company through company_projects</text>
</g>
<!-- project&#45;&gt;company_project -->
<g id="edge31" class="edge">
<title>project&#45;&gt;company_project</title>
<path fill="none" stroke="black" d="M1056.9,-369.64C1088.97,-375.54 1138.91,-385.77 1181,-399 1204.65,-406.43 1230.28,-416.78 1251.05,-425.78"/>
<polygon fill="black" stroke="black" points="1249.66,-428.99 1260.22,-429.8 1252.47,-422.58 1249.66,-428.99"/>
<text text-anchor="middle" x="1234" y="-402" font-family="Times,serif" font-size="10.00">has_many</text>
</g>
<!-- project&#45;&gt;group -->
<g id="edge34" class="edge">
<title>project&#45;&gt;group</title>
<path fill="none" stroke="black" stroke-dasharray="5,2" d="M1024.43,-344.82C1024.09,-335.91 1022.78,-325.04 1019,-316 1007.06,-287.44 998.07,-282.64 975,-262 936.02,-227.13 876.64,-210.88 837.34,-203.57"/>
<polygon fill="black" stroke="black" points="837.77,-200.09 827.31,-201.82 836.56,-206.99 837.77,-200.09"/>
<text text-anchor="middle" x="1093" y="-277.5" font-family="Times,serif" font-size="10.00">has_many group through group_projects</text>
</g>
<!-- project&#45;&gt;group_project -->
<g id="edge33" class="edge">
<title>project&#45;&gt;group_project</title>
<path fill="none" stroke="black" d="M1004.13,-348.03C991.06,-338.86 973.56,-326.66 958,-316 951.58,-311.6 944.69,-306.93 938.09,-302.48"/>
<polygon fill="black" stroke="black" points="939.6,-299.28 929.35,-296.6 935.69,-305.09 939.6,-299.28"/>
<text text-anchor="middle" x="994" y="-319" font-family="Times,serif" font-size="10.00">has_many</text>
</g>
<!-- project&#45;&gt;person -->
<g id="edge30" class="edge">
<title>project&#45;&gt;person</title>
<path fill="none" stroke="black" stroke-dasharray="5,2" d="M1059.04,-364.43C1181.3,-366.77 1585.12,-382.09 1652,-482 1698.02,-550.74 1377.9,-593.14 1258.04,-606.46"/>
<polygon fill="black" stroke="black" points="1257.31,-603.01 1247.75,-607.58 1258.07,-609.97 1257.31,-603.01"/>
<text text-anchor="middle" x="1753.5" y="-485" font-family="Times,serif" font-size="10.00">has_many person through project_memberships</text>
</g>
<!-- project&#45;&gt;project_membership -->
<g id="edge29" class="edge">
<title>project&#45;&gt;project_membership</title>
<path fill="none" stroke="black" d="M991.66,-355.82C958.65,-349.34 906.01,-338.5 861,-327 844.38,-322.75 840.62,-320.24 824,-316 793.46,-308.22 759.43,-300.76 730.32,-294.74"/>
<polygon fill="black" stroke="black" points="730.74,-291.25 720.24,-292.67 729.33,-298.11 730.74,-291.25"/>
<text text-anchor="middle" x="882" y="-319" font-family="Times,serif" font-size="10.00">has_many</text>
</g>
<!-- project_membership&#45;&gt;person -->
<g id="edge36" class="edge">
<title>project_membership&#45;&gt;person</title>
<path fill="none" stroke="black" d="M667,-298.03C669.29,-303.72 671.81,-310.11 674,-316 698.26,-381.21 680.74,-410.32 725,-464 788.34,-540.81 824.52,-544.6 919,-576 1004.42,-604.38 1110.47,-610.33 1169.33,-611.25"/>
<polygon fill="black" stroke="black" points="1169.37,-614.75 1179.41,-611.36 1169.45,-607.75 1169.37,-614.75"/>
<text text-anchor="middle" x="748" y="-443.5" font-family="Times,serif" font-size="10.00">belongs_to</text>
</g>
<!-- project_membership&#45;&gt;project -->
<g id="edge35" class="edge">
<title>project_membership&#45;&gt;project</title>
<path fill="none" stroke="black" d="M692.68,-296.7C715.08,-306.84 745.74,-319.48 774,-327 830.79,-342.11 846.8,-336.84 905,-345 930.09,-348.52 958.15,-352.52 980.71,-355.76"/>
<polygon fill="black" stroke="black" points="980.27,-359.23 990.67,-357.19 981.26,-352.3 980.27,-359.23"/>
<text text-anchor="middle" x="797" y="-319" font-family="Times,serif" font-size="10.00">belongs_to</text>
</g>
<!-- resource_link -->
<g id="node12" class="node">
<title>resource_link</title>
<ellipse fill="teal" stroke="black" cx="1484" cy="-778" rx="58.49" ry="18"/>
<text text-anchor="middle" x="1484" y="-774.3" font-family="Times,serif" font-size="14.00">resource_link</text>
</g>
<!-- sign_in_data -->
<g id="node13" class="node">
<title>sign_in_data</title>
<ellipse fill="teal" stroke="black" cx="1616" cy="-778" rx="55.79" ry="18"/>
<text text-anchor="middle" x="1616" y="-774.3" font-family="Times,serif" font-size="14.00">sign_in_data</text>
</g>
<!-- sponsorship&#45;&gt;company -->
<g id="edge37" class="edge">
<title>sponsorship&#45;&gt;company</title>
<path fill="none" stroke="black" d="M460.12,-129.98C440,-144.18 415,-167.56 415,-196 415,-322.5 415,-322.5 415,-322.5 415,-341.75 499.38,-452.74 515,-464 578.26,-509.59 810.23,-522.87 916.36,-526.6"/>
<polygon fill="black" stroke="black" points="916.42,-530.11 926.53,-526.95 916.65,-523.11 916.42,-530.11"/>
<text text-anchor="middle" x="439" y="-319" font-family="Times,serif" font-size="10.00">belongs_to</text>
</g>
<!-- sponsorship&#45;&gt;group -->
<g id="edge38" class="edge">
<title>sponsorship&#45;&gt;group</title>
<path fill="none" stroke="black" d="M534.32,-120.71C575,-126.12 633.94,-135.59 684,-150 711.84,-158.02 742.18,-170.59 764.41,-180.57"/>
<polygon fill="black" stroke="black" points="763.16,-183.85 773.71,-184.81 766.06,-177.48 763.16,-183.85"/>
<text text-anchor="middle" x="739" y="-153" font-family="Times,serif" font-size="10.00">belongs_to</text>
</g>
<!-- user&#45;&gt;authentication -->
<g id="edge40" class="edge">
<title>user&#45;&gt;authentication</title>
<path fill="none" stroke="black" d="M1221.46,-712.39C1223.71,-718.15 1225.88,-724.75 1227,-731 1228.16,-737.43 1227.37,-744.26 1225.73,-750.63"/>
<polygon fill="black" stroke="black" points="1222.4,-749.55 1222.6,-760.15 1229.05,-751.74 1222.4,-749.55"/>
<text text-anchor="middle" x="1249" y="-734" font-family="Times,serif" font-size="10.00">has_many</text>
</g>
<!-- user&#45;&gt;person -->
<g id="edge39" class="edge">
<title>user&#45;&gt;person</title>
<path fill="none" stroke="black" d="M1196.47,-680.84C1187.13,-672.1 1178.42,-660.07 1183,-648 1184.66,-643.61 1187.16,-639.42 1190.02,-635.56"/>
<polygon fill="black" stroke="black" points="1192.9,-637.58 1196.7,-627.7 1187.56,-633.05 1192.9,-637.58"/>
<text text-anchor="middle" x="1200" y="-651" font-family="Times,serif" font-size="10.00">has_one</text>
</g>
</g>
</svg>
