<?xml version="1.0" encoding="UTF-8" standalone="no"?>
<!DOCTYPE svg PUBLIC "-//W3C//DTD SVG 1.1//EN"
 "http://www.w3.org/Graphics/SVG/1.1/DTD/svg11.dtd">
<!-- Generated by graphviz version 2.44.0 (20200408.0750)
 -->
<!-- Title: G Pages: 1 -->
<svg width="496pt" height="472pt"
 viewBox="0.00 0.00 496.18 472.00" xmlns="http://www.w3.org/2000/svg" xmlns:xlink="http://www.w3.org/1999/xlink">
<g id="graph0" class="graph" transform="scale(1 1) rotate(0) translate(4 468)">
<title>G</title>
<polygon fill="white" stroke="transparent" points="-4,4 -4,-468 492.18,-468 492.18,4 -4,4"/>
<text text-anchor="start" x="108.59" y="-29" font-family="Droid Sans Mono" font-size="14.00"> </text>
<text text-anchor="start" x="112.59" y="-29" font-family="Droid Sans Mono" font-size="80.00">fulcrum</text>
<text text-anchor="start" x="375.59" y="-29" font-family="Droid Sans Mono" font-size="14.00"> </text>
<!-- changeset -->
<g id="node1" class="node">
<title>changeset</title>
<ellipse fill="#ffa630" stroke="#ffa630" cx="281.28" cy="-446" rx="51.19" ry="18"/>
<text text-anchor="middle" x="281.28" y="-442.3" font-family="Droid Sans Mono" font-size="14.00">changeset</text>
</g>
<!-- project -->
<g id="node3" class="node">
<title>project</title>
<ellipse fill="#ffa630" stroke="#ffa630" cx="180.28" cy="-363" rx="37.09" ry="18"/>
<text text-anchor="middle" x="180.28" y="-359.3" font-family="Droid Sans Mono" font-size="14.00">project</text>
</g>
<!-- changeset&#45;&gt;project -->
<g id="edge1" class="edge">
<title>changeset&#45;&gt;project</title>
<path fill="none" stroke="#00a7e1" d="M232.93,-439.94C213.67,-435.3 193.28,-426.52 181.28,-410 177.4,-404.65 175.93,-397.96 175.7,-391.35"/>
<polygon fill="#00a7e1" stroke="#00a7e1" points="179.2,-391.4 176.22,-381.24 172.21,-391.05 179.2,-391.4"/>
<text text-anchor="middle" x="205.28" y="-402" font-family="Droid Sans Mono" font-size="10.00">belongs_to</text>
</g>
<!-- story -->
<g id="node4" class="node">
<title>story</title>
<ellipse fill="#ffa630" stroke="#ffa630" cx="312.28" cy="-280" rx="29.8" ry="18"/>
<text text-anchor="middle" x="312.28" y="-276.3" font-family="Droid Sans Mono" font-size="14.00">story</text>
</g>
<!-- changeset&#45;&gt;story -->
<g id="edge2" class="edge">
<title>changeset&#45;&gt;story</title>
<path fill="none" stroke="#00a7e1" d="M287.78,-428.1C289.78,-422.41 291.83,-415.99 293.28,-410 301.69,-375.39 306.94,-334.6 309.74,-308.3"/>
<polygon fill="#00a7e1" stroke="#00a7e1" points="313.22,-308.61 310.76,-298.3 306.26,-307.9 313.22,-308.61"/>
<text text-anchor="middle" x="328.28" y="-360.5" font-family="Droid Sans Mono" font-size="10.00">belongs_to</text>
</g>
<!-- note -->
<g id="node2" class="node">
<title>note</title>
<ellipse fill="#ffa630" stroke="#ffa630" cx="406.28" cy="-197" rx="27.9" ry="18"/>
<text text-anchor="middle" x="406.28" y="-193.3" font-family="Droid Sans Mono" font-size="14.00">note</text>
</g>
<!-- note&#45;&gt;story -->
<g id="edge4" class="edge">
<title>note&#45;&gt;story</title>
<path fill="none" stroke="#00a7e1" d="M404.61,-215.01C402.88,-224.52 399.38,-236.02 392.28,-244 381.21,-256.45 364.9,-264.66 349.88,-269.98"/>
<polygon fill="#00a7e1" stroke="#00a7e1" points="348.72,-266.68 340.27,-273.07 350.87,-273.34 348.72,-266.68"/>
<text text-anchor="middle" x="422.28" y="-236" font-family="Droid Sans Mono" font-size="10.00">belongs_to</text>
</g>
<!-- user -->
<g id="node6" class="node">
<title>user</title>
<ellipse fill="#ffa630" stroke="#ffa630" cx="228.28" cy="-114" rx="27.9" ry="18"/>
<text text-anchor="middle" x="228.28" y="-110.3" font-family="Droid Sans Mono" font-size="14.00">user</text>
</g>
<!-- note&#45;&gt;user -->
<g id="edge3" class="edge">
<title>note&#45;&gt;user</title>
<path fill="none" stroke="#00a7e1" d="M387.08,-183.65C371.19,-173.76 347.81,-159.94 326.28,-150 305.84,-140.57 282.08,-132.02 263.08,-125.74"/>
<polygon fill="#00a7e1" stroke="#00a7e1" points="263.93,-122.34 253.34,-122.58 261.77,-129 263.93,-122.34"/>
<text text-anchor="middle" x="370.28" y="-153" font-family="Droid Sans Mono" font-size="10.00">belongs_to</text>
</g>
<!-- project&#45;&gt;changeset -->
<g id="edge7" class="edge">
<title>project&#45;&gt;changeset</title>
<path fill="none" stroke="#00a7e1" d="M201.14,-378.18C209.97,-384.37 220.29,-391.84 229.28,-399 238.29,-406.17 247.81,-414.39 256.21,-421.88"/>
<polygon fill="#00a7e1" stroke="#00a7e1" points="254.1,-424.68 263.87,-428.78 258.78,-419.48 254.1,-424.68"/>
<text text-anchor="middle" x="266.28" y="-402" font-family="Droid Sans Mono" font-size="10.00">has_many</text>
</g>
<!-- project&#45;&gt;story -->
<g id="edge6" class="edge">
<title>project&#45;&gt;story</title>
<path fill="none" stroke="#00a7e1" d="M176.05,-345.03C174.72,-335.54 174.97,-324.04 181.28,-316 192.62,-301.57 238.71,-291.74 273.04,-286.25"/>
<polygon fill="#00a7e1" stroke="#00a7e1" points="273.91,-289.66 283.27,-284.69 272.85,-282.74 273.91,-289.66"/>
<text text-anchor="middle" x="204.28" y="-319" font-family="Droid Sans Mono" font-size="10.00">has_many</text>
</g>
<!-- project&#45;&gt;user -->
<g id="edge5" class="edge">
<title>project&#45;&gt;user</title>
<path fill="none" stroke="#00a7e1" d="M148.04,-354.13C88.79,-337.95 -28.34,-297 6.28,-233 43.77,-163.72 138.73,-133.48 191.5,-121.66"/>
<polygon fill="#00a7e1" stroke="#00a7e1" points="192.41,-125.05 201.46,-119.54 190.95,-118.2 192.41,-125.05"/>
<text text-anchor="middle" x="65.78" y="-236" font-family="Droid Sans Mono" font-size="10.00">has_and_belongs_to_many</text>
</g>
<!-- story&#45;&gt;changeset -->
<g id="edge11" class="edge">
<title>story&#45;&gt;changeset</title>
<path fill="none" stroke="#00a7e1" d="M327.19,-295.98C344.81,-315.6 370.11,-351.03 356.28,-381 347.94,-399.1 331.67,-413.97 316.41,-424.81"/>
<polygon fill="#00a7e1" stroke="#00a7e1" points="314.43,-421.92 308.09,-430.41 318.34,-427.73 314.43,-421.92"/>
<text text-anchor="middle" x="382.28" y="-360.5" font-family="Droid Sans Mono" font-size="10.00">has_many</text>
</g>
<!-- story&#45;&gt;note -->
<g id="edge12" class="edge">
<title>story&#45;&gt;note</title>
<path fill="none" stroke="#00a7e1" d="M320.32,-262.66C325.59,-253.15 333.19,-241.42 342.28,-233 351.49,-224.48 363.14,-217.32 373.98,-211.74"/>
<polygon fill="#00a7e1" stroke="#00a7e1" points="375.75,-214.77 383.21,-207.24 372.68,-208.47 375.75,-214.77"/>
<text text-anchor="middle" x="365.28" y="-236" font-family="Droid Sans Mono" font-size="10.00">has_many</text>
</g>
<!-- story&#45;&gt;project -->
<g id="edge8" class="edge">
<title>story&#45;&gt;project</title>
<path fill="none" stroke="#00a7e1" d="M290.84,-292.64C278.81,-299.29 263.58,-307.89 250.28,-316 236.7,-324.29 221.93,-333.89 209.48,-342.18"/>
<polygon fill="#00a7e1" stroke="#00a7e1" points="207.24,-339.47 200.88,-347.94 211.13,-345.29 207.24,-339.47"/>
<text text-anchor="middle" x="274.28" y="-319" font-family="Droid Sans Mono" font-size="10.00">belongs_to</text>
</g>
<!-- story&#45;&gt;user -->
<g id="edge9" class="edge">
<title>story&#45;&gt;user</title>
<path fill="none" stroke="#00a7e1" d="M298.71,-263.85C290.08,-254.54 278.47,-242.61 267.28,-233 256.9,-224.07 249.36,-226.72 242.28,-215 229.03,-193.04 226.36,-163.53 226.49,-142.26"/>
<polygon fill="#00a7e1" stroke="#00a7e1" points="229.99,-142.36 226.77,-132.26 222.99,-142.16 229.99,-142.36"/>
<text text-anchor="middle" x="266.28" y="-194.5" font-family="Droid Sans Mono" font-size="10.00">belongs_to</text>
</g>
<!-- story&#45;&gt;user -->
<g id="edge10" class="edge">
<title>story&#45;&gt;user</title>
<path fill="none" stroke="#00a7e1" d="M311.35,-261.74C309.59,-240.98 304.59,-205.62 290.28,-179 281.19,-162.07 266.32,-146.5 253.43,-134.96"/>
<polygon fill="#00a7e1" stroke="#00a7e1" points="255.58,-132.2 245.72,-128.32 251.01,-137.5 255.58,-132.2"/>
<text text-anchor="middle" x="327.28" y="-194.5" font-family="Droid Sans Mono" font-size="10.00">belongs_to</text>
</g>
<!-- story_observer -->
<g id="node5" class="node">
<title>story_observer</title>
<ellipse fill="#ffa630" stroke="#ffa630" cx="419.28" cy="-446" rx="68.79" ry="18"/>
<text text-anchor="middle" x="419.28" y="-442.3" font-family="Droid Sans Mono" font-size="14.00">story_observer</text>
</g>
<!-- user&#45;&gt;project -->
<g id="edge13" class="edge">
<title>user&#45;&gt;project</title>
<path fill="none" stroke="#00a7e1" d="M213.44,-129.31C193.2,-149.97 157.91,-190.36 144.28,-233 132.87,-268.7 150.11,-310.59 164.44,-336.72"/>
<polygon fill="#00a7e1" stroke="#00a7e1" points="161.51,-338.66 169.53,-345.59 167.59,-335.18 161.51,-338.66"/>
<text text-anchor="middle" x="203.78" y="-236" font-family="Droid Sans Mono" font-size="10.00">has_and_belongs_to_many</text>
</g>
</g>
</svg>
