<?xml version="1.0" encoding="UTF-8" standalone="no"?>
<!DOCTYPE svg PUBLIC "-//W3C//DTD SVG 1.1//EN"
 "http://www.w3.org/Graphics/SVG/1.1/DTD/svg11.dtd">
<!-- Generated by graphviz version 2.44.0 (20200408.0750)
 -->
<!-- Title: G Pages: 1 -->
<svg width="469pt" height="472pt"
 viewBox="0.00 0.00 469.04 472.00" xmlns="http://www.w3.org/2000/svg" xmlns:xlink="http://www.w3.org/1999/xlink">
<g id="graph0" class="graph" transform="scale(1 1) rotate(0) translate(4 468)">
<title>G</title>
<polygon fill="white" stroke="transparent" points="-4,4 -4,-468 465.04,-468 465.04,4 -4,4"/>
<text text-anchor="start" x="99.52" y="-29" font-family="Times,serif" font-size="14.00"> </text>
<text text-anchor="start" x="103.52" y="-29" font-family="Times,serif" font-size="80.00">fulcrum</text>
<text text-anchor="start" x="357.52" y="-29" font-family="Times,serif" font-size="14.00"> </text>
<!-- changeset -->
<g id="node1" class="node">
<title>changeset</title>
<ellipse fill="#ffa630" stroke="#ffa630" cx="271" cy="-446" rx="45.49" ry="18"/>
<text text-anchor="middle" x="271" y="-442.3" font-family="Times,serif" font-size="14.00">changeset</text>
</g>
<!-- project -->
<g id="node3" class="node">
<title>project</title>
<ellipse fill="#ffa630" stroke="#ffa630" cx="174" cy="-363" rx="35.19" ry="18"/>
<text text-anchor="middle" x="174" y="-359.3" font-family="Times,serif" font-size="14.00">project</text>
</g>
<!-- changeset&#45;&gt;project -->
<g id="edge1" class="edge">
<title>changeset&#45;&gt;project</title>
<path fill="none" stroke="black" d="M227.51,-440.17C208.17,-435.64 187.08,-426.87 175,-410 171.15,-404.63 169.69,-397.93 169.47,-391.32"/>
<polygon fill="black" stroke="black" points="172.97,-391.37 169.98,-381.21 165.98,-391.02 172.97,-391.37"/>
<text text-anchor="middle" x="198" y="-402" font-family="Times,serif" font-size="10.00">belongs_to</text>
</g>
<!-- story -->
<g id="node4" class="node">
<title>story</title>
<ellipse fill="#ffa630" stroke="#ffa630" cx="300" cy="-280" rx="28.7" ry="18"/>
<text text-anchor="middle" x="300" y="-276.3" font-family="Times,serif" font-size="14.00">story</text>
</g>
<!-- changeset&#45;&gt;story -->
<g id="edge2" class="edge">
<title>changeset&#45;&gt;story</title>
<path fill="none" stroke="black" d="M275.73,-427.99C277.22,-422.3 278.79,-415.9 280,-410 287.18,-375.08 293.09,-334.36 296.57,-308.16"/>
<polygon fill="black" stroke="black" points="300.05,-308.58 297.88,-298.21 293.11,-307.67 300.05,-308.58"/>
<text text-anchor="middle" x="314" y="-360.5" font-family="Times,serif" font-size="10.00">belongs_to</text>
</g>
<!-- note -->
<g id="node2" class="node">
<title>note</title>
<ellipse fill="#ffa630" stroke="#ffa630" cx="391" cy="-197" rx="27" ry="18"/>
<text text-anchor="middle" x="391" y="-193.3" font-family="Times,serif" font-size="14.00">note</text>
</g>
<!-- note&#45;&gt;story -->
<g id="edge4" class="edge">
<title>note&#45;&gt;story</title>
<path fill="none" stroke="black" d="M388.86,-214.98C386.9,-224.47 383.15,-235.97 376,-244 365.48,-255.81 350.17,-263.91 336.03,-269.31"/>
<polygon fill="black" stroke="black" points="334.8,-266.04 326.51,-272.64 337.11,-272.65 334.8,-266.04"/>
<text text-anchor="middle" x="406" y="-236" font-family="Times,serif" font-size="10.00">belongs_to</text>
</g>
<!-- user -->
<g id="node6" class="node">
<title>user</title>
<ellipse fill="#ffa630" stroke="#ffa630" cx="218" cy="-114" rx="27" ry="18"/>
<text text-anchor="middle" x="218" y="-110.3" font-family="Times,serif" font-size="14.00">user</text>
</g>
<!-- note&#45;&gt;user -->
<g id="edge3" class="edge">
<title>note&#45;&gt;user</title>
<path fill="none" stroke="black" d="M372.56,-183.63C357.29,-173.73 334.81,-159.9 314,-150 293.9,-140.44 270.45,-131.84 251.75,-125.56"/>
<polygon fill="black" stroke="black" points="252.77,-122.21 242.18,-122.41 250.58,-128.86 252.77,-122.21"/>
<text text-anchor="middle" x="356" y="-153" font-family="Times,serif" font-size="10.00">belongs_to</text>
</g>
<!-- project&#45;&gt;changeset -->
<g id="edge7" class="edge">
<title>project&#45;&gt;changeset</title>
<path fill="none" stroke="black" d="M194.01,-378.2C202.49,-384.39 212.38,-391.86 221,-399 229.58,-406.11 238.64,-414.24 246.66,-421.67"/>
<polygon fill="black" stroke="black" points="244.57,-424.51 254.27,-428.8 249.36,-419.41 244.57,-424.51"/>
<text text-anchor="middle" x="255" y="-402" font-family="Times,serif" font-size="10.00">has_many</text>
</g>
<!-- project&#45;&gt;story -->
<g id="edge6" class="edge">
<title>project&#45;&gt;story</title>
<path fill="none" stroke="black" d="M169.8,-345.06C168.48,-335.58 168.73,-324.08 175,-316 185.72,-302.18 229.38,-292.25 262.11,-286.58"/>
<polygon fill="black" stroke="black" points="263,-289.98 272.29,-284.89 261.85,-283.07 263,-289.98"/>
<text text-anchor="middle" x="196" y="-319" font-family="Times,serif" font-size="10.00">has_many</text>
</g>
<!-- project&#45;&gt;user -->
<g id="edge5" class="edge">
<title>project&#45;&gt;user</title>
<path fill="none" stroke="black" d="M143.36,-354.07C86.37,-337.66 -27.25,-296.12 6,-233 41.35,-165.88 131.88,-134.8 182.46,-122.27"/>
<polygon fill="black" stroke="black" points="183.39,-125.64 192.31,-119.94 181.78,-118.83 183.39,-125.64"/>
<text text-anchor="middle" x="62.5" y="-236" font-family="Times,serif" font-size="10.00">has_and_belongs_to_many</text>
</g>
<!-- story&#45;&gt;changeset -->
<g id="edge11" class="edge">
<title>story&#45;&gt;changeset</title>
<path fill="none" stroke="black" d="M313.98,-296.01C330.49,-315.66 354.16,-351.12 341,-381 333.23,-398.63 317.93,-413.52 303.62,-424.49"/>
<polygon fill="black" stroke="black" points="301.4,-421.77 295.36,-430.48 305.51,-427.44 301.4,-421.77"/>
<text text-anchor="middle" x="365" y="-360.5" font-family="Times,serif" font-size="10.00">has_many</text>
</g>
<!-- story&#45;&gt;note -->
<g id="edge12" class="edge">
<title>story&#45;&gt;note</title>
<path fill="none" stroke="black" d="M308.1,-262.72C313.39,-253.24 320.99,-241.51 330,-233 338.63,-224.85 349.5,-217.84 359.67,-212.28"/>
<polygon fill="black" stroke="black" points="361.46,-215.3 368.73,-207.59 358.24,-209.08 361.46,-215.3"/>
<text text-anchor="middle" x="351" y="-236" font-family="Times,serif" font-size="10.00">has_many</text>
</g>
<!-- story&#45;&gt;project -->
<g id="edge8" class="edge">
<title>story&#45;&gt;project</title>
<path fill="none" stroke="black" d="M279.2,-292.58C267.54,-299.21 252.8,-307.82 240,-316 227.24,-324.15 213.46,-333.64 201.8,-341.88"/>
<polygon fill="black" stroke="black" points="199.47,-339.24 193.36,-347.89 203.53,-344.94 199.47,-339.24"/>
<text text-anchor="middle" x="263" y="-319" font-family="Times,serif" font-size="10.00">belongs_to</text>
</g>
<!-- story&#45;&gt;user -->
<g id="edge9" class="edge">
<title>story&#45;&gt;user</title>
<path fill="none" stroke="black" d="M286.29,-264C277.61,-254.76 265.99,-242.84 255,-233 245.33,-224.34 238.48,-226.25 232,-215 219.25,-192.88 216.47,-163.57 216.45,-142.41"/>
<polygon fill="black" stroke="black" points="219.96,-142.23 216.65,-132.16 212.96,-142.09 219.96,-142.23"/>
<text text-anchor="middle" x="255" y="-194.5" font-family="Times,serif" font-size="10.00">belongs_to</text>
</g>
<!-- story&#45;&gt;user -->
<g id="edge10" class="edge">
<title>story&#45;&gt;user</title>
<path fill="none" stroke="black" d="M298.99,-261.78C297.16,-241.06 292.08,-205.74 278,-179 269.18,-162.26 254.79,-146.7 242.32,-135.11"/>
<polygon fill="black" stroke="black" points="244.65,-132.5 234.86,-128.44 239.98,-137.71 244.65,-132.5"/>
<text text-anchor="middle" x="313" y="-194.5" font-family="Times,serif" font-size="10.00">belongs_to</text>
</g>
<!-- story_observer -->
<g id="node5" class="node">
<title>story_observer</title>
<ellipse fill="#ffa630" stroke="#ffa630" cx="398" cy="-446" rx="63.09" ry="18"/>
<text text-anchor="middle" x="398" y="-442.3" font-family="Times,serif" font-size="14.00">story_observer</text>
</g>
<!-- user&#45;&gt;project -->
<g id="edge13" class="edge">
<title>user&#45;&gt;project</title>
<path fill="none" stroke="black" d="M203.84,-129.46C184.55,-150.29 150.93,-190.88 138,-233 127,-268.83 144.13,-310.69 158.32,-336.77"/>
<polygon fill="black" stroke="black" points="155.37,-338.67 163.36,-345.63 161.46,-335.21 155.37,-338.67"/>
<text text-anchor="middle" x="194.5" y="-236" font-family="Times,serif" font-size="10.00">has_and_belongs_to_many</text>
</g>
</g>
</svg>
