<?xml version="1.0" encoding="UTF-8" standalone="no"?>
<!DOCTYPE svg PUBLIC "-//W3C//DTD SVG 1.1//EN"
 "http://www.w3.org/Graphics/SVG/1.1/DTD/svg11.dtd">
<!-- Generated by graphviz version 2.44.0 (20200408.0750)
 -->
<!-- Title: G Pages: 1 -->
<svg width="325pt" height="472pt"
 viewBox="0.00 0.00 325.34 472.00" xmlns="http://www.w3.org/2000/svg" xmlns:xlink="http://www.w3.org/1999/xlink">
<g id="graph0" class="graph" transform="scale(1 1) rotate(0) translate(4 468)">
<title>G</title>
<polygon fill="white" stroke="transparent" points="-4,4 -4,-468 321.34,-468 321.34,4 -4,4"/>
<text text-anchor="start" x="27.67" y="-29" font-family="Times,serif" font-size="14.00"> </text>
<text text-anchor="start" x="31.67" y="-29" font-family="Times,serif" font-size="80.00">fulcrum</text>
<text text-anchor="start" x="285.67" y="-29" font-family="Times,serif" font-size="14.00"> </text>
<!-- changeset -->
<g id="node1" class="node">
<title>changeset</title>
<ellipse fill="teal" stroke="black" cx="127.29" cy="-446" rx="45.49" ry="18"/>
<text text-anchor="middle" x="127.29" y="-442.3" font-family="Times,serif" font-size="14.00">changeset</text>
</g>
<!-- project -->
<g id="node3" class="node">
<title>project</title>
<ellipse fill="teal" stroke="black" cx="72.29" cy="-363" rx="35.19" ry="18"/>
<text text-anchor="middle" x="72.29" y="-359.3" font-family="Times,serif" font-size="14.00">project</text>
</g>
<!-- changeset&#45;&gt;project -->
<g id="edge1" class="edge">
<title>changeset&#45;&gt;project</title>
<path fill="none" stroke="black" d="M97.73,-432.21C88.63,-426.74 79.62,-419.4 74.29,-410 71.16,-404.47 69.78,-397.95 69.37,-391.58"/>
<polygon fill="black" stroke="black" points="72.87,-391.22 69.44,-381.2 65.87,-391.17 72.87,-391.22"/>
<text text-anchor="middle" x="82.29" y="-402" font-family="Times,serif" font-size="10.00">xxx</text>
</g>
<!-- story -->
<g id="node4" class="node">
<title>story</title>
<ellipse fill="teal" stroke="black" cx="140.29" cy="-280" rx="28.7" ry="18"/>
<text text-anchor="middle" x="140.29" y="-276.3" font-family="Times,serif" font-size="14.00">story</text>
</g>
<!-- changeset&#45;&gt;story -->
<g id="edge2" class="edge">
<title>changeset&#45;&gt;story</title>
<path fill="none" stroke="black" d="M128.66,-427.76C130.92,-399.26 135.45,-342.12 138.14,-308.16"/>
<polygon fill="black" stroke="black" points="141.64,-308.26 138.94,-298.01 134.66,-307.7 141.64,-308.26"/>
<text text-anchor="middle" x="143.29" y="-360.5" font-family="Times,serif" font-size="10.00">xxx</text>
</g>
<!-- note -->
<g id="node2" class="node">
<title>note</title>
<ellipse fill="teal" stroke="black" cx="199.29" cy="-197" rx="27" ry="18"/>
<text text-anchor="middle" x="199.29" y="-193.3" font-family="Times,serif" font-size="14.00">note</text>
</g>
<!-- note&#45;&gt;story -->
<g id="edge4" class="edge">
<title>note&#45;&gt;story</title>
<path fill="none" stroke="black" d="M198.04,-215.32C196.69,-224.47 193.94,-235.53 188.29,-244 183.63,-251 177.06,-257.09 170.28,-262.15"/>
<polygon fill="black" stroke="black" points="168.01,-259.46 161.71,-267.98 171.94,-265.25 168.01,-259.46"/>
<text text-anchor="middle" x="201.29" y="-236" font-family="Times,serif" font-size="10.00">xxx</text>
</g>
<!-- user -->
<g id="node6" class="node">
<title>user</title>
<ellipse fill="teal" stroke="black" cx="86.29" cy="-114" rx="27" ry="18"/>
<text text-anchor="middle" x="86.29" y="-110.3" font-family="Times,serif" font-size="14.00">user</text>
</g>
<!-- note&#45;&gt;user -->
<g id="edge3" class="edge">
<title>note&#45;&gt;user</title>
<path fill="none" stroke="black" d="M186.26,-181.19C177.31,-171.57 164.83,-159.16 152.29,-150 141.58,-142.17 128.88,-135 117.5,-129.23"/>
<polygon fill="black" stroke="black" points="118.84,-125.99 108.32,-124.71 115.75,-132.27 118.84,-125.99"/>
<text text-anchor="middle" x="173.29" y="-153" font-family="Times,serif" font-size="10.00">xxx</text>
</g>
<!-- project&#45;&gt;changeset -->
<g id="edge7" class="edge">
<title>project&#45;&gt;changeset</title>
<path fill="none" stroke="black" d="M83.3,-380.21C90.98,-391.52 101.38,-406.84 110.15,-419.75"/>
<polygon fill="black" stroke="black" points="107.38,-421.91 115.9,-428.22 113.17,-417.98 107.38,-421.91"/>
<text text-anchor="middle" x="111.29" y="-402" font-family="Times,serif" font-size="10.00">xxx</text>
</g>
<!-- project&#45;&gt;story -->
<g id="edge6" class="edge">
<title>project&#45;&gt;story</title>
<path fill="none" stroke="black" d="M69.15,-345.05C68.34,-335.79 68.91,-324.52 74.29,-316 81.34,-304.84 93.22,-297.02 104.97,-291.65"/>
<polygon fill="black" stroke="black" points="106.34,-294.87 114.28,-287.85 103.69,-288.39 106.34,-294.87"/>
<text text-anchor="middle" x="82.29" y="-319" font-family="Times,serif" font-size="10.00">xxx</text>
</g>
<!-- project&#45;&gt;user -->
<g id="edge5" class="edge">
<title>project&#45;&gt;user</title>
<path fill="none" stroke="black" d="M49.62,-349.07C41.23,-343.28 32.31,-335.77 26.29,-327 1.91,-291.44 -3.76,-275.69 2.29,-233 7.68,-194.98 2.68,-180.29 26.29,-150 33.5,-140.75 43.89,-133.48 54,-128.02"/>
<polygon fill="black" stroke="black" points="55.71,-131.08 63.11,-123.5 52.6,-124.81 55.71,-131.08"/>
<text text-anchor="middle" x="10.29" y="-236" font-family="Times,serif" font-size="10.00">xxx</text>
</g>
<!-- story&#45;&gt;changeset -->
<g id="edge11" class="edge">
<title>story&#45;&gt;changeset</title>
<path fill="none" stroke="black" d="M146.24,-297.93C148.07,-303.62 149.95,-310.03 151.29,-316 157.63,-344.24 160.08,-352.45 155.29,-381 153.07,-394.27 147.51,-408.06 141.93,-419.42"/>
<polygon fill="black" stroke="black" points="138.81,-417.84 137.31,-428.33 145.02,-421.07 138.81,-417.84"/>
<text text-anchor="middle" x="166.29" y="-360.5" font-family="Times,serif" font-size="10.00">xxx</text>
</g>
<!-- story&#45;&gt;note -->
<g id="edge12" class="edge">
<title>story&#45;&gt;note</title>
<path fill="none" stroke="black" d="M149.21,-262.79C154.4,-253.77 161.3,-242.48 168.29,-233 171.46,-228.7 175.05,-224.3 178.64,-220.13"/>
<polygon fill="black" stroke="black" points="181.39,-222.3 185.41,-212.5 176.16,-217.66 181.39,-222.3"/>
<text text-anchor="middle" x="176.29" y="-236" font-family="Times,serif" font-size="10.00">xxx</text>
</g>
<!-- story&#45;&gt;project -->
<g id="edge8" class="edge">
<title>story&#45;&gt;project</title>
<path fill="none" stroke="black" d="M127.58,-296.15C117.7,-307.91 103.82,-324.45 92.43,-338.01"/>
<polygon fill="black" stroke="black" points="89.48,-336.09 85.73,-346 94.84,-340.59 89.48,-336.09"/>
<text text-anchor="middle" x="119.29" y="-319" font-family="Times,serif" font-size="10.00">xxx</text>
</g>
<!-- story&#45;&gt;user -->
<g id="edge9" class="edge">
<title>story&#45;&gt;user</title>
<path fill="none" stroke="black" d="M128.1,-263.66C118.92,-251.27 106.83,-232.98 100.29,-215 91.71,-191.4 88.35,-162.9 87.05,-142.37"/>
<polygon fill="black" stroke="black" points="90.54,-141.96 86.53,-132.15 83.54,-142.32 90.54,-141.96"/>
<text text-anchor="middle" x="108.29" y="-194.5" font-family="Times,serif" font-size="10.00">xxx</text>
</g>
<!-- story&#45;&gt;user -->
<g id="edge10" class="edge">
<title>story&#45;&gt;user</title>
<path fill="none" stroke="black" d="M137.32,-262.07C133.53,-241.94 126.27,-207.48 116.29,-179 111.7,-165.88 105.29,-151.84 99.58,-140.26"/>
<polygon fill="black" stroke="black" points="102.63,-138.54 95,-131.19 96.39,-141.7 102.63,-138.54"/>
<text text-anchor="middle" x="135.29" y="-194.5" font-family="Times,serif" font-size="10.00">xxx</text>
</g>
<!-- story_observer -->
<g id="node5" class="node">
<title>story_observer</title>
<ellipse fill="teal" stroke="black" cx="254.29" cy="-446" rx="63.09" ry="18"/>
<text text-anchor="middle" x="254.29" y="-442.3" font-family="Times,serif" font-size="14.00">story_observer</text>
</g>
<!-- user&#45;&gt;project -->
<g id="edge13" class="edge">
<title>user&#45;&gt;project</title>
<path fill="none" stroke="black" d="M84,-132.16C79.51,-166.83 69.68,-247.7 66.29,-316 66.05,-320.88 65.88,-322.13 66.29,-327 66.51,-329.58 66.82,-332.26 67.18,-334.93"/>
<polygon fill="black" stroke="black" points="63.76,-335.66 68.78,-344.98 70.67,-334.56 63.76,-335.66"/>
<text text-anchor="middle" x="81.29" y="-236" font-family="Times,serif" font-size="10.00">xxx</text>
</g>
</g>
</svg>
