<?xml version="1.0" encoding="UTF-8" standalone="no"?>
<!DOCTYPE svg PUBLIC "-//W3C//DTD SVG 1.1//EN"
 "http://www.w3.org/Graphics/SVG/1.1/DTD/svg11.dtd">
<!-- Generated by graphviz version 2.44.0 (20200408.0750)
 -->
<!-- Title: G Pages: 1 -->
<svg width="1460pt" height="638pt"
 viewBox="0.00 0.00 1459.69 638.00" xmlns="http://www.w3.org/2000/svg" xmlns:xlink="http://www.w3.org/1999/xlink">
<g id="graph0" class="graph" transform="scale(1 1) rotate(0) translate(4 634)">
<title>G</title>
<polygon fill="white" stroke="transparent" points="-4,4 -4,-634 1455.69,-634 1455.69,4 -4,4"/>
<text text-anchor="start" x="610.35" y="-29" font-family="Droid Sans Mono" font-size="14.00"> </text>
<text text-anchor="start" x="614.35" y="-29" font-family="Droid Sans Mono" font-size="80.00">pmpm</text>
<text text-anchor="start" x="837.35" y="-29" font-family="Droid Sans Mono" font-size="14.00"> </text>
<!-- alternative_suggestions -->
<g id="node1" class="node">
<title>alternative_suggestions</title>
<ellipse fill="#ffa630" stroke="#ffa630" cx="138.69" cy="-612" rx="96.38" ry="18"/>
<text text-anchor="middle" x="138.69" y="-608.3" font-family="Droid Sans Mono" font-size="14.00">AlternativeSuggestion</text>
</g>
<!-- foods -->
<g id="node10" class="node">
<title>foods</title>
<ellipse fill="#ffa630" stroke="#ffa630" cx="173.69" cy="-529" rx="30.59" ry="18"/>
<text text-anchor="middle" x="173.69" y="-525.3" font-family="Droid Sans Mono" font-size="14.00">Food</text>
</g>
<!-- alternative_suggestions&#45;&gt;foods -->
<g id="edge1" class="edge">
<title>alternative_suggestions&#45;&gt;foods</title>
<path fill="none" stroke="#00a7e1" d="M114.19,-594.52C104.65,-585.99 97.36,-575.24 103.69,-565 110.98,-553.21 123.57,-545.26 136.08,-539.96"/>
<polygon fill="#00a7e1" stroke="#00a7e1" points="137.42,-543.2 145.55,-536.4 134.96,-536.64 137.42,-543.2"/>
<text text-anchor="middle" x="127.69" y="-568" font-family="Droid Sans Mono" font-size="10.00">belongs_to</text>
</g>
<!-- application_records -->
<g id="node2" class="node">
<title>application_records</title>
<ellipse fill="#ffa630" stroke="#ffa630" cx="668.69" cy="-612" rx="81.79" ry="18"/>
<text text-anchor="middle" x="668.69" y="-608.3" font-family="Droid Sans Mono" font-size="14.00">ApplicationRecord</text>
</g>
<!-- categories -->
<g id="node3" class="node">
<title>categories</title>
<ellipse fill="#ffa630" stroke="#ffa630" cx="448.69" cy="-446" rx="46.29" ry="18"/>
<text text-anchor="middle" x="448.69" y="-442.3" font-family="Droid Sans Mono" font-size="14.00">Category</text>
</g>
<!-- serving_satisfiers -->
<g id="node18" class="node">
<title>serving_satisfiers</title>
<ellipse fill="#ffa630" stroke="#ffa630" cx="384.69" cy="-529" rx="72.29" ry="18"/>
<text text-anchor="middle" x="384.69" y="-525.3" font-family="Droid Sans Mono" font-size="14.00">ServingSatisfier</text>
</g>
<!-- categories&#45;&gt;serving_satisfiers -->
<g id="edge2" class="edge">
<title>categories&#45;&gt;serving_satisfiers</title>
<path fill="none" stroke="#00a7e1" d="M414.22,-458.21C403.18,-463.6 392.15,-471.29 385.69,-482 382.41,-487.43 381.07,-493.92 380.79,-500.29"/>
<polygon fill="#00a7e1" stroke="#00a7e1" points="377.3,-500.81 381.13,-510.69 384.3,-500.58 377.3,-500.81"/>
<text text-anchor="middle" x="408.69" y="-485" font-family="Droid Sans Mono" font-size="10.00">has_many</text>
</g>
<!-- combos -->
<g id="node4" class="node">
<title>combos</title>
<ellipse fill="#ffa630" stroke="#ffa630" cx="990.69" cy="-446" rx="39.79" ry="18"/>
<text text-anchor="middle" x="990.69" y="-442.3" font-family="Droid Sans Mono" font-size="14.00">Combo</text>
</g>
<!-- recipes -->
<g id="node16" class="node">
<title>recipes</title>
<ellipse fill="#ffa630" stroke="#ffa630" cx="848.69" cy="-529" rx="38.19" ry="18"/>
<text text-anchor="middle" x="848.69" y="-525.3" font-family="Droid Sans Mono" font-size="14.00">Recipe</text>
</g>
<!-- combos&#45;&gt;recipes -->
<g id="edge3" class="edge">
<title>combos&#45;&gt;recipes</title>
<path fill="none" stroke="#00a7e1" d="M1018.2,-459.05C1034.51,-467.87 1050.15,-480.45 1039.69,-493 1021.87,-514.38 947.58,-522.74 897.07,-525.98"/>
<polygon fill="#00a7e1" stroke="#00a7e1" points="896.77,-522.49 887,-526.58 897.19,-529.48 896.77,-522.49"/>
<text text-anchor="middle" x="1102.19" y="-485" font-family="Droid Sans Mono" font-size="10.00">has_and_belongs_to_many</text>
</g>
<!-- contact_forms -->
<g id="node5" class="node">
<title>contact_forms</title>
<ellipse fill="#ffa630" stroke="#ffa630" cx="830.69" cy="-612" rx="61.99" ry="18"/>
<text text-anchor="middle" x="830.69" y="-608.3" font-family="Droid Sans Mono" font-size="14.00">ContactForm</text>
</g>
<!-- cooking_transformations -->
<g id="node6" class="node">
<title>cooking_transformations</title>
<ellipse fill="#ffa630" stroke="#ffa630" cx="102.69" cy="-446" rx="102.88" ry="18"/>
<text text-anchor="middle" x="102.69" y="-442.3" font-family="Droid Sans Mono" font-size="14.00">CookingTransformation</text>
</g>
<!-- cooking_transformations&#45;&gt;foods -->
<g id="edge4" class="edge">
<title>cooking_transformations&#45;&gt;foods</title>
<path fill="none" stroke="#00a7e1" d="M98.99,-464.4C97.99,-473.58 98.39,-484.63 103.69,-493 111.1,-504.71 123.72,-512.64 136.22,-517.95"/>
<polygon fill="#00a7e1" stroke="#00a7e1" points="135.08,-521.26 145.67,-521.52 137.55,-514.71 135.08,-521.26"/>
<text text-anchor="middle" x="127.69" y="-485" font-family="Droid Sans Mono" font-size="10.00">belongs_to</text>
</g>
<!-- cooking_transformations&#45;&gt;foods -->
<g id="edge5" class="edge">
<title>cooking_transformations&#45;&gt;foods</title>
<path fill="none" stroke="#00a7e1" d="M130.66,-463.33C138.14,-468.62 145.78,-474.95 151.69,-482 156.51,-487.74 160.55,-494.71 163.79,-501.48"/>
<polygon fill="#00a7e1" stroke="#00a7e1" points="160.77,-503.31 167.98,-511.07 167.19,-500.51 160.77,-503.31"/>
<text text-anchor="middle" x="183.69" y="-485" font-family="Droid Sans Mono" font-size="10.00">belongs_to</text>
</g>
<!-- daily_cook_meal_plans -->
<g id="node7" class="node">
<title>daily_cook_meal_plans</title>
<ellipse fill="#ffa630" stroke="#ffa630" cx="997.69" cy="-612" rx="87.99" ry="18"/>
<text text-anchor="middle" x="997.69" y="-608.3" font-family="Droid Sans Mono" font-size="14.00">DailyCookMealPlan</text>
</g>
<!-- days -->
<g id="node8" class="node">
<title>days</title>
<ellipse fill="#ffa630" stroke="#ffa630" cx="814.69" cy="-363" rx="27" ry="18"/>
<text text-anchor="middle" x="814.69" y="-359.3" font-family="Droid Sans Mono" font-size="14.00">Day</text>
</g>
<!-- meals -->
<g id="node12" class="node">
<title>meals</title>
<ellipse fill="#ffa630" stroke="#ffa630" cx="920.69" cy="-280" rx="30.59" ry="18"/>
<text text-anchor="middle" x="920.69" y="-276.3" font-family="Droid Sans Mono" font-size="14.00">Meal</text>
</g>
<!-- days&#45;&gt;meals -->
<g id="edge8" class="edge">
<title>days&#45;&gt;meals</title>
<path fill="none" stroke="#00a7e1" d="M840.15,-356.55C858.36,-351.53 882.43,-342.45 898.69,-327 904.34,-321.63 908.7,-314.52 912,-307.5"/>
<polygon fill="#00a7e1" stroke="#00a7e1" points="915.28,-308.73 915.85,-298.15 908.81,-306.06 915.28,-308.73"/>
<text text-anchor="middle" x="929.69" y="-319" font-family="Droid Sans Mono" font-size="10.00">has_many</text>
</g>
<!-- meal_plans -->
<g id="node13" class="node">
<title>meal_plans</title>
<ellipse fill="#ffa630" stroke="#ffa630" cx="745.69" cy="-280" rx="48.19" ry="18"/>
<text text-anchor="middle" x="745.69" y="-276.3" font-family="Droid Sans Mono" font-size="14.00">MealPlan</text>
</g>
<!-- days&#45;&gt;meal_plans -->
<g id="edge6" class="edge">
<title>days&#45;&gt;meal_plans</title>
<path fill="none" stroke="#00a7e1" d="M787.42,-361.2C762.86,-358.85 728.03,-351.13 710.69,-327 705.03,-319.12 708.64,-310.62 715.33,-303.1"/>
<polygon fill="#00a7e1" stroke="#00a7e1" points="717.99,-305.4 722.82,-295.97 713.16,-300.33 717.99,-305.4"/>
<text text-anchor="middle" x="734.69" y="-319" font-family="Droid Sans Mono" font-size="10.00">belongs_to</text>
</g>
<!-- preps -->
<g id="node15" class="node">
<title>preps</title>
<ellipse fill="#ffa630" stroke="#ffa630" cx="1058.69" cy="-280" rx="29.5" ry="18"/>
<text text-anchor="middle" x="1058.69" y="-276.3" font-family="Droid Sans Mono" font-size="14.00">Prep</text>
</g>
<!-- days&#45;&gt;preps -->
<g id="edge7" class="edge">
<title>days&#45;&gt;preps</title>
<path fill="none" stroke="#00a7e1" d="M840.49,-357.12C869.26,-351.33 916.97,-340.72 956.69,-327 981.15,-318.55 1007.77,-306.44 1027.68,-296.77"/>
<polygon fill="#00a7e1" stroke="#00a7e1" points="1029.45,-299.8 1036.88,-292.24 1026.36,-293.51 1029.45,-299.8"/>
<text text-anchor="middle" x="1004.69" y="-319" font-family="Droid Sans Mono" font-size="10.00">has_many</text>
</g>
<!-- recipe_sets -->
<g id="node17" class="node">
<title>recipe_sets</title>
<ellipse fill="#ffa630" stroke="#ffa630" cx="648.69" cy="-446" rx="51.19" ry="18"/>
<text text-anchor="middle" x="648.69" y="-442.3" font-family="Droid Sans Mono" font-size="14.00">RecipeSet</text>
</g>
<!-- days&#45;&gt;recipe_sets -->
<g id="edge9" class="edge">
<title>days&#45;&gt;recipe_sets</title>
<path fill="none" stroke="#00a7e1" d="M799.39,-378.06C787.83,-388.09 771.17,-401.29 754.69,-410 737.42,-419.14 717.31,-426.5 699.27,-432.08"/>
<polygon fill="#00a7e1" stroke="#00a7e1" points="698.08,-428.78 689.5,-434.99 700.08,-435.49 698.08,-428.78"/>
<text text-anchor="middle" x="790.19" y="-402" font-family="Droid Sans Mono" font-size="10.00">has_one</text>
</g>
<!-- dev_logs -->
<g id="node9" class="node">
<title>dev_logs</title>
<ellipse fill="#ffa630" stroke="#ffa630" cx="1144.69" cy="-612" rx="40.89" ry="18"/>
<text text-anchor="middle" x="1144.69" y="-608.3" font-family="Droid Sans Mono" font-size="14.00">DevLog</text>
</g>
<!-- foods&#45;&gt;alternative_suggestions -->
<g id="edge12" class="edge">
<title>foods&#45;&gt;alternative_suggestions</title>
<path fill="none" stroke="#00a7e1" d="M166.52,-546.6C161.82,-557.47 155.58,-571.91 150.2,-584.37"/>
<polygon fill="#00a7e1" stroke="#00a7e1" points="146.87,-583.25 146.11,-593.82 153.29,-586.03 146.87,-583.25"/>
<text text-anchor="middle" x="181.69" y="-568" font-family="Droid Sans Mono" font-size="10.00">has_many</text>
</g>
<!-- foods&#45;&gt;cooking_transformations -->
<g id="edge10" class="edge">
<title>foods&#45;&gt;cooking_transformations</title>
<path fill="none" stroke="#00a7e1" d="M143.11,-528.09C116.04,-526.34 77.95,-518.99 58.69,-493 52.82,-485.08 56.39,-477.08 63.53,-470.04"/>
<polygon fill="#00a7e1" stroke="#00a7e1" points="66.16,-472.41 71.65,-463.34 61.71,-467.01 66.16,-472.41"/>
<text text-anchor="middle" x="77.19" y="-485" font-family="Droid Sans Mono" font-size="10.00">has_one</text>
</g>
<!-- unhealthy_sources -->
<g id="node20" class="node">
<title>unhealthy_sources</title>
<ellipse fill="#ffa630" stroke="#ffa630" cx="304.69" cy="-446" rx="77.99" ry="18"/>
<text text-anchor="middle" x="304.69" y="-442.3" font-family="Droid Sans Mono" font-size="14.00">UnhealthySource</text>
</g>
<!-- foods&#45;&gt;unhealthy_sources -->
<g id="edge11" class="edge">
<title>foods&#45;&gt;unhealthy_sources</title>
<path fill="none" stroke="#00a7e1" d="M193.44,-515.13C207.85,-505.81 227.88,-492.97 245.69,-482 253.05,-477.47 260.98,-472.69 268.57,-468.17"/>
<polygon fill="#00a7e1" stroke="#00a7e1" points="270.44,-471.13 277.26,-463.02 266.87,-465.11 270.44,-471.13"/>
<text text-anchor="middle" x="268.69" y="-485" font-family="Droid Sans Mono" font-size="10.00">has_many</text>
</g>
<!-- ingredients -->
<g id="node11" class="node">
<title>ingredients</title>
<ellipse fill="#ffa630" stroke="#ffa630" cx="518.69" cy="-612" rx="50.09" ry="18"/>
<text text-anchor="middle" x="518.69" y="-608.3" font-family="Droid Sans Mono" font-size="14.00">Ingredient</text>
</g>
<!-- ingredients&#45;&gt;foods -->
<g id="edge13" class="edge">
<title>ingredients&#45;&gt;foods</title>
<path fill="none" stroke="#00a7e1" d="M468.84,-609.51C415.82,-606.72 330.06,-598.76 259.69,-576 239.49,-569.47 218.45,-558.3 202.23,-548.6"/>
<polygon fill="#00a7e1" stroke="#00a7e1" points="203.64,-545.36 193.28,-543.11 199.97,-551.32 203.64,-545.36"/>
<text text-anchor="middle" x="283.69" y="-568" font-family="Droid Sans Mono" font-size="10.00">belongs_to</text>
</g>
<!-- ingredients&#45;&gt;recipes -->
<g id="edge14" class="edge">
<title>ingredients&#45;&gt;recipes</title>
<path fill="none" stroke="#00a7e1" d="M554.94,-599.39C562.4,-597.33 570.25,-595.4 577.69,-594 664.54,-577.69 692,-604.34 775.69,-576 792.33,-570.36 809.05,-560.24 822.28,-550.91"/>
<polygon fill="#00a7e1" stroke="#00a7e1" points="824.42,-553.68 830.44,-544.96 820.3,-548.03 824.42,-553.68"/>
<text text-anchor="middle" x="822.69" y="-568" font-family="Droid Sans Mono" font-size="10.00">belongs_to</text>
</g>
<!-- ingredients&#45;&gt;recipe_sets -->
<g id="edge15" class="edge">
<title>ingredients&#45;&gt;recipe_sets</title>
<path fill="none" stroke="#00a7e1" d="M516.7,-593.79C515.15,-572.44 515.59,-535.84 532.69,-511 548.87,-487.5 576.6,-471.75 600.89,-461.75"/>
<polygon fill="#00a7e1" stroke="#00a7e1" points="602.3,-464.96 610.35,-458.07 599.76,-458.44 602.3,-464.96"/>
<text text-anchor="middle" x="556.69" y="-526.5" font-family="Droid Sans Mono" font-size="10.00">belongs_to</text>
</g>
<!-- ingredients&#45;&gt;serving_satisfiers -->
<g id="edge16" class="edge">
<title>ingredients&#45;&gt;serving_satisfiers</title>
<path fill="none" stroke="#00a7e1" d="M468.88,-609.57C414.95,-606.85 334.03,-598.94 314.69,-576 304.98,-564.48 314.6,-554.74 329.5,-547.24"/>
<polygon fill="#00a7e1" stroke="#00a7e1" points="331.09,-550.37 338.78,-543.08 328.22,-543.98 331.09,-550.37"/>
<text text-anchor="middle" x="338.69" y="-568" font-family="Droid Sans Mono" font-size="10.00">belongs_to</text>
</g>
<!-- ingredients&#45;&gt;serving_satisfiers -->
<g id="edge17" class="edge">
<title>ingredients&#45;&gt;serving_satisfiers</title>
<path fill="none" stroke="#00a7e1" d="M472.45,-604.81C438.51,-599.21 396.52,-589.73 385.69,-576 381.54,-570.73 380,-563.97 379.81,-557.26"/>
<polygon fill="#00a7e1" stroke="#00a7e1" points="383.32,-557.17 380.44,-546.98 376.34,-556.74 383.32,-557.17"/>
<text text-anchor="middle" x="445.19" y="-568" font-family="Droid Sans Mono" font-size="10.00">has_and_belongs_to_many</text>
</g>
<!-- meals&#45;&gt;days -->
<g id="edge18" class="edge">
<title>meals&#45;&gt;days</title>
<path fill="none" stroke="#00a7e1" d="M894.46,-289.55C879.37,-295.36 860.68,-304.16 846.69,-316 839.9,-321.74 833.88,-329.25 828.95,-336.53"/>
<polygon fill="#00a7e1" stroke="#00a7e1" points="825.68,-335.15 823.3,-345.48 831.6,-338.89 825.68,-335.15"/>
<text text-anchor="middle" x="870.69" y="-319" font-family="Droid Sans Mono" font-size="10.00">belongs_to</text>
</g>
<!-- meals&#45;&gt;recipes -->
<g id="edge19" class="edge">
<title>meals&#45;&gt;recipes</title>
<path fill="none" stroke="#00a7e1" d="M949.64,-286.14C997.42,-294.72 1088.09,-311.47 1093.69,-316 1253.2,-445.14 1176.88,-480.51 1165.69,-493 1148.09,-512.65 981.06,-522.44 896.8,-526.16"/>
<polygon fill="#00a7e1" stroke="#00a7e1" points="896.55,-522.67 886.71,-526.59 896.85,-529.66 896.55,-522.67"/>
<text text-anchor="middle" x="1205.69" y="-402" font-family="Droid Sans Mono" font-size="10.00">belongs_to</text>
</g>
<!-- meal_plans&#45;&gt;days -->
<g id="edge21" class="edge">
<title>meal_plans&#45;&gt;days</title>
<path fill="none" stroke="#00a7e1" d="M758,-297.47C764.79,-306.37 773.49,-317.46 781.69,-327 785.43,-331.35 789.55,-335.89 793.56,-340.21"/>
<polygon fill="#00a7e1" stroke="#00a7e1" points="791.16,-342.77 800.58,-347.63 796.25,-337.96 791.16,-342.77"/>
<text text-anchor="middle" x="804.69" y="-319" font-family="Droid Sans Mono" font-size="10.00">has_many</text>
</g>
<!-- users -->
<g id="node22" class="node">
<title>users</title>
<ellipse fill="#ffa630" stroke="#ffa630" cx="745.69" cy="-197" rx="29.5" ry="18"/>
<text text-anchor="middle" x="745.69" y="-193.3" font-family="Droid Sans Mono" font-size="14.00">User</text>
</g>
<!-- meal_plans&#45;&gt;users -->
<g id="edge20" class="edge">
<title>meal_plans&#45;&gt;users</title>
<path fill="none" stroke="#00a7e1" d="M725.67,-263.56C720.06,-258.06 714.68,-251.38 711.69,-244 707.94,-234.75 712.37,-225.68 719.14,-218.06"/>
<polygon fill="#00a7e1" stroke="#00a7e1" points="721.71,-220.45 726.48,-210.98 716.85,-215.41 721.71,-220.45"/>
<text text-anchor="middle" x="735.69" y="-236" font-family="Droid Sans Mono" font-size="10.00">belongs_to</text>
</g>
<!-- minimalist_meal_plans -->
<g id="node14" class="node">
<title>minimalist_meal_plans</title>
<ellipse fill="#ffa630" stroke="#ffa630" cx="1291.69" cy="-612" rx="87.99" ry="18"/>
<text text-anchor="middle" x="1291.69" y="-608.3" font-family="Droid Sans Mono" font-size="14.00">MinimalistMealPlan</text>
</g>
<!-- preps&#45;&gt;days -->
<g id="edge22" class="edge">
<title>preps&#45;&gt;days</title>
<path fill="none" stroke="#00a7e1" d="M1052.92,-298.06C1048.64,-308.08 1041.78,-320.1 1031.69,-327 1003.12,-346.54 906.08,-355.96 851.95,-359.79"/>
<polygon fill="#00a7e1" stroke="#00a7e1" points="851.47,-356.32 841.73,-360.49 851.94,-363.3 851.47,-356.32"/>
<text text-anchor="middle" x="1065.69" y="-319" font-family="Droid Sans Mono" font-size="10.00">belongs_to</text>
</g>
<!-- preps&#45;&gt;recipes -->
<g id="edge23" class="edge">
<title>preps&#45;&gt;recipes</title>
<path fill="none" stroke="#00a7e1" d="M1084.15,-289.15C1124.74,-303.72 1202.7,-338.5 1233.69,-399 1255.08,-440.75 1226.04,-469.07 1185.69,-493 1138.18,-521.18 978.99,-526.85 897.56,-527.87"/>
<polygon fill="#00a7e1" stroke="#00a7e1" points="897.04,-524.38 887.08,-527.98 897.12,-531.38 897.04,-524.38"/>
<text text-anchor="middle" x="1261.69" y="-402" font-family="Droid Sans Mono" font-size="10.00">belongs_to</text>
</g>
<!-- recipes&#45;&gt;combos -->
<g id="edge26" class="edge">
<title>recipes&#45;&gt;combos</title>
<path fill="none" stroke="#00a7e1" d="M868.41,-513.48C881.71,-503.98 899.85,-491.6 916.69,-482 928.38,-475.33 941.55,-468.81 953.5,-463.24"/>
<polygon fill="#00a7e1" stroke="#00a7e1" points="955.14,-466.33 962.77,-458.99 952.22,-459.97 955.14,-466.33"/>
<text text-anchor="middle" x="976.19" y="-485" font-family="Droid Sans Mono" font-size="10.00">has_and_belongs_to_many</text>
</g>
<!-- recipes&#45;&gt;ingredients -->
<g id="edge24" class="edge">
<title>recipes&#45;&gt;ingredients</title>
<path fill="none" stroke="#00a7e1" d="M814.76,-537.46C763.31,-548.89 662.57,-571.76 577.69,-594 573.86,-595 569.89,-596.08 565.91,-597.17"/>
<polygon fill="#00a7e1" stroke="#00a7e1" points="564.75,-593.86 556.07,-599.93 566.64,-600.6 564.75,-593.86"/>
<text text-anchor="middle" x="711.69" y="-568" font-family="Droid Sans Mono" font-size="10.00">has_many</text>
</g>
<!-- recipes&#45;&gt;recipe_sets -->
<g id="edge25" class="edge">
<title>recipes&#45;&gt;recipe_sets</title>
<path fill="none" stroke="#00a7e1" d="M822.16,-515.72C808.23,-509.16 790.94,-500.84 775.69,-493 766.67,-488.36 765,-486.04 755.69,-482 737.07,-473.92 715.96,-466.64 697.43,-460.83"/>
<polygon fill="#00a7e1" stroke="#00a7e1" points="698.31,-457.44 687.72,-457.85 696.25,-464.13 698.31,-457.44"/>
<text text-anchor="middle" x="835.19" y="-485" font-family="Droid Sans Mono" font-size="10.00">has_and_belongs_to_many</text>
</g>
<!-- recipe_sets&#45;&gt;days -->
<g id="edge27" class="edge">
<title>recipe_sets&#45;&gt;days</title>
<path fill="none" stroke="#00a7e1" d="M664.41,-428.61C674.55,-418.84 688.46,-406.85 702.69,-399 726.67,-385.77 756.34,-376.78 779.12,-371.23"/>
<polygon fill="#00a7e1" stroke="#00a7e1" points="780.11,-374.6 789.06,-368.92 778.52,-367.78 780.11,-374.6"/>
<text text-anchor="middle" x="726.69" y="-402" font-family="Droid Sans Mono" font-size="10.00">belongs_to</text>
</g>
<!-- recipe_sets&#45;&gt;ingredients -->
<g id="edge29" class="edge">
<title>recipe_sets&#45;&gt;ingredients</title>
<path fill="none" stroke="#00a7e1" d="M637.2,-463.72C633.23,-469.51 628.76,-476.03 624.69,-482 605.05,-510.83 602.69,-519.92 580.69,-547 569.17,-561.18 555.08,-575.9 543.24,-587.65"/>
<polygon fill="#00a7e1" stroke="#00a7e1" points="540.54,-585.4 535.84,-594.9 545.44,-590.4 540.54,-585.4"/>
<text text-anchor="middle" x="628.69" y="-526.5" font-family="Droid Sans Mono" font-size="10.00">has_many</text>
</g>
<!-- recipe_sets&#45;&gt;recipes -->
<g id="edge28" class="edge">
<title>recipe_sets&#45;&gt;recipes</title>
<path fill="none" stroke="#00a7e1" d="M635.43,-463.82C629.68,-473.26 625.68,-484.76 632.69,-493 653.72,-517.72 742.9,-525.03 799.89,-527.16"/>
<polygon fill="#00a7e1" stroke="#00a7e1" points="800.02,-530.67 810.14,-527.5 800.26,-523.67 800.02,-530.67"/>
<text text-anchor="middle" x="692.19" y="-485" font-family="Droid Sans Mono" font-size="10.00">has_and_belongs_to_many</text>
</g>
<!-- serving_satisfiers&#45;&gt;categories -->
<g id="edge30" class="edge">
<title>serving_satisfiers&#45;&gt;categories</title>
<path fill="none" stroke="#00a7e1" d="M411.43,-512.18C418.77,-506.83 426.21,-500.33 431.69,-493 435.84,-487.45 439.07,-480.78 441.55,-474.27"/>
<polygon fill="#00a7e1" stroke="#00a7e1" points="445.01,-474.93 444.84,-464.34 438.37,-472.73 445.01,-474.93"/>
<text text-anchor="middle" x="462.69" y="-485" font-family="Droid Sans Mono" font-size="10.00">belongs_to</text>
</g>
<!-- subscriptions -->
<g id="node19" class="node">
<title>subscriptions</title>
<ellipse fill="#ffa630" stroke="#ffa630" cx="745.69" cy="-114" rx="59.29" ry="18"/>
<text text-anchor="middle" x="745.69" y="-110.3" font-family="Droid Sans Mono" font-size="14.00">Subscription</text>
</g>
<!-- subscriptions&#45;&gt;users -->
<g id="edge31" class="edge">
<title>subscriptions&#45;&gt;users</title>
<path fill="none" stroke="#00a7e1" d="M754.29,-131.85C757.71,-140.48 760.45,-151.2 758.69,-161 758.17,-163.87 757.44,-166.81 756.58,-169.72"/>
<polygon fill="#00a7e1" stroke="#00a7e1" points="753.24,-168.66 753.29,-179.25 759.86,-170.94 753.24,-168.66"/>
<text text-anchor="middle" x="782.69" y="-153" font-family="Droid Sans Mono" font-size="10.00">belongs_to</text>
</g>
<!-- unhealthy_sources&#45;&gt;foods -->
<g id="edge32" class="edge">
<title>unhealthy_sources&#45;&gt;foods</title>
<path fill="none" stroke="#00a7e1" d="M303.79,-464.33C302.4,-473.94 299.15,-485.44 291.69,-493 271.44,-513.52 239.76,-522.13 214.32,-525.69"/>
<polygon fill="#00a7e1" stroke="#00a7e1" points="213.73,-522.23 204.21,-526.89 214.55,-529.18 213.73,-522.23"/>
<text text-anchor="middle" x="323.69" y="-485" font-family="Droid Sans Mono" font-size="10.00">belongs_to</text>
</g>
<!-- units -->
<g id="node21" class="node">
<title>units</title>
<ellipse fill="#ffa630" stroke="#ffa630" cx="1424.69" cy="-612" rx="27" ry="18"/>
<text text-anchor="middle" x="1424.69" y="-608.3" font-family="Droid Sans Mono" font-size="14.00">Unit</text>
</g>
<!-- users&#45;&gt;meal_plans -->
<g id="edge34" class="edge">
<title>users&#45;&gt;meal_plans</title>
<path fill="none" stroke="#00a7e1" d="M754.77,-214.4C758.53,-223.08 761.62,-234 759.69,-244 759.16,-246.74 758.42,-249.53 757.56,-252.29"/>
<polygon fill="#00a7e1" stroke="#00a7e1" points="754.17,-251.35 754.02,-261.95 760.75,-253.76 754.17,-251.35"/>
<text text-anchor="middle" x="782.69" y="-236" font-family="Droid Sans Mono" font-size="10.00">has_many</text>
</g>
<!-- users&#45;&gt;subscriptions -->
<g id="edge33" class="edge">
<title>users&#45;&gt;subscriptions</title>
<path fill="none" stroke="#00a7e1" d="M726.68,-183.23C719.64,-177.37 712.47,-169.77 708.69,-161 705.12,-152.7 708.39,-144.67 714.22,-137.7"/>
<polygon fill="#00a7e1" stroke="#00a7e1" points="716.73,-140.13 721.34,-130.59 711.79,-135.18 716.73,-140.13"/>
<text text-anchor="middle" x="731.69" y="-153" font-family="Droid Sans Mono" font-size="10.00">has_many</text>
</g>
</g>
</svg>
