<?xml version="1.0" encoding="UTF-8" standalone="no"?>
<!DOCTYPE svg PUBLIC "-//W3C//DTD SVG 1.1//EN"
 "http://www.w3.org/Graphics/SVG/1.1/DTD/svg11.dtd">
<!-- Generated by graphviz version 2.44.0 (20200408.0750)
 -->
<!-- Title: G Pages: 1 -->
<svg width="1645pt" height="837pt"
 viewBox="0.00 0.00 1645.00 837.00" xmlns="http://www.w3.org/2000/svg" xmlns:xlink="http://www.w3.org/1999/xlink">
<g id="graph0" class="graph" transform="scale(1 1) rotate(0) translate(4 833)">
<title>G</title>
<polygon fill="white" stroke="transparent" points="-4,4 -4,-833 1641,-833 1641,4 -4,4"/>
<text text-anchor="start" x="667.5" y="-29" font-family="Droid Sans Mono" font-size="14.00"> </text>
<text text-anchor="start" x="671.5" y="-29" font-family="Droid Sans Mono" font-size="80.00">citizenry</text>
<text text-anchor="start" x="965.5" y="-29" font-family="Droid Sans Mono" font-size="14.00"> </text>
<!-- authentications -->
<g id="node1" class="node">
<title>authentications</title>
<ellipse fill="#ffa630" stroke="#ffa630" cx="996" cy="-811" rx="66.09" ry="18"/>
<text text-anchor="middle" x="996" y="-807.3" font-family="Droid Sans Mono" font-size="14.00">Authentication</text>
</g>
<!-- users -->
<g id="node15" class="node">
<title>users</title>
<ellipse fill="#ffa630" stroke="#ffa630" cx="996" cy="-728" rx="29.5" ry="18"/>
<text text-anchor="middle" x="996" y="-724.3" font-family="Droid Sans Mono" font-size="14.00">User</text>
</g>
<!-- authentications&#45;&gt;users -->
<g id="edge1" class="edge">
<title>authentications&#45;&gt;users</title>
<path fill="none" stroke="#00a7e1" d="M975.27,-793.85C969.92,-788.49 964.87,-782.06 962,-775 958.25,-765.75 962.68,-756.68 969.45,-749.06"/>
<polygon fill="#00a7e1" stroke="#00a7e1" points="972.02,-751.45 976.79,-741.98 967.16,-746.41 972.02,-751.45"/>
<text text-anchor="middle" x="986" y="-767" font-family="Droid Sans Mono" font-size="10.00">belongs_to</text>
</g>
<!-- companies -->
<g id="node2" class="node">
<title>companies</title>
<ellipse fill="#ffa630" stroke="#ffa630" cx="797" cy="-551" rx="48.99" ry="18"/>
<text text-anchor="middle" x="797" y="-547.3" font-family="Droid Sans Mono" font-size="14.00">Company</text>
</g>
<!-- company_projects -->
<g id="node3" class="node">
<title>company_projects</title>
<ellipse fill="#ffa630" stroke="#ffa630" cx="1003" cy="-457" rx="76.09" ry="18"/>
<text text-anchor="middle" x="1003" y="-453.3" font-family="Droid Sans Mono" font-size="14.00">CompanyProject</text>
</g>
<!-- companies&#45;&gt;company_projects -->
<g id="edge2" class="edge">
<title>companies&#45;&gt;company_projects</title>
<path fill="none" stroke="#00a7e1" d="M830.51,-537.67C844.52,-531.79 860.62,-524.05 874,-515 885.72,-507.07 884.87,-500.29 897,-493 910.49,-484.89 926.09,-478.41 941.1,-473.33"/>
<polygon fill="#00a7e1" stroke="#00a7e1" points="942.4,-476.59 950.85,-470.2 940.26,-469.93 942.4,-476.59"/>
<text text-anchor="middle" x="920" y="-501.5" font-family="Droid Sans Mono" font-size="10.00">has_many</text>
</g>
<!-- employments -->
<g id="node5" class="node">
<title>employments</title>
<ellipse fill="#ffa630" stroke="#ffa630" cx="1157" cy="-457" rx="60.39" ry="18"/>
<text text-anchor="middle" x="1157" y="-453.3" font-family="Droid Sans Mono" font-size="14.00">Employment</text>
</g>
<!-- companies&#45;&gt;employments -->
<g id="edge6" class="edge">
<title>companies&#45;&gt;employments</title>
<path fill="none" stroke="#00a7e1" d="M843.31,-545.22C873.19,-540.66 912.11,-531.85 943,-515 955.42,-508.23 953.29,-499.21 966,-493 1015.24,-468.92 1034.22,-485.57 1088,-475 1092.94,-474.03 1098.06,-472.93 1103.18,-471.78"/>
<polygon fill="#00a7e1" stroke="#00a7e1" points="1104.02,-475.18 1112.97,-469.51 1102.44,-468.36 1104.02,-475.18"/>
<text text-anchor="middle" x="989" y="-501.5" font-family="Droid Sans Mono" font-size="10.00">has_many</text>
</g>
<!-- groups -->
<g id="node6" class="node">
<title>groups</title>
<ellipse fill="#ffa630" stroke="#ffa630" cx="652" cy="-197" rx="36" ry="18"/>
<text text-anchor="middle" x="652" y="-193.3" font-family="Droid Sans Mono" font-size="14.00">Group</text>
</g>
<!-- companies&#45;&gt;groups -->
<g id="edge5" class="edge">
<title>companies&#45;&gt;groups</title>
<path fill="none" stroke="#00a7e1" stroke-dasharray="5,2" d="M749.19,-547.34C721.16,-543.59 686.56,-534.88 662,-515 646.55,-502.5 648.78,-493.69 642,-475 617.33,-406.98 593.89,-387.16 607,-316 613.08,-282.98 627.99,-247.25 638.99,-223.86"/>
<polygon fill="#00a7e1" stroke="#00a7e1" points="642.24,-225.16 643.42,-214.63 635.93,-222.13 642.24,-225.16"/>
<text text-anchor="middle" x="656" y="-366" font-family="Droid Sans Mono" font-size="10.00">has_many Groups </text>
<text text-anchor="middle" x="656" y="-355" font-family="Droid Sans Mono" font-size="10.00"> through Sponsorships</text>
</g>
<!-- people -->
<g id="node9" class="node">
<title>people</title>
<ellipse fill="#ffa630" stroke="#ffa630" cx="996" cy="-645" rx="38.19" ry="18"/>
<text text-anchor="middle" x="996" y="-641.3" font-family="Droid Sans Mono" font-size="14.00">Person</text>
</g>
<!-- companies&#45;&gt;people -->
<g id="edge7" class="edge">
<title>companies&#45;&gt;people</title>
<path fill="none" stroke="#00a7e1" stroke-dasharray="5,2" d="M837.93,-560.87C860.48,-566.64 888.58,-575.28 912,-587 926.79,-594.4 928.39,-599.61 942,-609 949.47,-614.15 957.63,-619.56 965.3,-624.54"/>
<polygon fill="#00a7e1" stroke="#00a7e1" points="963.7,-627.67 974,-630.15 967.49,-621.79 963.7,-627.67"/>
<text text-anchor="middle" x="991.5" y="-601" font-family="Droid Sans Mono" font-size="10.00">has_many People </text>
<text text-anchor="middle" x="991.5" y="-590" font-family="Droid Sans Mono" font-size="10.00"> through Employments</text>
</g>
<!-- projects -->
<g id="node10" class="node">
<title>projects</title>
<ellipse fill="#ffa630" stroke="#ffa630" cx="849" cy="-363" rx="38.19" ry="18"/>
<text text-anchor="middle" x="849" y="-359.3" font-family="Droid Sans Mono" font-size="14.00">Project</text>
</g>
<!-- companies&#45;&gt;projects -->
<g id="edge3" class="edge">
<title>companies&#45;&gt;projects</title>
<path fill="none" stroke="#00a7e1" stroke-dasharray="5,2" d="M759.7,-539.4C706.96,-522.46 620.44,-486.33 653,-439 686.02,-391 754.27,-373.71 800.84,-367.48"/>
<polygon fill="#00a7e1" stroke="#00a7e1" points="801.51,-370.93 811.01,-366.25 800.67,-363.98 801.51,-370.93"/>
<text text-anchor="middle" x="711.5" y="-460" font-family="Droid Sans Mono" font-size="10.00">has_many Projects </text>
<text text-anchor="middle" x="711.5" y="-449" font-family="Droid Sans Mono" font-size="10.00"> through CompanyProjects</text>
</g>
<!-- sponsorships -->
<g id="node14" class="node">
<title>sponsorships</title>
<ellipse fill="#ffa630" stroke="#ffa630" cx="416" cy="-114" rx="59.59" ry="18"/>
<text text-anchor="middle" x="416" y="-110.3" font-family="Droid Sans Mono" font-size="14.00">Sponsorship</text>
</g>
<!-- companies&#45;&gt;sponsorships -->
<g id="edge4" class="edge">
<title>companies&#45;&gt;sponsorships</title>
<path fill="none" stroke="#00a7e1" d="M748.34,-549.52C575.3,-547.19 0,-533.74 0,-458 0,-458 0,-458 0,-196 0,-126.38 227.31,-115.43 345.87,-114.45"/>
<polygon fill="#00a7e1" stroke="#00a7e1" points="345.98,-117.95 355.95,-114.39 345.93,-110.95 345.98,-117.95"/>
<text text-anchor="middle" x="23" y="-319" font-family="Droid Sans Mono" font-size="10.00">has_many</text>
</g>
<!-- company_projects&#45;&gt;companies -->
<g id="edge9" class="edge">
<title>company_projects&#45;&gt;companies</title>
<path fill="none" stroke="#00a7e1" d="M945.5,-468.96C892.73,-479.04 822.62,-492.5 822,-493 812.56,-500.54 806.6,-512.36 802.88,-523.29"/>
<polygon fill="#00a7e1" stroke="#00a7e1" points="799.51,-522.35 800.05,-532.93 806.23,-524.32 799.51,-522.35"/>
<text text-anchor="middle" x="846" y="-501.5" font-family="Droid Sans Mono" font-size="10.00">belongs_to</text>
</g>
<!-- company_projects&#45;&gt;projects -->
<g id="edge8" class="edge">
<title>company_projects&#45;&gt;projects</title>
<path fill="none" stroke="#00a7e1" d="M941.81,-446.29C922.6,-441.09 902.21,-433.14 886,-421 875.23,-412.93 866.71,-400.74 860.58,-389.7"/>
<polygon fill="#00a7e1" stroke="#00a7e1" points="863.69,-388.09 855.99,-380.81 857.47,-391.3 863.69,-388.09"/>
<text text-anchor="middle" x="910" y="-407.5" font-family="Droid Sans Mono" font-size="10.00">belongs_to</text>
</g>
<!-- contact_forms -->
<g id="node4" class="node">
<title>contact_forms</title>
<ellipse fill="#ffa630" stroke="#ffa630" cx="1142" cy="-811" rx="61.99" ry="18"/>
<text text-anchor="middle" x="1142" y="-807.3" font-family="Droid Sans Mono" font-size="14.00">ContactForm</text>
</g>
<!-- employments&#45;&gt;companies -->
<g id="edge11" class="edge">
<title>employments&#45;&gt;companies</title>
<path fill="none" stroke="#00a7e1" d="M1113.3,-469.44C1081.21,-478.03 1042.02,-488.97 1035,-493 1022.73,-500.04 1024.66,-508.69 1012,-515 963.17,-539.33 901.1,-547.35 856.22,-549.72"/>
<polygon fill="#00a7e1" stroke="#00a7e1" points="855.89,-546.23 846.05,-550.18 856.2,-553.23 855.89,-546.23"/>
<text text-anchor="middle" x="1059" y="-501.5" font-family="Droid Sans Mono" font-size="10.00">belongs_to</text>
</g>
<!-- employments&#45;&gt;people -->
<g id="edge10" class="edge">
<title>employments&#45;&gt;people</title>
<path fill="none" stroke="#00a7e1" d="M1132.7,-473.5C1113.11,-487.09 1086.11,-508.47 1069,-533 1048.41,-562.53 1062.25,-579.94 1041,-609 1037.09,-614.35 1032.15,-619.29 1026.98,-623.68"/>
<polygon fill="#00a7e1" stroke="#00a7e1" points="1024.51,-621.17 1018.79,-630.09 1028.82,-626.68 1024.51,-621.17"/>
<text text-anchor="middle" x="1093" y="-548.5" font-family="Droid Sans Mono" font-size="10.00">belongs_to</text>
</g>
<!-- groups&#45;&gt;companies -->
<g id="edge17" class="edge">
<title>groups&#45;&gt;companies</title>
<path fill="none" stroke="#00a7e1" stroke-dasharray="5,2" d="M616.2,-197.25C564.66,-198.19 469.88,-207.81 416,-262 382.62,-295.57 379.42,-441.64 413,-475 458.22,-519.92 643.49,-539.29 739.18,-546.42"/>
<polygon fill="#00a7e1" stroke="#00a7e1" points="739.05,-549.92 749.28,-547.16 739.56,-542.94 739.05,-549.92"/>
<text text-anchor="middle" x="441.5" y="-366" font-family="Droid Sans Mono" font-size="10.00">has_many Companies </text>
<text text-anchor="middle" x="441.5" y="-355" font-family="Droid Sans Mono" font-size="10.00"> through Sponsorships</text>
</g>
<!-- group_memberships -->
<g id="node7" class="node">
<title>group_memberships</title>
<ellipse fill="#ffa630" stroke="#ffa630" cx="1338" cy="-114" rx="85.29" ry="18"/>
<text text-anchor="middle" x="1338" y="-110.3" font-family="Droid Sans Mono" font-size="14.00">GroupMembership</text>
</g>
<!-- groups&#45;&gt;group_memberships -->
<g id="edge14" class="edge">
<title>groups&#45;&gt;group_memberships</title>
<path fill="none" stroke="#00a7e1" d="M686.49,-191.93C790.73,-179.62 1104.61,-142.56 1255.39,-124.75"/>
<polygon fill="#00a7e1" stroke="#00a7e1" points="1256,-128.21 1265.52,-123.56 1255.18,-121.25 1256,-128.21"/>
<text text-anchor="middle" x="1060" y="-153" font-family="Droid Sans Mono" font-size="10.00">has_many</text>
</g>
<!-- group_projects -->
<g id="node8" class="node">
<title>group_projects</title>
<ellipse fill="#ffa630" stroke="#ffa630" cx="761" cy="-280" rx="63.09" ry="18"/>
<text text-anchor="middle" x="761" y="-276.3" font-family="Droid Sans Mono" font-size="14.00">GroupProject</text>
</g>
<!-- groups&#45;&gt;group_projects -->
<g id="edge12" class="edge">
<title>groups&#45;&gt;group_projects</title>
<path fill="none" stroke="#00a7e1" d="M681.52,-207.16C696.81,-212.9 715.13,-221.44 729,-233 735.73,-238.61 741.68,-245.96 746.57,-253.13"/>
<polygon fill="#00a7e1" stroke="#00a7e1" points="743.87,-255.4 752.17,-261.98 749.78,-251.66 743.87,-255.4"/>
<text text-anchor="middle" x="763" y="-236" font-family="Droid Sans Mono" font-size="10.00">has_many</text>
</g>
<!-- groups&#45;&gt;people -->
<g id="edge15" class="edge">
<title>groups&#45;&gt;people</title>
<path fill="none" stroke="#00a7e1" stroke-dasharray="5,2" d="M616.79,-200.71C511.77,-209.24 208,-237.52 208,-279 208,-552 208,-552 208,-552 208,-626.83 775.89,-640.91 947.48,-643.46"/>
<polygon fill="#00a7e1" stroke="#00a7e1" points="947.68,-646.96 957.73,-643.6 947.78,-639.96 947.68,-646.96"/>
<text text-anchor="middle" x="270" y="-413" font-family="Droid Sans Mono" font-size="10.00">has_many People </text>
<text text-anchor="middle" x="270" y="-402" font-family="Droid Sans Mono" font-size="10.00"> through GroupMemberships</text>
</g>
<!-- groups&#45;&gt;projects -->
<g id="edge13" class="edge">
<title>groups&#45;&gt;projects</title>
<path fill="none" stroke="#00a7e1" stroke-dasharray="5,2" d="M687.64,-198.61C769.37,-200.87 966.13,-211.55 1003,-262 1036.36,-307.65 949.59,-338.04 893.12,-352.41"/>
<polygon fill="#00a7e1" stroke="#00a7e1" points="892.18,-349.03 883.31,-354.82 893.86,-355.83 892.18,-349.03"/>
<text text-anchor="middle" x="1061.5" y="-283" font-family="Droid Sans Mono" font-size="10.00">has_many Projects </text>
<text text-anchor="middle" x="1061.5" y="-272" font-family="Droid Sans Mono" font-size="10.00"> through GroupProjects</text>
</g>
<!-- groups&#45;&gt;sponsorships -->
<g id="edge16" class="edge">
<title>groups&#45;&gt;sponsorships</title>
<path fill="none" stroke="#00a7e1" d="M620.94,-187.68C596.79,-181.01 562.54,-171.13 533,-161 508.09,-152.46 480.67,-141.75 458.65,-132.82"/>
<polygon fill="#00a7e1" stroke="#00a7e1" points="459.83,-129.52 449.25,-128.98 457.18,-136 459.83,-129.52"/>
<text text-anchor="middle" x="556" y="-153" font-family="Droid Sans Mono" font-size="10.00">has_many</text>
</g>
<!-- group_memberships&#45;&gt;groups -->
<g id="edge18" class="edge">
<title>group_memberships&#45;&gt;groups</title>
<path fill="none" stroke="#00a7e1" d="M1280.19,-127.31C1229.48,-137.7 1153.65,-152.23 1087,-161 945.56,-179.6 776.85,-189.78 697.5,-193.85"/>
<polygon fill="#00a7e1" stroke="#00a7e1" points="697.18,-190.37 687.37,-194.37 697.53,-197.36 697.18,-190.37"/>
<text text-anchor="middle" x="1181" y="-153" font-family="Droid Sans Mono" font-size="10.00">belongs_to</text>
</g>
<!-- group_memberships&#45;&gt;people -->
<g id="edge19" class="edge">
<title>group_memberships&#45;&gt;people</title>
<path fill="none" stroke="#00a7e1" d="M1409.26,-123.9C1483.46,-135.22 1589,-157.99 1589,-196 1589,-552 1589,-552 1589,-552 1589,-591.44 1557.59,-594.3 1521,-609 1435.31,-643.43 1157.49,-645.31 1044.48,-644.58"/>
<polygon fill="#00a7e1" stroke="#00a7e1" points="1044.42,-641.07 1034.39,-644.5 1044.36,-648.07 1044.42,-641.07"/>
<text text-anchor="middle" x="1613" y="-360.5" font-family="Droid Sans Mono" font-size="10.00">belongs_to</text>
</g>
<!-- group_projects&#45;&gt;groups -->
<g id="edge21" class="edge">
<title>group_projects&#45;&gt;groups</title>
<path fill="none" stroke="#00a7e1" d="M716.78,-266.98C702.89,-261.62 688.26,-254.16 677,-244 671.06,-238.64 666.25,-231.53 662.49,-224.51"/>
<polygon fill="#00a7e1" stroke="#00a7e1" points="665.49,-222.67 658.02,-215.16 659.18,-225.69 665.49,-222.67"/>
<text text-anchor="middle" x="701" y="-236" font-family="Droid Sans Mono" font-size="10.00">belongs_to</text>
</g>
<!-- group_projects&#45;&gt;projects -->
<g id="edge20" class="edge">
<title>group_projects&#45;&gt;projects</title>
<path fill="none" stroke="#00a7e1" d="M759.33,-298.28C759.32,-307.64 760.87,-318.91 767,-327 776.19,-339.13 790.42,-347.1 804.45,-352.33"/>
<polygon fill="#00a7e1" stroke="#00a7e1" points="803.48,-355.69 814.08,-355.52 805.69,-349.05 803.48,-355.69"/>
<text text-anchor="middle" x="791" y="-319" font-family="Droid Sans Mono" font-size="10.00">belongs_to</text>
</g>
<!-- people&#45;&gt;companies -->
<g id="edge28" class="edge">
<title>people&#45;&gt;companies</title>
<path fill="none" stroke="#00a7e1" stroke-dasharray="5,2" d="M957.8,-641.97C908.79,-638.53 827.61,-629.8 807,-609 799.31,-601.24 796.35,-589.78 795.49,-579.18"/>
<polygon fill="#00a7e1" stroke="#00a7e1" points="798.98,-578.93 795.23,-569.02 791.98,-579.1 798.98,-578.93"/>
<text text-anchor="middle" x="857.5" y="-601" font-family="Droid Sans Mono" font-size="10.00">has_many Companies </text>
<text text-anchor="middle" x="857.5" y="-590" font-family="Droid Sans Mono" font-size="10.00"> through Employments</text>
</g>
<!-- people&#45;&gt;employments -->
<g id="edge27" class="edge">
<title>people&#45;&gt;employments</title>
<path fill="none" stroke="#00a7e1" d="M1025.25,-633.13C1052.86,-621.4 1093.42,-600.13 1117,-569 1135.96,-543.97 1146.56,-509.11 1152.01,-485.17"/>
<polygon fill="#00a7e1" stroke="#00a7e1" points="1155.44,-485.83 1154.1,-475.32 1148.6,-484.38 1155.44,-485.83"/>
<text text-anchor="middle" x="1160" y="-548.5" font-family="Droid Sans Mono" font-size="10.00">has_many</text>
</g>
<!-- people&#45;&gt;groups -->
<g id="edge26" class="edge">
<title>people&#45;&gt;groups</title>
<path fill="none" stroke="#00a7e1" stroke-dasharray="5,2" d="M957.6,-644.32C781.66,-645.28 61,-643.65 61,-552 61,-552 61,-552 61,-279 61,-224.05 467.15,-204.54 606.06,-199.48"/>
<polygon fill="#00a7e1" stroke="#00a7e1" points="606.49,-202.96 616.36,-199.11 606.24,-195.97 606.49,-202.96"/>
<text text-anchor="middle" x="123" y="-413" font-family="Droid Sans Mono" font-size="10.00">has_many Groups </text>
<text text-anchor="middle" x="123" y="-402" font-family="Droid Sans Mono" font-size="10.00"> through GroupMemberships</text>
</g>
<!-- people&#45;&gt;group_memberships -->
<g id="edge25" class="edge">
<title>people&#45;&gt;group_memberships</title>
<path fill="none" stroke="#00a7e1" d="M1033.58,-641.21C1151.58,-631.96 1507,-600.11 1507,-552 1507,-552 1507,-552 1507,-196 1507,-154.65 1465.34,-134.39 1423.39,-124.47"/>
<polygon fill="#00a7e1" stroke="#00a7e1" points="1424.12,-121.05 1413.6,-122.34 1422.63,-127.89 1424.12,-121.05"/>
<text text-anchor="middle" x="1530" y="-360.5" font-family="Droid Sans Mono" font-size="10.00">has_many</text>
</g>
<!-- people&#45;&gt;projects -->
<g id="edge24" class="edge">
<title>people&#45;&gt;projects</title>
<path fill="none" stroke="#00a7e1" stroke-dasharray="5,2" d="M1032.73,-639.36C1075.73,-632 1146.26,-613.57 1187,-569 1211.19,-542.54 1197.94,-525.05 1214,-493 1218.31,-484.4 1223.21,-484.2 1226,-475 1230.64,-459.69 1236.15,-451.37 1226,-439 1184.93,-388.96 989.56,-371.69 897.37,-366.26"/>
<polygon fill="#00a7e1" stroke="#00a7e1" points="897.37,-362.75 887.19,-365.68 896.97,-369.74 897.37,-362.75"/>
<text text-anchor="middle" x="1278" y="-507" font-family="Droid Sans Mono" font-size="10.00">has_many Projects </text>
<text text-anchor="middle" x="1278" y="-496" font-family="Droid Sans Mono" font-size="10.00"> through ProjectMemberships</text>
</g>
<!-- project_memberships -->
<g id="node11" class="node">
<title>project_memberships</title>
<ellipse fill="#ffa630" stroke="#ffa630" cx="512" cy="-280" rx="87.18" ry="18"/>
<text text-anchor="middle" x="512" y="-276.3" font-family="Droid Sans Mono" font-size="14.00">ProjectMembership</text>
</g>
<!-- people&#45;&gt;project_memberships -->
<g id="edge23" class="edge">
<title>people&#45;&gt;project_memberships</title>
<path fill="none" stroke="#00a7e1" d="M957.49,-643.58C847.83,-642.08 539.42,-635.51 503,-609 438.91,-562.34 422.92,-513.86 449,-439 459.82,-407.93 481.6,-411.05 495,-381 505.38,-357.72 509.46,-328.79 511.04,-308.04"/>
<polygon fill="#00a7e1" stroke="#00a7e1" points="514.54,-308.21 511.66,-298.02 507.55,-307.78 514.54,-308.21"/>
<text text-anchor="middle" x="472" y="-454.5" font-family="Droid Sans Mono" font-size="10.00">has_many</text>
</g>
<!-- people&#45;&gt;users -->
<g id="edge22" class="edge">
<title>people&#45;&gt;users</title>
<path fill="none" stroke="#00a7e1" d="M1001.3,-662.97C1003.4,-671.62 1005.09,-682.33 1004,-692 1003.7,-694.69 1003.26,-697.48 1002.76,-700.26"/>
<polygon fill="#00a7e1" stroke="#00a7e1" points="999.33,-699.53 1000.68,-710.04 1006.18,-700.99 999.33,-699.53"/>
<text text-anchor="middle" x="1029" y="-684" font-family="Droid Sans Mono" font-size="10.00">belongs_to</text>
</g>
<!-- projects&#45;&gt;companies -->
<g id="edge32" class="edge">
<title>projects&#45;&gt;companies</title>
<path fill="none" stroke="#00a7e1" stroke-dasharray="5,2" d="M835.14,-379.97C823.61,-394.34 808,-416.57 801,-439 792.37,-466.65 792.49,-500.07 794.06,-522.97"/>
<polygon fill="#00a7e1" stroke="#00a7e1" points="790.58,-523.31 794.89,-532.99 797.55,-522.73 790.58,-523.31"/>
<text text-anchor="middle" x="859.5" y="-460" font-family="Droid Sans Mono" font-size="10.00">has_many Companies </text>
<text text-anchor="middle" x="859.5" y="-449" font-family="Droid Sans Mono" font-size="10.00"> through CompanyProjects</text>
</g>
<!-- projects&#45;&gt;company_projects -->
<g id="edge31" class="edge">
<title>projects&#45;&gt;company_projects</title>
<path fill="none" stroke="#00a7e1" d="M879.56,-374.05C896.23,-380.15 916.9,-388.73 934,-399 949.74,-408.44 965.64,-421.31 978.21,-432.43"/>
<polygon fill="#00a7e1" stroke="#00a7e1" points="976.19,-435.32 985.95,-439.43 980.88,-430.12 976.19,-435.32"/>
<text text-anchor="middle" x="987" y="-407.5" font-family="Droid Sans Mono" font-size="10.00">has_many</text>
</g>
<!-- projects&#45;&gt;groups -->
<g id="edge34" class="edge">
<title>projects&#45;&gt;groups</title>
<path fill="none" stroke="#00a7e1" stroke-dasharray="5,2" d="M865.55,-346.5C872.71,-337.89 878.69,-326.76 875,-316 865.13,-287.24 855.21,-282.76 833,-262 795.25,-226.73 736.86,-210.7 696.66,-203.55"/>
<polygon fill="#00a7e1" stroke="#00a7e1" points="697.04,-200.07 686.6,-201.88 695.89,-206.97 697.04,-200.07"/>
<text text-anchor="middle" x="917.5" y="-283" font-family="Droid Sans Mono" font-size="10.00">has_many Groups </text>
<text text-anchor="middle" x="917.5" y="-272" font-family="Droid Sans Mono" font-size="10.00"> through GroupProjects</text>
</g>
<!-- projects&#45;&gt;group_projects -->
<g id="edge33" class="edge">
<title>projects&#45;&gt;group_projects</title>
<path fill="none" stroke="#00a7e1" d="M838.95,-345.53C832.76,-336.21 824.26,-324.71 815,-316 809.63,-310.95 803.44,-306.18 797.21,-301.87"/>
<polygon fill="#00a7e1" stroke="#00a7e1" points="799.04,-298.89 788.76,-296.32 795.19,-304.74 799.04,-298.89"/>
<text text-anchor="middle" x="848" y="-319" font-family="Droid Sans Mono" font-size="10.00">has_many</text>
</g>
<!-- projects&#45;&gt;people -->
<g id="edge30" class="edge">
<title>projects&#45;&gt;people</title>
<path fill="none" stroke="#00a7e1" stroke-dasharray="5,2" d="M886.91,-365.78C963.45,-369.71 1133.85,-380.31 1189,-399 1264.59,-424.62 1303.04,-423.35 1342,-493 1406.62,-608.54 1153.88,-635.76 1044.34,-642.1"/>
<polygon fill="#00a7e1" stroke="#00a7e1" points="1044,-638.61 1034.2,-642.65 1044.38,-645.6 1044,-638.61"/>
<text text-anchor="middle" x="1414" y="-507" font-family="Droid Sans Mono" font-size="10.00">has_many People </text>
<text text-anchor="middle" x="1414" y="-496" font-family="Droid Sans Mono" font-size="10.00"> through ProjectMemberships</text>
</g>
<!-- projects&#45;&gt;project_memberships -->
<g id="edge29" class="edge">
<title>projects&#45;&gt;project_memberships</title>
<path fill="none" stroke="#00a7e1" d="M815.68,-353.87C787.88,-347 747.26,-336.74 712,-327 695.46,-322.43 691.62,-320.25 675,-316 645.02,-308.34 611.66,-300.97 582.97,-294.99"/>
<polygon fill="#00a7e1" stroke="#00a7e1" points="583.53,-291.53 573.02,-292.94 582.11,-298.39 583.53,-291.53"/>
<text text-anchor="middle" x="735" y="-319" font-family="Droid Sans Mono" font-size="10.00">has_many</text>
</g>
<!-- project_memberships&#45;&gt;people -->
<g id="edge36" class="edge">
<title>project_memberships&#45;&gt;people</title>
<path fill="none" stroke="#00a7e1" d="M517.91,-298.07C519.86,-303.77 522.04,-310.15 524,-316 547.61,-386.5 530.01,-416.58 576,-475 646.11,-564.07 686.99,-568.86 793,-609 843.98,-628.3 906.22,-637.03 948.24,-640.93"/>
<polygon fill="#00a7e1" stroke="#00a7e1" points="947.94,-644.41 958.2,-641.8 948.55,-637.44 947.94,-644.41"/>
<text text-anchor="middle" x="600" y="-454.5" font-family="Droid Sans Mono" font-size="10.00">belongs_to</text>
</g>
<!-- project_memberships&#45;&gt;projects -->
<g id="edge35" class="edge">
<title>project_memberships&#45;&gt;projects</title>
<path fill="none" stroke="#00a7e1" d="M544.3,-296.8C566.06,-306.84 595.68,-319.34 623,-327 683.42,-343.93 755.38,-353.3 801.6,-357.99"/>
<polygon fill="#00a7e1" stroke="#00a7e1" points="801.33,-361.48 811.63,-358.97 802.01,-354.51 801.33,-361.48"/>
<text text-anchor="middle" x="647" y="-319" font-family="Droid Sans Mono" font-size="10.00">belongs_to</text>
</g>
<!-- resource_links -->
<g id="node12" class="node">
<title>resource_links</title>
<ellipse fill="#ffa630" stroke="#ffa630" cx="1286" cy="-811" rx="64.19" ry="18"/>
<text text-anchor="middle" x="1286" y="-807.3" font-family="Droid Sans Mono" font-size="14.00">ResourceLink</text>
</g>
<!-- sign_in_data -->
<g id="node13" class="node">
<title>sign_in_data</title>
<ellipse fill="#ffa630" stroke="#ffa630" cx="1422" cy="-811" rx="53.89" ry="18"/>
<text text-anchor="middle" x="1422" y="-807.3" font-family="Droid Sans Mono" font-size="14.00">SignInData</text>
</g>
<!-- sponsorships&#45;&gt;companies -->
<g id="edge37" class="edge">
<title>sponsorships&#45;&gt;companies</title>
<path fill="none" stroke="#00a7e1" d="M385.47,-129.72C362.15,-143.33 334,-165.98 334,-196 334,-322.5 334,-322.5 334,-322.5 334,-419.96 349.49,-476.46 439,-515 491.35,-537.54 651.03,-545.73 738.39,-548.58"/>
<polygon fill="#00a7e1" stroke="#00a7e1" points="738.31,-552.07 748.42,-548.89 738.53,-545.08 738.31,-552.07"/>
<text text-anchor="middle" x="359" y="-319" font-family="Droid Sans Mono" font-size="10.00">belongs_to</text>
</g>
<!-- sponsorships&#45;&gt;groups -->
<g id="edge38" class="edge">
<title>sponsorships&#45;&gt;groups</title>
<path fill="none" stroke="#00a7e1" d="M470.27,-121.77C502.67,-127 544.15,-135.8 579,-150 595.16,-156.58 611.73,-166.7 624.99,-175.77"/>
<polygon fill="#00a7e1" stroke="#00a7e1" points="622.99,-178.65 633.18,-181.53 627.02,-172.92 622.99,-178.65"/>
<text text-anchor="middle" x="625" y="-153" font-family="Droid Sans Mono" font-size="10.00">belongs_to</text>
</g>
<!-- users&#45;&gt;authentications -->
<g id="edge40" class="edge">
<title>users&#45;&gt;authentications</title>
<path fill="none" stroke="#00a7e1" d="M1005.07,-745.4C1008.84,-754.08 1011.93,-765 1010,-775 1009.47,-777.74 1008.73,-780.53 1007.87,-783.29"/>
<polygon fill="#00a7e1" stroke="#00a7e1" points="1004.48,-782.35 1004.33,-792.95 1011.05,-784.76 1004.48,-782.35"/>
<text text-anchor="middle" x="1034" y="-767" font-family="Droid Sans Mono" font-size="10.00">has_many</text>
</g>
<!-- users&#45;&gt;people -->
<g id="edge39" class="edge">
<title>users&#45;&gt;people</title>
<path fill="none" stroke="#00a7e1" d="M978.65,-713.51C972.49,-707.64 966.27,-700.23 963,-692 959.64,-683.55 963.02,-675.2 968.71,-667.98"/>
<polygon fill="#00a7e1" stroke="#00a7e1" points="971.3,-670.33 975.58,-660.63 966.19,-665.55 971.3,-670.33"/>
<text text-anchor="middle" x="981.5" y="-684" font-family="Droid Sans Mono" font-size="10.00">has_one</text>
</g>
</g>
</svg>
