<?xml version="1.0" encoding="UTF-8" standalone="no"?>
<!DOCTYPE svg PUBLIC "-//W3C//DTD SVG 1.1//EN"
 "http://www.w3.org/Graphics/SVG/1.1/DTD/svg11.dtd">
<!-- Generated by graphviz version 2.44.0 (20200408.0750)
 -->
<!-- Title: G Pages: 1 -->
<svg width="1592pt" height="837pt"
 viewBox="0.00 0.00 1592.00 837.00" xmlns="http://www.w3.org/2000/svg" xmlns:xlink="http://www.w3.org/1999/xlink">
<g id="graph0" class="graph" transform="scale(1 1) rotate(0) translate(4 833)">
<title>G</title>
<polygon fill="white" stroke="transparent" points="-4,4 -4,-833 1588,-833 1588,4 -4,4"/>
<text text-anchor="start" x="648" y="-29" font-family="Times,serif" font-size="14.00"> </text>
<text text-anchor="start" x="652" y="-29" font-family="Times,serif" font-size="80.00">citizenry</text>
<text text-anchor="start" x="932" y="-29" font-family="Times,serif" font-size="14.00"> </text>
<!-- authentication -->
<g id="node1" class="node">
<title>authentication</title>
<ellipse fill="teal" stroke="teal" cx="987" cy="-811" rx="60.39" ry="18"/>
<text text-anchor="middle" x="987" y="-807.3" font-family="Times,serif" font-size="14.00">authentication</text>
</g>
<!-- user -->
<g id="node15" class="node">
<title>user</title>
<ellipse fill="teal" stroke="teal" cx="987" cy="-728" rx="27" ry="18"/>
<text text-anchor="middle" x="987" y="-724.3" font-family="Times,serif" font-size="14.00">user</text>
</g>
<!-- authentication&#45;&gt;user -->
<g id="edge1" class="edge">
<title>authentication&#45;&gt;user</title>
<path fill="none" stroke="black" d="M965.27,-794.13C956.63,-785.75 949.65,-774.96 954,-764 956.08,-758.76 959.36,-753.85 963.06,-749.46"/>
<polygon fill="black" stroke="black" points="965.64,-751.82 970,-742.16 960.57,-746.99 965.64,-751.82"/>
<text text-anchor="middle" x="977" y="-767" font-family="Times,serif" font-size="10.00">belongs_to</text>
</g>
<!-- company -->
<g id="node2" class="node">
<title>company</title>
<ellipse fill="teal" stroke="teal" cx="770" cy="-551" rx="43.59" ry="18"/>
<text text-anchor="middle" x="770" y="-547.3" font-family="Times,serif" font-size="14.00">company</text>
</g>
<!-- company_project -->
<g id="node3" class="node">
<title>company_project</title>
<ellipse fill="teal" stroke="teal" cx="969" cy="-457" rx="72.29" ry="18"/>
<text text-anchor="middle" x="969" y="-453.3" font-family="Times,serif" font-size="14.00">company_project</text>
</g>
<!-- company&#45;&gt;company_project -->
<g id="edge2" class="edge">
<title>company&#45;&gt;company_project</title>
<path fill="none" stroke="black" d="M801.62,-538.46C816.06,-532.49 833.01,-524.46 847,-515 858.72,-507.07 857.95,-500.41 870,-493 882.62,-485.24 897.2,-478.88 911.22,-473.81"/>
<polygon fill="black" stroke="black" points="912.5,-477.07 920.81,-470.51 910.22,-470.46 912.5,-477.07"/>
<text text-anchor="middle" x="891" y="-501.5" font-family="Times,serif" font-size="10.00">has_many</text>
</g>
<!-- employment -->
<g id="node5" class="node">
<title>employment</title>
<ellipse fill="teal" stroke="teal" cx="1115" cy="-457" rx="55.79" ry="18"/>
<text text-anchor="middle" x="1115" y="-453.3" font-family="Times,serif" font-size="14.00">employment</text>
</g>
<!-- company&#45;&gt;employment -->
<g id="edge6" class="edge">
<title>company&#45;&gt;employment</title>
<path fill="none" stroke="black" d="M811.54,-545.55C841.02,-541.04 880.73,-532.18 912,-515 924.4,-508.19 922.32,-499.27 935,-493 981.37,-470.07 999.36,-485.56 1050,-475 1054.68,-474.02 1059.52,-472.93 1064.36,-471.77"/>
<polygon fill="black" stroke="black" points="1065.36,-475.13 1074.23,-469.33 1063.69,-468.33 1065.36,-475.13"/>
<text text-anchor="middle" x="956" y="-501.5" font-family="Times,serif" font-size="10.00">has_many</text>
</g>
<!-- group -->
<g id="node6" class="node">
<title>group</title>
<ellipse fill="teal" stroke="teal" cx="628" cy="-197" rx="31.4" ry="18"/>
<text text-anchor="middle" x="628" y="-193.3" font-family="Times,serif" font-size="14.00">group</text>
</g>
<!-- company&#45;&gt;group -->
<g id="edge5" class="edge">
<title>company&#45;&gt;group</title>
<path fill="none" stroke="black" stroke-dasharray="5,2" d="M727.23,-547.32C700.14,-543.61 665.84,-534.97 642,-515 626.91,-502.36 629.58,-493.55 623,-475 598.77,-406.72 574.94,-387.44 587,-316 590.02,-298.11 606.6,-253.22 617.73,-224.25"/>
<polygon fill="black" stroke="black" points="621.06,-225.33 621.41,-214.74 614.53,-222.8 621.06,-225.33"/>
<text text-anchor="middle" x="632" y="-366" font-family="Times,serif" font-size="10.00">has_many groups </text>
<text text-anchor="middle" x="632" y="-355" font-family="Times,serif" font-size="10.00"> through sponsorships</text>
</g>
<!-- person -->
<g id="node9" class="node">
<title>person</title>
<ellipse fill="teal" stroke="teal" cx="987" cy="-645" rx="34.39" ry="18"/>
<text text-anchor="middle" x="987" y="-641.3" font-family="Times,serif" font-size="14.00">person</text>
</g>
<!-- company&#45;&gt;person -->
<g id="edge7" class="edge">
<title>company&#45;&gt;person</title>
<path fill="none" stroke="black" stroke-dasharray="5,2" d="M803.6,-562.49C823.43,-568.97 848.91,-577.78 871,-587 873.12,-587.89 920.17,-611.05 953.69,-627.57"/>
<polygon fill="black" stroke="black" points="952.22,-630.75 962.74,-632.03 955.32,-624.47 952.22,-630.75"/>
<text text-anchor="middle" x="960" y="-601" font-family="Times,serif" font-size="10.00">has_many people </text>
<text text-anchor="middle" x="960" y="-590" font-family="Times,serif" font-size="10.00"> through employments</text>
</g>
<!-- project -->
<g id="node10" class="node">
<title>project</title>
<ellipse fill="teal" stroke="teal" cx="820" cy="-363" rx="35.19" ry="18"/>
<text text-anchor="middle" x="820" y="-359.3" font-family="Times,serif" font-size="14.00">project</text>
</g>
<!-- company&#45;&gt;project -->
<g id="edge3" class="edge">
<title>company&#45;&gt;project</title>
<path fill="none" stroke="black" stroke-dasharray="5,2" d="M736.1,-539.67C686.02,-522.59 601.44,-485.66 633,-439 664.73,-392.09 731.11,-374.52 775.63,-367.94"/>
<polygon fill="black" stroke="black" points="776.16,-371.4 785.61,-366.59 775.23,-364.46 776.16,-371.4"/>
<text text-anchor="middle" x="689" y="-460" font-family="Times,serif" font-size="10.00">has_many projects </text>
<text text-anchor="middle" x="689" y="-449" font-family="Times,serif" font-size="10.00"> through company_projects</text>
</g>
<!-- sponsorship -->
<g id="node14" class="node">
<title>sponsorship</title>
<ellipse fill="teal" stroke="teal" cx="379" cy="-114" rx="52.79" ry="18"/>
<text text-anchor="middle" x="379" y="-110.3" font-family="Times,serif" font-size="14.00">sponsorship</text>
</g>
<!-- company&#45;&gt;sponsorship -->
<g id="edge4" class="edge">
<title>company&#45;&gt;sponsorship</title>
<path fill="none" stroke="black" d="M726.4,-549.41C563.51,-546.64 0,-531.71 0,-458 0,-458 0,-458 0,-196 0,-132.12 208.49,-118.44 316.2,-115.64"/>
<polygon fill="black" stroke="black" points="316.39,-119.13 326.3,-115.4 316.22,-112.13 316.39,-119.13"/>
<text text-anchor="middle" x="21" y="-319" font-family="Times,serif" font-size="10.00">has_many</text>
</g>
<!-- company_project&#45;&gt;company -->
<g id="edge9" class="edge">
<title>company_project&#45;&gt;company</title>
<path fill="none" stroke="black" d="M914.14,-468.86C864.25,-478.79 798.19,-492.07 797,-493 787.37,-500.55 781,-512.37 776.88,-523.3"/>
<polygon fill="black" stroke="black" points="773.51,-522.34 773.7,-532.93 780.16,-524.53 773.51,-522.34"/>
<text text-anchor="middle" x="820" y="-501.5" font-family="Times,serif" font-size="10.00">belongs_to</text>
</g>
<!-- company_project&#45;&gt;project -->
<g id="edge8" class="edge">
<title>company_project&#45;&gt;project</title>
<path fill="none" stroke="black" d="M924.2,-442.89C908.89,-437.36 892.09,-430.07 878,-421 863.72,-411.81 850.06,-398.68 839.59,-387.33"/>
<polygon fill="black" stroke="black" points="842.15,-384.95 832.88,-379.84 836.94,-389.62 842.15,-384.95"/>
<text text-anchor="middle" x="901" y="-407.5" font-family="Times,serif" font-size="10.00">belongs_to</text>
</g>
<!-- contact_form -->
<g id="node4" class="node">
<title>contact_form</title>
<ellipse fill="teal" stroke="teal" cx="1123" cy="-811" rx="57.69" ry="18"/>
<text text-anchor="middle" x="1123" y="-807.3" font-family="Times,serif" font-size="14.00">contact_form</text>
</g>
<!-- employment&#45;&gt;company -->
<g id="edge11" class="edge">
<title>employment&#45;&gt;company</title>
<path fill="none" stroke="black" d="M1074.12,-469.44C1043.81,-478.09 1006.64,-489.11 1000,-493 987.79,-500.14 989.64,-508.65 977,-515 928.75,-539.23 867.04,-547.13 823.59,-549.5"/>
<polygon fill="black" stroke="black" points="823.34,-546.01 813.51,-549.97 823.66,-553 823.34,-546.01"/>
<text text-anchor="middle" x="1023" y="-501.5" font-family="Times,serif" font-size="10.00">belongs_to</text>
</g>
<!-- employment&#45;&gt;person -->
<g id="edge10" class="edge">
<title>employment&#45;&gt;person</title>
<path fill="none" stroke="black" d="M1093.61,-473.74C1076.04,-487.63 1051.6,-509.31 1036,-533 1016.21,-563.07 1023.55,-576.53 1008,-609 1006.45,-612.23 1004.7,-615.55 1002.88,-618.79"/>
<polygon fill="black" stroke="black" points="999.74,-617.22 997.7,-627.62 1005.78,-620.77 999.74,-617.22"/>
<text text-anchor="middle" x="1059" y="-548.5" font-family="Times,serif" font-size="10.00">belongs_to</text>
</g>
<!-- group&#45;&gt;company -->
<g id="edge17" class="edge">
<title>group&#45;&gt;company</title>
<path fill="none" stroke="black" stroke-dasharray="5,2" d="M596.78,-197.65C548.54,-198.89 456.13,-208.63 405,-262 372.25,-296.2 366.39,-440.66 399,-475 441.92,-520.19 624.93,-539.59 716.86,-546.61"/>
<polygon fill="black" stroke="black" points="716.84,-550.12 727.07,-547.36 717.35,-543.13 716.84,-550.12"/>
<text text-anchor="middle" x="424" y="-366" font-family="Times,serif" font-size="10.00">has_many companies </text>
<text text-anchor="middle" x="424" y="-355" font-family="Times,serif" font-size="10.00"> through sponsorships</text>
</g>
<!-- group_membership -->
<g id="node7" class="node">
<title>group_membership</title>
<ellipse fill="teal" stroke="teal" cx="1275" cy="-114" rx="79.89" ry="18"/>
<text text-anchor="middle" x="1275" y="-110.3" font-family="Times,serif" font-size="14.00">group_membership</text>
</g>
<!-- group&#45;&gt;group_membership -->
<g id="edge14" class="edge">
<title>group&#45;&gt;group_membership</title>
<path fill="none" stroke="black" d="M658.34,-192.2C754.34,-180.18 1053.61,-142.72 1196.95,-124.77"/>
<polygon fill="black" stroke="black" points="1197.5,-128.23 1206.99,-123.51 1196.63,-121.28 1197.5,-128.23"/>
<text text-anchor="middle" x="1012" y="-153" font-family="Times,serif" font-size="10.00">has_many</text>
</g>
<!-- group_project -->
<g id="node8" class="node">
<title>group_project</title>
<ellipse fill="teal" stroke="teal" cx="726" cy="-280" rx="59.59" ry="18"/>
<text text-anchor="middle" x="726" y="-276.3" font-family="Times,serif" font-size="14.00">group_project</text>
</g>
<!-- group&#45;&gt;group_project -->
<g id="edge12" class="edge">
<title>group&#45;&gt;group_project</title>
<path fill="none" stroke="black" d="M653.96,-207.23C667.85,-213.08 684.59,-221.69 697,-233 703.28,-238.72 708.73,-246.11 713.16,-253.28"/>
<polygon fill="black" stroke="black" points="710.2,-255.16 718.2,-262.1 716.28,-251.68 710.2,-255.16"/>
<text text-anchor="middle" x="727" y="-236" font-family="Times,serif" font-size="10.00">has_many</text>
</g>
<!-- group&#45;&gt;person -->
<g id="edge15" class="edge">
<title>group&#45;&gt;person</title>
<path fill="none" stroke="black" stroke-dasharray="5,2" d="M596.53,-197.28C497.69,-195.86 200,-198.27 200,-279 200,-552 200,-552 200,-552 200,-627.25 775,-641.08 942.02,-643.5"/>
<polygon fill="black" stroke="black" points="942.38,-647.01 952.42,-643.65 942.47,-640.01 942.38,-647.01"/>
<text text-anchor="middle" x="260" y="-413" font-family="Times,serif" font-size="10.00">has_many people </text>
<text text-anchor="middle" x="260" y="-402" font-family="Times,serif" font-size="10.00"> through group_memberships</text>
</g>
<!-- group&#45;&gt;project -->
<g id="edge13" class="edge">
<title>group&#45;&gt;project</title>
<path fill="none" stroke="black" stroke-dasharray="5,2" d="M659.17,-198.67C736.36,-201.08 932.77,-212.1 969,-262 1001.73,-307.1 915.99,-337.99 861.34,-352.52"/>
<polygon fill="black" stroke="black" points="860.35,-349.16 851.54,-355.04 862.09,-355.94 860.35,-349.16"/>
<text text-anchor="middle" x="1026.5" y="-283" font-family="Times,serif" font-size="10.00">has_many projects </text>
<text text-anchor="middle" x="1026.5" y="-272" font-family="Times,serif" font-size="10.00"> through group_projects</text>
</g>
<!-- group&#45;&gt;sponsorship -->
<g id="edge16" class="edge">
<title>group&#45;&gt;sponsorship</title>
<path fill="none" stroke="black" d="M599.33,-189.9C571.38,-183.67 527.82,-173.2 491,-161 466.6,-152.92 439.96,-142.06 418.78,-132.93"/>
<polygon fill="black" stroke="black" points="420.03,-129.65 409.47,-128.87 417.23,-136.07 420.03,-129.65"/>
<text text-anchor="middle" x="512" y="-153" font-family="Times,serif" font-size="10.00">has_many</text>
</g>
<!-- group_membership&#45;&gt;group -->
<g id="edge18" class="edge">
<title>group_membership&#45;&gt;group</title>
<path fill="none" stroke="black" d="M1220.45,-127.25C1172.38,-137.63 1100.36,-152.19 1037,-161 903.12,-179.61 743.11,-189.86 669.18,-193.92"/>
<polygon fill="black" stroke="black" points="668.71,-190.44 658.91,-194.47 669.08,-197.43 668.71,-190.44"/>
<text text-anchor="middle" x="1126" y="-153" font-family="Times,serif" font-size="10.00">belongs_to</text>
</g>
<!-- group_membership&#45;&gt;person -->
<g id="edge19" class="edge">
<title>group_membership&#45;&gt;person</title>
<path fill="none" stroke="black" d="M1345.13,-122.67C1423.04,-133.19 1538,-155.57 1538,-196 1538,-552 1538,-552 1538,-552 1538,-590.09 1509.09,-594.18 1474,-609 1395.02,-642.36 1136.74,-644.85 1031.87,-644.43"/>
<polygon fill="black" stroke="black" points="1031.64,-640.93 1021.62,-644.38 1031.6,-647.93 1031.64,-640.93"/>
<text text-anchor="middle" x="1561" y="-360.5" font-family="Times,serif" font-size="10.00">belongs_to</text>
</g>
<!-- group_project&#45;&gt;group -->
<g id="edge21" class="edge">
<title>group_project&#45;&gt;group</title>
<path fill="none" stroke="black" d="M683.78,-267.16C670.68,-261.81 657.05,-254.31 647,-244 641.81,-238.68 637.97,-231.74 635.15,-224.88"/>
<polygon fill="black" stroke="black" points="638.32,-223.34 631.71,-215.06 631.71,-225.66 638.32,-223.34"/>
<text text-anchor="middle" x="670" y="-236" font-family="Times,serif" font-size="10.00">belongs_to</text>
</g>
<!-- group_project&#45;&gt;project -->
<g id="edge20" class="edge">
<title>group_project&#45;&gt;project</title>
<path fill="none" stroke="black" d="M728.1,-298.02C730.04,-307.52 733.79,-319.02 741,-327 751.03,-338.11 765.25,-345.88 778.86,-351.22"/>
<polygon fill="black" stroke="black" points="778,-354.63 788.59,-354.69 780.35,-348.03 778,-354.63"/>
<text text-anchor="middle" x="764" y="-319" font-family="Times,serif" font-size="10.00">belongs_to</text>
</g>
<!-- person&#45;&gt;company -->
<g id="edge28" class="edge">
<title>person&#45;&gt;company</title>
<path fill="none" stroke="black" stroke-dasharray="5,2" d="M952.54,-643.26C898.72,-641.32 798.45,-634.31 775,-609 767.71,-601.13 765.68,-589.76 765.77,-579.23"/>
<polygon fill="black" stroke="black" points="769.27,-579.37 766.45,-569.16 762.28,-578.9 769.27,-579.37"/>
<text text-anchor="middle" x="821" y="-601" font-family="Times,serif" font-size="10.00">has_many companies </text>
<text text-anchor="middle" x="821" y="-590" font-family="Times,serif" font-size="10.00"> through employments</text>
</g>
<!-- person&#45;&gt;employment -->
<g id="edge27" class="edge">
<title>person&#45;&gt;employment</title>
<path fill="none" stroke="black" d="M1009.92,-631.52C1031.55,-618.61 1063.37,-596.48 1082,-569 1099.22,-543.6 1107.63,-509.03 1111.63,-485.26"/>
<polygon fill="black" stroke="black" points="1115.12,-485.58 1113.16,-475.16 1108.2,-484.52 1115.12,-485.58"/>
<text text-anchor="middle" x="1121" y="-548.5" font-family="Times,serif" font-size="10.00">has_many</text>
</g>
<!-- person&#45;&gt;group -->
<g id="edge26" class="edge">
<title>person&#45;&gt;group</title>
<path fill="none" stroke="black" stroke-dasharray="5,2" d="M952.52,-644.28C784.21,-645.19 57,-643.82 57,-552 57,-552 57,-552 57,-279 57,-225.44 455.85,-204.83 586.85,-199.5"/>
<polygon fill="black" stroke="black" points="587.04,-203 596.9,-199.1 586.76,-196 587.04,-203"/>
<text text-anchor="middle" x="117" y="-413" font-family="Times,serif" font-size="10.00">has_many groups </text>
<text text-anchor="middle" x="117" y="-402" font-family="Times,serif" font-size="10.00"> through group_memberships</text>
</g>
<!-- person&#45;&gt;group_membership -->
<g id="edge25" class="edge">
<title>person&#45;&gt;group_membership</title>
<path fill="none" stroke="black" d="M1021.78,-644.62C1131.01,-645.64 1460,-641.3 1460,-552 1460,-552 1460,-552 1460,-196 1460,-149.26 1409.83,-129.23 1361.74,-120.77"/>
<polygon fill="black" stroke="black" points="1362.28,-117.31 1351.85,-119.18 1361.17,-124.23 1362.28,-117.31"/>
<text text-anchor="middle" x="1481" y="-360.5" font-family="Times,serif" font-size="10.00">has_many</text>
</g>
<!-- person&#45;&gt;project -->
<g id="edge24" class="edge">
<title>person&#45;&gt;project</title>
<path fill="none" stroke="black" stroke-dasharray="5,2" d="M1018.19,-637.29C1054.02,-628 1112.22,-607.78 1146,-569 1153.3,-560.63 1178.08,-485.94 1180,-475 1182.76,-459.24 1190.07,-451.44 1180,-439 1140.82,-390.6 952.32,-372.42 864.81,-366.5"/>
<polygon fill="black" stroke="black" points="864.87,-362.99 854.66,-365.84 864.41,-369.98 864.87,-362.99"/>
<text text-anchor="middle" x="1236" y="-507" font-family="Times,serif" font-size="10.00">has_many projects </text>
<text text-anchor="middle" x="1236" y="-496" font-family="Times,serif" font-size="10.00"> through project_memberships</text>
</g>
<!-- project_membership -->
<g id="node11" class="node">
<title>project_membership</title>
<ellipse fill="teal" stroke="teal" cx="498" cy="-280" rx="83.69" ry="18"/>
<text text-anchor="middle" x="498" y="-276.3" font-family="Times,serif" font-size="14.00">project_membership</text>
</g>
<!-- person&#45;&gt;project_membership -->
<g id="edge23" class="edge">
<title>person&#45;&gt;project_membership</title>
<path fill="none" stroke="black" d="M952.42,-643.73C845.04,-642.58 522.27,-636.84 485,-609 421.91,-561.86 412.48,-514.47 435,-439 443.81,-409.47 460.65,-409.23 473,-381 483.32,-357.41 489.94,-328.74 493.76,-308.15"/>
<polygon fill="black" stroke="black" points="497.22,-308.65 495.5,-298.2 490.33,-307.44 497.22,-308.65"/>
<text text-anchor="middle" x="456" y="-454.5" font-family="Times,serif" font-size="10.00">has_many</text>
</g>
<!-- person&#45;&gt;user -->
<g id="edge22" class="edge">
<title>person&#45;&gt;user</title>
<path fill="none" stroke="black" d="M991.64,-662.99C993.48,-671.64 994.96,-682.35 994,-692 993.74,-694.59 993.38,-697.27 992.96,-699.95"/>
<polygon fill="black" stroke="black" points="989.47,-699.54 991.1,-710.01 996.36,-700.81 989.47,-699.54"/>
<text text-anchor="middle" x="1018" y="-684" font-family="Times,serif" font-size="10.00">belongs_to</text>
</g>
<!-- project&#45;&gt;company -->
<g id="edge32" class="edge">
<title>project&#45;&gt;company</title>
<path fill="none" stroke="black" stroke-dasharray="5,2" d="M807.6,-379.91C797.07,-394.41 782.66,-416.88 776,-439 767.7,-466.6 767.04,-499.78 767.93,-522.63"/>
<polygon fill="black" stroke="black" points="764.44,-522.84 768.45,-532.64 771.43,-522.48 764.44,-522.84"/>
<text text-anchor="middle" x="832" y="-460" font-family="Times,serif" font-size="10.00">has_many companies </text>
<text text-anchor="middle" x="832" y="-449" font-family="Times,serif" font-size="10.00"> through company_projects</text>
</g>
<!-- project&#45;&gt;company_project -->
<g id="edge31" class="edge">
<title>project&#45;&gt;company_project</title>
<path fill="none" stroke="black" d="M852.69,-369.92C874.38,-375.01 902.66,-383.97 924,-399 935.79,-407.31 946.03,-419.57 953.75,-430.6"/>
<polygon fill="black" stroke="black" points="950.94,-432.69 959.39,-439.08 956.77,-428.81 950.94,-432.69"/>
<text text-anchor="middle" x="967" y="-407.5" font-family="Times,serif" font-size="10.00">has_many</text>
</g>
<!-- project&#45;&gt;group -->
<g id="edge34" class="edge">
<title>project&#45;&gt;group</title>
<path fill="none" stroke="black" stroke-dasharray="5,2" d="M834.86,-346.6C841.49,-337.82 847,-326.52 843,-316 831.59,-285.99 819.17,-283.14 795,-262 777.65,-246.82 772.91,-242.7 752,-233 724.8,-220.39 692.09,-211.39 667.1,-205.67"/>
<polygon fill="black" stroke="black" points="667.76,-202.24 657.24,-203.5 666.25,-209.07 667.76,-202.24"/>
<text text-anchor="middle" x="883.5" y="-283" font-family="Times,serif" font-size="10.00">has_many groups </text>
<text text-anchor="middle" x="883.5" y="-272" font-family="Times,serif" font-size="10.00"> through group_projects</text>
</g>
<!-- project&#45;&gt;group_project -->
<g id="edge33" class="edge">
<title>project&#45;&gt;group_project</title>
<path fill="none" stroke="black" d="M810.5,-345.33C804.59,-335.93 796.34,-324.43 787,-316 780.68,-310.29 773.28,-305.1 765.86,-300.56"/>
<polygon fill="black" stroke="black" points="767.6,-297.53 757.19,-295.55 764.09,-303.58 767.6,-297.53"/>
<text text-anchor="middle" x="818" y="-319" font-family="Times,serif" font-size="10.00">has_many</text>
</g>
<!-- project&#45;&gt;person -->
<g id="edge30" class="edge">
<title>project&#45;&gt;person</title>
<path fill="none" stroke="black" stroke-dasharray="5,2" d="M854.67,-365.91C926.36,-370.17 1088.56,-381.47 1141,-399 1218.49,-424.91 1258.61,-421.97 1299,-493 1359.05,-598.59 1130.42,-631.55 1031.02,-640.76"/>
<polygon fill="black" stroke="black" points="1030.63,-637.29 1020.97,-641.66 1031.24,-644.26 1030.63,-637.29"/>
<text text-anchor="middle" x="1369" y="-507" font-family="Times,serif" font-size="10.00">has_many people </text>
<text text-anchor="middle" x="1369" y="-496" font-family="Times,serif" font-size="10.00"> through project_memberships</text>
</g>
<!-- project&#45;&gt;project_membership -->
<g id="edge29" class="edge">
<title>project&#45;&gt;project_membership</title>
<path fill="none" stroke="black" d="M789.22,-354.26C762.4,-347.41 722.5,-336.99 688,-327 672.34,-322.46 668.74,-320.24 653,-316 624.77,-308.39 593.35,-301.08 566.21,-295.13"/>
<polygon fill="black" stroke="black" points="566.94,-291.71 556.43,-293 565.45,-298.55 566.94,-291.71"/>
<text text-anchor="middle" x="709" y="-319" font-family="Times,serif" font-size="10.00">has_many</text>
</g>
<!-- project_membership&#45;&gt;person -->
<g id="edge36" class="edge">
<title>project_membership&#45;&gt;person</title>
<path fill="none" stroke="black" d="M501.84,-298.21C511.44,-340.14 537.29,-446.27 559,-475 624.4,-561.55 661.79,-569.97 763,-609 822.41,-631.91 896.18,-639.84 942.44,-642.58"/>
<polygon fill="black" stroke="black" points="942.27,-646.07 952.44,-643.11 942.65,-639.08 942.27,-646.07"/>
<text text-anchor="middle" x="582" y="-454.5" font-family="Times,serif" font-size="10.00">belongs_to</text>
</g>
<!-- project_membership&#45;&gt;project -->
<g id="edge35" class="edge">
<title>project_membership&#45;&gt;project</title>
<path fill="none" stroke="black" d="M528.47,-296.81C549.03,-306.85 577.04,-319.35 603,-327 661.29,-344.17 731.02,-353.52 775.41,-358.14"/>
<polygon fill="black" stroke="black" points="775.28,-361.64 785.58,-359.16 775.98,-354.68 775.28,-361.64"/>
<text text-anchor="middle" x="626" y="-319" font-family="Times,serif" font-size="10.00">belongs_to</text>
</g>
<!-- resource_link -->
<g id="node12" class="node">
<title>resource_link</title>
<ellipse fill="teal" stroke="teal" cx="1257" cy="-811" rx="58.49" ry="18"/>
<text text-anchor="middle" x="1257" y="-807.3" font-family="Times,serif" font-size="14.00">resource_link</text>
</g>
<!-- sign_in_data -->
<g id="node13" class="node">
<title>sign_in_data</title>
<ellipse fill="teal" stroke="teal" cx="1389" cy="-811" rx="55.79" ry="18"/>
<text text-anchor="middle" x="1389" y="-807.3" font-family="Times,serif" font-size="14.00">sign_in_data</text>
</g>
<!-- sponsorship&#45;&gt;company -->
<g id="edge37" class="edge">
<title>sponsorship&#45;&gt;company</title>
<path fill="none" stroke="black" d="M360.11,-130.93C344.54,-145.95 325,-169.97 325,-196 325,-322.5 325,-322.5 325,-322.5 325,-418.71 336.13,-475.83 424,-515 474.95,-537.71 632.63,-545.87 716.41,-548.65"/>
<polygon fill="black" stroke="black" points="716.39,-552.16 726.49,-548.98 716.61,-545.16 716.39,-552.16"/>
<text text-anchor="middle" x="349" y="-319" font-family="Times,serif" font-size="10.00">belongs_to</text>
</g>
<!-- sponsorship&#45;&gt;group -->
<g id="edge38" class="edge">
<title>sponsorship&#45;&gt;group</title>
<path fill="none" stroke="black" d="M425.25,-122.67C456.24,-128.49 497.68,-137.62 533,-150 555.24,-157.8 579.1,-169.37 597.35,-178.95"/>
<polygon fill="black" stroke="black" points="595.87,-182.13 606.34,-183.75 599.17,-175.96 595.87,-182.13"/>
<text text-anchor="middle" x="583" y="-153" font-family="Times,serif" font-size="10.00">belongs_to</text>
</g>
<!-- user&#45;&gt;authentication -->
<g id="edge40" class="edge">
<title>user&#45;&gt;authentication</title>
<path fill="none" stroke="black" d="M995.43,-745.43C998.92,-754.12 1001.79,-765.03 1000,-775 999.51,-777.72 998.83,-780.5 998.02,-783.25"/>
<polygon fill="black" stroke="black" points="994.65,-782.3 994.73,-792.9 1001.27,-784.56 994.65,-782.3"/>
<text text-anchor="middle" x="1022" y="-767" font-family="Times,serif" font-size="10.00">has_many</text>
</g>
<!-- user&#45;&gt;person -->
<g id="edge39" class="edge">
<title>user&#45;&gt;person</title>
<path fill="none" stroke="black" d="M969.47,-713.84C960.13,-705.1 951.42,-693.07 956,-681 957.66,-676.61 960.16,-672.42 963.02,-668.56"/>
<polygon fill="black" stroke="black" points="965.9,-670.58 969.7,-660.7 960.56,-666.05 965.9,-670.58"/>
<text text-anchor="middle" x="973" y="-684" font-family="Times,serif" font-size="10.00">has_one</text>
</g>
</g>
</svg>
