<?xml version="1.0" encoding="UTF-8" standalone="no"?>
<!DOCTYPE svg PUBLIC "-//W3C//DTD SVG 1.1//EN"
 "http://www.w3.org/Graphics/SVG/1.1/DTD/svg11.dtd">
<!-- Generated by graphviz version 2.44.0 (20200408.0750)
 -->
<!-- Title: G Pages: 1 -->
<svg width="1660pt" height="804pt"
 viewBox="0.00 0.00 1660.00 804.00" xmlns="http://www.w3.org/2000/svg" xmlns:xlink="http://www.w3.org/1999/xlink">
<g id="graph0" class="graph" transform="scale(1 1) rotate(0) translate(4 800)">
<title>G</title>
<polygon fill="white" stroke="transparent" points="-4,4 -4,-800 1656,-800 1656,4 -4,4"/>
<text text-anchor="start" x="682" y="-29" font-family="Times,serif" font-size="14.00"> </text>
<text text-anchor="start" x="686" y="-29" font-family="Times,serif" font-size="80.00">citizenry</text>
<text text-anchor="start" x="966" y="-29" font-family="Times,serif" font-size="14.00"> </text>
<!-- authentication -->
<g id="node1" class="node">
<title>authentication</title>
<ellipse fill="none" stroke="black" cx="945" cy="-778" rx="60.39" ry="18"/>
<text text-anchor="middle" x="945" y="-774.3" font-family="Times,serif" font-size="14.00">authentication</text>
</g>
<!-- user -->
<g id="node2" class="node">
<title>user</title>
<ellipse fill="none" stroke="black" cx="945" cy="-695" rx="27" ry="18"/>
<text text-anchor="middle" x="945" y="-691.3" font-family="Times,serif" font-size="14.00">user</text>
</g>
<!-- authentication&#45;&gt;user -->
<g id="edge1" class="edge">
<title>authentication&#45;&gt;user</title>
<path fill="none" stroke="black" d="M923.27,-761.13C914.63,-752.75 907.65,-741.96 912,-731 914.08,-725.76 917.36,-720.85 921.06,-716.46"/>
<polygon fill="black" stroke="black" points="923.64,-718.82 928,-709.16 918.57,-713.99 923.64,-718.82"/>
<text text-anchor="middle" x="935" y="-734" font-family="Times,serif" font-size="10.00">belongs_to</text>
</g>
<!-- user&#45;&gt;authentication -->
<g id="edge40" class="edge">
<title>user&#45;&gt;authentication</title>
<path fill="none" stroke="black" d="M952.46,-712.39C954.71,-718.15 956.88,-724.75 958,-731 959.16,-737.43 958.37,-744.26 956.73,-750.63"/>
<polygon fill="black" stroke="black" points="953.4,-749.55 953.6,-760.15 960.05,-751.74 953.4,-749.55"/>
<text text-anchor="middle" x="980" y="-734" font-family="Times,serif" font-size="10.00">has_many</text>
</g>
<!-- person -->
<g id="node9" class="node">
<title>person</title>
<ellipse fill="none" stroke="black" cx="945" cy="-612" rx="34.39" ry="18"/>
<text text-anchor="middle" x="945" y="-608.3" font-family="Times,serif" font-size="14.00">person</text>
</g>
<!-- user&#45;&gt;person -->
<g id="edge39" class="edge">
<title>user&#45;&gt;person</title>
<path fill="none" stroke="black" d="M927.47,-680.84C918.13,-672.1 909.42,-660.07 914,-648 915.66,-643.61 918.16,-639.42 921.02,-635.56"/>
<polygon fill="black" stroke="black" points="923.9,-637.58 927.7,-627.7 918.56,-633.05 923.9,-637.58"/>
<text text-anchor="middle" x="931" y="-651" font-family="Times,serif" font-size="10.00">has_one</text>
</g>
<!-- company -->
<g id="node3" class="node">
<title>company</title>
<ellipse fill="none" stroke="black" cx="887" cy="-363" rx="43.59" ry="18"/>
<text text-anchor="middle" x="887" y="-359.3" font-family="Times,serif" font-size="14.00">company</text>
</g>
<!-- company_project -->
<g id="node4" class="node">
<title>company_project</title>
<ellipse fill="none" stroke="black" cx="517" cy="-280" rx="72.29" ry="18"/>
<text text-anchor="middle" x="517" y="-276.3" font-family="Times,serif" font-size="14.00">company_project</text>
</g>
<!-- company&#45;&gt;company_project -->
<g id="edge2" class="edge">
<title>company&#45;&gt;company_project</title>
<path fill="none" stroke="black" d="M847.34,-355.42C816.05,-349.64 771.56,-340.1 734,-327 723.3,-323.27 721.78,-319.48 711,-316 672.45,-303.55 628.07,-295.13 591.5,-289.68"/>
<polygon fill="black" stroke="black" points="591.8,-286.19 581.4,-288.22 590.8,-293.11 591.8,-286.19"/>
<text text-anchor="middle" x="755" y="-319" font-family="Times,serif" font-size="10.00">has_many</text>
</g>
<!-- project -->
<g id="node5" class="node">
<title>project</title>
<ellipse fill="none" stroke="black" cx="343" cy="-446" rx="35.19" ry="18"/>
<text text-anchor="middle" x="343" y="-442.3" font-family="Times,serif" font-size="14.00">project</text>
</g>
<!-- company&#45;&gt;project -->
<g id="edge3" class="edge">
<title>company&#45;&gt;project</title>
<path fill="none" stroke="black" stroke-dasharray="5,2" d="M843.61,-365.07C787.48,-367.42 687.15,-374.95 605,-399 594.13,-402.18 592.84,-406.7 582,-410 516.22,-430.04 436.66,-438.77 387.95,-442.45"/>
<polygon fill="black" stroke="black" points="387.47,-438.98 377.75,-443.18 387.97,-445.96 387.47,-438.98"/>
<text text-anchor="middle" x="697" y="-402" font-family="Times,serif" font-size="10.00">has_many project through company_projects</text>
</g>
<!-- sponsorship -->
<g id="node6" class="node">
<title>sponsorship</title>
<ellipse fill="none" stroke="black" cx="1112" cy="-280" rx="52.79" ry="18"/>
<text text-anchor="middle" x="1112" y="-276.3" font-family="Times,serif" font-size="14.00">sponsorship</text>
</g>
<!-- company&#45;&gt;sponsorship -->
<g id="edge4" class="edge">
<title>company&#45;&gt;sponsorship</title>
<path fill="none" stroke="black" d="M914.24,-348.91C935.21,-339.11 965.06,-325.78 992,-316 1014.55,-307.81 1040.01,-300.17 1061.65,-294.12"/>
<polygon fill="black" stroke="black" points="1062.6,-297.49 1071.31,-291.46 1060.74,-290.75 1062.6,-297.49"/>
<text text-anchor="middle" x="1013" y="-319" font-family="Times,serif" font-size="10.00">has_many</text>
</g>
<!-- group -->
<g id="node7" class="node">
<title>group</title>
<ellipse fill="none" stroke="black" cx="760" cy="-197" rx="31.4" ry="18"/>
<text text-anchor="middle" x="760" y="-193.3" font-family="Times,serif" font-size="14.00">group</text>
</g>
<!-- company&#45;&gt;group -->
<g id="edge5" class="edge">
<title>company&#45;&gt;group</title>
<path fill="none" stroke="black" stroke-dasharray="5,2" d="M859.24,-348.82C837.1,-338.72 805.09,-325.02 776,-316 739.12,-304.56 715.31,-328 691,-298 669.22,-271.12 703.68,-237.63 731.25,-217.04"/>
<polygon fill="black" stroke="black" points="733.45,-219.77 739.51,-211.08 729.35,-214.09 733.45,-219.77"/>
<text text-anchor="middle" x="769.5" y="-277.5" font-family="Times,serif" font-size="10.00">has_many group through sponsorships</text>
</g>
<!-- employment -->
<g id="node8" class="node">
<title>employment</title>
<ellipse fill="none" stroke="black" cx="1239" cy="-280" rx="55.79" ry="18"/>
<text text-anchor="middle" x="1239" y="-276.3" font-family="Times,serif" font-size="14.00">employment</text>
</g>
<!-- company&#45;&gt;employment -->
<g id="edge6" class="edge">
<title>company&#45;&gt;employment</title>
<path fill="none" stroke="black" d="M925.87,-354.59C955.79,-348.44 997.98,-338.82 1034,-327 1045.92,-323.09 1047.94,-319.45 1060,-316 1109.32,-301.9 1123.79,-308.5 1174,-298 1178.68,-297.02 1183.52,-295.92 1188.36,-294.76"/>
<polygon fill="black" stroke="black" points="1189.36,-298.12 1198.23,-292.32 1187.68,-291.32 1189.36,-298.12"/>
<text text-anchor="middle" x="1081" y="-319" font-family="Times,serif" font-size="10.00">has_many</text>
</g>
<!-- company&#45;&gt;person -->
<g id="edge7" class="edge">
<title>company&#45;&gt;person</title>
<path fill="none" stroke="black" stroke-dasharray="5,2" d="M930.29,-365.58C954.68,-368.97 983.31,-377.66 999,-399 1043.21,-459.14 892.42,-418.61 853,-482 827.82,-522.49 878.9,-567.28 914.53,-591.99"/>
<polygon fill="black" stroke="black" points="912.94,-595.14 923.19,-597.83 916.85,-589.34 912.94,-595.14"/>
<text text-anchor="middle" x="934.5" y="-485" font-family="Times,serif" font-size="10.00">has_many person through employments</text>
</g>
<!-- company_project&#45;&gt;company -->
<g id="edge9" class="edge">
<title>company_project&#45;&gt;company</title>
<path fill="none" stroke="black" d="M555.96,-295.26C584.67,-305.33 624.85,-318.48 661,-327 720.1,-340.93 789.24,-350.71 835.34,-356.32"/>
<polygon fill="black" stroke="black" points="835.04,-359.81 845.39,-357.52 835.87,-352.86 835.04,-359.81"/>
<text text-anchor="middle" x="684" y="-319" font-family="Times,serif" font-size="10.00">belongs_to</text>
</g>
<!-- company_project&#45;&gt;project -->
<g id="edge8" class="edge">
<title>company_project&#45;&gt;project</title>
<path fill="none" stroke="black" d="M514.31,-298.04C512.18,-307.33 508.44,-318.6 502,-327 475.21,-361.91 458.41,-361.42 419,-381 397.85,-391.51 387.05,-383.77 369,-399 362.59,-404.41 357.45,-411.82 353.48,-419.11"/>
<polygon fill="black" stroke="black" points="350.32,-417.61 349.07,-428.13 356.61,-420.68 350.32,-417.61"/>
<text text-anchor="middle" x="509" y="-360.5" font-family="Times,serif" font-size="10.00">belongs_to</text>
</g>
<!-- project&#45;&gt;company -->
<g id="edge32" class="edge">
<title>project&#45;&gt;company</title>
<path fill="none" stroke="black" stroke-dasharray="5,2" d="M353.31,-428.37C360.73,-417.98 371.76,-405.4 385,-399 404.96,-389.35 709.05,-372.99 834,-366.63"/>
<polygon fill="black" stroke="black" points="834.3,-370.12 844.11,-366.12 833.94,-363.13 834.3,-370.12"/>
<text text-anchor="middle" x="481.5" y="-402" font-family="Times,serif" font-size="10.00">has_many company through company_projects</text>
</g>
<!-- project&#45;&gt;company_project -->
<g id="edge31" class="edge">
<title>project&#45;&gt;company_project</title>
<path fill="none" stroke="black" d="M342.92,-427.96C343.81,-405.39 348.99,-366 373,-345 408.31,-314.12 436.13,-350.03 477,-327 485.94,-321.96 493.84,-314.14 500.21,-306.37"/>
<polygon fill="black" stroke="black" points="503.24,-308.17 506.5,-298.09 497.67,-303.94 503.24,-308.17"/>
<text text-anchor="middle" x="394" y="-360.5" font-family="Times,serif" font-size="10.00">has_many</text>
</g>
<!-- project&#45;&gt;group -->
<g id="edge34" class="edge">
<title>project&#45;&gt;group</title>
<path fill="none" stroke="black" stroke-dasharray="5,2" d="M310.31,-439.44C237.81,-425.71 73.97,-386.1 127,-316 198.83,-221.05 589.38,-202.41 718.52,-198.83"/>
<polygon fill="black" stroke="black" points="718.88,-202.32 728.78,-198.56 718.69,-195.33 718.88,-202.32"/>
<text text-anchor="middle" x="210" y="-319" font-family="Times,serif" font-size="10.00">has_many group through group_projects</text>
</g>
<!-- project&#45;&gt;person -->
<g id="edge30" class="edge">
<title>project&#45;&gt;person</title>
<path fill="none" stroke="black" stroke-dasharray="5,2" d="M351.02,-463.88C363.63,-489.66 388.25,-536.9 404,-547 485.92,-599.56 785.83,-608.97 900.24,-610.65"/>
<polygon fill="black" stroke="black" points="900.36,-614.15 910.4,-610.78 900.45,-607.15 900.36,-614.15"/>
<text text-anchor="middle" x="501.5" y="-526.5" font-family="Times,serif" font-size="10.00">has_many person through project_memberships</text>
</g>
<!-- group_project -->
<g id="node10" class="node">
<title>group_project</title>
<ellipse fill="none" stroke="black" cx="281" cy="-114" rx="59.59" ry="18"/>
<text text-anchor="middle" x="281" y="-110.3" font-family="Times,serif" font-size="14.00">group_project</text>
</g>
<!-- project&#45;&gt;group_project -->
<g id="edge33" class="edge">
<title>project&#45;&gt;group_project</title>
<path fill="none" stroke="black" d="M307.9,-444.12C220.49,-440.96 0,-426.79 0,-364 0,-364 0,-364 0,-196 0,-151.65 130.88,-130.11 214,-120.9"/>
<polygon fill="black" stroke="black" points="214.57,-124.36 224.14,-119.81 213.82,-117.4 214.57,-124.36"/>
<text text-anchor="middle" x="21" y="-277.5" font-family="Times,serif" font-size="10.00">has_many</text>
</g>
<!-- project_membership -->
<g id="node12" class="node">
<title>project_membership</title>
<ellipse fill="none" stroke="black" cx="692" cy="-529" rx="83.69" ry="18"/>
<text text-anchor="middle" x="692" y="-525.3" font-family="Times,serif" font-size="14.00">project_membership</text>
</g>
<!-- project&#45;&gt;project_membership -->
<g id="edge29" class="edge">
<title>project&#45;&gt;project_membership</title>
<path fill="none" stroke="black" d="M376.08,-452.43C413.05,-458.7 474.6,-469.73 527,-482 563.45,-490.53 603.95,-501.79 635.7,-511.04"/>
<polygon fill="black" stroke="black" points="635.1,-514.51 645.68,-513.97 637.07,-507.8 635.1,-514.51"/>
<text text-anchor="middle" x="590" y="-485" font-family="Times,serif" font-size="10.00">has_many</text>
</g>
<!-- sponsorship&#45;&gt;company -->
<g id="edge37" class="edge">
<title>sponsorship&#45;&gt;company</title>
<path fill="none" stroke="black" d="M1072.13,-291.88C1063.24,-294.09 1053.83,-296.27 1045,-298 988.19,-309.14 964.63,-284.59 916,-316 908.64,-320.75 902.8,-328.11 898.36,-335.55"/>
<polygon fill="black" stroke="black" points="895.03,-334.36 893.45,-344.84 901.22,-337.63 895.03,-334.36"/>
<text text-anchor="middle" x="939" y="-319" font-family="Times,serif" font-size="10.00">belongs_to</text>
</g>
<!-- sponsorship&#45;&gt;group -->
<g id="edge38" class="edge">
<title>sponsorship&#45;&gt;group</title>
<path fill="none" stroke="black" d="M1085.95,-264.28C1066.45,-253.92 1038.82,-240.6 1013,-233 940.32,-211.61 851.97,-203.18 801.23,-199.94"/>
<polygon fill="black" stroke="black" points="801.19,-196.43 791,-199.33 800.77,-203.42 801.19,-196.43"/>
<text text-anchor="middle" x="1065" y="-236" font-family="Times,serif" font-size="10.00">belongs_to</text>
</g>
<!-- group&#45;&gt;company -->
<g id="edge17" class="edge">
<title>group&#45;&gt;company</title>
<path fill="none" stroke="black" stroke-dasharray="5,2" d="M782.7,-209.63C802.36,-220.72 830.35,-239.11 848,-262 864.82,-283.81 875.22,-313.77 881,-335.2"/>
<polygon fill="black" stroke="black" points="877.63,-336.13 883.48,-344.96 884.41,-334.41 877.63,-336.13"/>
<text text-anchor="middle" x="954.5" y="-277.5" font-family="Times,serif" font-size="10.00">has_many company through sponsorships</text>
</g>
<!-- group&#45;&gt;project -->
<g id="edge13" class="edge">
<title>group&#45;&gt;project</title>
<path fill="none" stroke="black" stroke-dasharray="5,2" d="M729.38,-200.77C634.83,-210.04 350.88,-243.61 302,-316 280.05,-348.51 304.16,-393.48 323.59,-420.83"/>
<polygon fill="black" stroke="black" points="320.91,-423.09 329.67,-429.05 326.54,-418.93 320.91,-423.09"/>
<text text-anchor="middle" x="387.5" y="-319" font-family="Times,serif" font-size="10.00">has_many project through group_projects</text>
</g>
<!-- group&#45;&gt;sponsorship -->
<g id="edge16" class="edge">
<title>group&#45;&gt;sponsorship</title>
<path fill="none" stroke="black" d="M788.78,-204.19C840.28,-215.32 951.54,-239.65 1045,-262 1050.33,-263.27 1055.88,-264.63 1061.41,-266.01"/>
<polygon fill="black" stroke="black" points="1060.75,-269.45 1071.3,-268.48 1062.45,-262.66 1060.75,-269.45"/>
<text text-anchor="middle" x="988" y="-236" font-family="Times,serif" font-size="10.00">has_many</text>
</g>
<!-- group&#45;&gt;person -->
<g id="edge15" class="edge">
<title>group&#45;&gt;person</title>
<path fill="none" stroke="black" stroke-dasharray="5,2" d="M791.21,-199.35C901.59,-204.44 1268.89,-224.12 1304,-262 1326.38,-286.15 1320.39,-433.96 1314,-464 1305.41,-504.35 1279.42,-563.4 1260,-576 1216.41,-604.29 1065.69,-609.89 989.63,-610.88"/>
<polygon fill="black" stroke="black" points="989.38,-607.38 979.42,-610.99 989.45,-614.38 989.38,-607.38"/>
<text text-anchor="middle" x="1414" y="-402" font-family="Times,serif" font-size="10.00">has_many person through group_memberships</text>
</g>
<!-- group&#45;&gt;group_project -->
<g id="edge12" class="edge">
<title>group&#45;&gt;group_project</title>
<path fill="none" stroke="black" d="M730.4,-190.99C653.41,-177.98 445.72,-142.85 341.86,-125.29"/>
<polygon fill="black" stroke="black" points="342.28,-121.81 331.84,-123.6 341.11,-128.72 342.28,-121.81"/>
<text text-anchor="middle" x="571" y="-153" font-family="Times,serif" font-size="10.00">has_many</text>
</g>
<!-- group_membership -->
<g id="node11" class="node">
<title>group_membership</title>
<ellipse fill="none" stroke="black" cx="1444" cy="-114" rx="79.89" ry="18"/>
<text text-anchor="middle" x="1444" y="-110.3" font-family="Times,serif" font-size="14.00">group_membership</text>
</g>
<!-- group&#45;&gt;group_membership -->
<g id="edge14" class="edge">
<title>group&#45;&gt;group_membership</title>
<path fill="none" stroke="black" d="M790.27,-192.42C890.55,-180.54 1214.02,-142.23 1365,-124.35"/>
<polygon fill="black" stroke="black" points="1365.61,-127.81 1375.13,-123.16 1364.79,-120.86 1365.61,-127.81"/>
<text text-anchor="middle" x="1164" y="-153" font-family="Times,serif" font-size="10.00">has_many</text>
</g>
<!-- employment&#45;&gt;company -->
<g id="edge11" class="edge">
<title>employment&#45;&gt;company</title>
<path fill="none" stroke="black" d="M1198.03,-292.3C1176.38,-298.62 1149.5,-307.02 1126,-316 1115.04,-320.19 1113.22,-323.58 1102,-327 1047.91,-343.47 983.66,-352.64 939.58,-357.42"/>
<polygon fill="black" stroke="black" points="938.96,-353.96 929.38,-358.49 939.69,-360.93 938.96,-353.96"/>
<text text-anchor="middle" x="1149" y="-319" font-family="Times,serif" font-size="10.00">belongs_to</text>
</g>
<!-- employment&#45;&gt;person -->
<g id="edge10" class="edge">
<title>employment&#45;&gt;person</title>
<path fill="none" stroke="black" d="M1247.46,-297.91C1254.72,-313.99 1264,-339.04 1264,-362 1264,-530 1264,-530 1264,-530 1264,-553.06 1258.98,-562.9 1240,-576 1200.4,-603.32 1061.83,-609.41 989.58,-610.7"/>
<polygon fill="black" stroke="black" points="989.37,-607.21 979.43,-610.86 989.48,-614.2 989.37,-607.21"/>
<text text-anchor="middle" x="1287" y="-443.5" font-family="Times,serif" font-size="10.00">belongs_to</text>
</g>
<!-- person&#45;&gt;user -->
<g id="edge22" class="edge">
<title>person&#45;&gt;user</title>
<path fill="none" stroke="black" d="M949.64,-629.99C951.48,-638.64 952.96,-649.35 952,-659 951.74,-661.59 951.38,-664.27 950.96,-666.95"/>
<polygon fill="black" stroke="black" points="947.47,-666.54 949.1,-677.01 954.36,-667.81 947.47,-666.54"/>
<text text-anchor="middle" x="976" y="-651" font-family="Times,serif" font-size="10.00">belongs_to</text>
</g>
<!-- person&#45;&gt;company -->
<g id="edge28" class="edge">
<title>person&#45;&gt;company</title>
<path fill="none" stroke="black" stroke-dasharray="5,2" d="M959.15,-595.56C991.6,-558.24 1065,-461.63 1017,-399 1007.19,-386.19 970.15,-377.02 938.1,-371.29"/>
<polygon fill="black" stroke="black" points="938.36,-367.78 927.92,-369.55 937.18,-374.68 938.36,-367.78"/>
<text text-anchor="middle" x="1113.5" y="-485" font-family="Times,serif" font-size="10.00">has_many company through employments</text>
</g>
<!-- person&#45;&gt;project -->
<g id="edge24" class="edge">
<title>person&#45;&gt;project</title>
<path fill="none" stroke="black" stroke-dasharray="5,2" d="M910.53,-610.88C767.48,-610.03 225.67,-603.08 177,-547 136.58,-500.43 239.14,-469.28 300.66,-455.35"/>
<polygon fill="black" stroke="black" points="301.5,-458.74 310.52,-453.18 300,-451.91 301.5,-458.74"/>
<text text-anchor="middle" x="275" y="-526.5" font-family="Times,serif" font-size="10.00">has_many project through project_memberships</text>
</g>
<!-- person&#45;&gt;group -->
<g id="edge26" class="edge">
<title>person&#45;&gt;group</title>
<path fill="none" stroke="black" stroke-dasharray="5,2" d="M917.71,-600.95C894.27,-590.89 861.44,-573.14 843,-547 802.64,-489.78 835.62,-451.25 789,-399 741.36,-345.61 682.62,-387.87 645,-327 616.79,-281.35 684.15,-236.51 727.29,-213.64"/>
<polygon fill="black" stroke="black" points="729.07,-216.66 736.35,-208.97 725.86,-210.44 729.07,-216.66"/>
<text text-anchor="middle" x="891.5" y="-402" font-family="Times,serif" font-size="10.00">has_many group through group_memberships</text>
</g>
<!-- person&#45;&gt;employment -->
<g id="edge27" class="edge">
<title>person&#45;&gt;employment</title>
<path fill="none" stroke="black" d="M978.55,-607.12C1036.38,-598.43 1153.47,-571.54 1204,-493 1206.64,-488.89 1204.53,-486.86 1204,-482 1203.11,-473.85 1200.89,-472.15 1200,-464 1198.25,-448.1 1197.93,-443.87 1200,-428 1205.59,-385.09 1220.01,-336.88 1229.66,-307.74"/>
<polygon fill="black" stroke="black" points="1233.09,-308.51 1232.97,-297.91 1226.46,-306.27 1233.09,-308.51"/>
<text text-anchor="middle" x="1221" y="-443.5" font-family="Times,serif" font-size="10.00">has_many</text>
</g>
<!-- person&#45;&gt;group_membership -->
<g id="edge25" class="edge">
<title>person&#45;&gt;group_membership</title>
<path fill="none" stroke="black" d="M979.29,-609.87C1104.26,-605.32 1528,-585.76 1528,-530 1528,-530 1528,-530 1528,-196 1528,-170 1506.89,-149.72 1485.84,-135.95"/>
<polygon fill="black" stroke="black" points="1487.55,-132.89 1477.2,-130.63 1483.88,-138.85 1487.55,-132.89"/>
<text text-anchor="middle" x="1549" y="-360.5" font-family="Times,serif" font-size="10.00">has_many</text>
</g>
<!-- person&#45;&gt;project_membership -->
<g id="edge23" class="edge">
<title>person&#45;&gt;project_membership</title>
<path fill="none" stroke="black" d="M910.4,-611.68C846.7,-612.1 714.74,-608.88 686,-576 681.44,-570.78 680.62,-563.88 681.55,-557.01"/>
<polygon fill="black" stroke="black" points="684.98,-557.72 683.91,-547.18 678.17,-556.08 684.98,-557.72"/>
<text text-anchor="middle" x="707" y="-568" font-family="Times,serif" font-size="10.00">has_many</text>
</g>
<!-- group_project&#45;&gt;project -->
<g id="edge20" class="edge">
<title>group_project&#45;&gt;project</title>
<path fill="none" stroke="black" d="M232.12,-124.39C172.05,-137.36 78,-162.94 78,-196 78,-364 78,-364 78,-364 78,-409.54 222.97,-432.03 298.46,-440.65"/>
<polygon fill="black" stroke="black" points="298.3,-444.15 308.63,-441.77 299.07,-437.2 298.3,-444.15"/>
<text text-anchor="middle" x="101" y="-277.5" font-family="Times,serif" font-size="10.00">belongs_to</text>
</g>
<!-- group_project&#45;&gt;group -->
<g id="edge21" class="edge">
<title>group_project&#45;&gt;group</title>
<path fill="none" stroke="black" d="M338.91,-118.6C402.42,-123.2 507.15,-132.72 596,-150 640.72,-158.7 691.01,-173.59 723.97,-184.06"/>
<polygon fill="black" stroke="black" points="723.03,-187.44 733.62,-187.16 725.17,-180.77 723.03,-187.44"/>
<text text-anchor="middle" x="665" y="-153" font-family="Times,serif" font-size="10.00">belongs_to</text>
</g>
<!-- group_membership&#45;&gt;group -->
<g id="edge18" class="edge">
<title>group_membership&#45;&gt;group</title>
<path fill="none" stroke="black" d="M1366.89,-118.92C1280.28,-123.87 1135.66,-133.75 1012,-150 936.05,-159.98 848.22,-177.36 798.88,-187.66"/>
<polygon fill="black" stroke="black" points="798.02,-184.26 788.95,-189.74 799.46,-191.11 798.02,-184.26"/>
<text text-anchor="middle" x="1035" y="-153" font-family="Times,serif" font-size="10.00">belongs_to</text>
</g>
<!-- group_membership&#45;&gt;person -->
<g id="edge19" class="edge">
<title>group_membership&#45;&gt;person</title>
<path fill="none" stroke="black" d="M1514.11,-122.8C1557.9,-132.02 1606,-152.13 1606,-196 1606,-530 1606,-530 1606,-530 1606,-565.03 1575.01,-564.29 1542,-576 1440.37,-612.05 1110.58,-612.64 989.83,-611.58"/>
<polygon fill="black" stroke="black" points="989.51,-608.08 979.48,-611.48 989.45,-615.08 989.51,-608.08"/>
<text text-anchor="middle" x="1629" y="-360.5" font-family="Times,serif" font-size="10.00">belongs_to</text>
</g>
<!-- project_membership&#45;&gt;project -->
<g id="edge35" class="edge">
<title>project_membership&#45;&gt;project</title>
<path fill="none" stroke="black" d="M629.56,-516.98C617.75,-514.95 605.5,-512.88 594,-511 542.08,-502.5 528.08,-505.59 477,-493 443.33,-484.7 406.1,-471.59 379.45,-461.49"/>
<polygon fill="black" stroke="black" points="380.37,-458.09 369.78,-457.78 377.86,-464.63 380.37,-458.09"/>
<text text-anchor="middle" x="500" y="-485" font-family="Times,serif" font-size="10.00">belongs_to</text>
</g>
<!-- project_membership&#45;&gt;person -->
<g id="edge36" class="edge">
<title>project_membership&#45;&gt;person</title>
<path fill="none" stroke="black" d="M709.1,-547C720.15,-556.99 735.35,-569 751,-576 799.29,-597.58 859.98,-605.86 900.5,-609.04"/>
<polygon fill="black" stroke="black" points="900.37,-612.54 910.6,-609.75 900.87,-605.55 900.37,-612.54"/>
<text text-anchor="middle" x="774" y="-568" font-family="Times,serif" font-size="10.00">belongs_to</text>
</g>
</g>
</svg>
