<?xml version="1.0" encoding="UTF-8" standalone="no"?>
<!DOCTYPE svg PUBLIC "-//W3C//DTD SVG 1.1//EN"
 "http://www.w3.org/Graphics/SVG/1.1/DTD/svg11.dtd">
<!-- Generated by graphviz version 2.36.0 (20140111.2315)
 -->
<!-- Title: G Pages: 1 -->
<svg width="219pt" height="116pt"
 viewBox="0.00 0.00 219.00 116.00" xmlns="http://www.w3.org/2000/svg" xmlns:xlink="http://www.w3.org/1999/xlink">
<g id="graph0" class="graph" transform="scale(1 1) rotate(0) translate(4 112)">
<title>G</title>
<polygon fill="white" stroke="none" points="-4,4 -4,-112 215,-112 215,4 -4,4"/>
<!-- application -->
<g id="node1" class="node"><title>application</title>
<ellipse fill="blue" stroke="black" cx="107" cy="-90" rx="50.0684" ry="18"/>
<text text-anchor="middle" x="107" y="-86.3" font-family="Times,serif" font-size="14.00">application</text>
</g>
<!-- render_404 -->
<g id="node2" class="node"><title>render_404</title>
<ellipse fill="red" stroke="black" cx="50" cy="-18" rx="50.5427" ry="18"/>
<text text-anchor="middle" x="50" y="-14.3" font-family="Times,serif" font-size="14.00">render_404</text>
</g>
<!-- application&#45;&gt;render_404 -->
<g id="edge1" class="edge"><title>application&#45;&gt;render_404</title>
<path fill="none" stroke="black" d="M93.4918,-72.411C86.4641,-63.7805 77.7363,-53.0622 69.9477,-43.4972"/>
<polygon fill="black" stroke="black" points="72.4396,-41.0143 63.4112,-35.4699 67.0115,-45.4343 72.4396,-41.0143"/>
</g>
<!-- set_locale -->
<g id="node3" class="node"><title>set_locale</title>
<ellipse fill="red" stroke="black" cx="165" cy="-18" rx="46.2191" ry="18"/>
<text text-anchor="middle" x="165" y="-14.3" font-family="Times,serif" font-size="14.00">set_locale</text>
</g>
<!-- application&#45;&gt;set_locale -->
<g id="edge2" class="edge"><title>application&#45;&gt;set_locale</title>
<path fill="none" stroke="black" d="M120.745,-72.411C127.968,-63.6933 136.957,-52.8454 144.942,-43.2077"/>
<polygon fill="black" stroke="black" points="147.668,-45.4033 151.353,-35.4699 142.278,-40.9371 147.668,-45.4033"/>
</g>
</g>
</svg>
