<?xml version="1.0" encoding="UTF-8" standalone="no"?>
<!DOCTYPE svg PUBLIC "-//W3C//DTD SVG 1.1//EN"
 "http://www.w3.org/Graphics/SVG/1.1/DTD/svg11.dtd">
<!-- Generated by graphviz version 2.36.0 (20140111.2315)
 -->
<!-- Title: G Pages: 1 -->
<svg width="437pt" height="116pt"
 viewBox="0.00 0.00 437.00 116.00" xmlns="http://www.w3.org/2000/svg" xmlns:xlink="http://www.w3.org/1999/xlink">
<g id="graph0" class="graph" transform="scale(1 1) rotate(0) translate(4 112)">
<title>G</title>
<polygon fill="white" stroke="none" points="-4,4 -4,-112 433,-112 433,4 -4,4"/>
<!-- authentications -->
<g id="node1" class="node"><title>authentications</title>
<ellipse fill="blue" stroke="black" cx="204" cy="-90" rx="63.5411" ry="18"/>
<text text-anchor="middle" x="204" y="-86.3" font-family="Times,serif" font-size="14.00">authentications</text>
</g>
<!-- index -->
<g id="node2" class="node"><title>index</title>
<ellipse fill="red" stroke="black" cx="30" cy="-18" rx="30.3206" ry="18"/>
<text text-anchor="middle" x="30" y="-14.3" font-family="Times,serif" font-size="14.00">index</text>
</g>
<!-- authentications&#45;&gt;index -->
<g id="edge1" class="edge"><title>authentications&#45;&gt;index</title>
<path fill="none" stroke="black" d="M168.07,-75.0727C141.032,-64.523 103.099,-49.5766 70,-36 67.8206,-35.106 65.5779,-34.1773 63.3197,-33.2355"/>
<polygon fill="black" stroke="black" points="64.647,-29.9969 54.0722,-29.3467 61.9335,-36.4496 64.647,-29.9969"/>
</g>
<!-- auto -->
<g id="node3" class="node"><title>auto</title>
<ellipse fill="red" stroke="black" cx="106" cy="-18" rx="27" ry="18"/>
<text text-anchor="middle" x="106" y="-14.3" font-family="Times,serif" font-size="14.00">auto</text>
</g>
<!-- authentications&#45;&gt;auto -->
<g id="edge2" class="edge"><title>authentications&#45;&gt;auto</title>
<path fill="none" stroke="black" d="M181.762,-73.1159C166.991,-62.5651 147.539,-48.671 132.044,-37.6032"/>
<polygon fill="black" stroke="black" points="134.07,-34.7487 123.898,-31.7844 130.001,-40.4449 134.07,-34.7487"/>
</g>
<!-- auth_failure -->
<g id="node4" class="node"><title>auth_failure</title>
<ellipse fill="red" stroke="black" cx="204" cy="-18" rx="52.9443" ry="18"/>
<text text-anchor="middle" x="204" y="-14.3" font-family="Times,serif" font-size="14.00">auth_failure</text>
</g>
<!-- authentications&#45;&gt;auth_failure -->
<g id="edge3" class="edge"><title>authentications&#45;&gt;auth_failure</title>
<path fill="none" stroke="black" d="M204,-71.6966C204,-63.9827 204,-54.7125 204,-46.1124"/>
<polygon fill="black" stroke="black" points="207.5,-46.1043 204,-36.1043 200.5,-46.1044 207.5,-46.1043"/>
</g>
<!-- create -->
<g id="node5" class="node"><title>create</title>
<ellipse fill="red" stroke="black" cx="307" cy="-18" rx="31.2735" ry="18"/>
<text text-anchor="middle" x="307" y="-14.3" font-family="Times,serif" font-size="14.00">create</text>
</g>
<!-- authentications&#45;&gt;create -->
<g id="edge4" class="edge"><title>authentications&#45;&gt;create</title>
<path fill="none" stroke="black" d="M227.372,-73.1159C242.697,-62.7012 262.814,-49.029 278.994,-38.033"/>
<polygon fill="black" stroke="black" points="281.219,-40.7529 287.522,-32.2372 277.284,-34.9634 281.219,-40.7529"/>
</g>
<!-- destroy -->
<g id="node6" class="node"><title>destroy</title>
<ellipse fill="red" stroke="black" cx="393" cy="-18" rx="36.096" ry="18"/>
<text text-anchor="middle" x="393" y="-14.3" font-family="Times,serif" font-size="14.00">destroy</text>
</g>
<!-- authentications&#45;&gt;destroy -->
<g id="edge5" class="edge"><title>authentications&#45;&gt;destroy</title>
<path fill="none" stroke="black" d="M240.89,-75.3371C273.938,-63.0971 322.186,-45.2273 355.438,-32.9117"/>
<polygon fill="black" stroke="black" points="356.656,-36.1931 364.818,-29.4378 354.225,-29.6288 356.656,-36.1931"/>
</g>
</g>
</svg>
