<?xml version="1.0" encoding="UTF-8" standalone="no"?>
<!DOCTYPE svg PUBLIC "-//W3C//DTD SVG 1.1//EN"
 "http://www.w3.org/Graphics/SVG/1.1/DTD/svg11.dtd">
<!-- Generated by graphviz version 2.36.0 (20140111.2315)
 -->
<!-- Title: G Pages: 1 -->
<svg width="223pt" height="116pt"
 viewBox="0.00 0.00 223.00 116.00" xmlns="http://www.w3.org/2000/svg" xmlns:xlink="http://www.w3.org/1999/xlink">
<g id="graph0" class="graph" transform="scale(1 1) rotate(0) translate(4 112)">
<title>G</title>
<polygon fill="white" stroke="none" points="-4,4 -4,-112 219,-112 219,4 -4,4"/>
<!-- changesets -->
<g id="node1" class="node"><title>changesets</title>
<ellipse fill="blue" stroke="black" cx="88" cy="-90" rx="48.6179" ry="18"/>
<text text-anchor="middle" x="88" y="-86.3" font-family="Times,serif" font-size="14.00">changesets</text>
</g>
<!-- index -->
<g id="node2" class="node"><title>index</title>
<ellipse fill="red" stroke="black" cx="30" cy="-18" rx="30.3206" ry="18"/>
<text text-anchor="middle" x="30" y="-14.3" font-family="Times,serif" font-size="14.00">index</text>
</g>
<!-- changesets&#45;&gt;index -->
<g id="edge1" class="edge"><title>changesets&#45;&gt;index</title>
<path fill="none" stroke="black" d="M74.2548,-72.411C66.8223,-63.4407 57.5208,-52.2148 49.366,-42.3727"/>
<polygon fill="black" stroke="black" points="51.9271,-39.978 42.8518,-34.5108 46.537,-44.4441 51.9271,-39.978"/>
</g>
<!-- allowed_params -->
<g id="node3" class="node"><title>allowed_params</title>
<ellipse fill="red" stroke="black" cx="147" cy="-18" rx="68.3417" ry="18"/>
<text text-anchor="middle" x="147" y="-14.3" font-family="Times,serif" font-size="14.00">allowed_params</text>
</g>
<!-- changesets&#45;&gt;allowed_params -->
<g id="edge2" class="edge"><title>changesets&#45;&gt;allowed_params</title>
<path fill="none" stroke="black" d="M101.982,-72.411C109.223,-63.8197 118.209,-53.1594 126.243,-43.6275"/>
<polygon fill="black" stroke="black" points="128.94,-45.8582 132.708,-35.9562 123.587,-41.3468 128.94,-45.8582"/>
</g>
</g>
</svg>
