<?xml version="1.0" encoding="UTF-8" standalone="no"?>
<!DOCTYPE svg PUBLIC "-//W3C//DTD SVG 1.1//EN"
 "http://www.w3.org/Graphics/SVG/1.1/DTD/svg11.dtd">
<!-- Generated by graphviz version 2.36.0 (20140111.2315)
 -->
<!-- Title: G Pages: 1 -->
<svg width="395pt" height="116pt"
 viewBox="0.00 0.00 395.00 116.00" xmlns="http://www.w3.org/2000/svg" xmlns:xlink="http://www.w3.org/1999/xlink">
<g id="graph0" class="graph" transform="scale(1 1) rotate(0) translate(4 112)">
<title>G</title>
<polygon fill="white" stroke="none" points="-4,4 -4,-112 391,-112 391,4 -4,4"/>
<!-- companies -->
<g id="node1" class="node"><title>companies</title>
<ellipse fill="blue" stroke="black" cx="175" cy="-90" rx="48.6179" ry="18"/>
<text text-anchor="middle" x="175" y="-86.3" font-family="Times,serif" font-size="14.00">companies</text>
</g>
<!-- tag -->
<g id="node2" class="node"><title>tag</title>
<ellipse fill="red" stroke="black" cx="27" cy="-18" rx="27" ry="18"/>
<text text-anchor="middle" x="27" y="-14.3" font-family="Times,serif" font-size="14.00">tag</text>
</g>
<!-- companies&#45;&gt;tag -->
<g id="edge1" class="edge"><title>companies&#45;&gt;tag</title>
<path fill="none" stroke="black" d="M146.113,-75.3371C120.751,-63.3418 83.9574,-45.9393 57.9885,-33.6567"/>
<polygon fill="black" stroke="black" points="59.1484,-30.3336 48.6121,-29.2219 56.1554,-36.6615 59.1484,-30.3336"/>
</g>
<!-- show -->
<g id="node3" class="node"><title>show</title>
<ellipse fill="red" stroke="black" cx="101" cy="-18" rx="29.3722" ry="18"/>
<text text-anchor="middle" x="101" y="-14.3" font-family="Times,serif" font-size="14.00">show</text>
</g>
<!-- companies&#45;&gt;show -->
<g id="edge2" class="edge"><title>companies&#45;&gt;show</title>
<path fill="none" stroke="black" d="M158.208,-73.1159C147.953,-63.4147 134.709,-50.887 123.547,-40.3287"/>
<polygon fill="black" stroke="black" points="125.885,-37.7221 116.215,-33.3927 121.075,-42.8074 125.885,-37.7221"/>
</g>
<!-- join -->
<g id="node4" class="node"><title>join</title>
<ellipse fill="red" stroke="black" cx="175" cy="-18" rx="27" ry="18"/>
<text text-anchor="middle" x="175" y="-14.3" font-family="Times,serif" font-size="14.00">join</text>
</g>
<!-- companies&#45;&gt;join -->
<g id="edge3" class="edge"><title>companies&#45;&gt;join</title>
<path fill="none" stroke="black" d="M175,-71.6966C175,-63.9827 175,-54.7125 175,-46.1124"/>
<polygon fill="black" stroke="black" points="178.5,-46.1043 175,-36.1043 171.5,-46.1044 178.5,-46.1043"/>
</g>
<!-- leave -->
<g id="node5" class="node"><title>leave</title>
<ellipse fill="red" stroke="black" cx="249" cy="-18" rx="29.3722" ry="18"/>
<text text-anchor="middle" x="249" y="-14.3" font-family="Times,serif" font-size="14.00">leave</text>
</g>
<!-- companies&#45;&gt;leave -->
<g id="edge4" class="edge"><title>companies&#45;&gt;leave</title>
<path fill="none" stroke="black" d="M191.792,-73.1159C202.047,-63.4147 215.291,-50.887 226.453,-40.3287"/>
<polygon fill="black" stroke="black" points="228.925,-42.8074 233.785,-33.3927 224.115,-37.7221 228.925,-42.8074"/>
</g>
<!-- collection -->
<g id="node6" class="node"><title>collection</title>
<ellipse fill="red" stroke="black" cx="342" cy="-18" rx="45.244" ry="18"/>
<text text-anchor="middle" x="342" y="-14.3" font-family="Times,serif" font-size="14.00">collection</text>
</g>
<!-- companies&#45;&gt;collection -->
<g id="edge5" class="edge"><title>companies&#45;&gt;collection</title>
<path fill="none" stroke="black" d="M206.02,-75.9976C233.224,-64.5949 272.925,-47.9536 302.413,-35.5932"/>
<polygon fill="black" stroke="black" points="304.12,-38.673 311.989,-31.5793 301.414,-32.2172 304.12,-38.673"/>
</g>
</g>
</svg>
