<?xml version="1.0" encoding="UTF-8" standalone="no"?>
<!DOCTYPE svg PUBLIC "-//W3C//DTD SVG 1.1//EN"
 "http://www.w3.org/Graphics/SVG/1.1/DTD/svg11.dtd">
<!-- Generated by graphviz version 2.36.0 (20140111.2315)
 -->
<!-- Title: G Pages: 1 -->
<svg width="219pt" height="116pt"
 viewBox="0.00 0.00 219.00 116.00" xmlns="http://www.w3.org/2000/svg" xmlns:xlink="http://www.w3.org/1999/xlink">
<g id="graph0" class="graph" transform="scale(1 1) rotate(0) translate(4 112)">
<title>G</title>
<polygon fill="white" stroke="none" points="-4,4 -4,-112 215,-112 215,4 -4,4"/>
<!-- confirmations -->
<g id="node1" class="node"><title>confirmations</title>
<ellipse fill="blue" stroke="black" cx="103" cy="-90" rx="59.1941" ry="18"/>
<text text-anchor="middle" x="103" y="-86.3" font-family="Times,serif" font-size="14.00">confirmations</text>
</g>
<!-- show -->
<g id="node2" class="node"><title>show</title>
<ellipse fill="red" stroke="black" cx="29" cy="-18" rx="29.3722" ry="18"/>
<text text-anchor="middle" x="29" y="-14.3" font-family="Times,serif" font-size="14.00">show</text>
</g>
<!-- confirmations&#45;&gt;show -->
<g id="edge1" class="edge"><title>confirmations&#45;&gt;show</title>
<path fill="none" stroke="black" d="M85.8369,-72.7646C75.8047,-63.2747 63.01,-51.1717 52.1014,-40.8526"/>
<polygon fill="black" stroke="black" points="54.2278,-38.0463 44.5579,-33.717 49.4174,-43.1316 54.2278,-38.0463"/>
</g>
<!-- new -->
<g id="node3" class="node"><title>new</title>
<ellipse fill="red" stroke="black" cx="103" cy="-18" rx="27" ry="18"/>
<text text-anchor="middle" x="103" y="-14.3" font-family="Times,serif" font-size="14.00">new</text>
</g>
<!-- confirmations&#45;&gt;new -->
<g id="edge2" class="edge"><title>confirmations&#45;&gt;new</title>
<path fill="none" stroke="black" d="M103,-71.6966C103,-63.9827 103,-54.7125 103,-46.1124"/>
<polygon fill="black" stroke="black" points="106.5,-46.1043 103,-36.1043 99.5001,-46.1044 106.5,-46.1043"/>
</g>
<!-- create -->
<g id="node4" class="node"><title>create</title>
<ellipse fill="red" stroke="black" cx="180" cy="-18" rx="31.2735" ry="18"/>
<text text-anchor="middle" x="180" y="-14.3" font-family="Times,serif" font-size="14.00">create</text>
</g>
<!-- confirmations&#45;&gt;create -->
<g id="edge3" class="edge"><title>confirmations&#45;&gt;create</title>
<path fill="none" stroke="black" d="M120.859,-72.7646C131.399,-63.1826 144.87,-50.9364 156.292,-40.5526"/>
<polygon fill="black" stroke="black" points="158.766,-43.0335 163.811,-33.717 154.058,-37.8539 158.766,-43.0335"/>
</g>
</g>
</svg>
