<?xml version="1.0" encoding="UTF-8" standalone="no"?>
<!DOCTYPE svg PUBLIC "-//W3C//DTD SVG 1.1//EN"
 "http://www.w3.org/Graphics/SVG/1.1/DTD/svg11.dtd">
<!-- Generated by graphviz version 2.36.0 (20140111.2315)
 -->
<!-- Title: G Pages: 1 -->
<svg width="1702pt" height="212pt"
 viewBox="0.00 0.00 1702.00 212.00" xmlns="http://www.w3.org/2000/svg" xmlns:xlink="http://www.w3.org/1999/xlink">
<g id="graph0" class="graph" transform="scale(1 1) rotate(0) translate(4 208)">
<title>G</title>
<polygon fill="white" stroke="none" points="-4,4 -4,-208 1698,-208 1698,4 -4,4"/>
<text text-anchor="start" x="662.5" y="-29" font-family="Times,serif" font-size="14.00"> </text>
<text text-anchor="start" x="666.5" y="-29" font-family="Times,serif" font-size="80.00">Controllers</text>
<text text-anchor="start" x="1027.5" y="-29" font-family="Times,serif" font-size="14.00"> </text>
<!-- application -->
<g id="node1" class="node"><title>application</title>
<ellipse fill="teal" stroke="black" cx="126" cy="-186" rx="50.0684" ry="18"/>
<text text-anchor="middle" x="126" y="-182.3" font-family="Times,serif" font-size="14.00">application</text>
</g>
<!-- ID_0 -->
<g id="node2" class="node"><title>ID_0</title>
<ellipse fill="teal" stroke="black" cx="126" cy="-114" rx="126.133" ry="18"/>
<text text-anchor="middle" x="126" y="-110.3" font-family="Times,serif" font-size="14.00">configure_permitted_parameters</text>
</g>
<!-- application&#45;&gt;ID_0 -->
<g id="edge1" class="edge"><title>application&#45;&gt;ID_0</title>
<path fill="none" stroke="black" d="M126,-167.697C126,-159.983 126,-150.712 126,-142.112"/>
<polygon fill="black" stroke="black" points="129.5,-142.104 126,-132.104 122.5,-142.104 129.5,-142.104"/>
</g>
<!-- groups -->
<g id="node3" class="node"><title>groups</title>
<ellipse fill="teal" stroke="black" cx="507" cy="-186" rx="34.1708" ry="18"/>
<text text-anchor="middle" x="507" y="-182.3" font-family="Times,serif" font-size="14.00">groups</text>
</g>
<!-- ID_1 -->
<g id="node4" class="node"><title>ID_1</title>
<ellipse fill="teal" stroke="black" cx="302" cy="-114" rx="31.2735" ry="18"/>
<text text-anchor="middle" x="302" y="-110.3" font-family="Times,serif" font-size="14.00">create</text>
</g>
<!-- groups&#45;&gt;ID_1 -->
<g id="edge2" class="edge"><title>groups&#45;&gt;ID_1</title>
<path fill="none" stroke="black" d="M478.023,-176.408C445.063,-166.457 389.752,-149.215 343,-132 340.743,-131.169 338.426,-130.287 336.098,-129.381"/>
<polygon fill="black" stroke="black" points="337.174,-126.041 326.589,-125.572 334.571,-132.539 337.174,-126.041"/>
</g>
<!-- ID_2 -->
<g id="node5" class="node"><title>ID_2</title>
<ellipse fill="teal" stroke="black" cx="381" cy="-114" rx="29.3722" ry="18"/>
<text text-anchor="middle" x="381" y="-110.3" font-family="Times,serif" font-size="14.00">show</text>
</g>
<!-- groups&#45;&gt;ID_2 -->
<g id="edge3" class="edge"><title>groups&#45;&gt;ID_2</title>
<path fill="none" stroke="black" d="M484.182,-172.324C463.614,-160.896 433.237,-144.021 410.765,-131.536"/>
<polygon fill="black" stroke="black" points="412.415,-128.449 401.973,-126.652 409.015,-134.568 412.415,-128.449"/>
</g>
<!-- ID_3 -->
<g id="node6" class="node"><title>ID_3</title>
<ellipse fill="teal" stroke="black" cx="507" cy="-114" rx="78.4642" ry="18"/>
<text text-anchor="middle" x="507" y="-110.3" font-family="Times,serif" font-size="14.00">ajax_head_to_head</text>
</g>
<!-- groups&#45;&gt;ID_3 -->
<g id="edge4" class="edge"><title>groups&#45;&gt;ID_3</title>
<path fill="none" stroke="black" d="M507,-167.697C507,-159.983 507,-150.712 507,-142.112"/>
<polygon fill="black" stroke="black" points="510.5,-142.104 507,-132.104 503.5,-142.104 510.5,-142.104"/>
</g>
<!-- ID_4 -->
<g id="node7" class="node"><title>ID_4</title>
<ellipse fill="teal" stroke="black" cx="640" cy="-114" rx="36.096" ry="18"/>
<text text-anchor="middle" x="640" y="-110.3" font-family="Times,serif" font-size="14.00">destroy</text>
</g>
<!-- groups&#45;&gt;ID_4 -->
<g id="edge5" class="edge"><title>groups&#45;&gt;ID_4</title>
<path fill="none" stroke="black" d="M530.472,-172.647C551.67,-161.489 583.092,-144.951 606.851,-132.447"/>
<polygon fill="black" stroke="black" points="608.646,-135.457 615.865,-127.702 605.386,-129.263 608.646,-135.457"/>
</g>
<!-- ID_5 -->
<g id="node8" class="node"><title>ID_5</title>
<ellipse fill="teal" stroke="black" cx="756" cy="-114" rx="61.6163" ry="18"/>
<text text-anchor="middle" x="756" y="-110.3" font-family="Times,serif" font-size="14.00">group_params</text>
</g>
<!-- groups&#45;&gt;ID_5 -->
<g id="edge6" class="edge"><title>groups&#45;&gt;ID_5</title>
<path fill="none" stroke="black" d="M536.541,-176.695C577.604,-165.152 652.596,-144.069 703.357,-129.799"/>
<polygon fill="black" stroke="black" points="704.489,-133.117 713.169,-127.041 702.595,-126.378 704.489,-133.117"/>
</g>
<!-- matches -->
<g id="node9" class="node"><title>matches</title>
<ellipse fill="teal" stroke="black" cx="870" cy="-186" rx="39.9464" ry="18"/>
<text text-anchor="middle" x="870" y="-182.3" font-family="Times,serif" font-size="14.00">matches</text>
</g>
<!-- ID_6 -->
<g id="node10" class="node"><title>ID_6</title>
<ellipse fill="teal" stroke="black" cx="870" cy="-114" rx="34.1708" ry="18"/>
<text text-anchor="middle" x="870" y="-110.3" font-family="Times,serif" font-size="14.00">update</text>
</g>
<!-- matches&#45;&gt;ID_6 -->
<g id="edge7" class="edge"><title>matches&#45;&gt;ID_6</title>
<path fill="none" stroke="black" d="M870,-167.697C870,-159.983 870,-150.712 870,-142.112"/>
<polygon fill="black" stroke="black" points="873.5,-142.104 870,-132.104 866.5,-142.104 873.5,-142.104"/>
</g>
<!-- memberships -->
<g id="node11" class="node"><title>memberships</title>
<ellipse fill="teal" stroke="black" cx="1012" cy="-186" rx="58.2422" ry="18"/>
<text text-anchor="middle" x="1012" y="-182.3" font-family="Times,serif" font-size="14.00">memberships</text>
</g>
<!-- ID_7 -->
<g id="node12" class="node"><title>ID_7</title>
<ellipse fill="teal" stroke="black" cx="983" cy="-114" rx="31.2735" ry="18"/>
<text text-anchor="middle" x="983" y="-110.3" font-family="Times,serif" font-size="14.00">create</text>
</g>
<!-- memberships&#45;&gt;ID_7 -->
<g id="edge8" class="edge"><title>memberships&#45;&gt;ID_7</title>
<path fill="none" stroke="black" d="M1004.98,-168.055C1001.63,-159.973 997.55,-150.121 993.818,-141.112"/>
<polygon fill="black" stroke="black" points="997.016,-139.688 989.955,-131.789 990.549,-142.367 997.016,-139.688"/>
</g>
<!-- ID_8 -->
<g id="node13" class="node"><title>ID_8</title>
<ellipse fill="teal" stroke="black" cx="1067" cy="-114" rx="34.1708" ry="18"/>
<text text-anchor="middle" x="1067" y="-110.3" font-family="Times,serif" font-size="14.00">update</text>
</g>
<!-- memberships&#45;&gt;ID_8 -->
<g id="edge9" class="edge"><title>memberships&#45;&gt;ID_8</title>
<path fill="none" stroke="black" d="M1025.03,-168.411C1031.91,-159.655 1040.48,-148.751 1048.08,-139.082"/>
<polygon fill="black" stroke="black" points="1051.01,-141.014 1054.44,-130.988 1045.51,-136.689 1051.01,-141.014"/>
</g>
<!-- tournaments -->
<g id="node14" class="node"><title>tournaments</title>
<ellipse fill="teal" stroke="black" cx="1312" cy="-186" rx="54.3924" ry="18"/>
<text text-anchor="middle" x="1312" y="-182.3" font-family="Times,serif" font-size="14.00">tournaments</text>
</g>
<!-- ID_9 -->
<g id="node15" class="node"><title>ID_9</title>
<ellipse fill="teal" stroke="black" cx="1151" cy="-114" rx="31.2735" ry="18"/>
<text text-anchor="middle" x="1151" y="-110.3" font-family="Times,serif" font-size="14.00">create</text>
</g>
<!-- tournaments&#45;&gt;ID_9 -->
<g id="edge10" class="edge"><title>tournaments&#45;&gt;ID_9</title>
<path fill="none" stroke="black" d="M1280.19,-171.17C1252.65,-159.195 1212.92,-141.922 1184.81,-129.699"/>
<polygon fill="black" stroke="black" points="1185.95,-126.381 1175.39,-125.603 1183.16,-132.8 1185.95,-126.381"/>
</g>
<!-- ID_10 -->
<g id="node16" class="node"><title>ID_10</title>
<ellipse fill="teal" stroke="black" cx="1230" cy="-114" rx="29.3722" ry="18"/>
<text text-anchor="middle" x="1230" y="-110.3" font-family="Times,serif" font-size="14.00">show</text>
</g>
<!-- tournaments&#45;&gt;ID_10 -->
<g id="edge11" class="edge"><title>tournaments&#45;&gt;ID_10</title>
<path fill="none" stroke="black" d="M1292.98,-168.765C1281.42,-158.892 1266.54,-146.19 1254.15,-135.612"/>
<polygon fill="black" stroke="black" points="1256.3,-132.849 1246.42,-129.018 1251.75,-138.173 1256.3,-132.849"/>
</g>
<!-- ID_11 -->
<g id="node17" class="node"><title>ID_11</title>
<ellipse fill="teal" stroke="black" cx="1312" cy="-114" rx="34.1708" ry="18"/>
<text text-anchor="middle" x="1312" y="-110.3" font-family="Times,serif" font-size="14.00">update</text>
</g>
<!-- tournaments&#45;&gt;ID_11 -->
<g id="edge12" class="edge"><title>tournaments&#45;&gt;ID_11</title>
<path fill="none" stroke="black" d="M1312,-167.697C1312,-159.983 1312,-150.712 1312,-142.112"/>
<polygon fill="black" stroke="black" points="1315.5,-142.104 1312,-132.104 1308.5,-142.104 1315.5,-142.104"/>
</g>
<!-- ID_12 -->
<g id="node18" class="node"><title>ID_12</title>
<ellipse fill="teal" stroke="black" cx="1401" cy="-114" rx="36.096" ry="18"/>
<text text-anchor="middle" x="1401" y="-110.3" font-family="Times,serif" font-size="14.00">destroy</text>
</g>
<!-- tournaments&#45;&gt;ID_12 -->
<g id="edge13" class="edge"><title>tournaments&#45;&gt;ID_12</title>
<path fill="none" stroke="black" d="M1332.2,-169.116C1344.68,-159.295 1360.85,-146.577 1374.38,-135.939"/>
<polygon fill="black" stroke="black" points="1376.71,-138.561 1382.4,-129.628 1372.38,-133.059 1376.71,-138.561"/>
</g>
<!-- ID_13 -->
<g id="node19" class="node"><title>ID_13</title>
<ellipse fill="teal" stroke="black" cx="1537" cy="-114" rx="81.3646" ry="18"/>
<text text-anchor="middle" x="1537" y="-110.3" font-family="Times,serif" font-size="14.00">tournament_params</text>
</g>
<!-- tournaments&#45;&gt;ID_13 -->
<g id="edge14" class="edge"><title>tournaments&#45;&gt;ID_13</title>
<path fill="none" stroke="black" d="M1350.17,-173.125C1386.38,-161.859 1441.2,-144.805 1482.1,-132.08"/>
<polygon fill="black" stroke="black" points="1483.15,-135.42 1491.65,-129.108 1481.07,-128.736 1483.15,-135.42"/>
</g>
<!-- users -->
<g id="node20" class="node"><title>users</title>
<ellipse fill="teal" stroke="black" cx="1665" cy="-186" rx="28.3955" ry="18"/>
<text text-anchor="middle" x="1665" y="-182.3" font-family="Times,serif" font-size="14.00">users</text>
</g>
<!-- ID_14 -->
<g id="node21" class="node"><title>ID_14</title>
<ellipse fill="teal" stroke="black" cx="1665" cy="-114" rx="29.3722" ry="18"/>
<text text-anchor="middle" x="1665" y="-110.3" font-family="Times,serif" font-size="14.00">show</text>
</g>
<!-- users&#45;&gt;ID_14 -->
<g id="edge15" class="edge"><title>users&#45;&gt;ID_14</title>
<path fill="none" stroke="black" d="M1665,-167.697C1665,-159.983 1665,-150.712 1665,-142.112"/>
<polygon fill="black" stroke="black" points="1668.5,-142.104 1665,-132.104 1661.5,-142.104 1668.5,-142.104"/>
</g>
</g>
</svg>
