<?xml version="1.0" encoding="UTF-8" standalone="no"?>
<!DOCTYPE svg PUBLIC "-//W3C//DTD SVG 1.1//EN"
 "http://www.w3.org/Graphics/SVG/1.1/DTD/svg11.dtd">
<!-- Generated by graphviz version 2.36.0 (20140111.2315)
 -->
<!-- Title: G Pages: 1 -->
<svg width="673pt" height="560pt"
 viewBox="0.00 0.00 673.10 560.00" xmlns="http://www.w3.org/2000/svg" xmlns:xlink="http://www.w3.org/1999/xlink">
<g id="graph0" class="graph" transform="scale(1 1) rotate(0) translate(4 556)">
<title>G</title>
<polygon fill="white" stroke="none" points="-4,4 -4,-556 669.104,-556 669.104,4 -4,4"/>
<text text-anchor="start" x="201.552" y="-29" font-family="Times,serif" font-size="14.00"> </text>
<text text-anchor="start" x="205.552" y="-29" font-family="Times,serif" font-size="80.00">fulcrum</text>
<text text-anchor="start" x="459.552" y="-29" font-family="Times,serif" font-size="14.00"> </text>
<!-- changeset -->
<g id="node1" class="node"><title>changeset</title>
<ellipse fill="teal" stroke="black" cx="307.104" cy="-450" rx="45.244" ry="18"/>
<text text-anchor="middle" x="307.104" y="-446.3" font-family="Times,serif" font-size="14.00">changeset</text>
</g>
<!-- project -->
<g id="node3" class="node"><title>project</title>
<ellipse fill="teal" stroke="black" cx="176.104" cy="-366" rx="35.1455" ry="18"/>
<text text-anchor="middle" x="176.104" y="-362.3" font-family="Times,serif" font-size="14.00">project</text>
</g>
<!-- changeset&#45;&gt;project -->
<g id="edge1" class="edge"><title>changeset&#45;&gt;project</title>
<path fill="none" stroke="black" d="M281.027,-435.256C269.554,-429.019 256.007,-421.395 244.104,-414 230.567,-405.59 215.98,-395.632 203.799,-387.052"/>
<polygon fill="black" stroke="black" points="205.585,-384.027 195.405,-381.09 201.531,-389.734 205.585,-384.027"/>
<text text-anchor="middle" x="268.604" y="-405.5" font-family="Times,serif" font-size="10.00">belongs_to </text>
</g>
<!-- story -->
<g id="node4" class="node"><title>story</title>
<ellipse fill="teal" stroke="black" cx="307.104" cy="-282" rx="28.3955" ry="18"/>
<text text-anchor="middle" x="307.104" y="-278.3" font-family="Times,serif" font-size="14.00">story</text>
</g>
<!-- changeset&#45;&gt;story -->
<g id="edge2" class="edge"><title>changeset&#45;&gt;story</title>
<path fill="none" stroke="black" d="M307.104,-431.86C307.104,-403.157 307.104,-345.126 307.104,-310.609"/>
<polygon fill="black" stroke="black" points="310.604,-310.295 307.104,-300.295 303.604,-310.295 310.604,-310.295"/>
<text text-anchor="middle" x="331.604" y="-363.5" font-family="Times,serif" font-size="10.00">belongs_to </text>
</g>
<!-- note -->
<g id="node2" class="node"><title>note</title>
<ellipse fill="teal" stroke="black" cx="413.104" cy="-198" rx="27" ry="18"/>
<text text-anchor="middle" x="413.104" y="-194.3" font-family="Times,serif" font-size="14.00">note</text>
</g>
<!-- note&#45;&gt;story -->
<g id="edge4" class="edge"><title>note&#45;&gt;story</title>
<path fill="none" stroke="black" d="M391.093,-208.483C373.347,-216.377 350.077,-227.361 342.104,-234 334.606,-240.244 327.814,-248.405 322.251,-256.172"/>
<polygon fill="black" stroke="black" points="319.221,-254.405 316.52,-264.65 325.02,-258.325 319.221,-254.405"/>
<text text-anchor="middle" x="366.604" y="-237.5" font-family="Times,serif" font-size="10.00">belongs_to </text>
</g>
<!-- user -->
<g id="node6" class="node"><title>user</title>
<ellipse fill="teal" stroke="black" cx="319.104" cy="-114" rx="27" ry="18"/>
<text text-anchor="middle" x="319.104" y="-110.3" font-family="Times,serif" font-size="14.00">user</text>
</g>
<!-- note&#45;&gt;user -->
<g id="edge3" class="edge"><title>note&#45;&gt;user</title>
<path fill="none" stroke="black" d="M397.158,-183.09C382.213,-170.053 359.687,-150.402 342.669,-135.556"/>
<polygon fill="black" stroke="black" points="344.651,-132.641 334.814,-128.705 340.049,-137.916 344.651,-132.641"/>
<text text-anchor="middle" x="396.604" y="-153.5" font-family="Times,serif" font-size="10.00">belongs_to </text>
</g>
<!-- project&#45;&gt;changeset -->
<g id="edge7" class="edge"><title>project&#45;&gt;changeset</title>
<path fill="none" stroke="black" d="M172.689,-383.961C171.72,-393.769 172.389,-405.761 179.104,-414 188.987,-426.126 224.404,-435.236 255.485,-441.118"/>
<polygon fill="black" stroke="black" points="254.921,-444.573 265.385,-442.914 256.171,-437.685 254.921,-444.573"/>
<text text-anchor="middle" x="201.104" y="-405.5" font-family="Times,serif" font-size="10.00">has_many </text>
</g>
<!-- project&#45;&gt;story -->
<g id="edge6" class="edge"><title>project&#45;&gt;story</title>
<path fill="none" stroke="black" d="M171.837,-348.121C170.405,-338.342 170.561,-326.352 177.104,-318 188.469,-303.493 235.157,-293.578 269.34,-288.102"/>
<polygon fill="black" stroke="black" points="270.141,-291.521 279.494,-286.545 269.079,-284.602 270.141,-291.521"/>
<text text-anchor="middle" x="199.104" y="-321.5" font-family="Times,serif" font-size="10.00">has_many </text>
</g>
<!-- project&#45;&gt;user -->
<g id="edge5" class="edge"><title>project&#45;&gt;user</title>
<path fill="none" stroke="black" d="M145.526,-357.047C87.977,-340.41 -27.7346,-298.086 6.10394,-234 58.6462,-134.492 210.675,-117.429 281.707,-115.025"/>
<polygon fill="black" stroke="black" points="282.074,-118.517 291.981,-114.762 281.895,-111.52 282.074,-118.517"/>
<text text-anchor="middle" x="63.6039" y="-237.5" font-family="Times,serif" font-size="10.00">has_and_belongs_to_many </text>
</g>
<!-- story&#45;&gt;changeset -->
<g id="edge11" class="edge"><title>story&#45;&gt;changeset</title>
<path fill="none" stroke="black" d="M323.327,-296.862C336.067,-308.895 352.827,-327.561 360.104,-348 365.47,-363.073 365.47,-368.927 360.104,-384 354.47,-399.826 343.149,-414.59 332.411,-426.034"/>
<polygon fill="black" stroke="black" points="329.678,-423.821 325.148,-433.399 334.662,-428.736 329.678,-423.821"/>
<text text-anchor="middle" x="387.104" y="-363.5" font-family="Times,serif" font-size="10.00">has_many </text>
</g>
<!-- story&#45;&gt;note -->
<g id="edge12" class="edge"><title>story&#45;&gt;note</title>
<path fill="none" stroke="black" d="M333.766,-275.269C351.844,-270.204 375.246,-261.191 391.104,-246 396.919,-240.43 401.355,-233.021 404.666,-225.735"/>
<polygon fill="black" stroke="black" points="408.07,-226.647 408.508,-216.061 401.564,-224.063 408.07,-226.647"/>
<text text-anchor="middle" x="422.104" y="-237.5" font-family="Times,serif" font-size="10.00">has_many </text>
</g>
<!-- story&#45;&gt;project -->
<g id="edge8" class="edge"><title>story&#45;&gt;project</title>
<path fill="none" stroke="black" d="M285.807,-294.161C273.458,-300.798 257.708,-309.548 244.104,-318 230.567,-326.41 215.98,-336.368 203.799,-344.948"/>
<polygon fill="black" stroke="black" points="201.531,-342.266 195.405,-350.91 205.585,-347.973 201.531,-342.266"/>
<text text-anchor="middle" x="268.604" y="-321.5" font-family="Times,serif" font-size="10.00">belongs_to </text>
</g>
<!-- story&#45;&gt;user -->
<g id="edge9" class="edge"><title>story&#45;&gt;user</title>
<path fill="none" stroke="black" d="M291.756,-266.645C275.834,-251.341 252.633,-227.729 248.104,-216 242.34,-201.074 241.657,-194.644 248.104,-180 256.854,-160.126 275.013,-143.681 290.775,-132.305"/>
<polygon fill="black" stroke="black" points="292.946,-135.06 299.211,-126.516 288.985,-129.288 292.946,-135.06"/>
<text text-anchor="middle" x="272.604" y="-195.5" font-family="Times,serif" font-size="10.00">belongs_to </text>
</g>
<!-- story&#45;&gt;user -->
<g id="edge10" class="edge"><title>story&#45;&gt;user</title>
<path fill="none" stroke="black" d="M308.343,-263.86C310.418,-235.157 314.613,-177.126 317.108,-142.609"/>
<polygon fill="black" stroke="black" points="320.623,-142.521 317.854,-132.295 313.642,-142.017 320.623,-142.521"/>
<text text-anchor="middle" x="339.604" y="-195.5" font-family="Times,serif" font-size="10.00">belongs_to </text>
</g>
<!-- notes -->
<g id="node5" class="node"><title>notes</title>
<ellipse fill="teal" stroke="black" cx="472.104" cy="-534" rx="29.3722" ry="18"/>
<text text-anchor="middle" x="472.104" y="-530.3" font-family="Times,serif" font-size="14.00">notes</text>
</g>
<!-- notes&#45;&gt;changeset -->
<g id="edge16" class="edge"><title>notes&#45;&gt;changeset</title>
<path fill="none" stroke="black" d="M450.193,-522.111C422.986,-508.59 376.185,-485.331 343.543,-469.109"/>
<polygon fill="black" stroke="black" points="344.835,-465.843 334.322,-464.527 341.72,-472.111 344.835,-465.843"/>
<text text-anchor="middle" x="422.104" y="-489.5" font-family="Times,serif" font-size="10.00">has_many </text>
</g>
<!-- notes&#45;&gt;note -->
<g id="edge17" class="edge"><title>notes&#45;&gt;note</title>
<path fill="none" stroke="black" d="M472.104,-515.723C472.104,-499.128 472.104,-473.351 472.104,-451 472.104,-451 472.104,-451 472.104,-281 472.104,-256.282 454.222,-233.927 438.147,-218.825"/>
<polygon fill="black" stroke="black" points="440.286,-216.044 430.487,-212.015 435.635,-221.275 440.286,-216.044"/>
<text text-anchor="middle" x="494.104" y="-363.5" font-family="Times,serif" font-size="10.00">has_many </text>
</g>
<!-- notes&#45;&gt;project -->
<g id="edge13" class="edge"><title>notes&#45;&gt;project</title>
<path fill="none" stroke="black" d="M442.991,-532.869C390.4,-531.24 278.153,-521.246 204.104,-468 181.078,-451.443 177.968,-441.249 170.104,-414 168.278,-407.672 168.181,-400.706 168.91,-394.118"/>
<polygon fill="black" stroke="black" points="172.366,-394.673 170.606,-384.226 165.466,-393.49 172.366,-394.673"/>
<text text-anchor="middle" x="228.604" y="-447.5" font-family="Times,serif" font-size="10.00">belongs_to </text>
</g>
<!-- notes&#45;&gt;user -->
<g id="edge14" class="edge"><title>notes&#45;&gt;user</title>
<path fill="none" stroke="black" d="M492.929,-521.132C514.194,-507.288 544.104,-482.259 544.104,-451 544.104,-451 544.104,-451 544.104,-197 544.104,-157.321 419.022,-131.226 355.38,-120.517"/>
<polygon fill="black" stroke="black" points="355.789,-117.037 345.355,-118.872 354.656,-123.945 355.789,-117.037"/>
<text text-anchor="middle" x="568.604" y="-321.5" font-family="Times,serif" font-size="10.00">belongs_to </text>
</g>
<!-- notes&#45;&gt;user -->
<g id="edge15" class="edge"><title>notes&#45;&gt;user</title>
<path fill="none" stroke="black" d="M500.554,-529.642C542.52,-522.928 616.104,-503.648 616.104,-451 616.104,-451 616.104,-451 616.104,-197 616.104,-143.631 435.661,-123.64 356.07,-117.419"/>
<polygon fill="black" stroke="black" points="356.218,-113.92 345.985,-116.662 355.695,-120.9 356.218,-113.92"/>
<text text-anchor="middle" x="640.604" y="-321.5" font-family="Times,serif" font-size="10.00">belongs_to </text>
</g>
<!-- user&#45;&gt;project -->
<g id="edge18" class="edge"><title>user&#45;&gt;project</title>
<path fill="none" stroke="black" d="M295.242,-122.464C254.67,-136.629 173.583,-171.703 142.104,-234 124.662,-268.517 143.703,-312.802 159.525,-340.025"/>
<polygon fill="black" stroke="black" points="156.735,-342.174 164.921,-348.899 162.715,-338.536 156.735,-342.174"/>
<text text-anchor="middle" x="199.604" y="-237.5" font-family="Times,serif" font-size="10.00">has_and_belongs_to_many </text>
</g>
</g>
</svg>
