<?xml version="1.0" encoding="UTF-8" standalone="no"?>
<!DOCTYPE svg PUBLIC "-//W3C//DTD SVG 1.1//EN"
 "http://www.w3.org/Graphics/SVG/1.1/DTD/svg11.dtd">
<!-- Generated by graphviz version 2.36.0 (20140111.2315)
 -->
<!-- Title: G Pages: 1 -->
<svg width="531pt" height="308pt"
 viewBox="0.00 0.00 531.00 308.00" xmlns="http://www.w3.org/2000/svg" xmlns:xlink="http://www.w3.org/1999/xlink">
<g id="graph0" class="graph" transform="scale(1 1) rotate(0) translate(4 304)">
<title>G</title>
<polygon fill="white" stroke="none" points="-4,4 -4,-304 527,-304 527,4 -4,4"/>
<text text-anchor="start" x="62" y="-29" font-family="Times,serif" font-size="14.00"> </text>
<text text-anchor="start" x="66" y="-29" font-family="Times,serif" font-size="80.00">ScoreSettler</text>
<text text-anchor="start" x="457" y="-29" font-family="Times,serif" font-size="14.00"> </text>
<!-- group -->
<g id="node1" class="node"><title>group</title>
<ellipse fill="teal" stroke="black" cx="237" cy="-282" rx="35.6194" ry="18"/>
<text text-anchor="start" x="217.5" y="-279.3" font-family="Times,serif" font-weight="bold" font-size="14.00">group</text>
<text text-anchor="start" x="252.5" y="-279.3" font-family="Times,serif" font-size="14.00"> </text>
</g>
<!-- membership -->
<g id="node3" class="node"><title>membership</title>
<ellipse fill="teal" stroke="black" cx="61" cy="-198" rx="61.1419" ry="18"/>
<text text-anchor="start" x="22" y="-195.3" font-family="Times,serif" font-weight="bold" font-size="14.00">membership</text>
<text text-anchor="start" x="96" y="-195.3" font-family="Times,serif" font-size="14.00"> </text>
</g>
<!-- group&#45;&gt;membership -->
<g id="edge1" class="edge"><title>group&#45;&gt;membership</title>
<path fill="none" stroke="black" d="M201.862,-279.79C152.004,-277.25 64.5881,-269.482 45,-246 39.953,-239.95 40.55,-232.228 43.4039,-224.8"/>
<polygon fill="black" stroke="black" points="46.6155,-226.204 47.971,-215.696 40.3586,-223.065 46.6155,-226.204"/>
<text text-anchor="middle" x="67" y="-237.5" font-family="Times,serif" font-size="10.00">has_many </text>
</g>
<!-- tournament -->
<g id="node4" class="node"><title>tournament</title>
<ellipse fill="teal" stroke="black" cx="463" cy="-198" rx="58.2422" ry="18"/>
<text text-anchor="start" x="426" y="-195.3" font-family="Times,serif" font-weight="bold" font-size="14.00">tournament</text>
<text text-anchor="start" x="496" y="-195.3" font-family="Times,serif" font-size="14.00"> </text>
</g>
<!-- group&#45;&gt;tournament -->
<g id="edge3" class="edge"><title>group&#45;&gt;tournament</title>
<path fill="none" stroke="black" d="M265.166,-270.78C303.198,-256.981 371.444,-232.219 416.981,-215.697"/>
<polygon fill="black" stroke="black" points="418.411,-218.902 426.618,-212.201 416.023,-212.321 418.411,-218.902"/>
<text text-anchor="middle" x="385" y="-237.5" font-family="Times,serif" font-size="10.00">has_many </text>
</g>
<!-- user -->
<g id="node5" class="node"><title>user</title>
<ellipse fill="teal" stroke="black" cx="145" cy="-114" rx="29.3722" ry="18"/>
<text text-anchor="start" x="130.5" y="-111.3" font-family="Times,serif" font-weight="bold" font-size="14.00">user</text>
<text text-anchor="start" x="155.5" y="-111.3" font-family="Times,serif" font-size="14.00"> </text>
</g>
<!-- group&#45;&gt;user -->
<g id="edge2" class="edge"><title>group&#45;&gt;user</title>
<path fill="none" stroke="black" d="M223.7,-265.136C213.411,-252.386 199.238,-233.739 189,-216 174.95,-191.657 162.532,-161.98 154.501,-141.115"/>
<polygon fill="black" stroke="black" points="157.731,-139.76 150.924,-131.641 151.183,-142.233 157.731,-139.76"/>
<text text-anchor="middle" x="233" y="-201" font-family="Times,serif" font-size="10.00">has_many </text>
<text text-anchor="middle" x="233" y="-190" font-family="Times,serif" font-size="10.00">through memberships</text>
</g>
<!-- match -->
<g id="node2" class="node"><title>match</title>
<ellipse fill="teal" stroke="black" cx="462" cy="-114" rx="37.0701" ry="18"/>
<text text-anchor="start" x="441.5" y="-111.3" font-family="Times,serif" font-weight="bold" font-size="14.00">match</text>
<text text-anchor="start" x="478.5" y="-111.3" font-family="Times,serif" font-size="14.00"> </text>
</g>
<!-- match&#45;&gt;tournament -->
<g id="edge4" class="edge"><title>match&#45;&gt;tournament</title>
<path fill="none" stroke="black" d="M469.015,-131.798C471.045,-137.475 472.986,-143.917 474,-150 475.103,-156.618 474.44,-163.694 473.008,-170.293"/>
<polygon fill="black" stroke="black" points="469.578,-169.566 470.268,-180.138 476.321,-171.443 469.578,-169.566"/>
<text text-anchor="middle" x="498.5" y="-153.5" font-family="Times,serif" font-size="10.00">belongs_to </text>
</g>
<!-- membership&#45;&gt;group -->
<g id="edge6" class="edge"><title>membership&#45;&gt;group</title>
<path fill="none" stroke="black" d="M75.5353,-215.949C84.9941,-226.004 98.1196,-238.258 112,-246 137.255,-260.087 168.599,-268.846 193.581,-274.078"/>
<polygon fill="black" stroke="black" points="193.023,-277.536 203.513,-276.045 194.383,-270.669 193.023,-277.536"/>
<text text-anchor="middle" x="136.5" y="-237.5" font-family="Times,serif" font-size="10.00">belongs_to </text>
</g>
<!-- membership&#45;&gt;user -->
<g id="edge5" class="edge"><title>membership&#45;&gt;user</title>
<path fill="none" stroke="black" d="M48.2119,-180.249C42.6158,-170.748 38.6158,-158.998 45,-150 58.7823,-130.574 84.208,-121.845 105.971,-117.962"/>
<polygon fill="black" stroke="black" points="106.607,-121.406 115.975,-116.459 105.566,-114.484 106.607,-121.406"/>
<text text-anchor="middle" x="69.5" y="-153.5" font-family="Times,serif" font-size="10.00">belongs_to </text>
</g>
<!-- tournament&#45;&gt;group -->
<g id="edge7" class="edge"><title>tournament&#45;&gt;group</title>
<path fill="none" stroke="black" d="M448.749,-215.85C439.127,-226.129 425.562,-238.663 411,-246 370.426,-266.443 318.869,-274.948 282.44,-278.485"/>
<polygon fill="black" stroke="black" points="281.774,-275.03 272.12,-279.394 282.388,-282.003 281.774,-275.03"/>
<text text-anchor="middle" x="452.5" y="-237.5" font-family="Times,serif" font-size="10.00">belongs_to </text>
</g>
<!-- tournament&#45;&gt;match -->
<g id="edge8" class="edge"><title>tournament&#45;&gt;match</title>
<path fill="none" stroke="black" d="M440.474,-181.156C434.655,-175.805 429.147,-169.309 426,-162 422.037,-152.796 426.314,-143.785 433.13,-136.155"/>
<polygon fill="black" stroke="black" points="435.773,-138.471 440.582,-129.03 430.935,-133.412 435.773,-138.471"/>
<text text-anchor="middle" x="448" y="-153.5" font-family="Times,serif" font-size="10.00">has_many </text>
</g>
<!-- user&#45;&gt;group -->
<g id="edge10" class="edge"><title>user&#45;&gt;group</title>
<path fill="none" stroke="black" d="M172.751,-119.782C204.269,-126.858 254.26,-143.455 277,-180 292.393,-204.739 274.64,-236.402 258.14,-257.623"/>
<polygon fill="black" stroke="black" points="255.336,-255.523 251.716,-265.481 260.755,-259.954 255.336,-255.523"/>
<text text-anchor="middle" x="326" y="-201" font-family="Times,serif" font-size="10.00">has_many </text>
<text text-anchor="middle" x="326" y="-190" font-family="Times,serif" font-size="10.00">through memberships</text>
</g>
<!-- user&#45;&gt;membership -->
<g id="edge9" class="edge"><title>user&#45;&gt;membership</title>
<path fill="none" stroke="black" d="M129.998,-129.645C117.565,-141.782 99.654,-159.266 85.1968,-173.379"/>
<polygon fill="black" stroke="black" points="82.7095,-170.916 77.9987,-180.406 87.5993,-175.925 82.7095,-170.916"/>
<text text-anchor="middle" x="131" y="-153.5" font-family="Times,serif" font-size="10.00">has_many </text>
</g>
</g>
</svg>
