<?xml version="1.0" encoding="UTF-8" standalone="no"?>
<!DOCTYPE svg PUBLIC "-//W3C//DTD SVG 1.1//EN"
 "http://www.w3.org/Graphics/SVG/1.1/DTD/svg11.dtd">
<!-- Generated by graphviz version 2.36.0 (20140111.2315)
 -->
<!-- Title: G Pages: 1 -->
<svg width="1594pt" height="842pt"
 viewBox="0.00 0.00 1594.00 842.00" xmlns="http://www.w3.org/2000/svg" xmlns:xlink="http://www.w3.org/1999/xlink">
<g id="graph0" class="graph" transform="scale(1 1) rotate(0) translate(4 838)">
<title>G</title>
<polygon fill="white" stroke="none" points="-4,4 -4,-838 1590,-838 1590,4 -4,4"/>
<text text-anchor="start" x="649" y="-29" font-family="Times,serif" font-size="14.00"> </text>
<text text-anchor="start" x="653" y="-29" font-family="Times,serif" font-size="80.00">citizenry</text>
<text text-anchor="start" x="933" y="-29" font-family="Times,serif" font-size="14.00"> </text>
<!-- authentication -->
<g id="node1" class="node"><title>authentication</title>
<ellipse fill="teal" stroke="black" cx="972" cy="-816" rx="60.1672" ry="18"/>
<text text-anchor="middle" x="972" y="-812.3" font-family="Times,serif" font-size="14.00">authentication</text>
</g>
<!-- user -->
<g id="node13" class="node"><title>user</title>
<ellipse fill="teal" stroke="black" cx="972" cy="-732" rx="27" ry="18"/>
<text text-anchor="middle" x="972" y="-728.3" font-family="Times,serif" font-size="14.00">user</text>
</g>
<!-- authentication&#45;&gt;user -->
<g id="edge1" class="edge"><title>authentication&#45;&gt;user</title>
<path fill="none" stroke="black" d="M950.669,-798.949C945.164,-793.592 939.96,-787.145 937,-780 932.886,-770.069 938.13,-760.33 945.708,-752.315"/>
<polygon fill="black" stroke="black" points="948.139,-754.834 953.122,-745.484 943.396,-749.686 948.139,-754.834"/>
<text text-anchor="middle" x="961.5" y="-771.5" font-family="Times,serif" font-size="10.00">belongs_to </text>
</g>
<!-- company -->
<g id="node2" class="node"><title>company</title>
<ellipse fill="teal" stroke="black" cx="777" cy="-554" rx="43.319" ry="18"/>
<text text-anchor="middle" x="777" y="-550.3" font-family="Times,serif" font-size="14.00">company</text>
</g>
<!-- company_project -->
<g id="node3" class="node"><title>company_project</title>
<ellipse fill="teal" stroke="black" cx="966" cy="-460" rx="72.2155" ry="18"/>
<text text-anchor="middle" x="966" y="-456.3" font-family="Times,serif" font-size="14.00">company_project</text>
</g>
<!-- company&#45;&gt;company_project -->
<g id="edge2" class="edge"><title>company&#45;&gt;company_project</title>
<path fill="none" stroke="black" d="M807.231,-540.834C820.568,-534.84 836.108,-526.969 849,-518 860.612,-509.922 860.014,-503.512 872,-496 883.755,-488.633 897.297,-482.462 910.375,-477.456"/>
<polygon fill="black" stroke="black" points="911.594,-480.737 919.784,-474.016 909.19,-474.162 911.594,-480.737"/>
<text text-anchor="middle" x="894" y="-504.5" font-family="Times,serif" font-size="10.00">has_many </text>
</g>
<!-- employment -->
<g id="node4" class="node"><title>employment</title>
<ellipse fill="teal" stroke="black" cx="1112" cy="-460" rx="55.3436" ry="18"/>
<text text-anchor="middle" x="1112" y="-456.3" font-family="Times,serif" font-size="14.00">employment</text>
</g>
<!-- company&#45;&gt;employment -->
<g id="edge6" class="edge"><title>company&#45;&gt;employment</title>
<path fill="none" stroke="black" stroke-dasharray="5,2" d="M818.283,-548.285C847.072,-543.677 885.617,-534.793 916,-518 928.38,-511.157 926.351,-502.333 939,-496 982.513,-474.215 999.412,-488.167 1047,-478 1051.67,-477.002 1056.52,-475.887 1061.35,-474.72"/>
<polygon fill="black" stroke="black" points="1062.36,-478.077 1071.22,-472.269 1060.67,-471.283 1062.36,-478.077"/>
<text text-anchor="middle" x="961" y="-504.5" font-family="Times,serif" font-size="10.00">has_many </text>
</g>
<!-- group -->
<g id="node5" class="node"><title>group</title>
<ellipse fill="teal" stroke="black" cx="636" cy="-198" rx="31.2965" ry="18"/>
<text text-anchor="middle" x="636" y="-194.3" font-family="Times,serif" font-size="14.00">group</text>
</g>
<!-- company&#45;&gt;group -->
<g id="edge5" class="edge"><title>company&#45;&gt;group</title>
<path fill="none" stroke="black" stroke-dasharray="5,2" d="M734.263,-550.867C705.699,-547.436 668.773,-538.898 643,-518 627.561,-505.482 629.777,-496.685 623,-478 598.181,-409.569 574.131,-389.459 588,-318 591.565,-299.629 611.125,-254.117 624.149,-225.001"/>
<polygon fill="black" stroke="black" points="627.37,-226.374 628.283,-215.818 620.987,-223.5 627.37,-226.374"/>
<text text-anchor="middle" x="631" y="-369" font-family="Times,serif" font-size="10.00">has_many </text>
<text text-anchor="middle" x="631" y="-358" font-family="Times,serif" font-size="10.00">through sponsorships</text>
</g>
<!-- person -->
<g id="node8" class="node"><title>person</title>
<ellipse fill="teal" stroke="black" cx="972" cy="-648" rx="34.1708" ry="18"/>
<text text-anchor="middle" x="972" y="-644.3" font-family="Times,serif" font-size="14.00">person</text>
</g>
<!-- company&#45;&gt;person -->
<g id="edge7" class="edge"><title>company&#45;&gt;person</title>
<path fill="none" stroke="black" stroke-dasharray="5,2" d="M811.107,-565.228C830.503,-571.494 855.032,-580.184 876,-590 879.45,-591.615 914.874,-612.747 941.695,-628.813"/>
<polygon fill="black" stroke="black" points="940.026,-631.893 950.403,-634.032 943.625,-625.889 940.026,-631.893"/>
<text text-anchor="middle" x="958" y="-604" font-family="Times,serif" font-size="10.00">has_many </text>
<text text-anchor="middle" x="958" y="-593" font-family="Times,serif" font-size="10.00">through employments</text>
</g>
<!-- project -->
<g id="node9" class="node"><title>project</title>
<ellipse fill="teal" stroke="black" cx="827" cy="-366" rx="35.1455" ry="18"/>
<text text-anchor="middle" x="827" y="-362.3" font-family="Times,serif" font-size="14.00">project</text>
</g>
<!-- company&#45;&gt;project -->
<g id="edge3" class="edge"><title>company&#45;&gt;project</title>
<path fill="none" stroke="black" stroke-dasharray="5,2" d="M742.103,-543.059C689.985,-526.386 601.256,-489.854 634,-442 667.122,-393.594 736.422,-376.425 782.33,-370.339"/>
<polygon fill="black" stroke="black" points="782.807,-373.806 792.318,-369.139 781.972,-366.856 782.807,-373.806"/>
<text text-anchor="middle" x="689" y="-463" font-family="Times,serif" font-size="10.00">has_many </text>
<text text-anchor="middle" x="689" y="-452" font-family="Times,serif" font-size="10.00">through company_projects</text>
</g>
<!-- sponsorship -->
<g id="node12" class="node"><title>sponsorship</title>
<ellipse fill="teal" stroke="black" cx="370" cy="-114" rx="52.4675" ry="18"/>
<text text-anchor="middle" x="370" y="-110.3" font-family="Times,serif" font-size="14.00">sponsorship</text>
</g>
<!-- company&#45;&gt;sponsorship -->
<g id="edge4" class="edge"><title>company&#45;&gt;sponsorship</title>
<path fill="none" stroke="black" stroke-dasharray="5,2" d="M733.84,-552.464C570.578,-549.875 0,-535.499 0,-461 0,-461 0,-461 0,-197 0,-134.758 202.098,-119.728 307.569,-116.122"/>
<polygon fill="black" stroke="black" points="307.889,-119.614 317.773,-115.799 307.667,-112.617 307.889,-119.614"/>
<text text-anchor="middle" x="22" y="-321.5" font-family="Times,serif" font-size="10.00">has_many </text>
</g>
<!-- company_project&#45;&gt;company -->
<g id="edge9" class="edge"><title>company_project&#45;&gt;company</title>
<path fill="none" stroke="black" d="M911.292,-471.932C862.017,-481.828 797.116,-495.009 796,-496 787.429,-503.61 782.715,-515.189 780.126,-525.927"/>
<polygon fill="black" stroke="black" points="776.677,-525.329 778.239,-535.808 783.553,-526.642 776.677,-525.329"/>
<text text-anchor="middle" x="820.5" y="-504.5" font-family="Times,serif" font-size="10.00">belongs_to </text>
</g>
<!-- company_project&#45;&gt;project -->
<g id="edge8" class="edge"><title>company_project&#45;&gt;project</title>
<path fill="none" stroke="black" d="M908.048,-449.29C890.198,-444.093 871.459,-436.142 857,-424 847.493,-416.016 840.59,-404.238 835.82,-393.457"/>
<polygon fill="black" stroke="black" points="838.99,-391.959 832.026,-383.974 832.491,-394.559 838.99,-391.959"/>
<text text-anchor="middle" x="881.5" y="-410.5" font-family="Times,serif" font-size="10.00">belongs_to </text>
</g>
<!-- employment&#45;&gt;company -->
<g id="edge11" class="edge"><title>employment&#45;&gt;company</title>
<path fill="none" stroke="black" d="M1071.41,-472.387C1046.51,-479.759 1017.3,-489.213 1006,-496 993.875,-503.285 995.639,-511.647 983,-518 934.989,-542.131 873.57,-550.055 830.333,-552.448"/>
<polygon fill="black" stroke="black" points="830.125,-548.954 820.301,-552.922 830.455,-555.946 830.125,-548.954"/>
<text text-anchor="middle" x="1030.5" y="-504.5" font-family="Times,serif" font-size="10.00">belongs_to </text>
</g>
<!-- employment&#45;&gt;person -->
<g id="edge10" class="edge"><title>employment&#45;&gt;person</title>
<path fill="none" stroke="black" d="M1096.53,-477.503C1085.34,-489.182 1069.67,-505.011 1055,-518 1045.28,-526.605 1039.65,-525.51 1032,-536 1010.8,-565.09 1022.72,-581.252 1004,-612 1001.41,-616.259 998.25,-620.462 994.941,-624.397"/>
<polygon fill="black" stroke="black" points="992.159,-622.256 988.067,-632.029 997.36,-626.941 992.159,-622.256"/>
<text text-anchor="middle" x="1056.5" y="-551.5" font-family="Times,serif" font-size="10.00">belongs_to </text>
</g>
<!-- group&#45;&gt;company -->
<g id="edge17" class="edge"><title>group&#45;&gt;company</title>
<path fill="none" stroke="black" stroke-dasharray="5,2" d="M604.681,-198.758C555.751,-200.14 461.272,-210.168 408,-264 374.488,-297.865 362.824,-442.864 395,-478 438.611,-525.622 629.952,-543.938 724.184,-550.165"/>
<polygon fill="black" stroke="black" points="724.156,-553.67 734.359,-550.815 724.603,-546.684 724.156,-553.67"/>
<text text-anchor="middle" x="424" y="-369" font-family="Times,serif" font-size="10.00">has_many </text>
<text text-anchor="middle" x="424" y="-358" font-family="Times,serif" font-size="10.00">through sponsorships</text>
</g>
<!-- group_membership -->
<g id="node6" class="node"><title>group_membership</title>
<ellipse fill="teal" stroke="black" cx="1261" cy="-114" rx="79.4147" ry="18"/>
<text text-anchor="middle" x="1261" y="-110.3" font-family="Times,serif" font-size="14.00">group_membership</text>
</g>
<!-- group&#45;&gt;group_membership -->
<g id="edge14" class="edge"><title>group&#45;&gt;group_membership</title>
<path fill="none" stroke="black" stroke-dasharray="5,2" d="M666.145,-193.045C759.397,-180.81 1045.22,-143.311 1183.91,-125.114"/>
<polygon fill="black" stroke="black" points="1184.58,-128.556 1194.04,-123.785 1183.67,-121.616 1184.58,-128.556"/>
<text text-anchor="middle" x="1008" y="-153.5" font-family="Times,serif" font-size="10.00">has_many </text>
</g>
<!-- group_project -->
<g id="node7" class="node"><title>group_project</title>
<ellipse fill="teal" stroke="black" cx="742" cy="-282" rx="59.1941" ry="18"/>
<text text-anchor="middle" x="742" y="-278.3" font-family="Times,serif" font-size="14.00">group_project</text>
</g>
<!-- group&#45;&gt;group_project -->
<g id="edge12" class="edge"><title>group&#45;&gt;group_project</title>
<path fill="none" stroke="black" d="M663.189,-206.918C679.045,-212.551 698.677,-221.38 713,-234 719.576,-239.794 725.153,-247.442 729.606,-254.882"/>
<polygon fill="black" stroke="black" points="726.754,-256.96 734.636,-264.039 732.889,-253.59 726.754,-256.96"/>
<text text-anchor="middle" x="746" y="-237.5" font-family="Times,serif" font-size="10.00">has_many </text>
</g>
<!-- group&#45;&gt;person -->
<g id="edge15" class="edge"><title>group&#45;&gt;person</title>
<path fill="none" stroke="black" stroke-dasharray="5,2" d="M605.341,-201.51C506.098,-210.04 200,-239.697 200,-281 200,-555 200,-555 200,-555 200,-628.798 763.414,-643.649 927.605,-646.41"/>
<polygon fill="black" stroke="black" points="927.777,-649.913 937.832,-646.575 927.89,-642.914 927.777,-649.913"/>
<text text-anchor="middle" x="259" y="-416" font-family="Times,serif" font-size="10.00">has_many </text>
<text text-anchor="middle" x="259" y="-405" font-family="Times,serif" font-size="10.00">through group_memberships</text>
</g>
<!-- group&#45;&gt;project -->
<g id="edge13" class="edge"><title>group&#45;&gt;project</title>
<path fill="none" stroke="black" stroke-dasharray="5,2" d="M667.03,-199.706C744.363,-202.221 942.037,-213.558 978,-264 1010.75,-309.934 924.019,-340.986 868.783,-355.528"/>
<polygon fill="black" stroke="black" points="867.699,-352.192 858.871,-358.051 869.426,-358.976 867.699,-352.192"/>
<text text-anchor="middle" x="1034.5" y="-285" font-family="Times,serif" font-size="10.00">has_many </text>
<text text-anchor="middle" x="1034.5" y="-274" font-family="Times,serif" font-size="10.00">through group_projects</text>
</g>
<!-- group&#45;&gt;sponsorship -->
<g id="edge16" class="edge"><title>group&#45;&gt;sponsorship</title>
<path fill="none" stroke="black" stroke-dasharray="5,2" d="M606.328,-192.359C573.843,-186.854 520.454,-176.552 476,-162 452.547,-154.323 427.25,-143.221 407.252,-133.735"/>
<polygon fill="black" stroke="black" points="408.706,-130.551 398.177,-129.369 405.671,-136.859 408.706,-130.551"/>
<text text-anchor="middle" x="498" y="-153.5" font-family="Times,serif" font-size="10.00">has_many </text>
</g>
<!-- group_membership&#45;&gt;group -->
<g id="edge18" class="edge"><title>group_membership&#45;&gt;group</title>
<path fill="none" stroke="black" d="M1208.56,-127.669C1162.75,-138.301 1094.32,-153.133 1034,-162 904.325,-181.06 749.245,-191.052 676.912,-194.978"/>
<polygon fill="black" stroke="black" points="676.653,-191.486 666.853,-195.513 677.025,-198.476 676.653,-191.486"/>
<text text-anchor="middle" x="1128.5" y="-153.5" font-family="Times,serif" font-size="10.00">belongs_to </text>
</g>
<!-- group_membership&#45;&gt;person -->
<g id="edge19" class="edge"><title>group_membership&#45;&gt;person</title>
<path fill="none" stroke="black" d="M1332.44,-122.026C1414.21,-132.097 1537,-154.324 1537,-197 1537,-555 1537,-555 1537,-555 1537,-593.759 1506.83,-597.222 1471,-612 1389.42,-645.648 1122.88,-647.93 1016.46,-647.441"/>
<polygon fill="black" stroke="black" points="1016.4,-643.94 1006.38,-647.384 1016.36,-650.94 1016.4,-643.94"/>
<text text-anchor="middle" x="1561.5" y="-363.5" font-family="Times,serif" font-size="10.00">belongs_to </text>
</g>
<!-- group_project&#45;&gt;group -->
<g id="edge21" class="edge"><title>group_project&#45;&gt;group</title>
<path fill="none" stroke="black" d="M699.521,-269.29C685.704,-263.907 671.088,-256.351 660,-246 653.878,-240.285 649.069,-232.659 645.414,-225.216"/>
<polygon fill="black" stroke="black" points="648.613,-223.795 641.391,-216.042 642.202,-226.606 648.613,-223.795"/>
<text text-anchor="middle" x="684.5" y="-237.5" font-family="Times,serif" font-size="10.00">belongs_to </text>
</g>
<!-- group_project&#45;&gt;project -->
<g id="edge20" class="edge"><title>group_project&#45;&gt;project</title>
<path fill="none" stroke="black" d="M739.845,-300.145C739.543,-309.777 740.793,-321.527 747,-330 756.098,-342.421 770.569,-350.495 784.717,-355.717"/>
<polygon fill="black" stroke="black" points="783.798,-359.099 794.391,-358.894 785.982,-352.448 783.798,-359.099"/>
<text text-anchor="middle" x="771.5" y="-321.5" font-family="Times,serif" font-size="10.00">belongs_to </text>
</g>
<!-- person&#45;&gt;company -->
<g id="edge28" class="edge"><title>person&#45;&gt;company</title>
<path fill="none" stroke="black" stroke-dasharray="5,2" d="M937.891,-645.53C888.947,-642.654 802.424,-634.456 782,-612 774.781,-604.063 772.763,-592.678 772.843,-582.167"/>
<polygon fill="black" stroke="black" points="776.341,-582.316 773.507,-572.108 769.356,-581.855 776.341,-582.316"/>
<text text-anchor="middle" x="827" y="-604" font-family="Times,serif" font-size="10.00">has_many </text>
<text text-anchor="middle" x="827" y="-593" font-family="Times,serif" font-size="10.00">through employments</text>
</g>
<!-- person&#45;&gt;employment -->
<g id="edge27" class="edge"><title>person&#45;&gt;employment</title>
<path fill="none" stroke="black" stroke-dasharray="5,2" d="M997.483,-635.892C1022.41,-623.736 1059.65,-601.919 1081,-572 1098.74,-547.141 1106.34,-512.469 1109.59,-488.521"/>
<polygon fill="black" stroke="black" points="1113.1,-488.689 1110.8,-478.346 1106.15,-487.864 1113.1,-488.689"/>
<text text-anchor="middle" x="1121" y="-551.5" font-family="Times,serif" font-size="10.00">has_many </text>
</g>
<!-- person&#45;&gt;group -->
<g id="edge26" class="edge"><title>person&#45;&gt;group</title>
<path fill="none" stroke="black" stroke-dasharray="5,2" d="M937.6,-647.213C771.341,-647.8 59,-645.06 59,-555 59,-555 59,-555 59,-281 59,-226.818 462.954,-205.898 594.872,-200.511"/>
<polygon fill="black" stroke="black" points="595.126,-204.004 604.978,-200.107 594.846,-197.009 595.126,-204.004"/>
<text text-anchor="middle" x="118" y="-416" font-family="Times,serif" font-size="10.00">has_many </text>
<text text-anchor="middle" x="118" y="-405" font-family="Times,serif" font-size="10.00">through group_memberships</text>
</g>
<!-- person&#45;&gt;group_membership -->
<g id="edge25" class="edge"><title>person&#45;&gt;group_membership</title>
<path fill="none" stroke="black" stroke-dasharray="5,2" d="M1005.72,-644.188C1115.71,-634.568 1457,-601.012 1457,-555 1457,-555 1457,-555 1457,-197 1457,-146.581 1401.12,-126.626 1349.03,-118.977"/>
<polygon fill="black" stroke="black" points="1349.4,-115.495 1339.03,-117.647 1348.48,-122.434 1349.4,-115.495"/>
<text text-anchor="middle" x="1479" y="-363.5" font-family="Times,serif" font-size="10.00">has_many </text>
</g>
<!-- person&#45;&gt;project -->
<g id="edge24" class="edge"><title>person&#45;&gt;project</title>
<path fill="none" stroke="black" stroke-dasharray="5,2" d="M1004.63,-642.014C1044.26,-634.205 1110.34,-615.241 1147,-572 1175.27,-538.651 1169.48,-521.232 1176,-478 1178.39,-462.179 1186.06,-454.446 1176,-442 1138.24,-395.261 957.441,-376.297 871.965,-369.847"/>
<polygon fill="black" stroke="black" points="872.012,-366.341 861.784,-369.104 871.503,-373.323 872.012,-366.341"/>
<text text-anchor="middle" x="1235" y="-510" font-family="Times,serif" font-size="10.00">has_many </text>
<text text-anchor="middle" x="1235" y="-499" font-family="Times,serif" font-size="10.00">through project_memberships</text>
</g>
<!-- project_membership -->
<g id="node10" class="node"><title>project_membership</title>
<ellipse fill="teal" stroke="black" cx="501" cy="-282" rx="83.2649" ry="18"/>
<text text-anchor="middle" x="501" y="-278.3" font-family="Times,serif" font-size="14.00">project_membership</text>
</g>
<!-- person&#45;&gt;project_membership -->
<g id="edge23" class="edge"><title>person&#45;&gt;project_membership</title>
<path fill="none" stroke="black" d="M937.592,-646.638C832.297,-645.244 519.374,-638.859 483,-612 419.439,-565.066 407.072,-517.301 431,-442 440.56,-411.914 458.341,-412.46 472,-384 483.48,-360.081 491.275,-330.743 495.868,-309.863"/>
<polygon fill="black" stroke="black" points="499.294,-310.576 497.924,-300.07 492.444,-309.138 499.294,-310.576"/>
<text text-anchor="middle" x="453" y="-457.5" font-family="Times,serif" font-size="10.00">has_many </text>
</g>
<!-- person&#45;&gt;user -->
<g id="edge22" class="edge"><title>person&#45;&gt;user</title>
<path fill="none" stroke="black" d="M976.683,-665.958C978.036,-671.646 979.329,-678.054 980,-684 980.743,-690.585 980.239,-697.648 979.195,-704.246"/>
<polygon fill="black" stroke="black" points="975.754,-703.603 977.212,-714.097 982.617,-704.984 975.754,-703.603"/>
<text text-anchor="middle" x="1005.5" y="-687.5" font-family="Times,serif" font-size="10.00">belongs_to </text>
</g>
<!-- project&#45;&gt;company -->
<g id="edge32" class="edge"><title>project&#45;&gt;company</title>
<path fill="none" stroke="black" stroke-dasharray="5,2" d="M812.035,-382.417C799.397,-396.593 782.236,-418.863 775,-442 766.358,-469.632 768.546,-503.053 771.83,-525.956"/>
<polygon fill="black" stroke="black" points="768.398,-526.661 773.435,-535.982 775.311,-525.555 768.398,-526.661"/>
<text text-anchor="middle" x="830" y="-463" font-family="Times,serif" font-size="10.00">has_many </text>
<text text-anchor="middle" x="830" y="-452" font-family="Times,serif" font-size="10.00">through company_projects</text>
</g>
<!-- project&#45;&gt;company_project -->
<g id="edge31" class="edge"><title>project&#45;&gt;company_project</title>
<path fill="none" stroke="black" stroke-dasharray="5,2" d="M855.262,-376.794C870.894,-382.866 890.277,-391.509 906,-402 919.886,-411.266 933.527,-423.862 944.285,-434.857"/>
<polygon fill="black" stroke="black" points="941.806,-437.329 951.239,-442.153 946.873,-432.499 941.806,-437.329"/>
<text text-anchor="middle" x="955" y="-410.5" font-family="Times,serif" font-size="10.00">has_many </text>
</g>
<!-- project&#45;&gt;group -->
<g id="edge34" class="edge"><title>project&#45;&gt;group</title>
<path fill="none" stroke="black" stroke-dasharray="5,2" d="M844.104,-350.073C852.139,-341.181 859.139,-329.431 855,-318 844.365,-288.625 832.381,-285.797 810,-264 794.585,-248.987 791.28,-243.554 772,-234 741.588,-218.929 704.034,-209.899 676.099,-204.797"/>
<polygon fill="black" stroke="black" points="676.349,-201.288 665.899,-203.029 675.154,-208.185 676.349,-201.288"/>
<text text-anchor="middle" x="895.5" y="-285" font-family="Times,serif" font-size="10.00">has_many </text>
<text text-anchor="middle" x="895.5" y="-274" font-family="Times,serif" font-size="10.00">through group_projects</text>
</g>
<!-- project&#45;&gt;group_project -->
<g id="edge33" class="edge"><title>project&#45;&gt;group_project</title>
<path fill="none" stroke="black" stroke-dasharray="5,2" d="M818.162,-348.109C812.632,-338.562 804.882,-326.812 796,-318 790.765,-312.807 784.641,-307.965 778.433,-303.639"/>
<polygon fill="black" stroke="black" points="780.267,-300.656 769.991,-298.074 776.414,-306.5 780.267,-300.656"/>
<text text-anchor="middle" x="829" y="-321.5" font-family="Times,serif" font-size="10.00">has_many </text>
</g>
<!-- project&#45;&gt;person -->
<g id="edge30" class="edge"><title>project&#45;&gt;person</title>
<path fill="none" stroke="black" stroke-dasharray="5,2" d="M862.413,-366.302C921.065,-366.17 1041.39,-370.268 1137,-402 1215.64,-428.1 1256.75,-424.142 1298,-496 1361.05,-605.823 1119.05,-636.425 1016.2,-644.386"/>
<polygon fill="black" stroke="black" points="1015.83,-640.904 1006.11,-645.129 1016.34,-647.885 1015.83,-640.904"/>
<text text-anchor="middle" x="1368" y="-510" font-family="Times,serif" font-size="10.00">has_many </text>
<text text-anchor="middle" x="1368" y="-499" font-family="Times,serif" font-size="10.00">through project_memberships</text>
</g>
<!-- project&#45;&gt;project_membership -->
<g id="edge29" class="edge"><title>project&#45;&gt;project_membership</title>
<path fill="none" stroke="black" d="M795.958,-357.357C768.916,-350.574 728.709,-340.187 694,-330 677.412,-325.132 673.674,-322.564 657,-318 628.626,-310.234 597.008,-302.899 569.695,-296.97"/>
<polygon fill="black" stroke="black" points="570.353,-293.532 559.841,-294.851 568.881,-300.375 570.353,-293.532"/>
<text text-anchor="middle" x="716" y="-321.5" font-family="Times,serif" font-size="10.00">has_many </text>
</g>
<!-- project_membership&#45;&gt;person -->
<g id="edge36" class="edge"><title>project_membership&#45;&gt;person</title>
<path fill="none" stroke="black" d="M504.163,-300.006C512.225,-341.985 534.431,-449.219 556,-478 623.298,-567.8 665.194,-571.891 770,-612 822.095,-631.937 886.11,-640.58 927.926,-644.286"/>
<polygon fill="black" stroke="black" points="927.804,-647.788 938.059,-645.126 928.382,-640.812 927.804,-647.788"/>
<text text-anchor="middle" x="580.5" y="-457.5" font-family="Times,serif" font-size="10.00">belongs_to </text>
</g>
<!-- project_membership&#45;&gt;project -->
<g id="edge35" class="edge"><title>project_membership&#45;&gt;project</title>
<path fill="none" stroke="black" d="M530.36,-299.002C550.526,-309.336 578.211,-322.251 604,-330 664.238,-348.099 736.596,-357.261 782.201,-361.578"/>
<polygon fill="black" stroke="black" points="782.076,-365.081 792.352,-362.501 782.71,-358.11 782.076,-365.081"/>
<text text-anchor="middle" x="628.5" y="-321.5" font-family="Times,serif" font-size="10.00">belongs_to </text>
</g>
<!-- resource_link -->
<g id="node11" class="node"><title>resource_link</title>
<ellipse fill="teal" stroke="black" cx="1109" cy="-816" rx="58.2422" ry="18"/>
<text text-anchor="middle" x="1109" y="-812.3" font-family="Times,serif" font-size="14.00">resource_link</text>
</g>
<!-- sponsorship&#45;&gt;company -->
<g id="edge37" class="edge"><title>sponsorship&#45;&gt;company</title>
<path fill="none" stroke="black" d="M354.514,-131.466C341.497,-147.078 325,-171.83 325,-197 325,-325 325,-325 325,-325 325,-420.217 331.655,-477.864 418,-518 470.931,-542.604 637.147,-549.935 723.588,-552.102"/>
<polygon fill="black" stroke="black" points="723.641,-555.604 733.721,-552.341 723.807,-548.606 723.641,-555.604"/>
<text text-anchor="middle" x="350.5" y="-321.5" font-family="Times,serif" font-size="10.00">belongs_to </text>
</g>
<!-- sponsorship&#45;&gt;group -->
<g id="edge38" class="edge"><title>sponsorship&#45;&gt;group</title>
<path fill="none" stroke="black" d="M414.796,-123.546C444.871,-129.748 485.206,-138.966 520,-150 548.635,-159.081 580.173,-172.061 603.126,-182.08"/>
<polygon fill="black" stroke="black" points="601.843,-185.339 612.405,-186.173 604.668,-178.935 601.843,-185.339"/>
<text text-anchor="middle" x="577.5" y="-153.5" font-family="Times,serif" font-size="10.00">belongs_to </text>
</g>
<!-- user&#45;&gt;authentication -->
<g id="edge40" class="edge"><title>user&#45;&gt;authentication</title>
<path fill="none" stroke="black" d="M980.92,-749.332C984.774,-758.282 987.996,-769.633 986,-780 985.473,-782.737 984.734,-785.533 983.867,-788.291"/>
<polygon fill="black" stroke="black" points="980.483,-787.355 980.326,-797.948 987.055,-789.765 980.483,-787.355"/>
<text text-anchor="middle" x="1009" y="-771.5" font-family="Times,serif" font-size="10.00">has_many </text>
</g>
<!-- user&#45;&gt;person -->
<g id="edge39" class="edge"><title>user&#45;&gt;person</title>
<path fill="none" stroke="black" d="M955.002,-717.837C948.722,-711.922 942.329,-704.383 939,-696 935.487,-687.154 939.184,-678.369 945.201,-670.83"/>
<polygon fill="black" stroke="black" points="948.09,-672.869 952.41,-663.195 943,-668.063 948.09,-672.869"/>
<text text-anchor="middle" x="957.5" y="-687.5" font-family="Times,serif" font-size="10.00">has_one </text>
</g>
</g>
</svg>
