<?xml version="1.0" encoding="UTF-8" standalone="no"?>
<!DOCTYPE svg PUBLIC "-//W3C//DTD SVG 1.1//EN"
 "http://www.w3.org/Graphics/SVG/1.1/DTD/svg11.dtd">
<!-- Generated by graphviz version 2.36.0 (20140111.2315)
 -->
<!-- Title: G Pages: 1 -->
<svg width="1603pt" height="825pt"
 viewBox="0.00 0.00 1603.00 825.00" xmlns="http://www.w3.org/2000/svg" xmlns:xlink="http://www.w3.org/1999/xlink">
<g id="graph0" class="graph" transform="scale(1 1) rotate(0) translate(4 821)">
<title>G</title>
<polygon fill="white" stroke="none" points="-4,4 -4,-821 1599,-821 1599,4 -4,4"/>
<text text-anchor="start" x="705" y="-20" font-family="Times,serif" font-size="14.00"> </text>
<text text-anchor="start" x="709" y="-20" font-family="Times,serif" font-size="50.00">citizenry</text>
<text text-anchor="start" x="886" y="-20" font-family="Times,serif" font-size="14.00"> </text>
<!-- authentication -->
<g id="node1" class="node"><title>authentication</title>
<ellipse fill="white" stroke="black" cx="1034" cy="-791" rx="67.3907" ry="18"/>
<text text-anchor="start" x="990" y="-788.3" font-family="Times,serif" font-weight="bold" font-size="14.00">authentication</text>
<text text-anchor="start" x="1074" y="-788.3" font-family="Times,serif" font-size="14.00"> </text>
</g>
<!-- user -->
<g id="node15" class="node"><title>user</title>
<ellipse fill="white" stroke="black" cx="1034" cy="-699" rx="29.3722" ry="18"/>
<text text-anchor="start" x="1019.5" y="-696.3" font-family="Times,serif" font-weight="bold" font-size="14.00">user</text>
<text text-anchor="start" x="1044.5" y="-696.3" font-family="Times,serif" font-size="14.00"> </text>
</g>
<!-- authentication&#45;&gt;user -->
<g id="edge1" class="edge"><title>authentication&#45;&gt;user</title>
<path fill="none" stroke="black" d="M1034,-772.647C1034,-759.823 1034,-742.108 1034,-727.381"/>
<polygon fill="black" stroke="black" points="1037.5,-727.3 1034,-717.3 1030.5,-727.3 1037.5,-727.3"/>
<text text-anchor="middle" x="1058.5" y="-738.5" font-family="Times,serif" font-size="10.00">belongs_to </text>
</g>
<!-- company -->
<g id="node2" class="node"><title>company</title>
<ellipse fill="white" stroke="black" cx="778" cy="-521" rx="48.1437" ry="18"/>
<text text-anchor="start" x="749" y="-518.3" font-family="Times,serif" font-weight="bold" font-size="14.00">company</text>
<text text-anchor="start" x="803" y="-518.3" font-family="Times,serif" font-size="14.00"> </text>
</g>
<!-- company_project -->
<g id="node3" class="node"><title>company_project</title>
<ellipse fill="white" stroke="black" cx="973" cy="-427" rx="78.9404" ry="18"/>
<text text-anchor="start" x="920" y="-424.3" font-family="Times,serif" font-weight="bold" font-size="14.00">company_project</text>
<text text-anchor="start" x="1022" y="-424.3" font-family="Times,serif" font-size="14.00"> </text>
</g>
<!-- company&#45;&gt;company_project -->
<g id="edge2" class="edge"><title>company&#45;&gt;company_project</title>
<path fill="none" stroke="black" d="M809.206,-507.128C822.034,-501.209 836.727,-493.589 849,-485 860.59,-476.89 859.929,-470.374 872,-463 884.481,-455.375 898.85,-449.128 912.761,-444.133"/>
<polygon fill="black" stroke="black" points="913.962,-447.422 922.29,-440.873 911.696,-440.798 913.962,-447.422"/>
<text text-anchor="middle" x="894" y="-471.5" font-family="Times,serif" font-size="10.00">has_many </text>
</g>
<!-- employment -->
<g id="node5" class="node"><title>employment</title>
<ellipse fill="white" stroke="black" cx="1131" cy="-427" rx="60.1672" ry="18"/>
<text text-anchor="start" x="1092.5" y="-424.3" font-family="Times,serif" font-weight="bold" font-size="14.00">employment</text>
<text text-anchor="start" x="1165.5" y="-424.3" font-family="Times,serif" font-size="14.00"> </text>
</g>
<!-- company&#45;&gt;employment -->
<g id="edge6" class="edge"><title>company&#45;&gt;employment</title>
<path fill="none" stroke="black" d="M823.043,-514.555C851.118,-509.752 887.242,-500.927 916,-485 928.375,-478.147 926.292,-469.214 939,-463 988.237,-438.922 1007.2,-455.478 1061,-445 1066.29,-443.969 1071.79,-442.803 1077.27,-441.576"/>
<polygon fill="black" stroke="black" points="1078.11,-444.974 1087.07,-439.32 1076.54,-438.153 1078.11,-444.974"/>
<text text-anchor="middle" x="961" y="-471.5" font-family="Times,serif" font-size="10.00">has_many </text>
</g>
<!-- group -->
<g id="node6" class="node"><title>group</title>
<ellipse fill="white" stroke="black" cx="648" cy="-165" rx="35.6194" ry="18"/>
<text text-anchor="start" x="628.5" y="-162.3" font-family="Times,serif" font-weight="bold" font-size="14.00">group</text>
<text text-anchor="start" x="663.5" y="-162.3" font-family="Times,serif" font-size="14.00"> </text>
</g>
<!-- company&#45;&gt;group -->
<g id="edge5" class="edge"><title>company&#45;&gt;group</title>
<path fill="none" stroke="black" d="M730.828,-517.43C702.693,-513.718 667.749,-505.03 643,-485 627.55,-472.496 629.777,-463.685 623,-445 598.181,-376.569 556.828,-350.78 588,-285 593.41,-273.584 602.634,-277.264 610,-267 626.146,-244.502 636.315,-214.312 642.027,-192.814"/>
<polygon fill="black" stroke="black" points="645.443,-193.581 644.479,-183.03 638.653,-191.879 645.443,-193.581"/>
<text text-anchor="middle" x="624" y="-336" font-family="Times,serif" font-size="10.00">has_many </text>
<text text-anchor="middle" x="624" y="-325" font-family="Times,serif" font-size="10.00">through sponsorships</text>
</g>
<!-- person -->
<g id="node9" class="node"><title>person</title>
<ellipse fill="white" stroke="black" cx="974" cy="-615" rx="38.4949" ry="18"/>
<text text-anchor="start" x="952" y="-612.3" font-family="Times,serif" font-weight="bold" font-size="14.00">person</text>
<text text-anchor="start" x="992" y="-612.3" font-family="Times,serif" font-size="14.00"> </text>
</g>
<!-- company&#45;&gt;person -->
<g id="edge7" class="edge"><title>company&#45;&gt;person</title>
<path fill="none" stroke="black" d="M814.324,-532.784C833.609,-538.987 857.495,-547.44 878,-557 901.099,-567.769 925.795,-582.512 944.353,-594.306"/>
<polygon fill="black" stroke="black" points="942.634,-597.362 952.937,-599.829 946.421,-591.475 942.634,-597.362"/>
<text text-anchor="middle" x="964" y="-571" font-family="Times,serif" font-size="10.00">has_many </text>
<text text-anchor="middle" x="964" y="-560" font-family="Times,serif" font-size="10.00">through employments</text>
</g>
<!-- project -->
<g id="node10" class="node"><title>project</title>
<ellipse fill="white" stroke="black" cx="828" cy="-333" rx="39.9464" ry="18"/>
<text text-anchor="start" x="805" y="-330.3" font-family="Times,serif" font-weight="bold" font-size="14.00">project</text>
<text text-anchor="start" x="847" y="-330.3" font-family="Times,serif" font-size="14.00"> </text>
</g>
<!-- company&#45;&gt;project -->
<g id="edge3" class="edge"><title>company&#45;&gt;project</title>
<path fill="none" stroke="black" d="M740.717,-509.415C688.003,-492.497 601.517,-456.384 634,-409 666.174,-362.067 732.247,-344.495 778.294,-337.922"/>
<polygon fill="black" stroke="black" points="778.909,-341.371 788.374,-336.611 778.006,-334.43 778.909,-341.371"/>
<text text-anchor="middle" x="689" y="-430" font-family="Times,serif" font-size="10.00">has_many </text>
<text text-anchor="middle" x="689" y="-419" font-family="Times,serif" font-size="10.00">through company_projects</text>
</g>
<!-- sponsorship -->
<g id="node14" class="node"><title>sponsorship</title>
<ellipse fill="white" stroke="black" cx="365" cy="-81" rx="58.2422" ry="18"/>
<text text-anchor="start" x="328" y="-78.3" font-family="Times,serif" font-weight="bold" font-size="14.00">sponsorship</text>
<text text-anchor="start" x="398" y="-78.3" font-family="Times,serif" font-size="14.00"> </text>
</g>
<!-- company&#45;&gt;sponsorship -->
<g id="edge4" class="edge"><title>company&#45;&gt;sponsorship</title>
<path fill="none" stroke="black" d="M729.92,-519.392C560.298,-516.62 0,-501.871 0,-428 0,-428 0,-428 0,-164 0,-103.817 191.292,-87.7964 296.909,-83.5376"/>
<polygon fill="black" stroke="black" points="297.304,-87.0253 307.165,-83.1501 297.04,-80.0303 297.304,-87.0253"/>
<text text-anchor="middle" x="22" y="-288.5" font-family="Times,serif" font-size="10.00">has_many </text>
</g>
<!-- company_project&#45;&gt;company -->
<g id="edge9" class="edge"><title>company_project&#45;&gt;company</title>
<path fill="none" stroke="black" d="M913.63,-439.008C863.087,-448.492 798.268,-460.97 796,-463 787.503,-470.605 782.984,-482.183 780.594,-492.922"/>
<polygon fill="black" stroke="black" points="777.14,-492.356 778.894,-502.804 784.039,-493.543 777.14,-492.356"/>
<text text-anchor="middle" x="820.5" y="-471.5" font-family="Times,serif" font-size="10.00">belongs_to </text>
</g>
<!-- company_project&#45;&gt;project -->
<g id="edge8" class="edge"><title>company_project&#45;&gt;project</title>
<path fill="none" stroke="black" d="M911.44,-415.551C893.817,-410.345 875.479,-402.576 861,-391 850.984,-382.992 843.41,-371.061 838.062,-360.181"/>
<polygon fill="black" stroke="black" points="841.23,-358.693 833.928,-351.016 834.849,-361.571 841.23,-358.693"/>
<text text-anchor="middle" x="885.5" y="-377.5" font-family="Times,serif" font-size="10.00">belongs_to </text>
</g>
<!-- contact_form -->
<g id="node4" class="node"><title>contact_form</title>
<ellipse fill="white" stroke="black" cx="1190" cy="-791" rx="70.0054" ry="25.4118"/>
<text text-anchor="start" x="1148.5" y="-794.8" font-family="Times,serif" font-weight="bold" font-size="14.00">contact_form</text>
<text text-anchor="start" x="1227.5" y="-794.8" font-family="Times,serif" font-size="14.00"> </text>
<text text-anchor="start" x="1188" y="-780.8" font-family="Times,serif" font-size="14.00"> </text>
</g>
<!-- employment&#45;&gt;company -->
<g id="edge11" class="edge"><title>employment&#45;&gt;company</title>
<path fill="none" stroke="black" d="M1086.56,-439.314C1053.62,-447.892 1013.22,-458.885 1006,-463 993.711,-470.005 995.636,-478.642 983,-485 937.114,-508.086 878.915,-516.322 836.261,-519.084"/>
<polygon fill="black" stroke="black" points="835.83,-515.602 826.043,-519.66 836.225,-522.591 835.83,-515.602"/>
<text text-anchor="middle" x="1030.5" y="-471.5" font-family="Times,serif" font-size="10.00">belongs_to </text>
</g>
<!-- employment&#45;&gt;person -->
<g id="edge10" class="edge"><title>employment&#45;&gt;person</title>
<path fill="none" stroke="black" d="M1105.73,-443.65C1085.72,-457.181 1058.36,-478.405 1041,-503 1020.25,-532.411 1033.21,-549.213 1013,-579 1009.81,-583.705 1005.85,-588.199 1001.69,-592.304"/>
<polygon fill="black" stroke="black" points="999.126,-589.906 994.106,-599.236 1003.85,-595.072 999.126,-589.906"/>
<text text-anchor="middle" x="1065.5" y="-518.5" font-family="Times,serif" font-size="10.00">belongs_to </text>
</g>
<!-- group&#45;&gt;company -->
<g id="edge17" class="edge"><title>group&#45;&gt;company</title>
<path fill="none" stroke="black" d="M612.518,-165.262C560.392,-166.179 463.325,-175.828 408,-231 374.265,-264.642 362.815,-409.872 395,-445 438.059,-491.996 624.699,-510.424 720.615,-516.891"/>
<polygon fill="black" stroke="black" points="720.52,-520.392 730.727,-517.551 720.976,-513.407 720.52,-520.392"/>
<text text-anchor="middle" x="423" y="-336" font-family="Times,serif" font-size="10.00">has_many </text>
<text text-anchor="middle" x="423" y="-325" font-family="Times,serif" font-size="10.00">through sponsorships</text>
</g>
<!-- group_membership -->
<g id="node7" class="node"><title>group_membership</title>
<ellipse fill="white" stroke="black" cx="1271" cy="-81" rx="87.613" ry="18"/>
<text text-anchor="start" x="1211.5" y="-78.3" font-family="Times,serif" font-weight="bold" font-size="14.00">group_membership</text>
<text text-anchor="start" x="1326.5" y="-78.3" font-family="Times,serif" font-size="14.00"> </text>
</g>
<!-- group&#45;&gt;group_membership -->
<g id="edge14" class="edge"><title>group&#45;&gt;group_membership</title>
<path fill="none" stroke="black" d="M681.938,-159.533C777.619,-146.939 1051.53,-110.886 1189.5,-92.7265"/>
<polygon fill="black" stroke="black" points="1190.14,-96.1725 1199.6,-91.3974 1189.23,-89.2324 1190.14,-96.1725"/>
<text text-anchor="middle" x="1019" y="-120.5" font-family="Times,serif" font-size="10.00">has_many </text>
</g>
<!-- group_project -->
<g id="node8" class="node"><title>group_project</title>
<ellipse fill="white" stroke="black" cx="744" cy="-249" rx="66.4165" ry="18"/>
<text text-anchor="start" x="700.5" y="-246.3" font-family="Times,serif" font-weight="bold" font-size="14.00">group_project</text>
<text text-anchor="start" x="783.5" y="-246.3" font-family="Times,serif" font-size="14.00"> </text>
</g>
<!-- group&#45;&gt;group_project -->
<g id="edge12" class="edge"><title>group&#45;&gt;group_project</title>
<path fill="none" stroke="black" d="M677.779,-175.082C692.238,-180.689 709.026,-189.122 721,-201 726.675,-206.63 731.167,-213.943 734.617,-221.117"/>
<polygon fill="black" stroke="black" points="731.541,-222.824 738.691,-230.642 737.977,-220.071 731.541,-222.824"/>
<text text-anchor="middle" x="752" y="-204.5" font-family="Times,serif" font-size="10.00">has_many </text>
</g>
<!-- group&#45;&gt;person -->
<g id="edge15" class="edge"><title>group&#45;&gt;person</title>
<path fill="none" stroke="black" d="M613.219,-168.69C507.959,-177.292 200,-206.044 200,-248 200,-522 200,-522 200,-522 200,-595.397 755.918,-610.466 925.483,-613.355"/>
<polygon fill="black" stroke="black" points="925.561,-616.856 935.617,-613.521 925.676,-609.857 925.561,-616.856"/>
<text text-anchor="middle" x="259" y="-383" font-family="Times,serif" font-size="10.00">has_many </text>
<text text-anchor="middle" x="259" y="-372" font-family="Times,serif" font-size="10.00">through group_memberships</text>
</g>
<!-- group&#45;&gt;project -->
<g id="edge13" class="edge"><title>group&#45;&gt;project</title>
<path fill="none" stroke="black" d="M683.306,-167.132C761.297,-170.494 944.06,-183.395 978,-231 1009.91,-275.761 927.993,-306.542 873.031,-321.526"/>
<polygon fill="black" stroke="black" points="871.893,-318.207 863.116,-324.14 873.678,-324.975 871.893,-318.207"/>
<text text-anchor="middle" x="1034.5" y="-252" font-family="Times,serif" font-size="10.00">has_many </text>
<text text-anchor="middle" x="1034.5" y="-241" font-family="Times,serif" font-size="10.00">through group_projects</text>
</g>
<!-- group&#45;&gt;sponsorship -->
<g id="edge16" class="edge"><title>group&#45;&gt;sponsorship</title>
<path fill="none" stroke="black" d="M615.771,-157.468C585.417,-151.072 538.792,-140.616 499,-129 468.782,-120.179 435.372,-108.464 409.471,-98.9378"/>
<polygon fill="black" stroke="black" points="410.527,-95.5967 399.934,-95.4042 408.095,-102.161 410.527,-95.5967"/>
<text text-anchor="middle" x="521" y="-120.5" font-family="Times,serif" font-size="10.00">has_many </text>
</g>
<!-- group_membership&#45;&gt;group -->
<g id="edge18" class="edge"><title>group_membership&#45;&gt;group</title>
<path fill="none" stroke="black" d="M1216.52,-95.2007C1170.94,-105.792 1104.07,-120.284 1045,-129 918.432,-147.674 767.585,-157.632 693.564,-161.722"/>
<polygon fill="black" stroke="black" points="693.008,-158.247 683.212,-162.283 693.387,-165.237 693.008,-158.247"/>
<text text-anchor="middle" x="1138.5" y="-120.5" font-family="Times,serif" font-size="10.00">belongs_to </text>
</g>
<!-- group_membership&#45;&gt;person -->
<g id="edge19" class="edge"><title>group_membership&#45;&gt;person</title>
<path fill="none" stroke="black" d="M1347.6,-89.7576C1428.97,-100.18 1546,-122.4 1546,-164 1546,-522 1546,-522 1546,-522 1546,-560.759 1516.05,-564.774 1480,-579 1385.25,-616.385 1122.03,-577.78 1022,-597 1018.6,-597.654 1015.11,-598.506 1011.65,-599.48"/>
<polygon fill="black" stroke="black" points="1010.53,-596.161 1002.03,-602.486 1012.62,-602.842 1010.53,-596.161"/>
<text text-anchor="middle" x="1570.5" y="-330.5" font-family="Times,serif" font-size="10.00">belongs_to </text>
</g>
<!-- group_project&#45;&gt;group -->
<g id="edge21" class="edge"><title>group_project&#45;&gt;group</title>
<path fill="none" stroke="black" d="M701.46,-234.942C689.475,-229.647 677.21,-222.483 668,-213 662.478,-207.314 658.374,-199.87 655.371,-192.588"/>
<polygon fill="black" stroke="black" points="658.586,-191.181 651.929,-182.939 651.993,-193.534 658.586,-191.181"/>
<text text-anchor="middle" x="692.5" y="-204.5" font-family="Times,serif" font-size="10.00">belongs_to </text>
</g>
<!-- group_project&#45;&gt;project -->
<g id="edge20" class="edge"><title>group_project&#45;&gt;project</title>
<path fill="none" stroke="black" d="M740.982,-267.081C740.226,-276.692 740.976,-288.442 747,-297 755.302,-308.794 768.453,-316.647 781.763,-321.862"/>
<polygon fill="black" stroke="black" points="780.822,-325.24 791.417,-325.213 783.117,-318.627 780.822,-325.24"/>
<text text-anchor="middle" x="771.5" y="-288.5" font-family="Times,serif" font-size="10.00">belongs_to </text>
</g>
<!-- person&#45;&gt;company -->
<g id="edge28" class="edge"><title>person&#45;&gt;company</title>
<path fill="none" stroke="black" d="M935.806,-612.229C886.335,-609.082 804.049,-600.662 784,-579 776.7,-571.113 774.492,-559.736 774.378,-549.217"/>
<polygon fill="black" stroke="black" points="777.878,-549.299 774.852,-539.146 770.886,-548.97 777.878,-549.299"/>
<text text-anchor="middle" x="829" y="-571" font-family="Times,serif" font-size="10.00">has_many </text>
<text text-anchor="middle" x="829" y="-560" font-family="Times,serif" font-size="10.00">through employments</text>
</g>
<!-- person&#45;&gt;employment -->
<g id="edge27" class="edge"><title>person&#45;&gt;employment</title>
<path fill="none" stroke="black" d="M1002.07,-602.524C1028.36,-590.415 1066.95,-568.923 1090,-539 1109.22,-514.049 1120.12,-479.172 1125.78,-455.208"/>
<polygon fill="black" stroke="black" points="1129.22,-455.872 1127.95,-445.353 1122.38,-454.363 1129.22,-455.872"/>
<text text-anchor="middle" x="1133" y="-518.5" font-family="Times,serif" font-size="10.00">has_many </text>
</g>
<!-- person&#45;&gt;group -->
<g id="edge26" class="edge"><title>person&#45;&gt;group</title>
<path fill="none" stroke="black" d="M935.268,-614.236C761.111,-614.797 59,-611.507 59,-522 59,-522 59,-522 59,-248 59,-193.224 463.774,-172.913 602.216,-167.568"/>
<polygon fill="black" stroke="black" points="602.621,-171.056 612.482,-167.181 602.357,-164.061 602.621,-171.056"/>
<text text-anchor="middle" x="118" y="-383" font-family="Times,serif" font-size="10.00">has_many </text>
<text text-anchor="middle" x="118" y="-372" font-family="Times,serif" font-size="10.00">through group_memberships</text>
</g>
<!-- person&#45;&gt;group_membership -->
<g id="edge25" class="edge"><title>person&#45;&gt;group_membership</title>
<path fill="none" stroke="black" d="M1002.36,-602.736C1008.74,-600.547 1015.54,-598.476 1022,-597 1119.55,-574.722 1466,-622.064 1466,-522 1466,-522 1466,-522 1466,-164 1466,-115.97 1415.11,-95.6128 1365.32,-87.1897"/>
<polygon fill="black" stroke="black" points="1365.81,-83.7239 1355.4,-85.6595 1364.75,-90.6422 1365.81,-83.7239"/>
<text text-anchor="middle" x="1488" y="-330.5" font-family="Times,serif" font-size="10.00">has_many </text>
</g>
<!-- person&#45;&gt;project -->
<g id="edge24" class="edge"><title>person&#45;&gt;project</title>
<path fill="none" stroke="black" d="M1003.69,-603.447C1009.75,-601.306 1016.08,-599.074 1022,-597 1084.41,-575.148 1114.89,-588.259 1159,-539 1182.81,-512.404 1167.5,-494.119 1185,-463 1190.1,-453.923 1196.45,-454.792 1200,-445 1205.45,-429.956 1210.13,-421.381 1200,-409 1159.87,-359.971 970.054,-342.279 878.129,-336.511"/>
<polygon fill="black" stroke="black" points="878.144,-333.006 867.951,-335.897 877.722,-339.993 878.144,-333.006"/>
<text text-anchor="middle" x="1246" y="-477" font-family="Times,serif" font-size="10.00">has_many </text>
<text text-anchor="middle" x="1246" y="-466" font-family="Times,serif" font-size="10.00">through project_memberships</text>
</g>
<!-- project_membership -->
<g id="node11" class="node"><title>project_membership</title>
<ellipse fill="white" stroke="black" cx="509" cy="-249" rx="91.9385" ry="18"/>
<text text-anchor="start" x="446" y="-246.3" font-family="Times,serif" font-weight="bold" font-size="14.00">project_membership</text>
<text text-anchor="start" x="568" y="-246.3" font-family="Times,serif" font-size="14.00"> </text>
</g>
<!-- person&#45;&gt;project_membership -->
<g id="edge23" class="edge"><title>person&#45;&gt;project_membership</title>
<path fill="none" stroke="black" d="M935.243,-613.592C825.641,-612.112 519.054,-605.614 483,-579 419.432,-532.075 407.509,-484.438 431,-409 440.31,-379.102 456.49,-378.749 471,-351 483.625,-326.856 494.169,-297.549 500.923,-276.737"/>
<polygon fill="black" stroke="black" points="504.329,-277.571 504.012,-266.981 497.656,-275.458 504.329,-277.571"/>
<text text-anchor="middle" x="453" y="-424.5" font-family="Times,serif" font-size="10.00">has_many </text>
</g>
<!-- person&#45;&gt;user -->
<g id="edge22" class="edge"><title>person&#45;&gt;user</title>
<path fill="none" stroke="black" d="M992.841,-630.746C999.464,-636.564 1006.59,-643.619 1012,-651 1016.61,-657.296 1020.62,-664.713 1023.91,-671.771"/>
<polygon fill="black" stroke="black" points="1020.74,-673.256 1027.93,-681.034 1027.16,-670.468 1020.74,-673.256"/>
<text text-anchor="middle" x="1043.5" y="-654.5" font-family="Times,serif" font-size="10.00">belongs_to </text>
</g>
<!-- project&#45;&gt;company -->
<g id="edge32" class="edge"><title>project&#45;&gt;company</title>
<path fill="none" stroke="black" d="M812.499,-349.641C799.646,-363.793 782.337,-385.903 775,-409 766.233,-436.598 768.787,-470.025 772.395,-492.939"/>
<polygon fill="black" stroke="black" points="768.979,-493.722 774.148,-502.97 775.874,-492.517 768.979,-493.722"/>
<text text-anchor="middle" x="830" y="-430" font-family="Times,serif" font-size="10.00">has_many </text>
<text text-anchor="middle" x="830" y="-419" font-family="Times,serif" font-size="10.00">through company_projects</text>
</g>
<!-- project&#45;&gt;company_project -->
<g id="edge31" class="edge"><title>project&#45;&gt;company_project</title>
<path fill="none" stroke="black" d="M859.2,-344.51C875.044,-350.531 894.226,-358.902 910,-369 924.433,-378.24 938.742,-390.834 950.067,-401.834"/>
<polygon fill="black" stroke="black" points="947.84,-404.556 957.395,-409.134 952.781,-399.597 947.84,-404.556"/>
<text text-anchor="middle" x="960" y="-377.5" font-family="Times,serif" font-size="10.00">has_many </text>
</g>
<!-- project&#45;&gt;group -->
<g id="edge34" class="edge"><title>project&#45;&gt;group</title>
<path fill="none" stroke="black" d="M844.83,-316.307C852.152,-307.544 858.381,-296.168 855,-285 846.641,-257.393 838.946,-251.837 819,-231 785.232,-195.723 730.339,-179.374 691.88,-171.942"/>
<polygon fill="black" stroke="black" points="692.453,-168.488 681.99,-170.155 691.209,-175.377 692.453,-168.488"/>
<text text-anchor="middle" x="897.5" y="-252" font-family="Times,serif" font-size="10.00">has_many </text>
<text text-anchor="middle" x="897.5" y="-241" font-family="Times,serif" font-size="10.00">through group_projects</text>
</g>
<!-- project&#45;&gt;group_project -->
<g id="edge33" class="edge"><title>project&#45;&gt;group_project</title>
<path fill="none" stroke="black" d="M818.719,-315.183C812.958,-305.661 804.958,-293.911 796,-285 791.075,-280.102 785.374,-275.47 779.589,-271.277"/>
<polygon fill="black" stroke="black" points="781.359,-268.246 771.135,-265.467 777.394,-274.015 781.359,-268.246"/>
<text text-anchor="middle" x="829" y="-288.5" font-family="Times,serif" font-size="10.00">has_many </text>
</g>
<!-- project&#45;&gt;person -->
<g id="edge30" class="edge"><title>project&#45;&gt;person</title>
<path fill="none" stroke="black" d="M867.651,-335.893C943.639,-339.896 1106.94,-350.412 1160,-369 1233.19,-394.641 1269.76,-394.979 1307,-463 1351.81,-544.848 1220.35,-548.978 1132,-579 1085.09,-594.938 1069.98,-584.682 1022,-597 1018.83,-597.813 1015.58,-598.747 1012.33,-599.748"/>
<polygon fill="black" stroke="black" points="1011.09,-596.469 1002.68,-602.907 1013.27,-603.122 1011.09,-596.469"/>
<text text-anchor="middle" x="1377" y="-477" font-family="Times,serif" font-size="10.00">has_many </text>
<text text-anchor="middle" x="1377" y="-466" font-family="Times,serif" font-size="10.00">through project_memberships</text>
</g>
<!-- project&#45;&gt;project_membership -->
<g id="edge29" class="edge"><title>project&#45;&gt;project_membership</title>
<path fill="none" stroke="black" d="M793.706,-323.463C766.773,-316.64 728.372,-306.654 695,-297 677.987,-292.078 674.074,-289.708 657,-285 631.271,-277.906 602.786,-270.957 577.733,-265.145"/>
<polygon fill="black" stroke="black" points="578.482,-261.726 567.952,-262.893 576.911,-268.548 578.482,-261.726"/>
<text text-anchor="middle" x="717" y="-288.5" font-family="Times,serif" font-size="10.00">has_many </text>
</g>
<!-- project_membership&#45;&gt;person -->
<g id="edge36" class="edge"><title>project_membership&#45;&gt;person</title>
<path fill="none" stroke="black" d="M511.311,-266.997C517.278,-308.958 534.201,-416.15 555,-445 643.356,-567.56 835.968,-601.364 925.921,-610.59"/>
<polygon fill="black" stroke="black" points="925.82,-614.096 936.11,-611.574 926.493,-607.129 925.82,-614.096"/>
<text text-anchor="middle" x="579.5" y="-424.5" font-family="Times,serif" font-size="10.00">belongs_to </text>
</g>
<!-- project_membership&#45;&gt;project -->
<g id="edge35" class="edge"><title>project_membership&#45;&gt;project</title>
<path fill="none" stroke="black" d="M536.329,-266.311C554.825,-276.641 580.146,-289.432 604,-297 662.249,-315.48 732.235,-324.418 778.297,-328.591"/>
<polygon fill="black" stroke="black" points="778.057,-332.083 788.322,-329.458 778.661,-325.109 778.057,-332.083"/>
<text text-anchor="middle" x="628.5" y="-288.5" font-family="Times,serif" font-size="10.00">belongs_to </text>
</g>
<!-- resource_link -->
<g id="node12" class="node"><title>resource_link</title>
<ellipse fill="white" stroke="black" cx="1342" cy="-791" rx="64.0172" ry="18"/>
<text text-anchor="start" x="1300.5" y="-788.3" font-family="Times,serif" font-weight="bold" font-size="14.00">resource_link</text>
<text text-anchor="start" x="1379.5" y="-788.3" font-family="Times,serif" font-size="14.00"> </text>
</g>
<!-- sign_in_data -->
<g id="node13" class="node"><title>sign_in_data</title>
<ellipse fill="white" stroke="black" cx="1491" cy="-791" rx="66.2022" ry="25.4118"/>
<text text-anchor="start" x="1452" y="-794.8" font-family="Times,serif" font-weight="bold" font-size="14.00">sign_in_data</text>
<text text-anchor="start" x="1526" y="-794.8" font-family="Times,serif" font-size="14.00"> </text>
<text text-anchor="start" x="1489" y="-780.8" font-family="Times,serif" font-size="14.00"> </text>
</g>
<!-- sponsorship&#45;&gt;company -->
<g id="edge37" class="edge"><title>sponsorship&#45;&gt;company</title>
<path fill="none" stroke="black" d="M351.234,-98.7551C339.664,-114.567 325,-139.449 325,-164 325,-292 325,-292 325,-292 325,-387.217 331.65,-444.876 418,-485 470.176,-509.245 632.11,-516.714 719.939,-519.001"/>
<polygon fill="black" stroke="black" points="719.928,-522.501 730.011,-519.249 720.1,-515.504 719.928,-522.501"/>
<text text-anchor="middle" x="350.5" y="-288.5" font-family="Times,serif" font-size="10.00">belongs_to </text>
</g>
<!-- sponsorship&#45;&gt;group -->
<g id="edge38" class="edge"><title>sponsorship&#45;&gt;group</title>
<path fill="none" stroke="black" d="M417.189,-89.0682C453.088,-94.7016 501.576,-103.844 543,-117 567.978,-124.933 594.936,-137.081 615.283,-147.04"/>
<polygon fill="black" stroke="black" points="613.905,-150.264 624.418,-151.581 617.022,-143.996 613.905,-150.264"/>
<text text-anchor="middle" x="597.5" y="-120.5" font-family="Times,serif" font-size="10.00">belongs_to </text>
</g>
<!-- user&#45;&gt;person -->
<g id="edge39" class="edge"><title>user&#45;&gt;person</title>
<path fill="none" stroke="black" d="M1007.95,-690.601C994.382,-685.279 978.995,-676.588 971,-663 967.571,-657.173 966.671,-650.207 967.022,-643.445"/>
<polygon fill="black" stroke="black" points="970.539,-643.563 968.423,-633.182 963.603,-642.617 970.539,-643.563"/>
<text text-anchor="middle" x="989.5" y="-654.5" font-family="Times,serif" font-size="10.00">has_one </text>
</g>
<!-- authentications dependent =&gt; destroy do -->
<g id="node16" class="node"><title>authentications dependent =&gt; destroy do</title>
<ellipse fill="none" stroke="black" cx="1186" cy="-615" rx="155.005" ry="18"/>
<text text-anchor="middle" x="1186" y="-611.3" font-family="Times,serif" font-size="14.00">authentications dependent =&gt; destroy do</text>
</g>
<!-- user&#45;&gt;authentications dependent =&gt; destroy do -->
<g id="edge40" class="edge"><title>user&#45;&gt;authentications dependent =&gt; destroy do</title>
<path fill="none" stroke="black" d="M1055.13,-686.598C1078.54,-673.971 1116.82,-653.323 1145.94,-637.61"/>
<polygon fill="black" stroke="black" points="1147.91,-640.527 1155.05,-632.699 1144.58,-634.367 1147.91,-640.527"/>
<text text-anchor="middle" x="1142" y="-654.5" font-family="Times,serif" font-size="10.00">has_many </text>
</g>
</g>
</svg>
