<?xml version="1.0" encoding="UTF-8" standalone="no"?>
<!DOCTYPE svg PUBLIC "-//W3C//DTD SVG 1.1//EN"
 "http://www.w3.org/Graphics/SVG/1.1/DTD/svg11.dtd">
<!-- Generated by graphviz version 2.36.0 (20140111.2315)
 -->
<!-- Title: G Pages: 1 -->
<svg width="531pt" height="275pt"
 viewBox="0.00 0.00 531.00 275.00" xmlns="http://www.w3.org/2000/svg" xmlns:xlink="http://www.w3.org/1999/xlink">
<g id="graph0" class="graph" transform="scale(1 1) rotate(0) translate(4 271)">
<title>G</title>
<polygon fill="white" stroke="none" points="-4,4 -4,-271 527,-271 527,4 -4,4"/>
<text text-anchor="start" x="134" y="-20" font-family="Times,serif" font-size="14.00"> </text>
<text text-anchor="start" x="138" y="-20" font-family="Times,serif" font-size="50.00">ScoreSettler</text>
<text text-anchor="start" x="385" y="-20" font-family="Times,serif" font-size="14.00"> </text>
<!-- group -->
<g id="node1" class="node"><title>group</title>
<ellipse fill="white" stroke="black" cx="237" cy="-249" rx="35.6194" ry="18"/>
<text text-anchor="start" x="217.5" y="-246.3" font-family="Times,serif" font-weight="bold" font-size="14.00">group</text>
<text text-anchor="start" x="252.5" y="-246.3" font-family="Times,serif" font-size="14.00"> </text>
</g>
<!-- membership -->
<g id="node3" class="node"><title>membership</title>
<ellipse fill="white" stroke="black" cx="61" cy="-165" rx="61.1419" ry="18"/>
<text text-anchor="start" x="22" y="-162.3" font-family="Times,serif" font-weight="bold" font-size="14.00">membership</text>
<text text-anchor="start" x="96" y="-162.3" font-family="Times,serif" font-size="14.00"> </text>
</g>
<!-- group&#45;&gt;membership -->
<g id="edge1" class="edge"><title>group&#45;&gt;membership</title>
<path fill="none" stroke="black" d="M201.862,-246.79C152.004,-244.25 64.5881,-236.482 45,-213 39.953,-206.95 40.55,-199.228 43.4039,-191.8"/>
<polygon fill="black" stroke="black" points="46.6155,-193.204 47.971,-182.696 40.3586,-190.065 46.6155,-193.204"/>
<text text-anchor="middle" x="67" y="-204.5" font-family="Times,serif" font-size="10.00">has_many </text>
</g>
<!-- tournament -->
<g id="node4" class="node"><title>tournament</title>
<ellipse fill="white" stroke="black" cx="463" cy="-165" rx="58.2422" ry="18"/>
<text text-anchor="start" x="426" y="-162.3" font-family="Times,serif" font-weight="bold" font-size="14.00">tournament</text>
<text text-anchor="start" x="496" y="-162.3" font-family="Times,serif" font-size="14.00"> </text>
</g>
<!-- group&#45;&gt;tournament -->
<g id="edge3" class="edge"><title>group&#45;&gt;tournament</title>
<path fill="none" stroke="black" d="M265.166,-237.78C303.198,-223.981 371.444,-199.219 416.981,-182.697"/>
<polygon fill="black" stroke="black" points="418.411,-185.902 426.618,-179.201 416.023,-179.321 418.411,-185.902"/>
<text text-anchor="middle" x="385" y="-204.5" font-family="Times,serif" font-size="10.00">has_many </text>
</g>
<!-- user -->
<g id="node5" class="node"><title>user</title>
<ellipse fill="white" stroke="black" cx="145" cy="-81" rx="29.3722" ry="18"/>
<text text-anchor="start" x="130.5" y="-78.3" font-family="Times,serif" font-weight="bold" font-size="14.00">user</text>
<text text-anchor="start" x="155.5" y="-78.3" font-family="Times,serif" font-size="14.00"> </text>
</g>
<!-- group&#45;&gt;user -->
<g id="edge2" class="edge"><title>group&#45;&gt;user</title>
<path fill="none" stroke="black" d="M223.7,-232.136C213.411,-219.386 199.238,-200.739 189,-183 174.95,-158.657 162.532,-128.98 154.501,-108.115"/>
<polygon fill="black" stroke="black" points="157.731,-106.76 150.924,-98.6414 151.183,-109.233 157.731,-106.76"/>
<text text-anchor="middle" x="233" y="-168" font-family="Times,serif" font-size="10.00">has_many </text>
<text text-anchor="middle" x="233" y="-157" font-family="Times,serif" font-size="10.00">through memberships</text>
</g>
<!-- match -->
<g id="node2" class="node"><title>match</title>
<ellipse fill="white" stroke="black" cx="462" cy="-81" rx="37.0701" ry="18"/>
<text text-anchor="start" x="441.5" y="-78.3" font-family="Times,serif" font-weight="bold" font-size="14.00">match</text>
<text text-anchor="start" x="478.5" y="-78.3" font-family="Times,serif" font-size="14.00"> </text>
</g>
<!-- match&#45;&gt;tournament -->
<g id="edge4" class="edge"><title>match&#45;&gt;tournament</title>
<path fill="none" stroke="black" d="M469.015,-98.7975C471.045,-104.475 472.986,-110.917 474,-117 475.103,-123.618 474.44,-130.694 473.008,-137.293"/>
<polygon fill="black" stroke="black" points="469.578,-136.566 470.268,-147.138 476.321,-138.443 469.578,-136.566"/>
<text text-anchor="middle" x="498.5" y="-120.5" font-family="Times,serif" font-size="10.00">belongs_to </text>
</g>
<!-- membership&#45;&gt;group -->
<g id="edge6" class="edge"><title>membership&#45;&gt;group</title>
<path fill="none" stroke="black" d="M75.5353,-182.949C84.9941,-193.004 98.1196,-205.258 112,-213 137.255,-227.087 168.599,-235.846 193.581,-241.078"/>
<polygon fill="black" stroke="black" points="193.023,-244.536 203.513,-243.045 194.383,-237.669 193.023,-244.536"/>
<text text-anchor="middle" x="136.5" y="-204.5" font-family="Times,serif" font-size="10.00">belongs_to </text>
</g>
<!-- membership&#45;&gt;user -->
<g id="edge5" class="edge"><title>membership&#45;&gt;user</title>
<path fill="none" stroke="black" d="M48.2119,-147.249C42.6158,-137.748 38.6158,-125.998 45,-117 58.7823,-97.574 84.208,-88.8453 105.971,-84.9622"/>
<polygon fill="black" stroke="black" points="106.607,-88.4062 115.975,-83.4587 105.566,-81.4839 106.607,-88.4062"/>
<text text-anchor="middle" x="69.5" y="-120.5" font-family="Times,serif" font-size="10.00">belongs_to </text>
</g>
<!-- tournament&#45;&gt;group -->
<g id="edge7" class="edge"><title>tournament&#45;&gt;group</title>
<path fill="none" stroke="black" d="M448.749,-182.85C439.127,-193.129 425.562,-205.663 411,-213 370.426,-233.443 318.869,-241.948 282.44,-245.485"/>
<polygon fill="black" stroke="black" points="281.774,-242.03 272.12,-246.394 282.388,-249.003 281.774,-242.03"/>
<text text-anchor="middle" x="452.5" y="-204.5" font-family="Times,serif" font-size="10.00">belongs_to </text>
</g>
<!-- tournament&#45;&gt;match -->
<g id="edge8" class="edge"><title>tournament&#45;&gt;match</title>
<path fill="none" stroke="black" d="M440.474,-148.156C434.655,-142.805 429.147,-136.309 426,-129 422.037,-119.796 426.314,-110.785 433.13,-103.155"/>
<polygon fill="black" stroke="black" points="435.773,-105.471 440.582,-96.0303 430.935,-100.412 435.773,-105.471"/>
<text text-anchor="middle" x="448" y="-120.5" font-family="Times,serif" font-size="10.00">has_many </text>
</g>
<!-- user&#45;&gt;group -->
<g id="edge10" class="edge"><title>user&#45;&gt;group</title>
<path fill="none" stroke="black" d="M172.751,-86.7818C204.269,-93.858 254.26,-110.455 277,-147 292.393,-171.739 274.64,-203.402 258.14,-224.623"/>
<polygon fill="black" stroke="black" points="255.336,-222.523 251.716,-232.481 260.755,-226.954 255.336,-222.523"/>
<text text-anchor="middle" x="326" y="-168" font-family="Times,serif" font-size="10.00">has_many </text>
<text text-anchor="middle" x="326" y="-157" font-family="Times,serif" font-size="10.00">through memberships</text>
</g>
<!-- user&#45;&gt;membership -->
<g id="edge9" class="edge"><title>user&#45;&gt;membership</title>
<path fill="none" stroke="black" d="M129.998,-96.6452C117.565,-108.782 99.654,-126.266 85.1968,-140.379"/>
<polygon fill="black" stroke="black" points="82.7095,-137.916 77.9987,-147.406 87.5993,-142.925 82.7095,-137.916"/>
<text text-anchor="middle" x="131" y="-120.5" font-family="Times,serif" font-size="10.00">has_many </text>
</g>
</g>
</svg>
