<?xml version="1.0" encoding="UTF-8" standalone="no"?>
<!DOCTYPE svg PUBLIC "-//W3C//DTD SVG 1.1//EN"
 "http://www.w3.org/Graphics/SVG/1.1/DTD/svg11.dtd">
<!-- Generated by graphviz version 2.36.0 (20140111.2315)
 -->
<!-- Title: G Pages: 1 -->
<svg width="1014pt" height="459pt"
 viewBox="0.00 0.00 1014.46 459.00" xmlns="http://www.w3.org/2000/svg" xmlns:xlink="http://www.w3.org/1999/xlink">
<g id="graph0" class="graph" transform="scale(1 1) rotate(0) translate(4 455)">
<title>G</title>
<polygon fill="white" stroke="none" points="-4,4 -4,-455 1010.46,-455 1010.46,4 -4,4"/>
<text text-anchor="start" x="306.73" y="-20" font-family="Times,serif" font-size="14.00"> </text>
<text text-anchor="start" x="310.73" y="-20" font-family="Times,serif" font-size="50.00">steam&#45;game&#45;picker</text>
<text text-anchor="start" x="695.73" y="-20" font-family="Times,serif" font-size="14.00"> </text>
<!-- friend -->
<g id="node1" class="node"><title>friend</title>
<ellipse fill="white" stroke="black" cx="659.46" cy="-433" rx="36.096" ry="18"/>
<text text-anchor="start" x="639.46" y="-430.3" font-family="Times,serif" font-weight="bold" font-size="14.00">friend</text>
<text text-anchor="start" x="675.46" y="-430.3" font-family="Times,serif" font-size="14.00"> </text>
</g>
<!-- friend_game -->
<g id="node2" class="node"><title>friend_game</title>
<ellipse fill="white" stroke="black" cx="659.46" cy="-341" rx="61.1419" ry="18"/>
<text text-anchor="start" x="620.46" y="-338.3" font-family="Times,serif" font-weight="bold" font-size="14.00">friend_game</text>
<text text-anchor="start" x="694.46" y="-338.3" font-family="Times,serif" font-size="14.00"> </text>
</g>
<!-- friend&#45;&gt;friend_game -->
<g id="edge3" class="edge"><title>friend&#45;&gt;friend_game</title>
<path fill="none" stroke="black" d="M638.566,-418.178C628.252,-409.482 618.897,-397.559 623.46,-385 625.917,-378.237 629.956,-371.795 634.459,-366.052"/>
<polygon fill="black" stroke="black" points="637.368,-368.039 641.257,-358.183 632.071,-363.462 637.368,-368.039"/>
<text text-anchor="middle" x="648.96" y="-388.5" font-family="Times,serif" font-size="10.00">has_many &#160;&#160;&#160;</text>
</g>
<!-- game -->
<g id="node3" class="node"><title>game</title>
<ellipse fill="white" stroke="black" cx="415.46" cy="-249" rx="33.1991" ry="18"/>
<text text-anchor="start" x="397.46" y="-246.3" font-family="Times,serif" font-weight="bold" font-size="14.00">game</text>
<text text-anchor="start" x="429.46" y="-246.3" font-family="Times,serif" font-size="14.00"> </text>
</g>
<!-- friend&#45;&gt;game -->
<g id="edge2" class="edge"><title>friend&#45;&gt;game</title>
<path fill="none" stroke="black" d="M627.288,-424.635C592.891,-415.54 538.093,-397.419 499.46,-367 490.795,-360.178 454.182,-307.197 432.255,-274.914"/>
<polygon fill="black" stroke="black" points="435.002,-272.729 426.495,-266.414 429.207,-276.656 435.002,-272.729"/>
<text text-anchor="middle" x="544.46" y="-344" font-family="Times,serif" font-size="10.00">has_many &#160;&#160;&#160;</text>
<text text-anchor="middle" x="544.46" y="-333" font-family="Times,serif" font-size="10.00">through friend_games</text>
</g>
<!-- user -->
<g id="node8" class="node"><title>user</title>
<ellipse fill="white" stroke="black" cx="770.46" cy="-81" rx="29.3722" ry="18"/>
<text text-anchor="start" x="755.96" y="-78.3" font-family="Times,serif" font-weight="bold" font-size="14.00">user</text>
<text text-anchor="start" x="780.96" y="-78.3" font-family="Times,serif" font-size="14.00"> </text>
</g>
<!-- friend&#45;&gt;user -->
<g id="edge1" class="edge"><title>friend&#45;&gt;user</title>
<path fill="none" stroke="black" d="M695.814,-432.398C742.627,-431.612 825.556,-425.759 889.46,-397 924.28,-381.33 955.46,-380.183 955.46,-342 955.46,-342 955.46,-342 955.46,-164 955.46,-100.796 864.095,-85.9291 809.779,-82.6751"/>
<polygon fill="black" stroke="black" points="809.934,-79.1785 799.774,-82.1808 809.589,-86.17 809.934,-79.1785"/>
<text text-anchor="middle" x="980.96" y="-246.5" font-family="Times,serif" font-size="10.00">belongs_to &#160;</text>
</g>
<!-- friend_game&#45;&gt;friend -->
<g id="edge4" class="edge"><title>friend_game&#45;&gt;friend</title>
<path fill="none" stroke="black" d="M668.457,-359.204C673.017,-369.979 677.087,-384.202 674.46,-397 673.862,-399.914 673.01,-402.885 672.013,-405.803"/>
<polygon fill="black" stroke="black" points="668.656,-404.774 668.218,-415.36 675.162,-407.357 668.656,-404.774"/>
<text text-anchor="middle" x="699.96" y="-388.5" font-family="Times,serif" font-size="10.00">belongs_to </text>
</g>
<!-- friend_game&#45;&gt;game -->
<g id="edge5" class="edge"><title>friend_game&#45;&gt;game</title>
<path fill="none" stroke="black" d="M622.931,-326.526C576.856,-309.531 498.096,-280.481 452.011,-263.482"/>
<polygon fill="black" stroke="black" points="453.013,-260.121 442.42,-259.944 450.591,-266.689 453.013,-260.121"/>
<text text-anchor="middle" x="561.96" y="-288.5" font-family="Times,serif" font-size="10.00">belongs_to </text>
</g>
<!-- game&#45;&gt;friend -->
<g id="edge11" class="edge"><title>game&#45;&gt;friend</title>
<path fill="none" stroke="black" d="M400.208,-265.08C378.041,-288.829 342.187,-335.483 367.46,-367 397.831,-404.875 539.576,-422.097 613.825,-428.631"/>
<polygon fill="black" stroke="black" points="613.574,-432.122 623.835,-429.483 614.168,-425.148 613.574,-432.122"/>
<text text-anchor="middle" x="412.46" y="-344" font-family="Times,serif" font-size="10.00">has_many </text>
<text text-anchor="middle" x="412.46" y="-333" font-family="Times,serif" font-size="10.00">through friend_games</text>
</g>
<!-- game&#45;&gt;friend_game -->
<g id="edge12" class="edge"><title>game&#45;&gt;friend_game</title>
<path fill="none" stroke="black" d="M448.504,-251.954C484.804,-255.138 544.102,-263.448 590.46,-285 607.097,-292.735 623.269,-305.27 635.77,-316.421"/>
<polygon fill="black" stroke="black" points="633.701,-319.274 643.423,-323.485 638.449,-314.131 633.701,-319.274"/>
<text text-anchor="middle" x="631.46" y="-288.5" font-family="Times,serif" font-size="10.00">has_many </text>
</g>
<!-- game_genre -->
<g id="node4" class="node"><title>game_genre</title>
<ellipse fill="white" stroke="black" cx="72.4598" cy="-165" rx="59.2173" ry="18"/>
<text text-anchor="start" x="34.9598" y="-162.3" font-family="Times,serif" font-weight="bold" font-size="14.00">game_genre</text>
<text text-anchor="start" x="105.96" y="-162.3" font-family="Times,serif" font-size="14.00"> </text>
</g>
<!-- game&#45;&gt;game_genre -->
<g id="edge7" class="edge"><title>game&#45;&gt;game_genre</title>
<path fill="none" stroke="black" d="M381.815,-247.914C330.484,-246.827 230.174,-240.912 150.46,-213 133.284,-206.986 115.784,-196.877 101.724,-187.573"/>
<polygon fill="black" stroke="black" points="103.681,-184.671 93.4477,-181.927 99.7362,-190.454 103.681,-184.671"/>
<text text-anchor="middle" x="172.46" y="-204.5" font-family="Times,serif" font-size="10.00">has_many </text>
</g>
<!-- genre -->
<g id="node6" class="node"><title>genre</title>
<ellipse fill="white" stroke="black" cx="139.46" cy="-81" rx="34.1708" ry="18"/>
<text text-anchor="start" x="120.96" y="-78.3" font-family="Times,serif" font-weight="bold" font-size="14.00">genre</text>
<text text-anchor="start" x="153.96" y="-78.3" font-family="Times,serif" font-size="14.00"> </text>
</g>
<!-- game&#45;&gt;genre -->
<g id="edge8" class="edge"><title>game&#45;&gt;genre</title>
<path fill="none" stroke="black" d="M392.403,-235.917C369.628,-223.629 334.141,-203.526 305.46,-183 285.467,-168.692 283.81,-160.795 263.46,-147 234.916,-127.651 199.925,-109.784 174.4,-97.6999"/>
<polygon fill="black" stroke="black" points="175.655,-94.4233 165.114,-93.3605 172.692,-100.765 175.655,-94.4233"/>
<text text-anchor="middle" x="349.46" y="-168" font-family="Times,serif" font-size="10.00">has_many </text>
<text text-anchor="middle" x="349.46" y="-157" font-family="Times,serif" font-size="10.00">through game_genres</text>
</g>
<!-- screenshot -->
<g id="node7" class="node"><title>screenshot</title>
<ellipse fill="white" stroke="black" cx="202.46" cy="-165" rx="52.4675" ry="18"/>
<text text-anchor="start" x="169.96" y="-162.3" font-family="Times,serif" font-weight="bold" font-size="14.00">screenshot</text>
<text text-anchor="start" x="230.96" y="-162.3" font-family="Times,serif" font-size="14.00"> </text>
</g>
<!-- game&#45;&gt;screenshot -->
<g id="edge6" class="edge"><title>game&#45;&gt;screenshot</title>
<path fill="none" stroke="black" d="M383.64,-243.108C354.621,-237.941 310.983,-228.376 275.46,-213 266.765,-209.236 249.004,-197.834 233.18,-187.204"/>
<polygon fill="black" stroke="black" points="234.899,-184.141 224.657,-181.431 230.973,-189.937 234.899,-184.141"/>
<text text-anchor="middle" x="297.46" y="-204.5" font-family="Times,serif" font-size="10.00">has_many </text>
</g>
<!-- game&#45;&gt;user -->
<g id="edge9" class="edge"><title>game&#45;&gt;user</title>
<path fill="none" stroke="black" d="M434.569,-234.068C452.599,-220.917 480.381,-200.638 504.46,-183 526.26,-167.031 529.571,-159.634 553.46,-147 612.321,-115.871 688.243,-97.4858 732.912,-88.6039"/>
<polygon fill="black" stroke="black" points="733.605,-92.0348 742.758,-86.6998 732.276,-85.1621 733.605,-92.0348"/>
<text text-anchor="middle" x="591.96" y="-168" font-family="Times,serif" font-size="10.00">has_many </text>
<text text-anchor="middle" x="591.96" y="-157" font-family="Times,serif" font-size="10.00">through usergames</text>
</g>
<!-- usergame -->
<g id="node9" class="node"><title>usergame</title>
<ellipse fill="white" stroke="black" cx="797.46" cy="-165" rx="50.0684" ry="18"/>
<text text-anchor="start" x="766.96" y="-162.3" font-family="Times,serif" font-weight="bold" font-size="14.00">usergame</text>
<text text-anchor="start" x="823.96" y="-162.3" font-family="Times,serif" font-size="14.00"> </text>
</g>
<!-- game&#45;&gt;usergame -->
<g id="edge10" class="edge"><title>game&#45;&gt;usergame</title>
<path fill="none" stroke="black" d="M448.723,-247.222C522.145,-245.072 695.734,-237.478 748.46,-213 759.593,-207.832 769.775,-199.092 777.939,-190.542"/>
<polygon fill="black" stroke="black" points="780.767,-192.631 784.839,-182.85 775.556,-187.957 780.767,-192.631"/>
<text text-anchor="middle" x="788.46" y="-204.5" font-family="Times,serif" font-size="10.00">has_many </text>
</g>
<!-- game_genre&#45;&gt;game -->
<g id="edge13" class="edge"><title>game_genre&#45;&gt;game</title>
<path fill="none" stroke="black" d="M67.2928,-183.228C65.4611,-193.131 65.35,-205.128 72.4598,-213 92.1941,-234.85 284.2,-243.788 372.018,-246.755"/>
<polygon fill="black" stroke="black" points="372.084,-250.259 382.193,-247.087 372.312,-243.262 372.084,-250.259"/>
<text text-anchor="middle" x="96.9598" y="-204.5" font-family="Times,serif" font-size="10.00">belongs_to </text>
</g>
<!-- game_genre&#45;&gt;genre -->
<g id="edge14" class="edge"><title>game_genre&#45;&gt;genre</title>
<path fill="none" stroke="black" d="M96.7402,-148.426C104.046,-142.921 111.655,-136.27 117.46,-129 122.329,-122.901 126.422,-115.548 129.707,-108.488"/>
<polygon fill="black" stroke="black" points="132.97,-109.759 133.681,-99.1878 126.533,-107.008 132.97,-109.759"/>
<text text-anchor="middle" x="149.96" y="-120.5" font-family="Times,serif" font-size="10.00">belongs_to </text>
</g>
<!-- games_genres -->
<g id="node5" class="node"><title>games_genres</title>
<ellipse fill="white" stroke="black" cx="146.46" cy="-341" rx="72.1874" ry="25.4118"/>
<text text-anchor="start" x="103.46" y="-344.8" font-family="Times,serif" font-weight="bold" font-size="14.00">games_genres</text>
<text text-anchor="start" x="185.46" y="-344.8" font-family="Times,serif" font-size="14.00"> </text>
<text text-anchor="start" x="144.46" y="-330.8" font-family="Times,serif" font-size="14.00"> </text>
</g>
<!-- games_genres&#45;&gt;game -->
<g id="edge15" class="edge"><title>games_genres&#45;&gt;game</title>
<path fill="none" stroke="black" d="M195.141,-322.119C225.584,-311.089 265.676,-296.836 301.46,-285 326.517,-276.712 354.887,-268 377.057,-261.341"/>
<polygon fill="black" stroke="black" points="378.195,-264.653 386.773,-258.434 376.189,-257.947 378.195,-264.653"/>
<text text-anchor="middle" x="325.96" y="-288.5" font-family="Times,serif" font-size="10.00">belongs_to </text>
</g>
<!-- games_genres&#45;&gt;genre -->
<g id="edge16" class="edge"><title>games_genres&#45;&gt;genre</title>
<path fill="none" stroke="black" d="M111.164,-318.704C72.4136,-292.515 14.35,-243.946 4.45983,-183 1.89692,-167.207 -3.85845,-160.668 4.45983,-147 24.2289,-114.518 65.4389,-97.9373 97.1578,-89.6896"/>
<polygon fill="black" stroke="black" points="98.1832,-93.0427 107.083,-87.2949 96.5415,-86.2379 98.1832,-93.0427"/>
<text text-anchor="middle" x="37.9598" y="-204.5" font-family="Times,serif" font-size="10.00">belongs_to </text>
</g>
<!-- genre&#45;&gt;game -->
<g id="edge18" class="edge"><title>genre&#45;&gt;game</title>
<path fill="none" stroke="black" d="M172.496,-86.1282C234.084,-94.4953 362.965,-115.385 393.46,-147 412.282,-166.513 416.551,-198.17 416.888,-220.841"/>
<polygon fill="black" stroke="black" points="413.388,-220.821 416.794,-230.853 420.388,-220.886 413.388,-220.821"/>
<text text-anchor="middle" x="456.46" y="-168" font-family="Times,serif" font-size="10.00">has_many </text>
<text text-anchor="middle" x="456.46" y="-157" font-family="Times,serif" font-size="10.00">through game_genres</text>
</g>
<!-- genre&#45;&gt;game_genre -->
<g id="edge17" class="edge"><title>genre&#45;&gt;game_genre</title>
<path fill="none" stroke="black" d="M108.802,-89.2667C94.2141,-94.4309 78.1031,-103.015 69.4598,-117 65.9055,-122.751 64.9602,-129.69 65.3094,-136.45"/>
<polygon fill="black" stroke="black" points="61.8942,-137.304 66.7346,-146.729 68.8279,-136.343 61.8942,-137.304"/>
<text text-anchor="middle" x="91.4598" y="-120.5" font-family="Times,serif" font-size="10.00">has_many </text>
</g>
<!-- screenshot&#45;&gt;game -->
<g id="edge19" class="edge"><title>screenshot&#45;&gt;game</title>
<path fill="none" stroke="black" d="M197.897,-183.123C196.361,-192.988 196.51,-204.983 203.46,-213 224.866,-237.693 316.274,-244.98 371.838,-247.121"/>
<polygon fill="black" stroke="black" points="371.992,-250.628 382.106,-247.473 372.233,-243.632 371.992,-250.628"/>
<text text-anchor="middle" x="227.96" y="-204.5" font-family="Times,serif" font-size="10.00">belongs_to </text>
</g>
<!-- user&#45;&gt;friend -->
<g id="edge22" class="edge"><title>user&#45;&gt;friend</title>
<path fill="none" stroke="black" d="M796.146,-89.5565C827.231,-100.471 875.46,-123.87 875.46,-164 875.46,-342 875.46,-342 875.46,-342 875.46,-414.732 769.817,-429.752 706.293,-432.209"/>
<polygon fill="black" stroke="black" points="705.993,-428.716 696.101,-432.511 706.2,-435.713 705.993,-428.716"/>
<text text-anchor="middle" x="897.46" y="-246.5" font-family="Times,serif" font-size="10.00">has_many </text>
</g>
<!-- user&#45;&gt;game -->
<g id="edge20" class="edge"><title>user&#45;&gt;game</title>
<path fill="none" stroke="black" d="M747.789,-92.7825C724.729,-104.354 688.618,-124.18 661.46,-147 645.294,-160.583 648.159,-171.486 630.46,-183 576.784,-217.917 503.507,-234.784 457.859,-242.39"/>
<polygon fill="black" stroke="black" points="457.044,-238.976 447.718,-244.003 458.143,-245.889 457.044,-238.976"/>
<text text-anchor="middle" x="699.96" y="-168" font-family="Times,serif" font-size="10.00">has_many </text>
<text text-anchor="middle" x="699.96" y="-157" font-family="Times,serif" font-size="10.00">through usergames</text>
</g>
<!-- user&#45;&gt;usergame -->
<g id="edge21" class="edge"><title>user&#45;&gt;usergame</title>
<path fill="none" stroke="black" d="M777.534,-98.5946C779.879,-104.369 782.411,-110.923 784.46,-117 786.625,-123.423 788.708,-130.425 790.547,-137.017"/>
<polygon fill="black" stroke="black" points="787.229,-138.152 793.215,-146.894 793.987,-136.327 787.229,-138.152"/>
<text text-anchor="middle" x="810.46" y="-120.5" font-family="Times,serif" font-size="10.00">has_many </text>
</g>
<!-- usergame&#45;&gt;game -->
<g id="edge24" class="edge"><title>usergame&#45;&gt;game</title>
<path fill="none" stroke="black" d="M761.39,-177.772C741.785,-184.322 717.175,-192.791 695.46,-201 682.412,-205.933 679.92,-209.341 666.46,-213 595.112,-232.397 509.277,-241.41 458.719,-245.313"/>
<polygon fill="black" stroke="black" points="458.198,-241.842 448.484,-246.071 458.715,-248.823 458.198,-241.842"/>
<text text-anchor="middle" x="719.96" y="-204.5" font-family="Times,serif" font-size="10.00">belongs_to </text>
</g>
<!-- usergame&#45;&gt;user -->
<g id="edge23" class="edge"><title>usergame&#45;&gt;user</title>
<path fill="none" stroke="black" d="M760.211,-152.743C748.992,-147.416 737.945,-139.78 731.46,-129 725.292,-118.748 732.138,-108.403 741.724,-100.038"/>
<polygon fill="black" stroke="black" points="744.031,-102.678 749.803,-93.7937 739.75,-97.1399 744.031,-102.678"/>
<text text-anchor="middle" x="755.96" y="-120.5" font-family="Times,serif" font-size="10.00">belongs_to </text>
</g>
</g>
</svg>
