<?xml version="1.0" encoding="UTF-8" standalone="no"?>
<!DOCTYPE svg PUBLIC "-//W3C//DTD SVG 1.1//EN"
 "http://www.w3.org/Graphics/SVG/1.1/DTD/svg11.dtd">
<!-- Generated by graphviz version 2.36.0 (20140111.2315)
 -->
<!-- Title: G Pages: 1 -->
<svg width="1603pt" height="858pt"
 viewBox="0.00 0.00 1603.00 858.00" xmlns="http://www.w3.org/2000/svg" xmlns:xlink="http://www.w3.org/1999/xlink">
<g id="graph0" class="graph" transform="scale(1 1) rotate(0) translate(4 854)">
<title>G</title>
<polygon fill="white" stroke="none" points="-4,4 -4,-854 1599,-854 1599,4 -4,4"/>
<text text-anchor="start" x="653.5" y="-29" font-family="Times,serif" font-size="14.00"> </text>
<text text-anchor="start" x="657.5" y="-29" font-family="Times,serif" font-size="80.00">citizenry</text>
<text text-anchor="start" x="937.5" y="-29" font-family="Times,serif" font-size="14.00"> </text>
<!-- authentication -->
<g id="node1" class="node"><title>authentication</title>
<ellipse fill="teal" stroke="black" cx="1034" cy="-824" rx="67.3907" ry="18"/>
<text text-anchor="start" x="990" y="-821.3" font-family="Times,serif" font-weight="bold" font-size="14.00">authentication</text>
<text text-anchor="start" x="1074" y="-821.3" font-family="Times,serif" font-size="14.00"> </text>
</g>
<!-- user -->
<g id="node15" class="node"><title>user</title>
<ellipse fill="teal" stroke="black" cx="1034" cy="-732" rx="29.3722" ry="18"/>
<text text-anchor="start" x="1019.5" y="-729.3" font-family="Times,serif" font-weight="bold" font-size="14.00">user</text>
<text text-anchor="start" x="1044.5" y="-729.3" font-family="Times,serif" font-size="14.00"> </text>
</g>
<!-- authentication&#45;&gt;user -->
<g id="edge1" class="edge"><title>authentication&#45;&gt;user</title>
<path fill="none" stroke="black" d="M1034,-805.647C1034,-792.823 1034,-775.108 1034,-760.381"/>
<polygon fill="black" stroke="black" points="1037.5,-760.3 1034,-750.3 1030.5,-760.3 1037.5,-760.3"/>
<text text-anchor="middle" x="1058.5" y="-771.5" font-family="Times,serif" font-size="10.00">belongs_to </text>
</g>
<!-- company -->
<g id="node2" class="node"><title>company</title>
<ellipse fill="teal" stroke="black" cx="778" cy="-554" rx="48.1437" ry="18"/>
<text text-anchor="start" x="749" y="-551.3" font-family="Times,serif" font-weight="bold" font-size="14.00">company</text>
<text text-anchor="start" x="803" y="-551.3" font-family="Times,serif" font-size="14.00"> </text>
</g>
<!-- company_project -->
<g id="node3" class="node"><title>company_project</title>
<ellipse fill="teal" stroke="black" cx="973" cy="-460" rx="78.9404" ry="18"/>
<text text-anchor="start" x="920" y="-457.3" font-family="Times,serif" font-weight="bold" font-size="14.00">company_project</text>
<text text-anchor="start" x="1022" y="-457.3" font-family="Times,serif" font-size="14.00"> </text>
</g>
<!-- company&#45;&gt;company_project -->
<g id="edge2" class="edge"><title>company&#45;&gt;company_project</title>
<path fill="none" stroke="black" d="M809.206,-540.128C822.034,-534.209 836.727,-526.589 849,-518 860.59,-509.89 859.929,-503.374 872,-496 884.481,-488.375 898.85,-482.128 912.761,-477.133"/>
<polygon fill="black" stroke="black" points="913.962,-480.422 922.29,-473.873 911.696,-473.798 913.962,-480.422"/>
<text text-anchor="middle" x="894" y="-504.5" font-family="Times,serif" font-size="10.00">has_many </text>
</g>
<!-- employment -->
<g id="node5" class="node"><title>employment</title>
<ellipse fill="teal" stroke="black" cx="1131" cy="-460" rx="60.1672" ry="18"/>
<text text-anchor="start" x="1092.5" y="-457.3" font-family="Times,serif" font-weight="bold" font-size="14.00">employment</text>
<text text-anchor="start" x="1165.5" y="-457.3" font-family="Times,serif" font-size="14.00"> </text>
</g>
<!-- company&#45;&gt;employment -->
<g id="edge6" class="edge"><title>company&#45;&gt;employment</title>
<path fill="none" stroke="black" d="M823.043,-547.555C851.118,-542.752 887.242,-533.927 916,-518 928.375,-511.147 926.292,-502.214 939,-496 988.237,-471.922 1007.2,-488.478 1061,-478 1066.29,-476.969 1071.79,-475.803 1077.27,-474.576"/>
<polygon fill="black" stroke="black" points="1078.11,-477.974 1087.07,-472.32 1076.54,-471.153 1078.11,-477.974"/>
<text text-anchor="middle" x="961" y="-504.5" font-family="Times,serif" font-size="10.00">has_many </text>
</g>
<!-- group -->
<g id="node6" class="node"><title>group</title>
<ellipse fill="teal" stroke="black" cx="648" cy="-198" rx="35.6194" ry="18"/>
<text text-anchor="start" x="628.5" y="-195.3" font-family="Times,serif" font-weight="bold" font-size="14.00">group</text>
<text text-anchor="start" x="663.5" y="-195.3" font-family="Times,serif" font-size="14.00"> </text>
</g>
<!-- company&#45;&gt;group -->
<g id="edge5" class="edge"><title>company&#45;&gt;group</title>
<path fill="none" stroke="black" d="M730.828,-550.43C702.693,-546.718 667.749,-538.03 643,-518 627.55,-505.496 629.777,-496.685 623,-478 598.181,-409.569 556.828,-383.78 588,-318 593.41,-306.584 602.634,-310.264 610,-300 626.146,-277.502 636.315,-247.312 642.027,-225.814"/>
<polygon fill="black" stroke="black" points="645.443,-226.581 644.479,-216.03 638.653,-224.879 645.443,-226.581"/>
<text text-anchor="middle" x="624" y="-369" font-family="Times,serif" font-size="10.00">has_many </text>
<text text-anchor="middle" x="624" y="-358" font-family="Times,serif" font-size="10.00">through sponsorships</text>
</g>
<!-- person -->
<g id="node9" class="node"><title>person</title>
<ellipse fill="teal" stroke="black" cx="974" cy="-648" rx="38.4949" ry="18"/>
<text text-anchor="start" x="952" y="-645.3" font-family="Times,serif" font-weight="bold" font-size="14.00">person</text>
<text text-anchor="start" x="992" y="-645.3" font-family="Times,serif" font-size="14.00"> </text>
</g>
<!-- company&#45;&gt;person -->
<g id="edge7" class="edge"><title>company&#45;&gt;person</title>
<path fill="none" stroke="black" d="M814.324,-565.784C833.609,-571.987 857.495,-580.44 878,-590 901.099,-600.769 925.795,-615.512 944.353,-627.306"/>
<polygon fill="black" stroke="black" points="942.634,-630.362 952.937,-632.829 946.421,-624.475 942.634,-630.362"/>
<text text-anchor="middle" x="964" y="-604" font-family="Times,serif" font-size="10.00">has_many </text>
<text text-anchor="middle" x="964" y="-593" font-family="Times,serif" font-size="10.00">through employments</text>
</g>
<!-- project -->
<g id="node10" class="node"><title>project</title>
<ellipse fill="teal" stroke="black" cx="828" cy="-366" rx="39.9464" ry="18"/>
<text text-anchor="start" x="805" y="-363.3" font-family="Times,serif" font-weight="bold" font-size="14.00">project</text>
<text text-anchor="start" x="847" y="-363.3" font-family="Times,serif" font-size="14.00"> </text>
</g>
<!-- company&#45;&gt;project -->
<g id="edge3" class="edge"><title>company&#45;&gt;project</title>
<path fill="none" stroke="black" d="M740.717,-542.415C688.003,-525.497 601.517,-489.384 634,-442 666.174,-395.067 732.247,-377.495 778.294,-370.922"/>
<polygon fill="black" stroke="black" points="778.909,-374.371 788.374,-369.611 778.006,-367.43 778.909,-374.371"/>
<text text-anchor="middle" x="689" y="-463" font-family="Times,serif" font-size="10.00">has_many </text>
<text text-anchor="middle" x="689" y="-452" font-family="Times,serif" font-size="10.00">through company_projects</text>
</g>
<!-- sponsorship -->
<g id="node14" class="node"><title>sponsorship</title>
<ellipse fill="teal" stroke="black" cx="365" cy="-114" rx="58.2422" ry="18"/>
<text text-anchor="start" x="328" y="-111.3" font-family="Times,serif" font-weight="bold" font-size="14.00">sponsorship</text>
<text text-anchor="start" x="398" y="-111.3" font-family="Times,serif" font-size="14.00"> </text>
</g>
<!-- company&#45;&gt;sponsorship -->
<g id="edge4" class="edge"><title>company&#45;&gt;sponsorship</title>
<path fill="none" stroke="black" d="M729.92,-552.392C560.298,-549.62 0,-534.871 0,-461 0,-461 0,-461 0,-197 0,-136.817 191.292,-120.796 296.909,-116.538"/>
<polygon fill="black" stroke="black" points="297.304,-120.025 307.165,-116.15 297.04,-113.03 297.304,-120.025"/>
<text text-anchor="middle" x="22" y="-321.5" font-family="Times,serif" font-size="10.00">has_many </text>
</g>
<!-- company_project&#45;&gt;company -->
<g id="edge9" class="edge"><title>company_project&#45;&gt;company</title>
<path fill="none" stroke="black" d="M913.63,-472.008C863.087,-481.492 798.268,-493.97 796,-496 787.503,-503.605 782.984,-515.183 780.594,-525.922"/>
<polygon fill="black" stroke="black" points="777.14,-525.356 778.894,-535.804 784.039,-526.543 777.14,-525.356"/>
<text text-anchor="middle" x="820.5" y="-504.5" font-family="Times,serif" font-size="10.00">belongs_to </text>
</g>
<!-- company_project&#45;&gt;project -->
<g id="edge8" class="edge"><title>company_project&#45;&gt;project</title>
<path fill="none" stroke="black" d="M911.44,-448.551C893.817,-443.345 875.479,-435.576 861,-424 850.984,-415.992 843.41,-404.061 838.062,-393.181"/>
<polygon fill="black" stroke="black" points="841.23,-391.693 833.928,-384.016 834.849,-394.571 841.23,-391.693"/>
<text text-anchor="middle" x="885.5" y="-410.5" font-family="Times,serif" font-size="10.00">belongs_to </text>
</g>
<!-- contact_form -->
<g id="node4" class="node"><title>contact_form</title>
<ellipse fill="teal" stroke="black" cx="1190" cy="-824" rx="70.0054" ry="25.4118"/>
<text text-anchor="start" x="1148.5" y="-827.8" font-family="Times,serif" font-weight="bold" font-size="14.00">contact_form</text>
<text text-anchor="start" x="1227.5" y="-827.8" font-family="Times,serif" font-size="14.00"> </text>
<text text-anchor="start" x="1188" y="-813.8" font-family="Times,serif" font-size="14.00"> </text>
</g>
<!-- employment&#45;&gt;company -->
<g id="edge11" class="edge"><title>employment&#45;&gt;company</title>
<path fill="none" stroke="black" d="M1086.56,-472.314C1053.62,-480.892 1013.22,-491.885 1006,-496 993.711,-503.005 995.636,-511.642 983,-518 937.114,-541.086 878.915,-549.322 836.261,-552.084"/>
<polygon fill="black" stroke="black" points="835.83,-548.602 826.043,-552.66 836.225,-555.591 835.83,-548.602"/>
<text text-anchor="middle" x="1030.5" y="-504.5" font-family="Times,serif" font-size="10.00">belongs_to </text>
</g>
<!-- employment&#45;&gt;person -->
<g id="edge10" class="edge"><title>employment&#45;&gt;person</title>
<path fill="none" stroke="black" d="M1105.73,-476.65C1085.72,-490.181 1058.36,-511.405 1041,-536 1020.25,-565.411 1033.21,-582.213 1013,-612 1009.81,-616.705 1005.85,-621.199 1001.69,-625.304"/>
<polygon fill="black" stroke="black" points="999.126,-622.906 994.106,-632.236 1003.85,-628.072 999.126,-622.906"/>
<text text-anchor="middle" x="1065.5" y="-551.5" font-family="Times,serif" font-size="10.00">belongs_to </text>
</g>
<!-- group&#45;&gt;company -->
<g id="edge17" class="edge"><title>group&#45;&gt;company</title>
<path fill="none" stroke="black" d="M612.518,-198.262C560.392,-199.179 463.325,-208.828 408,-264 374.265,-297.642 362.815,-442.872 395,-478 438.059,-524.996 624.699,-543.424 720.615,-549.891"/>
<polygon fill="black" stroke="black" points="720.52,-553.392 730.727,-550.551 720.976,-546.407 720.52,-553.392"/>
<text text-anchor="middle" x="423" y="-369" font-family="Times,serif" font-size="10.00">has_many </text>
<text text-anchor="middle" x="423" y="-358" font-family="Times,serif" font-size="10.00">through sponsorships</text>
</g>
<!-- group_membership -->
<g id="node7" class="node"><title>group_membership</title>
<ellipse fill="teal" stroke="black" cx="1271" cy="-114" rx="87.613" ry="18"/>
<text text-anchor="start" x="1211.5" y="-111.3" font-family="Times,serif" font-weight="bold" font-size="14.00">group_membership</text>
<text text-anchor="start" x="1326.5" y="-111.3" font-family="Times,serif" font-size="14.00"> </text>
</g>
<!-- group&#45;&gt;group_membership -->
<g id="edge14" class="edge"><title>group&#45;&gt;group_membership</title>
<path fill="none" stroke="black" d="M681.938,-192.533C777.619,-179.939 1051.53,-143.886 1189.5,-125.727"/>
<polygon fill="black" stroke="black" points="1190.14,-129.173 1199.6,-124.397 1189.23,-122.232 1190.14,-129.173"/>
<text text-anchor="middle" x="1019" y="-153.5" font-family="Times,serif" font-size="10.00">has_many </text>
</g>
<!-- group_project -->
<g id="node8" class="node"><title>group_project</title>
<ellipse fill="teal" stroke="black" cx="744" cy="-282" rx="66.4165" ry="18"/>
<text text-anchor="start" x="700.5" y="-279.3" font-family="Times,serif" font-weight="bold" font-size="14.00">group_project</text>
<text text-anchor="start" x="783.5" y="-279.3" font-family="Times,serif" font-size="14.00"> </text>
</g>
<!-- group&#45;&gt;group_project -->
<g id="edge12" class="edge"><title>group&#45;&gt;group_project</title>
<path fill="none" stroke="black" d="M677.779,-208.082C692.238,-213.689 709.026,-222.122 721,-234 726.675,-239.63 731.167,-246.943 734.617,-254.117"/>
<polygon fill="black" stroke="black" points="731.541,-255.824 738.691,-263.642 737.977,-253.071 731.541,-255.824"/>
<text text-anchor="middle" x="752" y="-237.5" font-family="Times,serif" font-size="10.00">has_many </text>
</g>
<!-- group&#45;&gt;person -->
<g id="edge15" class="edge"><title>group&#45;&gt;person</title>
<path fill="none" stroke="black" d="M613.219,-201.69C507.959,-210.292 200,-239.044 200,-281 200,-555 200,-555 200,-555 200,-628.397 755.918,-643.466 925.483,-646.355"/>
<polygon fill="black" stroke="black" points="925.561,-649.856 935.617,-646.521 925.676,-642.857 925.561,-649.856"/>
<text text-anchor="middle" x="259" y="-416" font-family="Times,serif" font-size="10.00">has_many </text>
<text text-anchor="middle" x="259" y="-405" font-family="Times,serif" font-size="10.00">through group_memberships</text>
</g>
<!-- group&#45;&gt;project -->
<g id="edge13" class="edge"><title>group&#45;&gt;project</title>
<path fill="none" stroke="black" d="M683.306,-200.132C761.297,-203.494 944.06,-216.395 978,-264 1009.91,-308.761 927.993,-339.542 873.031,-354.526"/>
<polygon fill="black" stroke="black" points="871.893,-351.207 863.116,-357.14 873.678,-357.975 871.893,-351.207"/>
<text text-anchor="middle" x="1034.5" y="-285" font-family="Times,serif" font-size="10.00">has_many </text>
<text text-anchor="middle" x="1034.5" y="-274" font-family="Times,serif" font-size="10.00">through group_projects</text>
</g>
<!-- group&#45;&gt;sponsorship -->
<g id="edge16" class="edge"><title>group&#45;&gt;sponsorship</title>
<path fill="none" stroke="black" d="M615.771,-190.468C585.417,-184.072 538.792,-173.616 499,-162 468.782,-153.179 435.372,-141.464 409.471,-131.938"/>
<polygon fill="black" stroke="black" points="410.527,-128.597 399.934,-128.404 408.095,-135.161 410.527,-128.597"/>
<text text-anchor="middle" x="521" y="-153.5" font-family="Times,serif" font-size="10.00">has_many </text>
</g>
<!-- group_membership&#45;&gt;group -->
<g id="edge18" class="edge"><title>group_membership&#45;&gt;group</title>
<path fill="none" stroke="black" d="M1216.52,-128.201C1170.94,-138.792 1104.07,-153.284 1045,-162 918.432,-180.674 767.585,-190.632 693.564,-194.722"/>
<polygon fill="black" stroke="black" points="693.008,-191.247 683.212,-195.283 693.387,-198.237 693.008,-191.247"/>
<text text-anchor="middle" x="1138.5" y="-153.5" font-family="Times,serif" font-size="10.00">belongs_to </text>
</g>
<!-- group_membership&#45;&gt;person -->
<g id="edge19" class="edge"><title>group_membership&#45;&gt;person</title>
<path fill="none" stroke="black" d="M1347.6,-122.758C1428.97,-133.18 1546,-155.4 1546,-197 1546,-555 1546,-555 1546,-555 1546,-593.759 1516.05,-597.774 1480,-612 1385.25,-649.385 1122.03,-610.78 1022,-630 1018.6,-630.654 1015.11,-631.506 1011.65,-632.48"/>
<polygon fill="black" stroke="black" points="1010.53,-629.161 1002.03,-635.486 1012.62,-635.842 1010.53,-629.161"/>
<text text-anchor="middle" x="1570.5" y="-363.5" font-family="Times,serif" font-size="10.00">belongs_to </text>
</g>
<!-- group_project&#45;&gt;group -->
<g id="edge21" class="edge"><title>group_project&#45;&gt;group</title>
<path fill="none" stroke="black" d="M701.46,-267.942C689.475,-262.647 677.21,-255.483 668,-246 662.478,-240.314 658.374,-232.87 655.371,-225.588"/>
<polygon fill="black" stroke="black" points="658.586,-224.181 651.929,-215.939 651.993,-226.534 658.586,-224.181"/>
<text text-anchor="middle" x="692.5" y="-237.5" font-family="Times,serif" font-size="10.00">belongs_to </text>
</g>
<!-- group_project&#45;&gt;project -->
<g id="edge20" class="edge"><title>group_project&#45;&gt;project</title>
<path fill="none" stroke="black" d="M740.982,-300.081C740.226,-309.692 740.976,-321.442 747,-330 755.302,-341.794 768.453,-349.647 781.763,-354.862"/>
<polygon fill="black" stroke="black" points="780.822,-358.24 791.417,-358.213 783.117,-351.627 780.822,-358.24"/>
<text text-anchor="middle" x="771.5" y="-321.5" font-family="Times,serif" font-size="10.00">belongs_to </text>
</g>
<!-- person&#45;&gt;company -->
<g id="edge28" class="edge"><title>person&#45;&gt;company</title>
<path fill="none" stroke="black" d="M935.806,-645.229C886.335,-642.082 804.049,-633.662 784,-612 776.7,-604.113 774.492,-592.736 774.378,-582.217"/>
<polygon fill="black" stroke="black" points="777.878,-582.299 774.852,-572.146 770.886,-581.97 777.878,-582.299"/>
<text text-anchor="middle" x="829" y="-604" font-family="Times,serif" font-size="10.00">has_many </text>
<text text-anchor="middle" x="829" y="-593" font-family="Times,serif" font-size="10.00">through employments</text>
</g>
<!-- person&#45;&gt;employment -->
<g id="edge27" class="edge"><title>person&#45;&gt;employment</title>
<path fill="none" stroke="black" d="M1002.07,-635.524C1028.36,-623.415 1066.95,-601.923 1090,-572 1109.22,-547.049 1120.12,-512.172 1125.78,-488.208"/>
<polygon fill="black" stroke="black" points="1129.22,-488.872 1127.95,-478.353 1122.38,-487.363 1129.22,-488.872"/>
<text text-anchor="middle" x="1133" y="-551.5" font-family="Times,serif" font-size="10.00">has_many </text>
</g>
<!-- person&#45;&gt;group -->
<g id="edge26" class="edge"><title>person&#45;&gt;group</title>
<path fill="none" stroke="black" d="M935.268,-647.236C761.111,-647.797 59,-644.507 59,-555 59,-555 59,-555 59,-281 59,-226.224 463.774,-205.913 602.216,-200.568"/>
<polygon fill="black" stroke="black" points="602.621,-204.056 612.482,-200.181 602.357,-197.061 602.621,-204.056"/>
<text text-anchor="middle" x="118" y="-416" font-family="Times,serif" font-size="10.00">has_many </text>
<text text-anchor="middle" x="118" y="-405" font-family="Times,serif" font-size="10.00">through group_memberships</text>
</g>
<!-- person&#45;&gt;group_membership -->
<g id="edge25" class="edge"><title>person&#45;&gt;group_membership</title>
<path fill="none" stroke="black" d="M1002.36,-635.736C1008.74,-633.547 1015.54,-631.476 1022,-630 1119.55,-607.722 1466,-655.064 1466,-555 1466,-555 1466,-555 1466,-197 1466,-148.97 1415.11,-128.613 1365.32,-120.19"/>
<polygon fill="black" stroke="black" points="1365.81,-116.724 1355.4,-118.659 1364.75,-123.642 1365.81,-116.724"/>
<text text-anchor="middle" x="1488" y="-363.5" font-family="Times,serif" font-size="10.00">has_many </text>
</g>
<!-- person&#45;&gt;project -->
<g id="edge24" class="edge"><title>person&#45;&gt;project</title>
<path fill="none" stroke="black" d="M1003.69,-636.447C1009.75,-634.306 1016.08,-632.074 1022,-630 1084.41,-608.148 1114.89,-621.259 1159,-572 1182.81,-545.404 1167.5,-527.119 1185,-496 1190.1,-486.923 1196.45,-487.792 1200,-478 1205.45,-462.956 1210.13,-454.381 1200,-442 1159.87,-392.971 970.054,-375.279 878.129,-369.511"/>
<polygon fill="black" stroke="black" points="878.144,-366.006 867.951,-368.897 877.722,-372.993 878.144,-366.006"/>
<text text-anchor="middle" x="1246" y="-510" font-family="Times,serif" font-size="10.00">has_many </text>
<text text-anchor="middle" x="1246" y="-499" font-family="Times,serif" font-size="10.00">through project_memberships</text>
</g>
<!-- project_membership -->
<g id="node11" class="node"><title>project_membership</title>
<ellipse fill="teal" stroke="black" cx="509" cy="-282" rx="91.9385" ry="18"/>
<text text-anchor="start" x="446" y="-279.3" font-family="Times,serif" font-weight="bold" font-size="14.00">project_membership</text>
<text text-anchor="start" x="568" y="-279.3" font-family="Times,serif" font-size="14.00"> </text>
</g>
<!-- person&#45;&gt;project_membership -->
<g id="edge23" class="edge"><title>person&#45;&gt;project_membership</title>
<path fill="none" stroke="black" d="M935.243,-646.592C825.641,-645.112 519.054,-638.614 483,-612 419.432,-565.075 407.509,-517.438 431,-442 440.31,-412.102 456.49,-411.749 471,-384 483.625,-359.856 494.169,-330.549 500.923,-309.737"/>
<polygon fill="black" stroke="black" points="504.329,-310.571 504.012,-299.981 497.656,-308.458 504.329,-310.571"/>
<text text-anchor="middle" x="453" y="-457.5" font-family="Times,serif" font-size="10.00">has_many </text>
</g>
<!-- person&#45;&gt;user -->
<g id="edge22" class="edge"><title>person&#45;&gt;user</title>
<path fill="none" stroke="black" d="M992.841,-663.746C999.464,-669.564 1006.59,-676.619 1012,-684 1016.61,-690.296 1020.62,-697.713 1023.91,-704.771"/>
<polygon fill="black" stroke="black" points="1020.74,-706.256 1027.93,-714.034 1027.16,-703.468 1020.74,-706.256"/>
<text text-anchor="middle" x="1043.5" y="-687.5" font-family="Times,serif" font-size="10.00">belongs_to </text>
</g>
<!-- project&#45;&gt;company -->
<g id="edge32" class="edge"><title>project&#45;&gt;company</title>
<path fill="none" stroke="black" d="M812.499,-382.641C799.646,-396.793 782.337,-418.903 775,-442 766.233,-469.598 768.787,-503.025 772.395,-525.939"/>
<polygon fill="black" stroke="black" points="768.979,-526.722 774.148,-535.97 775.874,-525.517 768.979,-526.722"/>
<text text-anchor="middle" x="830" y="-463" font-family="Times,serif" font-size="10.00">has_many </text>
<text text-anchor="middle" x="830" y="-452" font-family="Times,serif" font-size="10.00">through company_projects</text>
</g>
<!-- project&#45;&gt;company_project -->
<g id="edge31" class="edge"><title>project&#45;&gt;company_project</title>
<path fill="none" stroke="black" d="M859.2,-377.51C875.044,-383.531 894.226,-391.902 910,-402 924.433,-411.24 938.742,-423.834 950.067,-434.834"/>
<polygon fill="black" stroke="black" points="947.84,-437.556 957.395,-442.134 952.781,-432.597 947.84,-437.556"/>
<text text-anchor="middle" x="960" y="-410.5" font-family="Times,serif" font-size="10.00">has_many </text>
</g>
<!-- project&#45;&gt;group -->
<g id="edge34" class="edge"><title>project&#45;&gt;group</title>
<path fill="none" stroke="black" d="M844.83,-349.307C852.152,-340.544 858.381,-329.168 855,-318 846.641,-290.393 838.946,-284.837 819,-264 785.232,-228.723 730.339,-212.374 691.88,-204.942"/>
<polygon fill="black" stroke="black" points="692.453,-201.488 681.99,-203.155 691.209,-208.377 692.453,-201.488"/>
<text text-anchor="middle" x="897.5" y="-285" font-family="Times,serif" font-size="10.00">has_many </text>
<text text-anchor="middle" x="897.5" y="-274" font-family="Times,serif" font-size="10.00">through group_projects</text>
</g>
<!-- project&#45;&gt;group_project -->
<g id="edge33" class="edge"><title>project&#45;&gt;group_project</title>
<path fill="none" stroke="black" d="M818.719,-348.183C812.958,-338.661 804.958,-326.911 796,-318 791.075,-313.102 785.374,-308.47 779.589,-304.277"/>
<polygon fill="black" stroke="black" points="781.359,-301.246 771.135,-298.467 777.394,-307.015 781.359,-301.246"/>
<text text-anchor="middle" x="829" y="-321.5" font-family="Times,serif" font-size="10.00">has_many </text>
</g>
<!-- project&#45;&gt;person -->
<g id="edge30" class="edge"><title>project&#45;&gt;person</title>
<path fill="none" stroke="black" d="M867.651,-368.893C943.639,-372.896 1106.94,-383.412 1160,-402 1233.19,-427.641 1269.76,-427.979 1307,-496 1351.81,-577.848 1220.35,-581.978 1132,-612 1085.09,-627.938 1069.98,-617.682 1022,-630 1018.83,-630.813 1015.58,-631.747 1012.33,-632.748"/>
<polygon fill="black" stroke="black" points="1011.09,-629.469 1002.68,-635.907 1013.27,-636.122 1011.09,-629.469"/>
<text text-anchor="middle" x="1377" y="-510" font-family="Times,serif" font-size="10.00">has_many </text>
<text text-anchor="middle" x="1377" y="-499" font-family="Times,serif" font-size="10.00">through project_memberships</text>
</g>
<!-- project&#45;&gt;project_membership -->
<g id="edge29" class="edge"><title>project&#45;&gt;project_membership</title>
<path fill="none" stroke="black" d="M793.706,-356.463C766.773,-349.64 728.372,-339.654 695,-330 677.987,-325.078 674.074,-322.708 657,-318 631.271,-310.906 602.786,-303.957 577.733,-298.145"/>
<polygon fill="black" stroke="black" points="578.482,-294.726 567.952,-295.893 576.911,-301.548 578.482,-294.726"/>
<text text-anchor="middle" x="717" y="-321.5" font-family="Times,serif" font-size="10.00">has_many </text>
</g>
<!-- project_membership&#45;&gt;person -->
<g id="edge36" class="edge"><title>project_membership&#45;&gt;person</title>
<path fill="none" stroke="black" d="M511.311,-299.997C517.278,-341.958 534.201,-449.15 555,-478 643.356,-600.56 835.968,-634.364 925.921,-643.59"/>
<polygon fill="black" stroke="black" points="925.82,-647.096 936.11,-644.574 926.493,-640.129 925.82,-647.096"/>
<text text-anchor="middle" x="579.5" y="-457.5" font-family="Times,serif" font-size="10.00">belongs_to </text>
</g>
<!-- project_membership&#45;&gt;project -->
<g id="edge35" class="edge"><title>project_membership&#45;&gt;project</title>
<path fill="none" stroke="black" d="M536.329,-299.311C554.825,-309.641 580.146,-322.432 604,-330 662.249,-348.48 732.235,-357.418 778.297,-361.591"/>
<polygon fill="black" stroke="black" points="778.057,-365.083 788.322,-362.458 778.661,-358.109 778.057,-365.083"/>
<text text-anchor="middle" x="628.5" y="-321.5" font-family="Times,serif" font-size="10.00">belongs_to </text>
</g>
<!-- resource_link -->
<g id="node12" class="node"><title>resource_link</title>
<ellipse fill="teal" stroke="black" cx="1342" cy="-824" rx="64.0172" ry="18"/>
<text text-anchor="start" x="1300.5" y="-821.3" font-family="Times,serif" font-weight="bold" font-size="14.00">resource_link</text>
<text text-anchor="start" x="1379.5" y="-821.3" font-family="Times,serif" font-size="14.00"> </text>
</g>
<!-- sign_in_data -->
<g id="node13" class="node"><title>sign_in_data</title>
<ellipse fill="teal" stroke="black" cx="1491" cy="-824" rx="66.2022" ry="25.4118"/>
<text text-anchor="start" x="1452" y="-827.8" font-family="Times,serif" font-weight="bold" font-size="14.00">sign_in_data</text>
<text text-anchor="start" x="1526" y="-827.8" font-family="Times,serif" font-size="14.00"> </text>
<text text-anchor="start" x="1489" y="-813.8" font-family="Times,serif" font-size="14.00"> </text>
</g>
<!-- sponsorship&#45;&gt;company -->
<g id="edge37" class="edge"><title>sponsorship&#45;&gt;company</title>
<path fill="none" stroke="black" d="M351.234,-131.755C339.664,-147.567 325,-172.449 325,-197 325,-325 325,-325 325,-325 325,-420.217 331.65,-477.876 418,-518 470.176,-542.245 632.11,-549.714 719.939,-552.001"/>
<polygon fill="black" stroke="black" points="719.928,-555.501 730.011,-552.249 720.1,-548.504 719.928,-555.501"/>
<text text-anchor="middle" x="350.5" y="-321.5" font-family="Times,serif" font-size="10.00">belongs_to </text>
</g>
<!-- sponsorship&#45;&gt;group -->
<g id="edge38" class="edge"><title>sponsorship&#45;&gt;group</title>
<path fill="none" stroke="black" d="M417.189,-122.068C453.088,-127.702 501.576,-136.844 543,-150 567.978,-157.933 594.936,-170.081 615.283,-180.04"/>
<polygon fill="black" stroke="black" points="613.905,-183.264 624.418,-184.581 617.022,-176.996 613.905,-183.264"/>
<text text-anchor="middle" x="597.5" y="-153.5" font-family="Times,serif" font-size="10.00">belongs_to </text>
</g>
<!-- user&#45;&gt;person -->
<g id="edge39" class="edge"><title>user&#45;&gt;person</title>
<path fill="none" stroke="black" d="M1007.95,-723.601C994.382,-718.279 978.995,-709.588 971,-696 967.571,-690.173 966.671,-683.207 967.022,-676.445"/>
<polygon fill="black" stroke="black" points="970.539,-676.563 968.423,-666.182 963.603,-675.617 970.539,-676.563"/>
<text text-anchor="middle" x="989.5" y="-687.5" font-family="Times,serif" font-size="10.00">has_one </text>
</g>
<!-- authentications dependent =&gt; destroy do -->
<g id="node16" class="node"><title>authentications dependent =&gt; destroy do</title>
<ellipse fill="none" stroke="black" cx="1186" cy="-648" rx="155.005" ry="18"/>
<text text-anchor="middle" x="1186" y="-644.3" font-family="Times,serif" font-size="14.00">authentications dependent =&gt; destroy do</text>
</g>
<!-- user&#45;&gt;authentications dependent =&gt; destroy do -->
<g id="edge40" class="edge"><title>user&#45;&gt;authentications dependent =&gt; destroy do</title>
<path fill="none" stroke="black" d="M1055.13,-719.598C1078.54,-706.971 1116.82,-686.323 1145.94,-670.61"/>
<polygon fill="black" stroke="black" points="1147.91,-673.527 1155.05,-665.699 1144.58,-667.367 1147.91,-673.527"/>
<text text-anchor="middle" x="1142" y="-687.5" font-family="Times,serif" font-size="10.00">has_many </text>
</g>
</g>
</svg>
