<?xml version="1.0" encoding="UTF-8" standalone="no"?>
<!DOCTYPE svg PUBLIC "-//W3C//DTD SVG 1.1//EN"
 "http://www.w3.org/Graphics/SVG/1.1/DTD/svg11.dtd">
<!-- Generated by graphviz version 2.36.0 (20140111.2315)
 -->
<!-- Title: G Pages: 1 -->
<svg width="515pt" height="308pt"
 viewBox="0.00 0.00 515.00 308.00" xmlns="http://www.w3.org/2000/svg" xmlns:xlink="http://www.w3.org/1999/xlink">
<g id="graph0" class="graph" transform="scale(1 1) rotate(0) translate(4 304)">
<title>G</title>
<polygon fill="white" stroke="none" points="-4,4 -4,-304 511,-304 511,4 -4,4"/>
<text text-anchor="start" x="54" y="-29" font-family="Times,serif" font-size="14.00"> </text>
<text text-anchor="start" x="58" y="-29" font-family="Times,serif" font-size="80.00">ScoreSettler</text>
<text text-anchor="start" x="449" y="-29" font-family="Times,serif" font-size="14.00"> </text>
<!-- group -->
<g id="node1" class="node"><title>group</title>
<ellipse fill="teal" stroke="black" cx="228" cy="-282" rx="31.2965" ry="18"/>
<text text-anchor="middle" x="228" y="-278.3" font-family="Times,serif" font-size="14.00">group</text>
</g>
<!-- membership -->
<g id="node3" class="node"><title>membership</title>
<ellipse fill="teal" stroke="black" cx="55" cy="-198" rx="55.3682" ry="18"/>
<text text-anchor="middle" x="55" y="-194.3" font-family="Times,serif" font-size="14.00">membership</text>
</g>
<!-- group&#45;&gt;membership -->
<g id="edge1" class="edge"><title>group&#45;&gt;membership</title>
<path fill="none" stroke="black" d="M196.916,-279.989C147.899,-277.669 56.1307,-270.132 36,-246 30.8467,-239.822 31.7957,-232.064 35.1463,-224.642"/>
<polygon fill="black" stroke="black" points="38.4196,-225.973 40.3962,-215.564 32.36,-222.468 38.4196,-225.973"/>
<text text-anchor="middle" x="58" y="-237.5" font-family="Times,serif" font-size="10.00">has_many </text>
</g>
<!-- tournament -->
<g id="node4" class="node"><title>tournament</title>
<ellipse fill="teal" stroke="black" cx="447" cy="-198" rx="51.0191" ry="18"/>
<text text-anchor="middle" x="447" y="-194.3" font-family="Times,serif" font-size="14.00">tournament</text>
</g>
<!-- group&#45;&gt;tournament -->
<g id="edge3" class="edge"><title>group&#45;&gt;tournament</title>
<path fill="none" stroke="black" stroke-dasharray="5,2" d="M253.551,-271.433C290.447,-257.618 359.125,-231.903 403.936,-215.124"/>
<polygon fill="black" stroke="black" points="405.255,-218.368 413.393,-211.583 402.801,-211.812 405.255,-218.368"/>
<text text-anchor="middle" x="372" y="-237.5" font-family="Times,serif" font-size="10.00">has_many </text>
</g>
<!-- user -->
<g id="node5" class="node"><title>user</title>
<ellipse fill="teal" stroke="black" cx="136" cy="-114" rx="27" ry="18"/>
<text text-anchor="middle" x="136" y="-110.3" font-family="Times,serif" font-size="14.00">user</text>
</g>
<!-- group&#45;&gt;user -->
<g id="edge2" class="edge"><title>group&#45;&gt;user</title>
<path fill="none" stroke="black" stroke-dasharray="5,2" d="M214.911,-265.397C204.605,-252.641 190.308,-233.86 180,-216 172.319,-202.692 156.948,-166.304 146.565,-141.049"/>
<polygon fill="black" stroke="black" points="149.749,-139.59 142.723,-131.66 143.271,-142.241 149.749,-139.59"/>
<text text-anchor="middle" x="224" y="-201" font-family="Times,serif" font-size="10.00">has_many </text>
<text text-anchor="middle" x="224" y="-190" font-family="Times,serif" font-size="10.00">through memberships</text>
</g>
<!-- match -->
<g id="node2" class="node"><title>match</title>
<ellipse fill="teal" stroke="black" cx="446" cy="-114" rx="32.2457" ry="18"/>
<text text-anchor="middle" x="446" y="-110.3" font-family="Times,serif" font-size="14.00">match</text>
</g>
<!-- match&#45;&gt;tournament -->
<g id="edge4" class="edge"><title>match&#45;&gt;tournament</title>
<path fill="none" stroke="black" d="M453.015,-131.798C455.045,-137.475 456.986,-143.917 458,-150 459.103,-156.618 458.44,-163.694 457.008,-170.293"/>
<polygon fill="black" stroke="black" points="453.578,-169.566 454.268,-180.138 460.321,-171.443 453.578,-169.566"/>
<text text-anchor="middle" x="482.5" y="-153.5" font-family="Times,serif" font-size="10.00">belongs_to </text>
</g>
<!-- membership&#45;&gt;group -->
<g id="edge6" class="edge"><title>membership&#45;&gt;group</title>
<path fill="none" stroke="black" d="M68.0939,-215.522C76.951,-225.67 89.4681,-238.181 103,-246 129.24,-261.161 162.403,-270.052 187.976,-275.076"/>
<polygon fill="black" stroke="black" points="187.607,-278.567 198.076,-276.939 188.877,-271.683 187.607,-278.567"/>
<text text-anchor="middle" x="127.5" y="-237.5" font-family="Times,serif" font-size="10.00">belongs_to </text>
</g>
<!-- membership&#45;&gt;user -->
<g id="edge5" class="edge"><title>membership&#45;&gt;user</title>
<path fill="none" stroke="black" d="M40.611,-180.391C34.2313,-170.938 29.4813,-159.188 36,-150 50.1499,-130.056 76.5723,-121.387 98.7044,-117.662"/>
<polygon fill="black" stroke="black" points="99.4156,-121.096 108.831,-116.239 98.4413,-114.164 99.4156,-121.096"/>
<text text-anchor="middle" x="60.5" y="-153.5" font-family="Times,serif" font-size="10.00">belongs_to </text>
</g>
<!-- tournament&#45;&gt;group -->
<g id="edge7" class="edge"><title>tournament&#45;&gt;group</title>
<path fill="none" stroke="black" d="M433.748,-215.843C424.753,-226.12 411.983,-238.653 398,-246 357.334,-267.368 304.815,-275.699 268.981,-278.942"/>
<polygon fill="black" stroke="black" points="268.568,-275.463 258.884,-279.761 269.134,-282.44 268.568,-275.463"/>
<text text-anchor="middle" x="438.5" y="-237.5" font-family="Times,serif" font-size="10.00">belongs_to </text>
</g>
<!-- tournament&#45;&gt;match -->
<g id="edge8" class="edge"><title>tournament&#45;&gt;match</title>
<path fill="none" stroke="black" d="M424.862,-181.511C418.901,-176.093 413.217,-169.472 410,-162 405.915,-152.512 410.585,-143.231 417.767,-135.455"/>
<polygon fill="black" stroke="black" points="420.604,-137.597 425.554,-128.23 415.842,-132.466 420.604,-137.597"/>
<text text-anchor="middle" x="432" y="-153.5" font-family="Times,serif" font-size="10.00">has_many </text>
</g>
<!-- user&#45;&gt;group -->
<g id="edge10" class="edge"><title>user&#45;&gt;group</title>
<path fill="none" stroke="black" stroke-dasharray="5,2" d="M161.812,-119.353C193.18,-126.177 244.788,-142.696 268,-180 283.481,-204.88 265.436,-236.764 248.857,-257.985"/>
<polygon fill="black" stroke="black" points="246.056,-255.882 242.415,-265.831 251.466,-260.324 246.056,-255.882"/>
<text text-anchor="middle" x="317" y="-201" font-family="Times,serif" font-size="10.00">has_many </text>
<text text-anchor="middle" x="317" y="-190" font-family="Times,serif" font-size="10.00">through memberships</text>
</g>
<!-- user&#45;&gt;membership -->
<g id="edge9" class="edge"><title>user&#45;&gt;membership</title>
<path fill="none" stroke="black" d="M121.798,-129.377C109.923,-141.399 92.7332,-158.801 78.7656,-172.941"/>
<polygon fill="black" stroke="black" points="75.9291,-170.832 71.3916,-180.406 80.9092,-175.751 75.9291,-170.832"/>
<text text-anchor="middle" x="123" y="-153.5" font-family="Times,serif" font-size="10.00">has_many </text>
</g>
</g>
</svg>
