<?xml version="1.0" encoding="UTF-8" standalone="no"?>
<!DOCTYPE svg PUBLIC "-//W3C//DTD SVG 1.1//EN"
 "http://www.w3.org/Graphics/SVG/1.1/DTD/svg11.dtd">
<!-- Generated by graphviz version 2.36.0 (20140111.2315)
 -->
<!-- Title: G Pages: 1 -->
<svg width="497pt" height="275pt"
 viewBox="0.00 0.00 497.00 275.00" xmlns="http://www.w3.org/2000/svg" xmlns:xlink="http://www.w3.org/1999/xlink">
<g id="graph0" class="graph" transform="scale(1 1) rotate(0) translate(4 271)">
<title>G</title>
<polygon fill="white" stroke="none" points="-4,4 -4,-271 493,-271 493,4 -4,4"/>
<text text-anchor="start" x="117" y="-20" font-family="Times,serif" font-size="14.00"> </text>
<text text-anchor="start" x="121" y="-20" font-family="Times,serif" font-size="50.00">ScoreSettler</text>
<text text-anchor="start" x="368" y="-20" font-family="Times,serif" font-size="14.00"> </text>
<!-- group -->
<g id="node1" class="node"><title>group</title>
<polygon fill="none" stroke="black" points="243.25,-267 188.75,-267 188.75,-231 243.25,-231 243.25,-267"/>
<text text-anchor="start" x="196.5" y="-246.3" font-family="Times,serif" font-weight="bold" font-size="14.00">group</text>
<text text-anchor="start" x="231.5" y="-246.3" font-family="Times,serif" font-size="14.00"> </text>
</g>
<!-- membership -->
<g id="node3" class="node"><title>membership</title>
<polygon fill="none" stroke="black" points="94,-183 -7.10543e-15,-183 -7.10543e-15,-147 94,-147 94,-183"/>
<text text-anchor="start" x="8" y="-162.3" font-family="Times,serif" font-weight="bold" font-size="14.00">membership</text>
<text text-anchor="start" x="82" y="-162.3" font-family="Times,serif" font-size="14.00"> </text>
</g>
<!-- group&#45;&gt;membership -->
<g id="edge1" class="edge"><title>group&#45;&gt;membership</title>
<path fill="none" stroke="black" d="M188.407,-247.149C140.393,-245.024 44.619,-237.718 24,-213 18.73,-206.682 20.067,-198.953 23.9959,-191.601"/>
<polygon fill="black" stroke="black" points="26.927,-193.514 29.5582,-183.251 21.1013,-189.633 26.927,-193.514"/>
<text text-anchor="middle" x="46" y="-204.5" font-family="Times,serif" font-size="10.00">has_many </text>
</g>
<!-- tournament -->
<g id="node4" class="node"><title>tournament</title>
<polygon fill="none" stroke="black" points="474,-183 384,-183 384,-147 474,-147 474,-183"/>
<text text-anchor="start" x="392" y="-162.3" font-family="Times,serif" font-weight="bold" font-size="14.00">tournament</text>
<text text-anchor="start" x="462" y="-162.3" font-family="Times,serif" font-size="14.00"> </text>
</g>
<!-- group&#45;&gt;tournament -->
<g id="edge3" class="edge"><title>group&#45;&gt;tournament</title>
<path fill="none" stroke="black" d="M243.41,-237.448C276.558,-224.687 333.125,-202.91 375.116,-186.744"/>
<polygon fill="black" stroke="black" points="376.571,-189.934 384.646,-183.075 374.056,-183.402 376.571,-189.934"/>
<text text-anchor="middle" x="358" y="-204.5" font-family="Times,serif" font-size="10.00">has_many </text>
</g>
<!-- user -->
<g id="node5" class="node"><title>user</title>
<polygon fill="none" stroke="black" points="151,-99 97,-99 97,-63 151,-63 151,-99"/>
<text text-anchor="start" x="109.5" y="-78.3" font-family="Times,serif" font-weight="bold" font-size="14.00">user</text>
<text text-anchor="start" x="134.5" y="-78.3" font-family="Times,serif" font-size="14.00"> </text>
</g>
<!-- group&#45;&gt;user -->
<g id="edge2" class="edge"><title>group&#45;&gt;user</title>
<path fill="none" stroke="black" d="M201.63,-230.805C191.445,-218.11 177.888,-200.131 168,-183 166.001,-179.536 147.828,-137.475 135.471,-108.737"/>
<polygon fill="black" stroke="black" points="138.543,-107.019 131.379,-99.2129 132.111,-109.782 138.543,-107.019"/>
<text text-anchor="middle" x="212" y="-168" font-family="Times,serif" font-size="10.00">has_many </text>
<text text-anchor="middle" x="212" y="-157" font-family="Times,serif" font-size="10.00">through memberships</text>
</g>
<!-- match -->
<g id="node2" class="node"><title>match</title>
<polygon fill="none" stroke="black" points="456.25,-99 399.75,-99 399.75,-63 456.25,-63 456.25,-99"/>
<text text-anchor="start" x="407.5" y="-78.3" font-family="Times,serif" font-weight="bold" font-size="14.00">match</text>
<text text-anchor="start" x="444.5" y="-78.3" font-family="Times,serif" font-size="14.00"> </text>
</g>
<!-- match&#45;&gt;tournament -->
<g id="edge4" class="edge"><title>match&#45;&gt;tournament</title>
<path fill="none" stroke="black" d="M435.142,-99.1534C437.126,-104.743 439.007,-111.044 440,-117 441.085,-123.51 440.461,-130.462 439.078,-136.968"/>
<polygon fill="black" stroke="black" points="435.679,-136.129 436.415,-146.698 442.431,-137.977 435.679,-136.129"/>
<text text-anchor="middle" x="464.5" y="-120.5" font-family="Times,serif" font-size="10.00">belongs_to </text>
</g>
<!-- membership&#45;&gt;group -->
<g id="edge6" class="edge"><title>membership&#45;&gt;group</title>
<path fill="none" stroke="black" d="M59.0924,-183.009C67.0844,-193.086 78.3885,-205.343 91,-213 117.954,-229.366 152.787,-238.298 178.834,-243.032"/>
<polygon fill="black" stroke="black" points="178.258,-246.485 188.703,-244.704 179.427,-239.583 178.258,-246.485"/>
<text text-anchor="middle" x="115.5" y="-204.5" font-family="Times,serif" font-size="10.00">belongs_to </text>
</g>
<!-- membership&#45;&gt;user -->
<g id="edge5" class="edge"><title>membership&#45;&gt;user</title>
<path fill="none" stroke="black" d="M29.7622,-146.727C22.6744,-137.501 17.4818,-126.187 24,-117 38.1499,-97.056 64.5723,-88.3874 86.7044,-84.6618"/>
<polygon fill="black" stroke="black" points="87.4156,-88.0964 96.8311,-83.2386 86.4413,-81.1645 87.4156,-88.0964"/>
<text text-anchor="middle" x="48.5" y="-120.5" font-family="Times,serif" font-size="10.00">belongs_to </text>
</g>
<!-- tournament&#45;&gt;group -->
<g id="edge7" class="edge"><title>tournament&#45;&gt;group</title>
<path fill="none" stroke="black" d="M416.733,-183.309C408.598,-193.499 397.041,-205.769 384,-213 343.149,-235.65 289.324,-243.685 253.737,-246.51"/>
<polygon fill="black" stroke="black" points="253.048,-243.049 243.313,-247.23 253.531,-250.033 253.048,-243.049"/>
<text text-anchor="middle" x="424.5" y="-204.5" font-family="Times,serif" font-size="10.00">belongs_to </text>
</g>
<!-- tournament&#45;&gt;match -->
<g id="edge8" class="edge"><title>tournament&#45;&gt;match</title>
<path fill="none" stroke="black" d="M404.931,-146.702C399.694,-141.644 394.867,-135.66 392,-129 388.669,-121.265 391.159,-113.666 396.084,-106.909"/>
<polygon fill="black" stroke="black" points="398.733,-109.197 402.781,-99.4064 393.511,-104.536 398.733,-109.197"/>
<text text-anchor="middle" x="414" y="-120.5" font-family="Times,serif" font-size="10.00">has_many </text>
</g>
<!-- user&#45;&gt;group -->
<g id="edge10" class="edge"><title>user&#45;&gt;group</title>
<path fill="none" stroke="black" d="M151.192,-86.6568C182.674,-93.6617 233.125,-110.238 256,-147 270.954,-171.032 254.627,-201.598 238.557,-222.779"/>
<polygon fill="black" stroke="black" points="235.752,-220.682 232.244,-230.68 241.221,-225.052 235.752,-220.682"/>
<text text-anchor="middle" x="306" y="-168" font-family="Times,serif" font-size="10.00">has_many </text>
<text text-anchor="middle" x="306" y="-157" font-family="Times,serif" font-size="10.00">through memberships</text>
</g>
<!-- user&#45;&gt;membership -->
<g id="edge9" class="edge"><title>user&#45;&gt;membership</title>
<path fill="none" stroke="black" d="M107.958,-99.0838C97.0252,-110.726 82.3777,-126.325 70.1811,-139.314"/>
<polygon fill="black" stroke="black" points="67.6236,-136.924 63.3297,-146.61 72.7265,-141.716 67.6236,-136.924"/>
<text text-anchor="middle" x="113" y="-120.5" font-family="Times,serif" font-size="10.00">has_many </text>
</g>
</g>
</svg>
