<?xml version="1.0" encoding="UTF-8" standalone="no"?>
<!DOCTYPE svg PUBLIC "-//W3C//DTD SVG 1.1//EN"
 "http://www.w3.org/Graphics/SVG/1.1/DTD/svg11.dtd">
<!-- Generated by graphviz version 2.36.0 (20140111.2315)
 -->
<!-- Title: G Pages: 1 -->
<svg width="1632pt" height="986pt"
 viewBox="0.00 0.00 1632.00 986.00" xmlns="http://www.w3.org/2000/svg" xmlns:xlink="http://www.w3.org/1999/xlink">
<g id="graph0" class="graph" transform="scale(1 1) rotate(0) translate(4 982)">
<title>G</title>
<polygon fill="white" stroke="none" points="-4,4 -4,-982 1628,-982 1628,4 -4,4"/>
<text text-anchor="start" x="668" y="-29" font-family="Times,serif" font-size="14.00"> </text>
<text text-anchor="start" x="672" y="-29" font-family="Times,serif" font-size="80.00">citizenry</text>
<text text-anchor="start" x="952" y="-29" font-family="Times,serif" font-size="14.00"> </text>
<!-- authentication -->
<g id="node1" class="node"><title>authentication</title>
<ellipse fill="teal" stroke="black" cx="1038" cy="-952" rx="73.3085" ry="25.4118"/>
<text text-anchor="start" x="994" y="-955.8" font-family="Times,serif" font-weight="bold" font-size="14.00">authentication</text>
<text text-anchor="start" x="1078" y="-955.8" font-family="Times,serif" font-size="14.00"> </text>
<text text-anchor="start" x="1036" y="-941.8" font-family="Times,serif" font-size="14.00"> </text>
</g>
<!-- user -->
<g id="node13" class="node"><title>user</title>
<ellipse fill="teal" stroke="black" cx="1038" cy="-852" rx="31.233" ry="25.4118"/>
<text text-anchor="start" x="1023.5" y="-855.8" font-family="Times,serif" font-weight="bold" font-size="14.00">user</text>
<text text-anchor="start" x="1048.5" y="-855.8" font-family="Times,serif" font-size="14.00"> </text>
<text text-anchor="start" x="1036" y="-841.8" font-family="Times,serif" font-size="14.00"> </text>
</g>
<!-- authentication&#45;&gt;user -->
<g id="edge1" class="edge"><title>authentication&#45;&gt;user</title>
<path fill="none" stroke="black" d="M1011.89,-928.123C1004.29,-918.676 998.981,-907.304 1003,-896 1005.02,-890.306 1008.16,-884.819 1011.74,-879.779"/>
<polygon fill="black" stroke="black" points="1014.62,-881.781 1018.07,-871.763 1009.13,-877.443 1014.62,-881.781"/>
<text text-anchor="middle" x="1027.5" y="-899.5" font-family="Times,serif" font-size="10.00">belongs_to </text>
</g>
<!-- company -->
<g id="node2" class="node"><title>company</title>
<ellipse fill="teal" stroke="black" cx="772" cy="-642" rx="51.99" ry="25.4118"/>
<text text-anchor="start" x="743" y="-645.8" font-family="Times,serif" font-weight="bold" font-size="14.00">company</text>
<text text-anchor="start" x="797" y="-645.8" font-family="Times,serif" font-size="14.00"> </text>
<text text-anchor="start" x="770" y="-631.8" font-family="Times,serif" font-size="14.00"> </text>
</g>
<!-- company_project -->
<g id="node3" class="node"><title>company_project</title>
<ellipse fill="teal" stroke="black" cx="981" cy="-532" rx="85.9015" ry="25.4118"/>
<text text-anchor="start" x="928" y="-535.8" font-family="Times,serif" font-weight="bold" font-size="14.00">company_project</text>
<text text-anchor="start" x="1030" y="-535.8" font-family="Times,serif" font-size="14.00"> </text>
<text text-anchor="start" x="979" y="-521.8" font-family="Times,serif" font-size="14.00"> </text>
</g>
<!-- company&#45;&gt;company_project -->
<g id="edge2" class="edge"><title>company&#45;&gt;company_project</title>
<path fill="none" stroke="black" d="M808.132,-623.592C821.736,-616.402 837.039,-607.52 850,-598 861.401,-589.626 861.099,-583.646 873,-576 885.623,-567.89 900.023,-560.864 914.103,-554.977"/>
<polygon fill="black" stroke="black" points="915.804,-558.065 923.773,-551.083 913.19,-551.571 915.804,-558.065"/>
<text text-anchor="middle" x="895" y="-584.5" font-family="Times,serif" font-size="10.00">has_many </text>
</g>
<!-- employment -->
<g id="node4" class="node"><title>employment</title>
<ellipse fill="teal" stroke="black" cx="1151" cy="-532" rx="65.1436" ry="25.4118"/>
<text text-anchor="start" x="1112.5" y="-535.8" font-family="Times,serif" font-weight="bold" font-size="14.00">employment</text>
<text text-anchor="start" x="1185.5" y="-535.8" font-family="Times,serif" font-size="14.00"> </text>
<text text-anchor="start" x="1149" y="-521.8" font-family="Times,serif" font-size="14.00"> </text>
</g>
<!-- company&#45;&gt;employment -->
<g id="edge6" class="edge"><title>company&#45;&gt;employment</title>
<path fill="none" stroke="black" stroke-dasharray="5,2" d="M820.671,-632.603C849.976,-626.117 887.248,-615.262 917,-598 929.235,-590.901 927.247,-582.12 940,-576 994.971,-549.623 1016.59,-571.702 1076,-558 1082.14,-556.583 1088.5,-554.87 1094.79,-553.012"/>
<polygon fill="black" stroke="black" points="1096.06,-556.284 1104.58,-549.995 1094,-549.594 1096.06,-556.284"/>
<text text-anchor="middle" x="962" y="-584.5" font-family="Times,serif" font-size="10.00">has_many </text>
</g>
<!-- group -->
<g id="node5" class="node"><title>group</title>
<ellipse fill="teal" stroke="black" cx="658" cy="-222" rx="38.3379" ry="25.4118"/>
<text text-anchor="start" x="638.5" y="-225.8" font-family="Times,serif" font-weight="bold" font-size="14.00">group</text>
<text text-anchor="start" x="673.5" y="-225.8" font-family="Times,serif" font-size="14.00"> </text>
<text text-anchor="start" x="656" y="-211.8" font-family="Times,serif" font-size="14.00"> </text>
</g>
<!-- company&#45;&gt;group -->
<g id="edge5" class="edge"><title>company&#45;&gt;group</title>
<path fill="none" stroke="black" stroke-dasharray="5,2" d="M723.005,-633.033C697.552,-626.898 667.214,-616.249 645,-598 629.154,-584.983 629.062,-577.253 622,-558 592.182,-476.712 544.339,-440.177 589,-366 597.819,-351.352 612.269,-361.312 623,-348 643.727,-322.288 652.193,-285.051 655.643,-257.91"/>
<polygon fill="black" stroke="black" points="659.154,-258.009 656.769,-247.686 652.196,-257.243 659.154,-258.009"/>
<text text-anchor="middle" x="619" y="-425" font-family="Times,serif" font-size="10.00">has_many </text>
<text text-anchor="middle" x="619" y="-414" font-family="Times,serif" font-size="10.00">through sponsorships</text>
</g>
<!-- person -->
<g id="node8" class="node"><title>person</title>
<ellipse fill="teal" stroke="black" cx="1038" cy="-752" rx="42.1401" ry="25.4118"/>
<text text-anchor="start" x="1016" y="-755.8" font-family="Times,serif" font-weight="bold" font-size="14.00">person</text>
<text text-anchor="start" x="1056" y="-755.8" font-family="Times,serif" font-size="14.00"> </text>
<text text-anchor="start" x="1036" y="-741.8" font-family="Times,serif" font-size="14.00"> </text>
</g>
<!-- company&#45;&gt;person -->
<g id="edge7" class="edge"><title>company&#45;&gt;person</title>
<path fill="none" stroke="black" stroke-dasharray="5,2" d="M812.792,-657.898C834.601,-665.986 861.861,-676.292 886,-686 923.122,-700.93 964.89,-718.876 995.235,-732.125"/>
<polygon fill="black" stroke="black" points="994.101,-735.449 1004.67,-736.252 996.908,-729.036 994.101,-735.449"/>
<text text-anchor="middle" x="982" y="-700" font-family="Times,serif" font-size="10.00">has_many </text>
<text text-anchor="middle" x="982" y="-689" font-family="Times,serif" font-size="10.00">through employments</text>
</g>
<!-- project -->
<g id="node9" class="node"><title>project</title>
<ellipse fill="teal" stroke="black" cx="841" cy="-422" rx="43.263" ry="25.4118"/>
<text text-anchor="start" x="818" y="-425.8" font-family="Times,serif" font-weight="bold" font-size="14.00">project</text>
<text text-anchor="start" x="860" y="-425.8" font-family="Times,serif" font-size="14.00"> </text>
<text text-anchor="start" x="839" y="-411.8" font-family="Times,serif" font-size="14.00"> </text>
</g>
<!-- company&#45;&gt;project -->
<g id="edge3" class="edge"><title>company&#45;&gt;project</title>
<path fill="none" stroke="black" stroke-dasharray="5,2" d="M728.561,-627.662C696.401,-615.245 654.86,-593.253 635,-558 623.656,-537.864 622.067,-525.154 635,-506 668.942,-455.731 738.956,-435.901 787.893,-428.082"/>
<polygon fill="black" stroke="black" points="788.614,-431.514 797.995,-426.59 787.591,-424.589 788.614,-431.514"/>
<text text-anchor="middle" x="690" y="-535" font-family="Times,serif" font-size="10.00">has_many </text>
<text text-anchor="middle" x="690" y="-524" font-family="Times,serif" font-size="10.00">through company_projects</text>
</g>
<!-- sponsorship -->
<g id="node12" class="node"><title>sponsorship</title>
<ellipse fill="teal" stroke="black" cx="363" cy="-122" rx="63.459" ry="25.4118"/>
<text text-anchor="start" x="326" y="-125.8" font-family="Times,serif" font-weight="bold" font-size="14.00">sponsorship</text>
<text text-anchor="start" x="396" y="-125.8" font-family="Times,serif" font-size="14.00"> </text>
<text text-anchor="start" x="361" y="-111.8" font-family="Times,serif" font-size="14.00"> </text>
</g>
<!-- company&#45;&gt;sponsorship -->
<g id="edge4" class="edge"><title>company&#45;&gt;sponsorship</title>
<path fill="none" stroke="black" stroke-dasharray="5,2" d="M720.148,-639.221C547.056,-632.601 0,-605.911 0,-533 0,-533 0,-533 0,-221 0,-161.399 184.703,-136.962 290.604,-127.85"/>
<polygon fill="black" stroke="black" points="290.924,-131.335 300.598,-127.015 290.341,-124.359 290.924,-131.335"/>
<text text-anchor="middle" x="22" y="-369.5" font-family="Times,serif" font-size="10.00">has_many </text>
</g>
<!-- company_project&#45;&gt;company -->
<g id="edge9" class="edge"><title>company_project&#45;&gt;company</title>
<path fill="none" stroke="black" d="M917.33,-549.261C905.281,-552.241 892.767,-555.269 881,-558 843.808,-566.631 826.021,-551.189 797,-576 787.831,-583.839 782.012,-595.441 778.324,-606.682"/>
<polygon fill="black" stroke="black" points="774.939,-605.79 775.601,-616.364 781.677,-607.685 774.939,-605.79"/>
<text text-anchor="middle" x="821.5" y="-584.5" font-family="Times,serif" font-size="10.00">belongs_to </text>
</g>
<!-- company_project&#45;&gt;project -->
<g id="edge8" class="edge"><title>company_project&#45;&gt;project</title>
<path fill="none" stroke="black" d="M934.536,-510.325C922.431,-503.97 909.772,-496.405 899,-488 886.309,-478.097 874.145,-465.193 864.263,-453.494"/>
<polygon fill="black" stroke="black" points="866.862,-451.144 857.808,-445.64 861.453,-455.588 866.862,-451.144"/>
<text text-anchor="middle" x="923.5" y="-474.5" font-family="Times,serif" font-size="10.00">belongs_to </text>
</g>
<!-- employment&#45;&gt;company -->
<g id="edge11" class="edge"><title>employment&#45;&gt;company</title>
<path fill="none" stroke="black" d="M1103.14,-549.481C1094.15,-552.425 1084.82,-555.384 1076,-558 1045.62,-567.016 1034.67,-560.551 1007,-576 994.649,-582.895 996.536,-591.447 984,-598 937.221,-622.452 877.904,-633.016 833.917,-637.571"/>
<polygon fill="black" stroke="black" points="833.55,-634.09 823.931,-638.53 834.219,-641.058 833.55,-634.09"/>
<text text-anchor="middle" x="1031.5" y="-584.5" font-family="Times,serif" font-size="10.00">belongs_to </text>
</g>
<!-- employment&#45;&gt;person -->
<g id="edge10" class="edge"><title>employment&#45;&gt;person</title>
<path fill="none" stroke="black" d="M1122.6,-555.138C1104.91,-570.406 1083.1,-592.185 1070,-616 1052.76,-647.345 1044.75,-687.76 1041.07,-716.17"/>
<polygon fill="black" stroke="black" points="1037.55,-716.086 1039.86,-726.427 1044.5,-716.906 1037.55,-716.086"/>
<text text-anchor="middle" x="1094.5" y="-639.5" font-family="Times,serif" font-size="10.00">belongs_to </text>
</g>
<!-- group&#45;&gt;company -->
<g id="edge17" class="edge"><title>group&#45;&gt;company</title>
<path fill="none" stroke="black" stroke-dasharray="5,2" d="M619.151,-222.539C563.327,-224.109 460.997,-235.703 405,-296 365.357,-338.688 357.103,-514.631 396,-558 437.235,-603.975 614.814,-626.822 710.444,-635.976"/>
<polygon fill="black" stroke="black" points="710.278,-639.476 720.561,-636.923 710.93,-632.506 710.278,-639.476"/>
<text text-anchor="middle" x="418" y="-425" font-family="Times,serif" font-size="10.00">has_many </text>
<text text-anchor="middle" x="418" y="-414" font-family="Times,serif" font-size="10.00">through sponsorships</text>
</g>
<!-- group_membership -->
<g id="node6" class="node"><title>group_membership</title>
<ellipse fill="teal" stroke="black" cx="1295" cy="-122" rx="95.1892" ry="25.4118"/>
<text text-anchor="start" x="1235.5" y="-125.8" font-family="Times,serif" font-weight="bold" font-size="14.00">group_membership</text>
<text text-anchor="start" x="1350.5" y="-125.8" font-family="Times,serif" font-size="14.00"> </text>
<text text-anchor="start" x="1293" y="-111.8" font-family="Times,serif" font-size="14.00"> </text>
</g>
<!-- group&#45;&gt;group_membership -->
<g id="edge14" class="edge"><title>group&#45;&gt;group_membership</title>
<path fill="none" stroke="black" stroke-dasharray="5,2" d="M695.469,-215.236C793.915,-200.09 1062.05,-158.839 1204.01,-136.998"/>
<polygon fill="black" stroke="black" points="1204.66,-140.44 1214.01,-135.46 1203.6,-133.521 1204.66,-140.44"/>
<text text-anchor="middle" x="1037" y="-169.5" font-family="Times,serif" font-size="10.00">has_many </text>
</g>
<!-- group_project -->
<g id="node7" class="node"><title>group_project</title>
<ellipse fill="teal" stroke="black" cx="747" cy="-322" rx="72.2493" ry="25.4118"/>
<text text-anchor="start" x="703.5" y="-325.8" font-family="Times,serif" font-weight="bold" font-size="14.00">group_project</text>
<text text-anchor="start" x="786.5" y="-325.8" font-family="Times,serif" font-size="14.00"> </text>
<text text-anchor="start" x="745" y="-311.8" font-family="Times,serif" font-size="14.00"> </text>
</g>
<!-- group&#45;&gt;group_project -->
<g id="edge12" class="edge"><title>group&#45;&gt;group_project</title>
<path fill="none" stroke="black" d="M688.732,-237.373C701.336,-244.516 715.23,-254.171 725,-266 729.998,-272.051 733.971,-279.382 737.086,-286.692"/>
<polygon fill="black" stroke="black" points="733.997,-288.417 740.818,-296.525 740.542,-285.933 733.997,-288.417"/>
<text text-anchor="middle" x="755" y="-269.5" font-family="Times,serif" font-size="10.00">has_many </text>
</g>
<!-- group&#45;&gt;person -->
<g id="edge15" class="edge"><title>group&#45;&gt;person</title>
<path fill="none" stroke="black" stroke-dasharray="5,2" d="M619.346,-223.081C508.928,-224.345 200,-235.519 200,-321 200,-643 200,-643 200,-643 200,-722.592 802.325,-744.855 985.673,-749.787"/>
<polygon fill="black" stroke="black" points="985.781,-753.291 995.869,-750.055 985.965,-746.294 985.781,-753.291"/>
<text text-anchor="middle" x="259" y="-480" font-family="Times,serif" font-size="10.00">has_many </text>
<text text-anchor="middle" x="259" y="-469" font-family="Times,serif" font-size="10.00">through group_memberships</text>
</g>
<!-- group&#45;&gt;project -->
<g id="edge13" class="edge"><title>group&#45;&gt;project</title>
<path fill="none" stroke="black" stroke-dasharray="5,2" d="M696.084,-225.541C773.847,-231.643 946.32,-250.162 979,-296 992.416,-314.818 990.924,-328.203 979,-348 959.946,-379.635 922.082,-398.275 890.828,-408.791"/>
<polygon fill="black" stroke="black" points="889.419,-405.566 880.945,-411.926 891.536,-412.238 889.419,-405.566"/>
<text text-anchor="middle" x="1037.5" y="-325" font-family="Times,serif" font-size="10.00">has_many </text>
<text text-anchor="middle" x="1037.5" y="-314" font-family="Times,serif" font-size="10.00">through group_projects</text>
</g>
<!-- group&#45;&gt;sponsorship -->
<g id="edge16" class="edge"><title>group&#45;&gt;sponsorship</title>
<path fill="none" stroke="black" stroke-dasharray="5,2" d="M622.4,-211.916C591.417,-203.776 545.42,-191.126 506,-178 475.769,-167.934 442.519,-155.245 415.695,-144.593"/>
<polygon fill="black" stroke="black" points="416.705,-141.228 406.12,-140.769 414.109,-147.729 416.705,-141.228"/>
<text text-anchor="middle" x="528" y="-169.5" font-family="Times,serif" font-size="10.00">has_many </text>
</g>
<!-- group_membership&#45;&gt;group -->
<g id="edge18" class="edge"><title>group_membership&#45;&gt;group</title>
<path fill="none" stroke="black" d="M1229.95,-140.76C1183.7,-152.814 1119.92,-168.272 1063,-178 935.193,-199.843 782.68,-212.457 706.432,-217.855"/>
<polygon fill="black" stroke="black" points="705.923,-214.382 696.19,-218.57 706.41,-221.365 705.923,-214.382"/>
<text text-anchor="middle" x="1145.5" y="-169.5" font-family="Times,serif" font-size="10.00">belongs_to </text>
</g>
<!-- group_membership&#45;&gt;person -->
<g id="edge19" class="edge"><title>group_membership&#45;&gt;person</title>
<path fill="none" stroke="black" d="M1384.31,-130.913C1423.95,-136.917 1470.29,-147.468 1509,-166 1543.44,-182.489 1575,-182.817 1575,-221 1575,-643 1575,-643 1575,-643 1575,-684.171 1546.35,-690.673 1509,-708 1435.83,-741.946 1197.58,-749.114 1090.71,-750.613"/>
<polygon fill="black" stroke="black" points="1090.44,-747.116 1080.48,-750.744 1090.53,-754.115 1090.44,-747.116"/>
<text text-anchor="middle" x="1599.5" y="-419.5" font-family="Times,serif" font-size="10.00">belongs_to </text>
</g>
<!-- group_project&#45;&gt;group -->
<g id="edge21" class="edge"><title>group_project&#45;&gt;group</title>
<path fill="none" stroke="black" d="M700.865,-302.219C690.07,-295.927 679.536,-287.919 672,-278 667.451,-272.013 664.37,-264.708 662.286,-257.403"/>
<polygon fill="black" stroke="black" points="665.675,-256.523 660.018,-247.565 658.854,-258.096 665.675,-256.523"/>
<text text-anchor="middle" x="696.5" y="-269.5" font-family="Times,serif" font-size="10.00">belongs_to </text>
</g>
<!-- group_project&#45;&gt;project -->
<g id="edge20" class="edge"><title>group_project&#45;&gt;project</title>
<path fill="none" stroke="black" d="M742.025,-347.401C741.252,-357.602 742.209,-369.121 748,-378 757.829,-393.07 774.41,-402.945 790.872,-409.376"/>
<polygon fill="black" stroke="black" points="789.904,-412.746 800.499,-412.778 792.237,-406.146 789.904,-412.746"/>
<text text-anchor="middle" x="772.5" y="-369.5" font-family="Times,serif" font-size="10.00">belongs_to </text>
</g>
<!-- person&#45;&gt;company -->
<g id="edge28" class="edge"><title>person&#45;&gt;company</title>
<path fill="none" stroke="black" stroke-dasharray="5,2" d="M995.892,-748.856C933.752,-744.849 821.633,-734.13 792,-708 783.254,-700.287 778.279,-688.851 775.468,-677.712"/>
<polygon fill="black" stroke="black" points="778.853,-676.794 773.448,-667.682 771.991,-678.176 778.853,-676.794"/>
<text text-anchor="middle" x="837" y="-700" font-family="Times,serif" font-size="10.00">has_many </text>
<text text-anchor="middle" x="837" y="-689" font-family="Times,serif" font-size="10.00">through employments</text>
</g>
<!-- person&#45;&gt;employment -->
<g id="edge27" class="edge"><title>person&#45;&gt;employment</title>
<path fill="none" stroke="black" stroke-dasharray="5,2" d="M1063.3,-731.507C1081.47,-716.168 1105.12,-693.226 1119,-668 1136.24,-636.655 1144.25,-596.24 1147.93,-567.83"/>
<polygon fill="black" stroke="black" points="1151.45,-567.914 1149.14,-557.573 1144.5,-567.094 1151.45,-567.914"/>
<text text-anchor="middle" x="1161" y="-639.5" font-family="Times,serif" font-size="10.00">has_many </text>
</g>
<!-- person&#45;&gt;group -->
<g id="edge26" class="edge"><title>person&#45;&gt;group</title>
<path fill="none" stroke="black" stroke-dasharray="5,2" d="M995.619,-750.846C807.711,-749.615 59,-738.705 59,-643 59,-643 59,-643 59,-321 59,-265.358 466.75,-234.821 609.416,-225.84"/>
<polygon fill="black" stroke="black" points="609.855,-229.319 619.619,-225.206 609.421,-222.333 609.855,-229.319"/>
<text text-anchor="middle" x="118" y="-480" font-family="Times,serif" font-size="10.00">has_many </text>
<text text-anchor="middle" x="118" y="-469" font-family="Times,serif" font-size="10.00">through group_memberships</text>
</g>
<!-- person&#45;&gt;group_membership -->
<g id="edge25" class="edge"><title>person&#45;&gt;group_membership</title>
<path fill="none" stroke="black" stroke-dasharray="5,2" d="M1080.17,-749.976C1193.31,-746.092 1495,-727.787 1495,-643 1495,-643 1495,-643 1495,-221 1495,-170.689 1443.33,-146.204 1392.52,-134.289"/>
<polygon fill="black" stroke="black" points="1393.24,-130.864 1382.72,-132.139 1391.74,-137.701 1393.24,-130.864"/>
<text text-anchor="middle" x="1517" y="-419.5" font-family="Times,serif" font-size="10.00">has_many </text>
</g>
<!-- person&#45;&gt;project -->
<g id="edge24" class="edge"><title>person&#45;&gt;project</title>
<path fill="none" stroke="black" stroke-dasharray="5,2" d="M1074.92,-739.54C1108.83,-727.164 1158.08,-704.207 1187,-668 1213.6,-634.705 1196.74,-614.962 1214,-576 1217.8,-567.428 1222.46,-567.025 1225,-558 1231.26,-535.753 1239.51,-523.986 1225,-506 1183.98,-455.17 989.414,-433.94 894.003,-426.47"/>
<polygon fill="black" stroke="black" points="894.218,-422.976 883.981,-425.708 893.687,-429.956 894.218,-422.976"/>
<text text-anchor="middle" x="1275" y="-590" font-family="Times,serif" font-size="10.00">has_many </text>
<text text-anchor="middle" x="1275" y="-579" font-family="Times,serif" font-size="10.00">through project_memberships</text>
</g>
<!-- project_membership -->
<g id="node10" class="node"><title>project_membership</title>
<ellipse fill="teal" stroke="black" cx="514" cy="-322" rx="100.114" ry="25.4118"/>
<text text-anchor="start" x="451" y="-325.8" font-family="Times,serif" font-weight="bold" font-size="14.00">project_membership</text>
<text text-anchor="start" x="573" y="-325.8" font-family="Times,serif" font-size="14.00"> </text>
<text text-anchor="start" x="512" y="-311.8" font-family="Times,serif" font-size="14.00"> </text>
</g>
<!-- person&#45;&gt;project_membership -->
<g id="edge23" class="edge"><title>person&#45;&gt;project_membership</title>
<path fill="none" stroke="black" d="M995.528,-750.347C872.857,-748.099 524.19,-739.017 484,-708 410.61,-651.361 407.71,-595.466 432,-506 439.829,-477.163 453.045,-474.926 466,-448 480.414,-418.041 493.703,-382.544 502.627,-357.046"/>
<polygon fill="black" stroke="black" points="505.982,-358.052 505.942,-347.457 499.366,-355.765 505.982,-358.052"/>
<text text-anchor="middle" x="454" y="-529.5" font-family="Times,serif" font-size="10.00">has_many </text>
</g>
<!-- person&#45;&gt;user -->
<g id="edge22" class="edge"><title>person&#45;&gt;user</title>
<path fill="none" stroke="black" d="M1043.35,-777.45C1044.45,-783.483 1045.44,-789.951 1046,-796 1046.62,-802.684 1046.31,-809.796 1045.53,-816.611"/>
<polygon fill="black" stroke="black" points="1042,-816.564 1043.99,-826.97 1048.92,-817.594 1042,-816.564"/>
<text text-anchor="middle" x="1071.5" y="-799.5" font-family="Times,serif" font-size="10.00">belongs_to </text>
</g>
<!-- project&#45;&gt;company -->
<g id="edge32" class="edge"><title>project&#45;&gt;company</title>
<path fill="none" stroke="black" stroke-dasharray="5,2" d="M818.424,-443.839C803.337,-459.34 784.714,-481.904 776,-506 764.263,-538.457 764.7,-578.221 767.193,-606.159"/>
<polygon fill="black" stroke="black" points="763.725,-606.657 768.227,-616.248 770.689,-605.943 763.725,-606.657"/>
<text text-anchor="middle" x="831" y="-535" font-family="Times,serif" font-size="10.00">has_many </text>
<text text-anchor="middle" x="831" y="-524" font-family="Times,serif" font-size="10.00">through company_projects</text>
</g>
<!-- project&#45;&gt;company_project -->
<g id="edge31" class="edge"><title>project&#45;&gt;company_project</title>
<path fill="none" stroke="black" stroke-dasharray="5,2" d="M881.363,-431.823C903.187,-438.279 929.398,-448.962 948,-466 957.167,-474.397 964.158,-485.919 969.293,-496.933"/>
<polygon fill="black" stroke="black" points="966.186,-498.57 973.335,-506.389 972.622,-495.818 966.186,-498.57"/>
<text text-anchor="middle" x="987" y="-474.5" font-family="Times,serif" font-size="10.00">has_many </text>
</g>
<!-- project&#45;&gt;group -->
<g id="edge34" class="edge"><title>project&#45;&gt;group</title>
<path fill="none" stroke="black" stroke-dasharray="5,2" d="M851.023,-396.816C853.082,-390.774 854.943,-384.236 856,-378 862.433,-340.03 852.561,-325.662 828,-296 797.16,-258.755 743.801,-240.07 705.075,-230.996"/>
<polygon fill="black" stroke="black" points="705.589,-227.526 695.069,-228.788 704.08,-234.361 705.589,-227.526"/>
<text text-anchor="middle" x="906.5" y="-325" font-family="Times,serif" font-size="10.00">has_many </text>
<text text-anchor="middle" x="906.5" y="-314" font-family="Times,serif" font-size="10.00">through group_projects</text>
</g>
<!-- project&#45;&gt;group_project -->
<g id="edge33" class="edge"><title>project&#45;&gt;group_project</title>
<path fill="none" stroke="black" stroke-dasharray="5,2" d="M824.34,-398.265C816.465,-388.034 806.681,-376.031 797,-366 792.565,-361.405 787.689,-356.77 782.774,-352.332"/>
<polygon fill="black" stroke="black" points="784.895,-349.536 775.078,-345.553 780.269,-354.789 784.895,-349.536"/>
<text text-anchor="middle" x="830" y="-369.5" font-family="Times,serif" font-size="10.00">has_many </text>
</g>
<!-- project&#45;&gt;person -->
<g id="edge30" class="edge"><title>project&#45;&gt;person</title>
<path fill="none" stroke="black" stroke-dasharray="5,2" d="M884.066,-425.56C964.711,-430.803 1135.29,-444.145 1190,-466 1265.45,-496.141 1299.92,-503.207 1336,-576 1388.05,-681.005 1187.16,-727.654 1089.04,-743.866"/>
<polygon fill="black" stroke="black" points="1088.34,-740.433 1079.02,-745.474 1089.45,-747.345 1088.34,-740.433"/>
<text text-anchor="middle" x="1405" y="-590" font-family="Times,serif" font-size="10.00">has_many </text>
<text text-anchor="middle" x="1405" y="-579" font-family="Times,serif" font-size="10.00">through project_memberships</text>
</g>
<!-- project&#45;&gt;project_membership -->
<g id="edge29" class="edge"><title>project&#45;&gt;project_membership</title>
<path fill="none" stroke="black" d="M802.783,-409.866C773.514,-401.29 732.154,-389.068 696,-378 679.065,-372.815 674.93,-371.201 658,-366 634.977,-358.928 609.833,-351.365 587.093,-344.584"/>
<polygon fill="black" stroke="black" points="588.09,-341.229 577.507,-341.73 586.092,-347.938 588.09,-341.229"/>
<text text-anchor="middle" x="718" y="-369.5" font-family="Times,serif" font-size="10.00">has_many </text>
</g>
<!-- project_membership&#45;&gt;person -->
<g id="edge36" class="edge"><title>project_membership&#45;&gt;person</title>
<path fill="none" stroke="black" d="M514.942,-347.597C517.367,-400.529 525.234,-523.263 547,-558 642.426,-710.291 880.02,-742.512 985.787,-749.256"/>
<polygon fill="black" stroke="black" points="985.717,-752.758 995.904,-749.848 986.126,-745.769 985.717,-752.758"/>
<text text-anchor="middle" x="571.5" y="-529.5" font-family="Times,serif" font-size="10.00">belongs_to </text>
</g>
<!-- project_membership&#45;&gt;project -->
<g id="edge35" class="edge"><title>project_membership&#45;&gt;project</title>
<path fill="none" stroke="black" d="M545.801,-346.155C562.638,-357.371 584.111,-370.091 605,-378 637.793,-390.416 729.554,-405.103 788.52,-413.701"/>
<polygon fill="black" stroke="black" points="788.368,-417.215 798.766,-415.182 789.37,-410.287 788.368,-417.215"/>
<text text-anchor="middle" x="629.5" y="-369.5" font-family="Times,serif" font-size="10.00">belongs_to </text>
</g>
<!-- resource_link -->
<g id="node11" class="node"><title>resource_link</title>
<ellipse fill="teal" stroke="black" cx="1200" cy="-952" rx="70.0054" ry="25.4118"/>
<text text-anchor="start" x="1158.5" y="-955.8" font-family="Times,serif" font-weight="bold" font-size="14.00">resource_link</text>
<text text-anchor="start" x="1237.5" y="-955.8" font-family="Times,serif" font-size="14.00"> </text>
<text text-anchor="start" x="1198" y="-941.8" font-family="Times,serif" font-size="14.00"> </text>
</g>
<!-- sponsorship&#45;&gt;company -->
<g id="edge37" class="edge"><title>sponsorship&#45;&gt;company</title>
<path fill="none" stroke="black" d="M346.796,-146.818C335.336,-165.985 322,-194.073 322,-221 322,-373 322,-373 322,-373 322,-481.897 319.266,-554.277 419,-598 469.786,-620.264 623.114,-632.456 710.067,-637.748"/>
<polygon fill="black" stroke="black" points="709.883,-641.243 720.073,-638.344 710.299,-634.255 709.883,-641.243"/>
<text text-anchor="middle" x="346.5" y="-369.5" font-family="Times,serif" font-size="10.00">belongs_to </text>
</g>
<!-- sponsorship&#45;&gt;group -->
<g id="edge38" class="edge"><title>sponsorship&#45;&gt;group</title>
<path fill="none" stroke="black" d="M420.927,-132.524C458.408,-139.606 507.888,-150.699 550,-166 574.524,-174.911 600.631,-188.095 621.033,-199.32"/>
<polygon fill="black" stroke="black" points="619.542,-202.497 629.979,-204.318 622.956,-196.386 619.542,-202.497"/>
<text text-anchor="middle" x="602.5" y="-169.5" font-family="Times,serif" font-size="10.00">belongs_to </text>
</g>
<!-- user&#45;&gt;authentication -->
<g id="edge40" class="edge"><title>user&#45;&gt;authentication</title>
<path fill="none" stroke="black" d="M1048.21,-876.086C1051.4,-885.847 1053.68,-897.393 1052,-908 1051.55,-910.835 1050.94,-913.737 1050.23,-916.63"/>
<polygon fill="black" stroke="black" points="1046.85,-915.74 1047.5,-926.315 1053.58,-917.641 1046.85,-915.74"/>
<text text-anchor="middle" x="1075" y="-899.5" font-family="Times,serif" font-size="10.00">has_many </text>
</g>
<!-- user&#45;&gt;person -->
<g id="edge39" class="edge"><title>user&#45;&gt;person</title>
<path fill="none" stroke="black" d="M1017.19,-832.64C1008.16,-822.388 1000.56,-809.075 1005,-796 1006.54,-791.45 1008.79,-787.004 1011.38,-782.802"/>
<polygon fill="black" stroke="black" points="1014.28,-784.773 1017.11,-774.564 1008.53,-780.777 1014.28,-784.773"/>
<text text-anchor="middle" x="1023.5" y="-799.5" font-family="Times,serif" font-size="10.00">has_one </text>
</g>
</g>
</svg>
