<?xml version="1.0" encoding="UTF-8" standalone="no"?>
<!DOCTYPE svg PUBLIC "-//W3C//DTD SVG 1.1//EN"
 "http://www.w3.org/Graphics/SVG/1.1/DTD/svg11.dtd">
<!-- Generated by graphviz version 2.36.0 (20140111.2315)
 -->
<!-- Title: G Pages: 1 -->
<svg width="451pt" height="556pt"
 viewBox="0.00 0.00 451.00 556.00" xmlns="http://www.w3.org/2000/svg" xmlns:xlink="http://www.w3.org/1999/xlink">
<g id="graph0" class="graph" transform="scale(1 1) rotate(0) translate(4 552)">
<title>G</title>
<polygon fill="white" stroke="none" points="-4,4 -4,-552 447.005,-552 447.005,4 -4,4"/>
<text text-anchor="start" x="90.5023" y="-29" font-family="Times,serif" font-size="14.00"> </text>
<text text-anchor="start" x="94.5023" y="-29" font-family="Times,serif" font-size="80.00">fulcrum</text>
<text text-anchor="start" x="348.502" y="-29" font-family="Times,serif" font-size="14.00"> </text>
<!-- changeset -->
<g id="node1" class="node"><title>changeset</title>
<ellipse fill="teal" stroke="black" cx="277.005" cy="-522" rx="54.1711" ry="25.4118"/>
<text text-anchor="start" x="246.505" y="-525.8" font-family="Times,serif" font-weight="bold" font-size="14.00">changeset</text>
<text text-anchor="start" x="303.505" y="-525.8" font-family="Times,serif" font-size="14.00"> </text>
<text text-anchor="start" x="275.005" y="-511.8" font-family="Times,serif" font-size="14.00"> </text>
</g>
<!-- project -->
<g id="node3" class="node"><title>project</title>
<ellipse fill="teal" stroke="black" cx="176.005" cy="-422" rx="43.263" ry="25.4118"/>
<text text-anchor="start" x="153.005" y="-425.8" font-family="Times,serif" font-weight="bold" font-size="14.00">project</text>
<text text-anchor="start" x="195.005" y="-425.8" font-family="Times,serif" font-size="14.00"> </text>
<text text-anchor="start" x="174.005" y="-411.8" font-family="Times,serif" font-size="14.00"> </text>
</g>
<!-- changeset&#45;&gt;project -->
<g id="edge1" class="edge"><title>changeset&#45;&gt;project</title>
<path fill="none" stroke="black" d="M227.314,-511.663C208.323,-505.434 188.49,-495.1 177.005,-478 173.033,-472.087 171.291,-464.952 170.816,-457.808"/>
<polygon fill="black" stroke="black" points="174.319,-457.51 170.915,-447.477 167.319,-457.443 174.319,-457.51"/>
<text text-anchor="middle" x="201.505" y="-469.5" font-family="Times,serif" font-size="10.00">belongs_to </text>
</g>
<!-- story -->
<g id="node4" class="node"><title>story</title>
<ellipse fill="teal" stroke="black" cx="307.005" cy="-322" rx="35.0343" ry="25.4118"/>
<text text-anchor="start" x="290.005" y="-325.8" font-family="Times,serif" font-weight="bold" font-size="14.00">story</text>
<text text-anchor="start" x="320.005" y="-325.8" font-family="Times,serif" font-size="14.00"> </text>
<text text-anchor="start" x="305.005" y="-311.8" font-family="Times,serif" font-size="14.00"> </text>
</g>
<!-- changeset&#45;&gt;story -->
<g id="edge2" class="edge"><title>changeset&#45;&gt;story</title>
<path fill="none" stroke="black" d="M282.449,-496.5C283.702,-490.467 284.969,-484.013 286.005,-478 293.104,-436.765 299.265,-389.016 303.045,-357.533"/>
<polygon fill="black" stroke="black" points="306.531,-357.855 304.234,-347.513 299.58,-357.031 306.531,-357.855"/>
<text text-anchor="middle" x="323.505" y="-419.5" font-family="Times,serif" font-size="10.00">belongs_to </text>
</g>
<!-- note -->
<g id="node2" class="node"><title>note</title>
<ellipse fill="teal" stroke="black" cx="406.005" cy="-222" rx="31.233" ry="25.4118"/>
<text text-anchor="start" x="391.505" y="-225.8" font-family="Times,serif" font-weight="bold" font-size="14.00">note</text>
<text text-anchor="start" x="416.505" y="-225.8" font-family="Times,serif" font-size="14.00"> </text>
<text text-anchor="start" x="404.005" y="-211.8" font-family="Times,serif" font-size="14.00"> </text>
</g>
<!-- note&#45;&gt;story -->
<g id="edge4" class="edge"><title>note&#45;&gt;story</title>
<path fill="none" stroke="black" d="M400.762,-247.154C397.564,-257.548 392.584,-269.285 385.005,-278 374.863,-289.66 360.753,-298.77 347.318,-305.543"/>
<polygon fill="black" stroke="black" points="345.727,-302.424 338.182,-309.861 348.718,-308.752 345.727,-302.424"/>
<text text-anchor="middle" x="418.505" y="-269.5" font-family="Times,serif" font-size="10.00">belongs_to </text>
</g>
<!-- user -->
<g id="node5" class="node"><title>user</title>
<ellipse fill="teal" stroke="black" cx="222.005" cy="-122" rx="31.233" ry="25.4118"/>
<text text-anchor="start" x="207.505" y="-125.8" font-family="Times,serif" font-weight="bold" font-size="14.00">user</text>
<text text-anchor="start" x="232.505" y="-125.8" font-family="Times,serif" font-size="14.00"> </text>
<text text-anchor="start" x="220.005" y="-111.8" font-family="Times,serif" font-size="14.00"> </text>
</g>
<!-- note&#45;&gt;user -->
<g id="edge3" class="edge"><title>note&#45;&gt;user</title>
<path fill="none" stroke="black" d="M382.823,-204.516C366.081,-192.984 342.693,-177.625 321.005,-166 301.315,-155.446 278.493,-145.397 259.727,-137.67"/>
<polygon fill="black" stroke="black" points="260.904,-134.371 250.321,-133.851 258.27,-140.856 260.904,-134.371"/>
<text text-anchor="middle" x="365.505" y="-169.5" font-family="Times,serif" font-size="10.00">belongs_to </text>
</g>
<!-- project&#45;&gt;changeset -->
<g id="edge7" class="edge"><title>project&#45;&gt;changeset</title>
<path fill="none" stroke="black" d="M200.653,-443.241C208.891,-450.256 218.006,-458.295 226.005,-466 234.036,-473.736 242.4,-482.451 249.977,-490.624"/>
<polygon fill="black" stroke="black" points="247.625,-493.238 256.963,-498.244 252.785,-488.508 247.625,-493.238"/>
<text text-anchor="middle" x="260.005" y="-469.5" font-family="Times,serif" font-size="10.00">has_many </text>
</g>
<!-- project&#45;&gt;story -->
<g id="edge6" class="edge"><title>project&#45;&gt;story</title>
<path fill="none" stroke="black" d="M170.577,-396.546C169.678,-386.217 170.662,-374.613 177.005,-366 196.424,-339.631 232.587,-329.19 261.851,-325.17"/>
<polygon fill="black" stroke="black" points="262.349,-328.636 271.876,-324 261.537,-321.683 262.349,-328.636"/>
<text text-anchor="middle" x="199.005" y="-369.5" font-family="Times,serif" font-size="10.00">has_many </text>
</g>
<!-- project&#45;&gt;user -->
<g id="edge5" class="edge"><title>project&#45;&gt;user</title>
<path fill="none" stroke="black" d="M139.092,-408.171C79.9814,-385.338 -26.1697,-333.624 6.00451,-266 40.2213,-194.083 130.458,-153.235 182.839,-134.886"/>
<polygon fill="black" stroke="black" points="184.125,-138.145 192.469,-131.616 181.875,-131.517 184.125,-138.145"/>
<text text-anchor="middle" x="63.5045" y="-269.5" font-family="Times,serif" font-size="10.00">has_and_belongs_to_many </text>
</g>
<!-- story&#45;&gt;changeset -->
<g id="edge11" class="edge"><title>story&#45;&gt;changeset</title>
<path fill="none" stroke="black" d="M324.643,-344.502C342.985,-369.624 367.075,-412.302 352.005,-448 344.313,-466.22 329.604,-482.143 315.235,-494.429"/>
<polygon fill="black" stroke="black" points="312.873,-491.839 307.334,-500.871 317.296,-497.264 312.873,-491.839"/>
<text text-anchor="middle" x="379.005" y="-419.5" font-family="Times,serif" font-size="10.00">has_many </text>
</g>
<!-- story&#45;&gt;note -->
<g id="edge12" class="edge"><title>story&#45;&gt;note</title>
<path fill="none" stroke="black" d="M316.601,-297.33C321.615,-286.911 328.494,-275.018 337.005,-266 342.62,-260.049 357.301,-250.669 371.685,-242.186"/>
<polygon fill="black" stroke="black" points="373.627,-245.106 380.519,-237.059 370.113,-239.052 373.627,-245.106"/>
<text text-anchor="middle" x="359.005" y="-269.5" font-family="Times,serif" font-size="10.00">has_many </text>
</g>
<!-- story&#45;&gt;project -->
<g id="edge8" class="edge"><title>story&#45;&gt;project</title>
<path fill="none" stroke="black" d="M281.538,-339.697C269.936,-347.478 256.118,-356.991 244.005,-366 232.044,-374.896 219.257,-385.057 208.036,-394.205"/>
<polygon fill="black" stroke="black" points="205.686,-391.606 200.176,-400.655 210.127,-397.017 205.686,-391.606"/>
<text text-anchor="middle" x="268.505" y="-369.5" font-family="Times,serif" font-size="10.00">belongs_to </text>
</g>
<!-- story&#45;&gt;user -->
<g id="edge9" class="edge"><title>story&#45;&gt;user</title>
<path fill="none" stroke="black" d="M289.882,-299.519C281.092,-288.989 269.95,-276.375 259.005,-266 249.584,-257.07 242.332,-259.334 236.005,-248 220.662,-220.516 218.158,-184.354 218.9,-157.999"/>
<polygon fill="black" stroke="black" points="222.409,-157.86 219.366,-147.712 215.417,-157.544 222.409,-157.86"/>
<text text-anchor="middle" x="260.505" y="-219.5" font-family="Times,serif" font-size="10.00">belongs_to </text>
</g>
<!-- story&#45;&gt;user -->
<g id="edge10" class="edge"><title>story&#45;&gt;user</title>
<path fill="none" stroke="black" d="M306.501,-296.343C305.112,-270.252 300.404,-228.448 285.005,-196 276.605,-178.3 262.718,-161.527 250.118,-148.533"/>
<polygon fill="black" stroke="black" points="252.453,-145.919 242.898,-141.34 247.512,-150.878 252.453,-145.919"/>
<text text-anchor="middle" x="325.505" y="-219.5" font-family="Times,serif" font-size="10.00">belongs_to </text>
</g>
<!-- user&#45;&gt;project -->
<g id="edge13" class="edge"><title>user&#45;&gt;project</title>
<path fill="none" stroke="black" d="M205.405,-143.721C185.335,-170.233 152.674,-218.435 140.005,-266 128.824,-307.974 144.958,-356.859 159.071,-388.332"/>
<polygon fill="black" stroke="black" points="155.955,-389.93 163.354,-397.513 162.299,-386.971 155.955,-389.93"/>
<text text-anchor="middle" x="197.505" y="-269.5" font-family="Times,serif" font-size="10.00">has_and_belongs_to_many </text>
</g>
</g>
</svg>
