<?xml version="1.0" encoding="UTF-8" standalone="no"?>
<!DOCTYPE svg PUBLIC "-//W3C//DTD SVG 1.1//EN"
 "http://www.w3.org/Graphics/SVG/1.1/DTD/svg11.dtd">
<!-- Generated by graphviz version 2.36.0 (20140111.2315)
 -->
<!-- Title: G Pages: 1 -->
<svg width="1615pt" height="986pt"
 viewBox="0.00 0.00 1615.00 986.00" xmlns="http://www.w3.org/2000/svg" xmlns:xlink="http://www.w3.org/1999/xlink">
<g id="graph0" class="graph" transform="scale(1 1) rotate(0) translate(4 982)">
<title>G</title>
<polygon fill="white" stroke="none" points="-4,4 -4,-982 1611,-982 1611,4 -4,4"/>
<text text-anchor="start" x="659.5" y="-29" font-family="Times,serif" font-size="14.00"> </text>
<text text-anchor="start" x="663.5" y="-29" font-family="Times,serif" font-size="80.00">citizenry</text>
<text text-anchor="start" x="943.5" y="-29" font-family="Times,serif" font-size="14.00"> </text>
<!-- authentication -->
<g id="node1" class="node"><title>authentication</title>
<ellipse fill="teal" stroke="black" cx="1040" cy="-952" rx="73.3085" ry="25.4118"/>
<text text-anchor="start" x="996" y="-955.8" font-family="Times,serif" font-weight="bold" font-size="14.00">authentication</text>
<text text-anchor="start" x="1080" y="-955.8" font-family="Times,serif" font-size="14.00"> </text>
<text text-anchor="start" x="1038" y="-941.8" font-family="Times,serif" font-size="14.00"> </text>
</g>
<!-- user -->
<g id="node13" class="node"><title>user</title>
<ellipse fill="teal" stroke="black" cx="1040" cy="-852" rx="31.233" ry="25.4118"/>
<text text-anchor="start" x="1025.5" y="-855.8" font-family="Times,serif" font-weight="bold" font-size="14.00">user</text>
<text text-anchor="start" x="1050.5" y="-855.8" font-family="Times,serif" font-size="14.00"> </text>
<text text-anchor="start" x="1038" y="-841.8" font-family="Times,serif" font-size="14.00"> </text>
</g>
<!-- authentication&#45;&gt;user -->
<g id="edge1" class="edge"><title>authentication&#45;&gt;user</title>
<path fill="none" stroke="black" d="M1040,-926.523C1040,-914.83 1040,-900.627 1040,-887.833"/>
<polygon fill="black" stroke="black" points="1043.5,-887.504 1040,-877.504 1036.5,-887.504 1043.5,-887.504"/>
<text text-anchor="middle" x="1064.5" y="-899.5" font-family="Times,serif" font-size="10.00">belongs_to </text>
</g>
<!-- company -->
<g id="node2" class="node"><title>company</title>
<ellipse fill="teal" stroke="black" cx="784" cy="-642" rx="51.99" ry="25.4118"/>
<text text-anchor="start" x="755" y="-645.8" font-family="Times,serif" font-weight="bold" font-size="14.00">company</text>
<text text-anchor="start" x="809" y="-645.8" font-family="Times,serif" font-size="14.00"> </text>
<text text-anchor="start" x="782" y="-631.8" font-family="Times,serif" font-size="14.00"> </text>
</g>
<!-- company_project -->
<g id="node3" class="node"><title>company_project</title>
<ellipse fill="teal" stroke="black" cx="982" cy="-532" rx="85.9015" ry="25.4118"/>
<text text-anchor="start" x="929" y="-535.8" font-family="Times,serif" font-weight="bold" font-size="14.00">company_project</text>
<text text-anchor="start" x="1031" y="-535.8" font-family="Times,serif" font-size="14.00"> </text>
<text text-anchor="start" x="980" y="-521.8" font-family="Times,serif" font-size="14.00"> </text>
</g>
<!-- company&#45;&gt;company_project -->
<g id="edge2" class="edge"><title>company&#45;&gt;company_project</title>
<path fill="none" stroke="black" d="M816.558,-621.868C827.792,-614.812 840.248,-606.464 851,-598 862.115,-589.25 862.099,-583.646 874,-576 886.623,-567.89 901.023,-560.864 915.103,-554.977"/>
<polygon fill="black" stroke="black" points="916.804,-558.065 924.773,-551.083 914.19,-551.571 916.804,-558.065"/>
<text text-anchor="middle" x="896" y="-584.5" font-family="Times,serif" font-size="10.00">has_many </text>
</g>
<!-- employment -->
<g id="node4" class="node"><title>employment</title>
<ellipse fill="teal" stroke="black" cx="1152" cy="-532" rx="65.1436" ry="25.4118"/>
<text text-anchor="start" x="1113.5" y="-535.8" font-family="Times,serif" font-weight="bold" font-size="14.00">employment</text>
<text text-anchor="start" x="1186.5" y="-535.8" font-family="Times,serif" font-size="14.00"> </text>
<text text-anchor="start" x="1150" y="-521.8" font-family="Times,serif" font-size="14.00"> </text>
</g>
<!-- company&#45;&gt;employment -->
<g id="edge6" class="edge"><title>company&#45;&gt;employment</title>
<path fill="none" stroke="black" d="M831.473,-631.337C858.149,-624.576 891.336,-613.869 918,-598 930.156,-590.766 928.247,-582.12 941,-576 995.971,-549.623 1017.59,-571.702 1077,-558 1083.14,-556.583 1089.5,-554.87 1095.79,-553.012"/>
<polygon fill="black" stroke="black" points="1097.06,-556.284 1105.58,-549.995 1095,-549.594 1097.06,-556.284"/>
<text text-anchor="middle" x="963" y="-584.5" font-family="Times,serif" font-size="10.00">has_many </text>
</g>
<!-- group -->
<g id="node5" class="node"><title>group</title>
<ellipse fill="teal" stroke="black" cx="659" cy="-222" rx="38.3379" ry="25.4118"/>
<text text-anchor="start" x="639.5" y="-225.8" font-family="Times,serif" font-weight="bold" font-size="14.00">group</text>
<text text-anchor="start" x="674.5" y="-225.8" font-family="Times,serif" font-size="14.00"> </text>
<text text-anchor="start" x="657" y="-211.8" font-family="Times,serif" font-size="14.00"> </text>
</g>
<!-- company&#45;&gt;group -->
<g id="edge5" class="edge"><title>company&#45;&gt;group</title>
<path fill="none" stroke="black" d="M733.8,-634.564C705.567,-628.835 671.067,-618.085 646,-598 629.996,-585.177 630.062,-577.253 623,-558 593.182,-476.712 545.339,-440.177 590,-366 598.819,-351.352 613.269,-361.312 624,-348 644.727,-322.288 653.193,-285.051 656.643,-257.91"/>
<polygon fill="black" stroke="black" points="660.154,-258.009 657.769,-247.686 653.196,-257.243 660.154,-258.009"/>
<text text-anchor="middle" x="620" y="-425" font-family="Times,serif" font-size="10.00">has_many </text>
<text text-anchor="middle" x="620" y="-414" font-family="Times,serif" font-size="10.00">through sponsorships</text>
</g>
<!-- person -->
<g id="node8" class="node"><title>person</title>
<ellipse fill="teal" stroke="black" cx="980" cy="-752" rx="42.1401" ry="25.4118"/>
<text text-anchor="start" x="958" y="-755.8" font-family="Times,serif" font-weight="bold" font-size="14.00">person</text>
<text text-anchor="start" x="998" y="-755.8" font-family="Times,serif" font-size="14.00"> </text>
<text text-anchor="start" x="978" y="-741.8" font-family="Times,serif" font-size="14.00"> </text>
</g>
<!-- company&#45;&gt;person -->
<g id="edge7" class="edge"><title>company&#45;&gt;person</title>
<path fill="none" stroke="black" d="M824.24,-658.271C842.818,-665.832 864.934,-675.569 884,-686 905.396,-697.706 928.045,-712.893 945.967,-725.643"/>
<polygon fill="black" stroke="black" points="944.198,-728.682 954.36,-731.681 948.286,-723 944.198,-728.682"/>
<text text-anchor="middle" x="965" y="-700" font-family="Times,serif" font-size="10.00">has_many </text>
<text text-anchor="middle" x="965" y="-689" font-family="Times,serif" font-size="10.00">through employments</text>
</g>
<!-- project -->
<g id="node9" class="node"><title>project</title>
<ellipse fill="teal" stroke="black" cx="831" cy="-422" rx="43.263" ry="25.4118"/>
<text text-anchor="start" x="808" y="-425.8" font-family="Times,serif" font-weight="bold" font-size="14.00">project</text>
<text text-anchor="start" x="850" y="-425.8" font-family="Times,serif" font-size="14.00"> </text>
<text text-anchor="start" x="829" y="-411.8" font-family="Times,serif" font-size="14.00"> </text>
</g>
<!-- company&#45;&gt;project -->
<g id="edge3" class="edge"><title>company&#45;&gt;project</title>
<path fill="none" stroke="black" d="M738.614,-629.115C703.747,-617.336 657.961,-595.494 636,-558 624.32,-538.058 623.254,-525.278 636,-506 667.477,-458.392 732.403,-438.005 778.685,-429.33"/>
<polygon fill="black" stroke="black" points="779.305,-432.775 788.552,-427.603 778.098,-425.879 779.305,-432.775"/>
<text text-anchor="middle" x="691" y="-535" font-family="Times,serif" font-size="10.00">has_many </text>
<text text-anchor="middle" x="691" y="-524" font-family="Times,serif" font-size="10.00">through company_projects</text>
</g>
<!-- sponsorship -->
<g id="node12" class="node"><title>sponsorship</title>
<ellipse fill="teal" stroke="black" cx="364" cy="-122" rx="63.459" ry="25.4118"/>
<text text-anchor="start" x="327" y="-125.8" font-family="Times,serif" font-weight="bold" font-size="14.00">sponsorship</text>
<text text-anchor="start" x="397" y="-125.8" font-family="Times,serif" font-size="14.00"> </text>
<text text-anchor="start" x="362" y="-111.8" font-family="Times,serif" font-size="14.00"> </text>
</g>
<!-- company&#45;&gt;sponsorship -->
<g id="edge4" class="edge"><title>company&#45;&gt;sponsorship</title>
<path fill="none" stroke="black" d="M731.952,-639.326C556.849,-633.012 0,-607.108 0,-533 0,-533 0,-533 0,-221 0,-161.167 185.703,-136.81 291.827,-127.776"/>
<polygon fill="black" stroke="black" points="292.162,-131.26 301.84,-126.949 291.586,-124.284 292.162,-131.26"/>
<text text-anchor="middle" x="22" y="-369.5" font-family="Times,serif" font-size="10.00">has_many </text>
</g>
<!-- company_project&#45;&gt;company -->
<g id="edge9" class="edge"><title>company_project&#45;&gt;company</title>
<path fill="none" stroke="black" d="M918.33,-549.261C906.281,-552.241 893.767,-555.269 882,-558 844.808,-566.631 825.012,-549.016 798,-576 790.078,-583.913 786.15,-595.162 784.326,-606.082"/>
<polygon fill="black" stroke="black" points="780.812,-606 783.16,-616.332 787.768,-606.791 780.812,-606"/>
<text text-anchor="middle" x="822.5" y="-584.5" font-family="Times,serif" font-size="10.00">belongs_to </text>
</g>
<!-- company_project&#45;&gt;project -->
<g id="edge8" class="edge"><title>company_project&#45;&gt;project</title>
<path fill="none" stroke="black" d="M930.179,-511.569C916.158,-505.13 901.435,-497.213 889,-488 875.967,-478.343 863.674,-465.37 853.789,-453.553"/>
<polygon fill="black" stroke="black" points="856.367,-451.175 847.351,-445.612 850.93,-455.584 856.367,-451.175"/>
<text text-anchor="middle" x="913.5" y="-474.5" font-family="Times,serif" font-size="10.00">belongs_to </text>
</g>
<!-- employment&#45;&gt;company -->
<g id="edge11" class="edge"><title>employment&#45;&gt;company</title>
<path fill="none" stroke="black" d="M1104.14,-549.481C1095.15,-552.425 1085.82,-555.384 1077,-558 1046.62,-567.016 1035.67,-560.551 1008,-576 995.649,-582.895 997.501,-591.381 985,-598 941.735,-620.909 887.117,-631.613 845.739,-636.615"/>
<polygon fill="black" stroke="black" points="845.332,-633.138 835.788,-637.739 846.118,-640.094 845.332,-633.138"/>
<text text-anchor="middle" x="1032.5" y="-584.5" font-family="Times,serif" font-size="10.00">belongs_to </text>
</g>
<!-- employment&#45;&gt;person -->
<g id="edge10" class="edge"><title>employment&#45;&gt;person</title>
<path fill="none" stroke="black" d="M1119.56,-554.118C1098.34,-569.265 1071.28,-591.299 1053,-616 1026.58,-651.701 1036.64,-669.794 1014,-708 1011.4,-712.39 1008.39,-716.828 1005.27,-721.101"/>
<polygon fill="black" stroke="black" points="1002.48,-718.987 999.193,-729.058 1008.04,-723.236 1002.48,-718.987"/>
<text text-anchor="middle" x="1077.5" y="-639.5" font-family="Times,serif" font-size="10.00">belongs_to </text>
</g>
<!-- group&#45;&gt;company -->
<g id="edge17" class="edge"><title>group&#45;&gt;company</title>
<path fill="none" stroke="black" d="M620.227,-222.61C564.498,-224.268 462.284,-235.972 406,-296 366.153,-338.498 357.779,-514.924 397,-558 440.005,-605.233 624.665,-627.637 722.543,-636.364"/>
<polygon fill="black" stroke="black" points="722.332,-639.859 732.598,-637.24 722.94,-632.886 722.332,-639.859"/>
<text text-anchor="middle" x="419" y="-425" font-family="Times,serif" font-size="10.00">has_many </text>
<text text-anchor="middle" x="419" y="-414" font-family="Times,serif" font-size="10.00">through sponsorships</text>
</g>
<!-- group_membership -->
<g id="node6" class="node"><title>group_membership</title>
<ellipse fill="teal" stroke="black" cx="1283" cy="-122" rx="95.1892" ry="25.4118"/>
<text text-anchor="start" x="1223.5" y="-125.8" font-family="Times,serif" font-weight="bold" font-size="14.00">group_membership</text>
<text text-anchor="start" x="1338.5" y="-125.8" font-family="Times,serif" font-size="14.00"> </text>
<text text-anchor="start" x="1281" y="-111.8" font-family="Times,serif" font-size="14.00"> </text>
</g>
<!-- group&#45;&gt;group_membership -->
<g id="edge14" class="edge"><title>group&#45;&gt;group_membership</title>
<path fill="none" stroke="black" d="M696.165,-215.163C792.602,-200.018 1053,-159.122 1192.26,-137.251"/>
<polygon fill="black" stroke="black" points="1193.14,-140.655 1202.48,-135.646 1192.06,-133.74 1193.14,-140.655"/>
<text text-anchor="middle" x="1031" y="-169.5" font-family="Times,serif" font-size="10.00">has_many </text>
</g>
<!-- group_project -->
<g id="node7" class="node"><title>group_project</title>
<ellipse fill="teal" stroke="black" cx="748" cy="-322" rx="72.2493" ry="25.4118"/>
<text text-anchor="start" x="704.5" y="-325.8" font-family="Times,serif" font-weight="bold" font-size="14.00">group_project</text>
<text text-anchor="start" x="787.5" y="-325.8" font-family="Times,serif" font-size="14.00"> </text>
<text text-anchor="start" x="746" y="-311.8" font-family="Times,serif" font-size="14.00"> </text>
</g>
<!-- group&#45;&gt;group_project -->
<g id="edge12" class="edge"><title>group&#45;&gt;group_project</title>
<path fill="none" stroke="black" d="M689.732,-237.373C702.336,-244.516 716.23,-254.171 726,-266 730.998,-272.051 734.971,-279.382 738.086,-286.692"/>
<polygon fill="black" stroke="black" points="734.997,-288.417 741.818,-296.525 741.542,-285.933 734.997,-288.417"/>
<text text-anchor="middle" x="756" y="-269.5" font-family="Times,serif" font-size="10.00">has_many </text>
</g>
<!-- group&#45;&gt;person -->
<g id="edge15" class="edge"><title>group&#45;&gt;person</title>
<path fill="none" stroke="black" d="M620.262,-223.064C509.603,-224.281 200,-235.34 200,-321 200,-643 200,-643 200,-643 200,-716.643 752.588,-742.829 927.546,-749.274"/>
<polygon fill="black" stroke="black" points="927.667,-752.78 937.787,-749.644 927.92,-745.785 927.667,-752.78"/>
<text text-anchor="middle" x="259" y="-480" font-family="Times,serif" font-size="10.00">has_many </text>
<text text-anchor="middle" x="259" y="-469" font-family="Times,serif" font-size="10.00">through group_memberships</text>
</g>
<!-- group&#45;&gt;project -->
<g id="edge13" class="edge"><title>group&#45;&gt;project</title>
<path fill="none" stroke="black" d="M697.084,-225.541C774.847,-231.643 947.32,-250.162 980,-296 993.416,-314.818 992.23,-328.39 980,-348 958.635,-382.259 915.999,-400.887 881.789,-410.73"/>
<polygon fill="black" stroke="black" points="880.673,-407.406 871.933,-413.395 882.5,-414.164 880.673,-407.406"/>
<text text-anchor="middle" x="1038.5" y="-325" font-family="Times,serif" font-size="10.00">has_many </text>
<text text-anchor="middle" x="1038.5" y="-314" font-family="Times,serif" font-size="10.00">through group_projects</text>
</g>
<!-- group&#45;&gt;sponsorship -->
<g id="edge16" class="edge"><title>group&#45;&gt;sponsorship</title>
<path fill="none" stroke="black" d="M623.4,-211.916C592.417,-203.776 546.42,-191.126 507,-178 476.769,-167.934 443.519,-155.245 416.695,-144.593"/>
<polygon fill="black" stroke="black" points="417.705,-141.228 407.12,-140.769 415.109,-147.729 417.705,-141.228"/>
<text text-anchor="middle" x="529" y="-169.5" font-family="Times,serif" font-size="10.00">has_many </text>
</g>
<!-- group_membership&#45;&gt;group -->
<g id="edge18" class="edge"><title>group_membership&#45;&gt;group</title>
<path fill="none" stroke="black" d="M1219.18,-140.903C1174.17,-152.945 1112.29,-168.328 1057,-178 931.789,-199.903 782.339,-212.457 707.197,-217.841"/>
<polygon fill="black" stroke="black" points="706.826,-214.359 697.097,-218.554 707.319,-221.341 706.826,-214.359"/>
<text text-anchor="middle" x="1138.5" y="-169.5" font-family="Times,serif" font-size="10.00">belongs_to </text>
</g>
<!-- group_membership&#45;&gt;person -->
<g id="edge19" class="edge"><title>group_membership&#45;&gt;person</title>
<path fill="none" stroke="black" d="M1371.51,-131.422C1409.94,-137.516 1454.62,-147.997 1492,-166 1526.4,-182.568 1558,-182.817 1558,-221 1558,-643 1558,-643 1558,-643 1558,-684.171 1529.78,-691.648 1492,-708 1398.11,-748.631 1131.28,-701.323 1032,-726 1027.84,-727.033 1023.63,-728.418 1019.48,-730.009"/>
<polygon fill="black" stroke="black" points="1017.85,-726.898 1010.01,-734.026 1020.59,-733.342 1017.85,-726.898"/>
<text text-anchor="middle" x="1582.5" y="-419.5" font-family="Times,serif" font-size="10.00">belongs_to </text>
</g>
<!-- group_project&#45;&gt;group -->
<g id="edge21" class="edge"><title>group_project&#45;&gt;group</title>
<path fill="none" stroke="black" d="M701.865,-302.219C691.07,-295.927 680.536,-287.919 673,-278 668.451,-272.013 665.37,-264.708 663.286,-257.403"/>
<polygon fill="black" stroke="black" points="666.675,-256.523 661.018,-247.565 659.854,-258.096 666.675,-256.523"/>
<text text-anchor="middle" x="697.5" y="-269.5" font-family="Times,serif" font-size="10.00">belongs_to </text>
</g>
<!-- group_project&#45;&gt;project -->
<g id="edge20" class="edge"><title>group_project&#45;&gt;project</title>
<path fill="none" stroke="black" d="M743.221,-347.54C742.522,-357.649 743.482,-369.061 749,-378 756.821,-390.67 769.717,-399.801 782.992,-406.295"/>
<polygon fill="black" stroke="black" points="781.625,-409.517 792.185,-410.38 784.468,-403.121 781.625,-409.517"/>
<text text-anchor="middle" x="773.5" y="-369.5" font-family="Times,serif" font-size="10.00">belongs_to </text>
</g>
<!-- person&#45;&gt;company -->
<g id="edge28" class="edge"><title>person&#45;&gt;company</title>
<path fill="none" stroke="black" d="M938.251,-747.211C888.357,-741.759 809.182,-729.864 790,-708 782.807,-699.801 780.174,-688.58 779.69,-677.768"/>
<polygon fill="black" stroke="black" points="783.191,-677.678 779.805,-667.639 776.191,-677.599 783.191,-677.678"/>
<text text-anchor="middle" x="835" y="-700" font-family="Times,serif" font-size="10.00">has_many </text>
<text text-anchor="middle" x="835" y="-689" font-family="Times,serif" font-size="10.00">through employments</text>
</g>
<!-- person&#45;&gt;employment -->
<g id="edge27" class="edge"><title>person&#45;&gt;employment</title>
<path fill="none" stroke="black" d="M1012.98,-735.799C1040.25,-721.711 1078.24,-698.362 1102,-668 1125.18,-638.375 1138.39,-596.918 1145.34,-567.784"/>
<polygon fill="black" stroke="black" points="1148.84,-568.177 1147.62,-557.652 1142.01,-566.638 1148.84,-568.177"/>
<text text-anchor="middle" x="1153" y="-639.5" font-family="Times,serif" font-size="10.00">has_many </text>
</g>
<!-- person&#45;&gt;group -->
<g id="edge26" class="edge"><title>person&#45;&gt;group</title>
<path fill="none" stroke="black" d="M937.73,-750.549C757.076,-748.073 59,-732.702 59,-643 59,-643 59,-643 59,-321 59,-265.267 467.431,-234.79 610.335,-225.831"/>
<polygon fill="black" stroke="black" points="610.79,-229.31 620.555,-225.199 610.358,-222.323 610.79,-229.31"/>
<text text-anchor="middle" x="118" y="-480" font-family="Times,serif" font-size="10.00">has_many </text>
<text text-anchor="middle" x="118" y="-469" font-family="Times,serif" font-size="10.00">through group_memberships</text>
</g>
<!-- person&#45;&gt;group_membership -->
<g id="edge25" class="edge"><title>person&#45;&gt;group_membership</title>
<path fill="none" stroke="black" d="M1010.39,-734.273C1017.32,-731.062 1024.78,-728.062 1032,-726 1128.94,-698.326 1478,-743.813 1478,-643 1478,-643 1478,-643 1478,-221 1478,-171.981 1428.2,-147.478 1378.93,-135.232"/>
<polygon fill="black" stroke="black" points="1379.63,-131.802 1369.1,-132.942 1378.04,-138.619 1379.63,-131.802"/>
<text text-anchor="middle" x="1500" y="-419.5" font-family="Times,serif" font-size="10.00">has_many </text>
</g>
<!-- person&#45;&gt;project -->
<g id="edge24" class="edge"><title>person&#45;&gt;project</title>
<path fill="none" stroke="black" d="M1011.6,-734.989C1018.27,-731.844 1025.31,-728.69 1032,-726 1097.17,-699.804 1135,-722.748 1179,-668 1205.1,-635.523 1173.33,-610.286 1197,-576 1205.62,-563.516 1218.63,-571.257 1226,-558 1237.23,-537.803 1240.57,-523.944 1226,-506 1183.55,-453.703 982.101,-433.145 884.395,-426.149"/>
<polygon fill="black" stroke="black" points="884.359,-422.638 874.141,-425.437 883.874,-429.621 884.359,-422.638"/>
<text text-anchor="middle" x="1258" y="-590" font-family="Times,serif" font-size="10.00">has_many </text>
<text text-anchor="middle" x="1258" y="-579" font-family="Times,serif" font-size="10.00">through project_memberships</text>
</g>
<!-- project_membership -->
<g id="node10" class="node"><title>project_membership</title>
<ellipse fill="teal" stroke="black" cx="515" cy="-322" rx="100.114" ry="25.4118"/>
<text text-anchor="start" x="452" y="-325.8" font-family="Times,serif" font-weight="bold" font-size="14.00">project_membership</text>
<text text-anchor="start" x="574" y="-325.8" font-family="Times,serif" font-size="14.00"> </text>
<text text-anchor="start" x="513" y="-311.8" font-family="Times,serif" font-size="14.00"> </text>
</g>
<!-- person&#45;&gt;project_membership -->
<g id="edge23" class="edge"><title>person&#45;&gt;project_membership</title>
<path fill="none" stroke="black" d="M937.642,-749.928C824.314,-746.698 520.342,-735.535 485,-708 411.871,-651.024 408.71,-595.466 433,-506 440.829,-477.163 454.045,-474.926 467,-448 481.414,-418.041 494.703,-382.544 503.627,-357.046"/>
<polygon fill="black" stroke="black" points="506.982,-358.052 506.942,-347.457 500.366,-355.765 506.982,-358.052"/>
<text text-anchor="middle" x="455" y="-529.5" font-family="Times,serif" font-size="10.00">has_many </text>
</g>
<!-- person&#45;&gt;user -->
<g id="edge22" class="edge"><title>person&#45;&gt;user</title>
<path fill="none" stroke="black" d="M1001.28,-774.163C1007.2,-780.785 1013.3,-788.366 1018,-796 1022.08,-802.622 1025.67,-810.131 1028.7,-817.425"/>
<polygon fill="black" stroke="black" points="1025.59,-819.089 1032.48,-827.136 1032.11,-816.547 1025.59,-819.089"/>
<text text-anchor="middle" x="1049.5" y="-799.5" font-family="Times,serif" font-size="10.00">belongs_to </text>
</g>
<!-- project&#45;&gt;company -->
<g id="edge32" class="edge"><title>project&#45;&gt;company</title>
<path fill="none" stroke="black" d="M811.458,-445.15C798.912,-460.914 783.747,-483.256 777,-506 767.175,-539.119 770.962,-578.784 775.957,-606.518"/>
<polygon fill="black" stroke="black" points="772.558,-607.377 777.904,-616.524 779.429,-606.04 772.558,-607.377"/>
<text text-anchor="middle" x="832" y="-535" font-family="Times,serif" font-size="10.00">has_many </text>
<text text-anchor="middle" x="832" y="-524" font-family="Times,serif" font-size="10.00">through company_projects</text>
</g>
<!-- project&#45;&gt;company_project -->
<g id="edge31" class="edge"><title>project&#45;&gt;company_project</title>
<path fill="none" stroke="black" d="M870.566,-432.749C892.141,-439.495 918.368,-450.159 938,-466 948.711,-474.643 957.82,-486.583 964.922,-497.874"/>
<polygon fill="black" stroke="black" points="962.061,-499.91 970.181,-506.715 968.077,-496.331 962.061,-499.91"/>
<text text-anchor="middle" x="981" y="-474.5" font-family="Times,serif" font-size="10.00">has_many </text>
</g>
<!-- project&#45;&gt;group -->
<g id="edge34" class="edge"><title>project&#45;&gt;group</title>
<path fill="none" stroke="black" d="M846.744,-397.812C850.138,-391.635 853.235,-384.785 855,-378 863,-347.253 842.256,-312.421 829,-296 798.626,-258.375 745.185,-239.757 706.312,-230.802"/>
<polygon fill="black" stroke="black" points="706.78,-227.323 696.266,-228.627 705.299,-234.164 706.78,-227.323"/>
<text text-anchor="middle" x="903.5" y="-325" font-family="Times,serif" font-size="10.00">has_many </text>
<text text-anchor="middle" x="903.5" y="-314" font-family="Times,serif" font-size="10.00">through group_projects</text>
</g>
<!-- project&#45;&gt;group_project -->
<g id="edge33" class="edge"><title>project&#45;&gt;group_project</title>
<path fill="none" stroke="black" d="M819.053,-397.422C813.36,-387.254 806.039,-375.535 798,-366 793.98,-361.232 789.408,-356.547 784.699,-352.124"/>
<polygon fill="black" stroke="black" points="787.022,-349.506 777.249,-345.417 782.339,-354.709 787.022,-349.506"/>
<text text-anchor="middle" x="829" y="-369.5" font-family="Times,serif" font-size="10.00">has_many </text>
</g>
<!-- project&#45;&gt;person -->
<g id="edge30" class="edge"><title>project&#45;&gt;person</title>
<path fill="none" stroke="black" d="M874.317,-425.45C956.835,-430.565 1133.39,-443.783 1190,-466 1260.14,-493.528 1289.2,-506.795 1319,-576 1356.55,-663.216 1239.7,-674.112 1151,-708 1101.03,-727.089 1083.12,-710.237 1032,-726 1028.02,-727.229 1023.95,-728.719 1019.94,-730.353"/>
<polygon fill="black" stroke="black" points="1018.5,-727.162 1010.74,-734.371 1021.3,-733.578 1018.5,-727.162"/>
<text text-anchor="middle" x="1387" y="-590" font-family="Times,serif" font-size="10.00">has_many </text>
<text text-anchor="middle" x="1387" y="-579" font-family="Times,serif" font-size="10.00">through project_memberships</text>
</g>
<!-- project&#45;&gt;project_membership -->
<g id="edge29" class="edge"><title>project&#45;&gt;project_membership</title>
<path fill="none" stroke="black" d="M793.374,-408.926C746.806,-393.989 672.029,-370.028 659,-366 636.201,-358.951 611.311,-351.451 588.735,-344.72"/>
<polygon fill="black" stroke="black" points="589.462,-341.285 578.879,-341.787 587.465,-347.994 589.462,-341.285"/>
<text text-anchor="middle" x="719" y="-369.5" font-family="Times,serif" font-size="10.00">has_many </text>
</g>
<!-- project_membership&#45;&gt;person -->
<g id="edge36" class="edge"><title>project_membership&#45;&gt;person</title>
<path fill="none" stroke="black" d="M512.182,-347.548C508.241,-392.927 505.744,-491.374 548,-558 632.474,-691.192 833.244,-733.159 928.344,-745.817"/>
<polygon fill="black" stroke="black" points="927.946,-749.295 938.308,-747.087 928.831,-742.351 927.946,-749.295"/>
<text text-anchor="middle" x="572.5" y="-529.5" font-family="Times,serif" font-size="10.00">belongs_to </text>
</g>
<!-- project_membership&#45;&gt;project -->
<g id="edge35" class="edge"><title>project_membership&#45;&gt;project</title>
<path fill="none" stroke="black" d="M547.248,-346.358C564.029,-357.486 585.317,-370.067 606,-378 636.849,-389.832 722.439,-404.419 778.714,-413.201"/>
<polygon fill="black" stroke="black" points="778.443,-416.701 788.861,-414.771 779.514,-409.783 778.443,-416.701"/>
<text text-anchor="middle" x="630.5" y="-369.5" font-family="Times,serif" font-size="10.00">belongs_to </text>
</g>
<!-- resource_link -->
<g id="node11" class="node"><title>resource_link</title>
<ellipse fill="teal" stroke="black" cx="1202" cy="-952" rx="70.0054" ry="25.4118"/>
<text text-anchor="start" x="1160.5" y="-955.8" font-family="Times,serif" font-weight="bold" font-size="14.00">resource_link</text>
<text text-anchor="start" x="1239.5" y="-955.8" font-family="Times,serif" font-size="14.00"> </text>
<text text-anchor="start" x="1200" y="-941.8" font-family="Times,serif" font-size="14.00"> </text>
</g>
<!-- sponsorship&#45;&gt;company -->
<g id="edge37" class="edge"><title>sponsorship&#45;&gt;company</title>
<path fill="none" stroke="black" d="M347.796,-146.818C336.336,-165.985 323,-194.073 323,-221 323,-373 323,-373 323,-373 323,-481.722 319.573,-554.015 419,-598 471.815,-621.365 632.445,-633.187 722.004,-638.108"/>
<polygon fill="black" stroke="black" points="721.859,-641.605 732.032,-638.646 722.234,-634.615 721.859,-641.605"/>
<text text-anchor="middle" x="347.5" y="-369.5" font-family="Times,serif" font-size="10.00">belongs_to </text>
</g>
<!-- sponsorship&#45;&gt;group -->
<g id="edge38" class="edge"><title>sponsorship&#45;&gt;group</title>
<path fill="none" stroke="black" d="M421.927,-132.524C459.408,-139.606 508.888,-150.699 551,-166 575.524,-174.911 601.631,-188.095 622.033,-199.32"/>
<polygon fill="black" stroke="black" points="620.542,-202.497 630.979,-204.318 623.956,-196.386 620.542,-202.497"/>
<text text-anchor="middle" x="603.5" y="-169.5" font-family="Times,serif" font-size="10.00">belongs_to </text>
</g>
<!-- user&#45;&gt;person -->
<g id="edge39" class="edge"><title>user&#45;&gt;person</title>
<path fill="none" stroke="black" d="M1012.16,-839.558C998.967,-832.549 984.484,-822.168 977,-808 973.699,-801.751 972.554,-794.526 972.596,-787.409"/>
<polygon fill="black" stroke="black" points="976.105,-787.428 973.392,-777.187 969.126,-786.885 976.105,-787.428"/>
<text text-anchor="middle" x="995.5" y="-799.5" font-family="Times,serif" font-size="10.00">has_one </text>
</g>
<!-- authentications dependent =&gt; destroy do -->
<g id="node14" class="node"><title>authentications dependent =&gt; destroy do</title>
<ellipse fill="none" stroke="black" cx="1196" cy="-752" rx="155.005" ry="18"/>
<text text-anchor="middle" x="1196" y="-748.3" font-family="Times,serif" font-size="14.00">authentications dependent =&gt; destroy do</text>
</g>
<!-- user&#45;&gt;authentications dependent =&gt; destroy do -->
<g id="edge40" class="edge"><title>user&#45;&gt;authentications dependent =&gt; destroy do</title>
<path fill="none" stroke="black" d="M1064.38,-835.688C1090.16,-819.49 1131.09,-793.775 1160.47,-775.322"/>
<polygon fill="black" stroke="black" points="1162.58,-778.13 1169.18,-769.847 1158.85,-772.203 1162.58,-778.13"/>
<text text-anchor="middle" x="1150" y="-799.5" font-family="Times,serif" font-size="10.00">has_many </text>
</g>
</g>
</svg>
