<?xml version="1.0" encoding="UTF-8" standalone="no"?>
<!DOCTYPE svg PUBLIC "-//W3C//DTD SVG 1.1//EN"
 "http://www.w3.org/Graphics/SVG/1.1/DTD/svg11.dtd">
<!-- Generated by graphviz version 2.36.0 (20140111.2315)
 -->
<!-- Title: G Pages: 1 -->
<svg width="769pt" height="366pt"
 viewBox="0.00 0.00 769.00 366.00" xmlns="http://www.w3.org/2000/svg" xmlns:xlink="http://www.w3.org/1999/xlink">
<g id="graph0" class="graph" transform="scale(1 1) rotate(0) translate(4 362)">
<title>G</title>
<polygon fill="white" stroke="none" points="-4,4 -4,-362 765,-362 765,4 -4,4"/>
<text text-anchor="start" x="259" y="-29" font-family="Times,serif" font-size="14.00"> </text>
<text text-anchor="start" x="263" y="-29" font-family="Times,serif" font-size="80.00">metube</text>
<text text-anchor="start" x="498" y="-29" font-family="Times,serif" font-size="14.00"> </text>
<!-- comment -->
<g id="node1" class="node"><title>comment</title>
<ellipse fill="teal" stroke="black" cx="193" cy="-222" rx="53.0495" ry="25.4118"/>
<text text-anchor="start" x="163.5" y="-225.8" font-family="Times,serif" font-weight="bold" font-size="14.00">comment</text>
<text text-anchor="start" x="218.5" y="-225.8" font-family="Times,serif" font-size="14.00"> </text>
<text text-anchor="start" x="191" y="-211.8" font-family="Times,serif" font-size="14.00"> </text>
</g>
<!-- commentable polymorphic =&gt; true -->
<g id="node8" class="node"><title>commentable polymorphic =&gt; true</title>
<ellipse fill="none" stroke="black" cx="193" cy="-122" rx="135.258" ry="18"/>
<text text-anchor="middle" x="193" y="-118.3" font-family="Times,serif" font-size="14.00">commentable polymorphic =&gt; true</text>
</g>
<!-- comment&#45;&gt;commentable polymorphic =&gt; true -->
<g id="edge1" class="edge"><title>comment&#45;&gt;commentable polymorphic =&gt; true</title>
<path fill="none" stroke="black" d="M193,-196.523C193,-182.518 193,-164.912 193,-150.44"/>
<polygon fill="black" stroke="black" points="196.5,-150.096 193,-140.096 189.5,-150.096 196.5,-150.096"/>
<text text-anchor="middle" x="217.5" y="-169.5" font-family="Times,serif" font-size="10.00">belongs_to </text>
</g>
<!-- movie -->
<g id="node2" class="node"><title>movie</title>
<ellipse fill="teal" stroke="black" cx="39" cy="-332" rx="39.3965" ry="25.4118"/>
<text text-anchor="start" x="19" y="-335.8" font-family="Times,serif" font-weight="bold" font-size="14.00">movie</text>
<text text-anchor="start" x="55" y="-335.8" font-family="Times,serif" font-size="14.00"> </text>
<text text-anchor="start" x="37" y="-321.8" font-family="Times,serif" font-size="14.00"> </text>
</g>
<!-- movie&#45;&gt;comment -->
<g id="edge2" class="edge"><title>movie&#45;&gt;comment</title>
<path fill="none" stroke="black" d="M38.9606,-306.326C40.2174,-292.855 43.9873,-276.774 54,-266 73.6699,-244.834 103.513,-233.998 130.512,-228.487"/>
<polygon fill="black" stroke="black" points="131.486,-231.867 140.693,-226.625 130.226,-224.981 131.486,-231.867"/>
<text text-anchor="middle" x="94" y="-280" font-family="Times,serif" font-size="10.00">has_many </text>
<text text-anchor="middle" x="94" y="-269" font-family="Times,serif" font-size="10.00">as =&gt; commentable</text>
</g>
<!-- show -->
<g id="node3" class="node"><title>show</title>
<ellipse fill="teal" stroke="black" cx="142" cy="-332" rx="35.0343" ry="25.4118"/>
<text text-anchor="start" x="125" y="-335.8" font-family="Times,serif" font-weight="bold" font-size="14.00">show</text>
<text text-anchor="start" x="155" y="-335.8" font-family="Times,serif" font-size="14.00"> </text>
<text text-anchor="start" x="140" y="-321.8" font-family="Times,serif" font-size="14.00"> </text>
</g>
<!-- show&#45;&gt;comment -->
<g id="edge3" class="edge"><title>show&#45;&gt;comment</title>
<path fill="none" stroke="black" d="M137.735,-306.466C136.66,-293.816 137.161,-278.469 143,-266 145.772,-260.08 149.795,-254.662 154.372,-249.816"/>
<polygon fill="black" stroke="black" points="157.057,-252.095 161.922,-242.683 152.249,-247.007 157.057,-252.095"/>
<text text-anchor="middle" x="183" y="-280" font-family="Times,serif" font-size="10.00">has_many </text>
<text text-anchor="middle" x="183" y="-269" font-family="Times,serif" font-size="10.00">as =&gt; commentable</text>
</g>
<!-- sound -->
<g id="node4" class="node"><title>sound</title>
<ellipse fill="teal" stroke="black" cx="245" cy="-332" rx="38.3379" ry="25.4118"/>
<text text-anchor="start" x="225.5" y="-335.8" font-family="Times,serif" font-weight="bold" font-size="14.00">sound</text>
<text text-anchor="start" x="260.5" y="-335.8" font-family="Times,serif" font-size="14.00"> </text>
<text text-anchor="start" x="243" y="-321.8" font-family="Times,serif" font-size="14.00"> </text>
</g>
<!-- sound&#45;&gt;comment -->
<g id="edge4" class="edge"><title>sound&#45;&gt;comment</title>
<path fill="none" stroke="black" d="M238.614,-306.88C234.857,-294.344 229.553,-278.973 223,-266 221.107,-262.252 218.922,-258.459 216.612,-254.759"/>
<polygon fill="black" stroke="black" points="219.5,-252.78 211.074,-246.357 213.655,-256.633 219.5,-252.78"/>
<text text-anchor="middle" x="272" y="-280" font-family="Times,serif" font-size="10.00">has_many </text>
<text text-anchor="middle" x="272" y="-269" font-family="Times,serif" font-size="10.00">as =&gt; commentable</text>
</g>
<!-- user -->
<g id="node5" class="node"><title>user</title>
<ellipse fill="teal" stroke="black" cx="542" cy="-222" rx="31.233" ry="25.4118"/>
<text text-anchor="start" x="527.5" y="-225.8" font-family="Times,serif" font-weight="bold" font-size="14.00">user</text>
<text text-anchor="start" x="552.5" y="-225.8" font-family="Times,serif" font-size="14.00"> </text>
<text text-anchor="start" x="540" y="-211.8" font-family="Times,serif" font-size="14.00"> </text>
</g>
<!-- user_video -->
<g id="node6" class="node"><title>user_video</title>
<ellipse fill="teal" stroke="black" cx="625" cy="-122" rx="58.5343" ry="25.4118"/>
<text text-anchor="start" x="591.5" y="-125.8" font-family="Times,serif" font-weight="bold" font-size="14.00">user_video</text>
<text text-anchor="start" x="654.5" y="-125.8" font-family="Times,serif" font-size="14.00"> </text>
<text text-anchor="start" x="623" y="-111.8" font-family="Times,serif" font-size="14.00"> </text>
</g>
<!-- user&#45;&gt;user_video -->
<g id="edge5" class="edge"><title>user&#45;&gt;user_video</title>
<path fill="none" stroke="black" d="M528.176,-199.076C523.347,-188.438 520.559,-175.86 527,-166 535.544,-152.921 549.047,-143.795 563.33,-137.436"/>
<polygon fill="black" stroke="black" points="564.807,-140.615 572.785,-133.643 562.201,-134.118 564.807,-140.615"/>
<text text-anchor="middle" x="549" y="-169.5" font-family="Times,serif" font-size="10.00">has_many </text>
</g>
<!-- video -->
<g id="node7" class="node"><title>video</title>
<ellipse fill="teal" stroke="black" cx="558" cy="-332" rx="36.0937" ry="25.4118"/>
<text text-anchor="start" x="540.5" y="-335.8" font-family="Times,serif" font-weight="bold" font-size="14.00">video</text>
<text text-anchor="start" x="571.5" y="-335.8" font-family="Times,serif" font-size="14.00"> </text>
<text text-anchor="start" x="556" y="-321.8" font-family="Times,serif" font-size="14.00"> </text>
</g>
<!-- user&#45;&gt;video -->
<g id="edge6" class="edge"><title>user&#45;&gt;video</title>
<path fill="none" stroke="black" stroke-dasharray="5,2" d="M545.616,-247.41C547.762,-261.89 550.515,-280.478 552.881,-296.447"/>
<polygon fill="black" stroke="black" points="549.442,-297.114 554.369,-306.493 556.366,-296.088 549.442,-297.114"/>
<text text-anchor="middle" x="594" y="-280" font-family="Times,serif" font-size="10.00">has_many </text>
<text text-anchor="middle" x="594" y="-269" font-family="Times,serif" font-size="10.00">through user_videos</text>
</g>
<!-- user_video&#45;&gt;user -->
<g id="edge8" class="edge"><title>user_video&#45;&gt;user</title>
<path fill="none" stroke="black" d="M605.498,-146.027C593.648,-160.018 578.433,-177.982 565.868,-192.819"/>
<polygon fill="black" stroke="black" points="562.99,-190.801 559.198,-200.694 568.331,-195.325 562.99,-190.801"/>
<text text-anchor="middle" x="613.5" y="-169.5" font-family="Times,serif" font-size="10.00">belongs_to </text>
</g>
<!-- user_video&#45;&gt;video -->
<g id="edge7" class="edge"><title>user_video&#45;&gt;video</title>
<path fill="none" stroke="black" d="M658.125,-143.286C675.596,-156.017 695.36,-174.154 705,-196 714.33,-217.144 712.974,-226.308 705,-248 689.453,-290.297 639.551,-311.727 602.172,-322.098"/>
<polygon fill="black" stroke="black" points="601.281,-318.713 592.485,-324.62 603.044,-325.487 601.281,-318.713"/>
<text text-anchor="middle" x="736.5" y="-219.5" font-family="Times,serif" font-size="10.00">belongs_to </text>
</g>
<!-- video&#45;&gt;comment -->
<g id="edge11" class="edge"><title>video&#45;&gt;comment</title>
<path fill="none" stroke="black" d="M523.386,-324.344C486.128,-316.848 425.303,-303.649 374,-288 347.63,-279.956 341.904,-275.439 316,-266 292.672,-257.5 266.737,-248.384 244.719,-240.743"/>
<polygon fill="black" stroke="black" points="245.818,-237.42 235.223,-237.455 243.527,-244.034 245.818,-237.42"/>
<text text-anchor="middle" x="414" y="-280" font-family="Times,serif" font-size="10.00">has_many </text>
<text text-anchor="middle" x="414" y="-269" font-family="Times,serif" font-size="10.00">as =&gt; commentable</text>
</g>
<!-- video&#45;&gt;user -->
<g id="edge10" class="edge"><title>video&#45;&gt;user</title>
<path fill="none" stroke="black" stroke-dasharray="5,2" d="M523.046,-325.356C501.184,-319.823 474.661,-309 461,-288 446.4,-265.557 475.99,-247.281 503.418,-235.888"/>
<polygon fill="black" stroke="black" points="504.921,-239.058 512.953,-232.15 502.366,-232.541 504.921,-239.058"/>
<text text-anchor="middle" x="503" y="-280" font-family="Times,serif" font-size="10.00">has_many </text>
<text text-anchor="middle" x="503" y="-269" font-family="Times,serif" font-size="10.00">through user_videos</text>
</g>
<!-- video&#45;&gt;user_video -->
<g id="edge9" class="edge"><title>video&#45;&gt;user_video</title>
<path fill="none" stroke="black" d="M591.731,-322.33C609.331,-315.921 629.362,-305.235 640,-288 664.65,-248.064 651.786,-192.009 639.213,-156.605"/>
<polygon fill="black" stroke="black" points="642.479,-155.345 635.707,-147.197 635.92,-157.79 642.479,-155.345"/>
<text text-anchor="middle" x="677" y="-219.5" font-family="Times,serif" font-size="10.00">has_many </text>
</g>
</g>
</svg>
