<?xml version="1.0" encoding="UTF-8" standalone="no"?>
<!DOCTYPE svg PUBLIC "-//W3C//DTD SVG 1.1//EN"
 "http://www.w3.org/Graphics/SVG/1.1/DTD/svg11.dtd">
<!-- Generated by graphviz version 2.36.0 (20140111.2315)
 -->
<!-- Title: G Pages: 1 -->
<svg width="548pt" height="356pt"
 viewBox="0.00 0.00 548.00 356.00" xmlns="http://www.w3.org/2000/svg" xmlns:xlink="http://www.w3.org/1999/xlink">
<g id="graph0" class="graph" transform="scale(1 1) rotate(0) translate(4 352)">
<title>G</title>
<polygon fill="white" stroke="none" points="-4,4 -4,-352 544,-352 544,4 -4,4"/>
<text text-anchor="start" x="70.5" y="-29" font-family="Times,serif" font-size="14.00"> </text>
<text text-anchor="start" x="74.5" y="-29" font-family="Times,serif" font-size="80.00">ScoreSettler</text>
<text text-anchor="start" x="465.5" y="-29" font-family="Times,serif" font-size="14.00"> </text>
<!-- group -->
<g id="node1" class="node"><title>group</title>
<ellipse fill="teal" stroke="black" cx="245" cy="-322" rx="38.3379" ry="25.4118"/>
<text text-anchor="start" x="225.5" y="-325.8" font-family="Times,serif" font-weight="bold" font-size="14.00">group</text>
<text text-anchor="start" x="260.5" y="-325.8" font-family="Times,serif" font-size="14.00"> </text>
<text text-anchor="start" x="243" y="-311.8" font-family="Times,serif" font-size="14.00"> </text>
</g>
<!-- membership -->
<g id="node3" class="node"><title>membership</title>
<ellipse fill="teal" stroke="black" cx="66" cy="-222" rx="66.2022" ry="25.4118"/>
<text text-anchor="start" x="27" y="-225.8" font-family="Times,serif" font-weight="bold" font-size="14.00">membership</text>
<text text-anchor="start" x="101" y="-225.8" font-family="Times,serif" font-size="14.00"> </text>
<text text-anchor="start" x="64" y="-211.8" font-family="Times,serif" font-size="14.00"> </text>
</g>
<!-- group&#45;&gt;membership -->
<g id="edge1" class="edge"><title>group&#45;&gt;membership</title>
<path fill="none" stroke="black" d="M206.831,-317.984C156.447,-313.12 71.8967,-301.597 53,-278 48.0839,-271.861 47.5209,-264.174 49.0669,-256.511"/>
<polygon fill="black" stroke="black" points="52.418,-257.521 51.9842,-246.935 45.7219,-255.481 52.418,-257.521"/>
<text text-anchor="middle" x="75" y="-269.5" font-family="Times,serif" font-size="10.00">has_many </text>
</g>
<!-- tournament -->
<g id="node4" class="node"><title>tournament</title>
<ellipse fill="teal" stroke="black" cx="477" cy="-222" rx="63.459" ry="25.4118"/>
<text text-anchor="start" x="440" y="-225.8" font-family="Times,serif" font-weight="bold" font-size="14.00">tournament</text>
<text text-anchor="start" x="510" y="-225.8" font-family="Times,serif" font-size="14.00"> </text>
<text text-anchor="start" x="475" y="-211.8" font-family="Times,serif" font-size="14.00"> </text>
</g>
<!-- group&#45;&gt;tournament -->
<g id="edge3" class="edge"><title>group&#45;&gt;tournament</title>
<path fill="none" stroke="black" d="M276.772,-307.579C314.89,-291.478 379.333,-264.256 424.798,-245.051"/>
<polygon fill="black" stroke="black" points="426.345,-248.197 434.195,-241.081 423.621,-241.748 426.345,-248.197"/>
<text text-anchor="middle" x="397" y="-269.5" font-family="Times,serif" font-size="10.00">has_many </text>
</g>
<!-- user -->
<g id="node5" class="node"><title>user</title>
<ellipse fill="teal" stroke="black" cx="153" cy="-122" rx="31.233" ry="25.4118"/>
<text text-anchor="start" x="138.5" y="-125.8" font-family="Times,serif" font-weight="bold" font-size="14.00">user</text>
<text text-anchor="start" x="163.5" y="-125.8" font-family="Times,serif" font-size="14.00"> </text>
<text text-anchor="start" x="151" y="-111.8" font-family="Times,serif" font-size="14.00"> </text>
</g>
<!-- group&#45;&gt;user -->
<g id="edge2" class="edge"><title>group&#45;&gt;user</title>
<path fill="none" stroke="black" stroke-dasharray="5,2" d="M228.382,-298.838C218.373,-284.788 205.89,-265.94 197,-248 182.301,-218.336 170.224,-182.525 162.466,-156.851"/>
<polygon fill="black" stroke="black" points="165.804,-155.795 159.609,-147.201 159.092,-157.783 165.804,-155.795"/>
<text text-anchor="middle" x="241" y="-225" font-family="Times,serif" font-size="10.00">has_many </text>
<text text-anchor="middle" x="241" y="-214" font-family="Times,serif" font-size="10.00">through memberships</text>
</g>
<!-- match -->
<g id="node2" class="node"><title>match</title>
<ellipse fill="teal" stroke="black" cx="476" cy="-122" rx="39.9593" ry="25.4118"/>
<text text-anchor="start" x="455.5" y="-125.8" font-family="Times,serif" font-weight="bold" font-size="14.00">match</text>
<text text-anchor="start" x="492.5" y="-125.8" font-family="Times,serif" font-size="14.00"> </text>
<text text-anchor="start" x="474" y="-111.8" font-family="Times,serif" font-size="14.00"> </text>
</g>
<!-- match&#45;&gt;tournament -->
<g id="edge4" class="edge"><title>match&#45;&gt;tournament</title>
<path fill="none" stroke="black" d="M484.024,-147.316C485.672,-153.354 487.159,-159.857 488,-166 488.932,-172.806 488.515,-180.038 487.422,-186.944"/>
<polygon fill="black" stroke="black" points="483.993,-186.242 485.414,-196.741 490.85,-187.647 483.993,-186.242"/>
<text text-anchor="middle" x="512.5" y="-169.5" font-family="Times,serif" font-size="10.00">belongs_to </text>
</g>
<!-- membership&#45;&gt;group -->
<g id="edge6" class="edge"><title>membership&#45;&gt;group</title>
<path fill="none" stroke="black" d="M84.7615,-246.646C94.3423,-257.438 106.76,-269.644 120,-278 144.137,-293.232 174.323,-303.813 198.984,-310.666"/>
<polygon fill="black" stroke="black" points="198.268,-314.098 208.832,-313.289 200.07,-307.334 198.268,-314.098"/>
<text text-anchor="middle" x="144.5" y="-269.5" font-family="Times,serif" font-size="10.00">belongs_to </text>
</g>
<!-- membership&#45;&gt;user -->
<g id="edge5" class="edge"><title>membership&#45;&gt;user</title>
<path fill="none" stroke="black" d="M52.4477,-196.808C48.6586,-186.644 47.0101,-175.096 53,-166 66.1001,-146.107 90.5407,-135.379 111.98,-129.614"/>
<polygon fill="black" stroke="black" points="112.979,-132.973 121.883,-127.231 111.341,-126.167 112.979,-132.973"/>
<text text-anchor="middle" x="77.5" y="-169.5" font-family="Times,serif" font-size="10.00">belongs_to </text>
</g>
<!-- tournament&#45;&gt;group -->
<g id="edge7" class="edge"><title>tournament&#45;&gt;group</title>
<path fill="none" stroke="black" d="M459.059,-246.647C449.495,-257.709 436.852,-270.146 423,-278 382.68,-300.861 330.553,-311.63 293.145,-316.665"/>
<polygon fill="black" stroke="black" points="292.492,-313.219 283.006,-317.938 293.364,-320.164 292.492,-313.219"/>
<text text-anchor="middle" x="463.5" y="-269.5" font-family="Times,serif" font-size="10.00">belongs_to </text>
</g>
<!-- tournament&#45;&gt;match -->
<g id="edge8" class="edge"><title>tournament&#45;&gt;match</title>
<path fill="none" stroke="black" d="M452.468,-198.447C447.382,-192.356 442.741,-185.387 440,-178 436.457,-168.451 439.76,-158.875 445.566,-150.452"/>
<polygon fill="black" stroke="black" points="448.469,-152.429 452.046,-142.456 443.031,-148.021 448.469,-152.429"/>
<text text-anchor="middle" x="462" y="-169.5" font-family="Times,serif" font-size="10.00">has_many </text>
</g>
<!-- user&#45;&gt;group -->
<g id="edge10" class="edge"><title>user&#45;&gt;group</title>
<path fill="none" stroke="black" stroke-dasharray="5,2" d="M182.86,-130.006C214.56,-139.213 263.051,-158.78 285,-196 302.574,-225.801 285.23,-264.224 268.207,-290.558"/>
<polygon fill="black" stroke="black" points="265.203,-288.751 262.497,-298.995 271,-292.675 265.203,-288.751"/>
<text text-anchor="middle" x="337" y="-225" font-family="Times,serif" font-size="10.00">has_many </text>
<text text-anchor="middle" x="337" y="-214" font-family="Times,serif" font-size="10.00">through memberships</text>
</g>
<!-- user&#45;&gt;membership -->
<g id="edge9" class="edge"><title>user&#45;&gt;membership</title>
<path fill="none" stroke="black" d="M135.179,-143.074C123.178,-156.593 107.114,-174.687 93.4873,-190.037"/>
<polygon fill="black" stroke="black" points="90.6393,-187.973 86.6178,-197.775 95.8741,-192.621 90.6393,-187.973"/>
<text text-anchor="middle" x="137" y="-169.5" font-family="Times,serif" font-size="10.00">has_many </text>
</g>
</g>
</svg>
