<?xml version="1.0" encoding="UTF-8" standalone="no"?>
<!DOCTYPE svg PUBLIC "-//W3C//DTD SVG 1.1//EN"
 "http://www.w3.org/Graphics/SVG/1.1/DTD/svg11.dtd">
<!-- Generated by graphviz version 2.36.0 (20140111.2315)
 -->
<!-- Title: G Pages: 1 -->
<svg width="755pt" height="285pt"
 viewBox="0.00 0.00 755.00 285.00" xmlns="http://www.w3.org/2000/svg" xmlns:xlink="http://www.w3.org/1999/xlink">
<g id="graph0" class="graph" transform="scale(1 1) rotate(0) translate(4 281)">
<title>G</title>
<polygon fill="white" stroke="none" points="-4,4 -4,-281 751,-281 751,4 -4,4"/>
<text text-anchor="start" x="295.5" y="-20" font-family="Times,serif" font-size="14.00"> </text>
<text text-anchor="start" x="299.5" y="-20" font-family="Times,serif" font-size="50.00">metube</text>
<text text-anchor="start" x="447.5" y="-20" font-family="Times,serif" font-size="14.00"> </text>
<!-- comment -->
<g id="node1" class="node"><title>comment</title>
<polygon fill="none" stroke="black" points="219.25,-183 144.75,-183 144.75,-147 219.25,-147 219.25,-183"/>
<text text-anchor="start" x="152.5" y="-162.3" font-family="Times,serif" font-weight="bold" font-size="14.00">comment</text>
<text text-anchor="start" x="207.5" y="-162.3" font-family="Times,serif" font-size="14.00"> </text>
</g>
<!-- commentable polymorphic =&gt; true -->
<g id="node8" class="node"><title>commentable polymorphic =&gt; true</title>
<ellipse fill="none" stroke="black" cx="182" cy="-81" rx="135.258" ry="18"/>
<text text-anchor="middle" x="182" y="-77.3" font-family="Times,serif" font-size="14.00">commentable polymorphic =&gt; true</text>
</g>
<!-- comment&#45;&gt;commentable polymorphic =&gt; true -->
<g id="edge1" class="edge"><title>comment&#45;&gt;commentable polymorphic =&gt; true</title>
<path fill="none" stroke="black" d="M182,-146.61C182,-135.774 182,-121.601 182,-109.291"/>
<polygon fill="black" stroke="black" points="185.5,-109.084 182,-99.0838 178.5,-109.084 185.5,-109.084"/>
<text text-anchor="middle" x="206.5" y="-120.5" font-family="Times,serif" font-size="10.00">belongs_to </text>
</g>
<!-- movie -->
<g id="node2" class="node"><title>movie</title>
<polygon fill="none" stroke="black" points="55.5,-277 0.5,-277 0.5,-241 55.5,-241 55.5,-277"/>
<text text-anchor="start" x="8" y="-256.3" font-family="Times,serif" font-weight="bold" font-size="14.00">movie</text>
<text text-anchor="start" x="44" y="-256.3" font-family="Times,serif" font-size="14.00"> </text>
</g>
<!-- movie&#45;&gt;comment -->
<g id="edge2" class="edge"><title>movie&#45;&gt;comment</title>
<path fill="none" stroke="black" d="M28.0863,-240.767C29.0886,-228.103 32.5253,-211.364 43,-201 66.8946,-177.359 104.271,-168.921 134.251,-166.225"/>
<polygon fill="black" stroke="black" points="134.785,-169.696 144.512,-165.496 134.289,-162.714 134.785,-169.696"/>
<text text-anchor="middle" x="83" y="-215" font-family="Times,serif" font-size="10.00">has_many </text>
<text text-anchor="middle" x="83" y="-204" font-family="Times,serif" font-size="10.00">as =&gt; commentable</text>
</g>
<!-- show -->
<g id="node3" class="node"><title>show</title>
<polygon fill="none" stroke="black" points="158,-277 104,-277 104,-241 158,-241 158,-277"/>
<text text-anchor="start" x="114" y="-256.3" font-family="Times,serif" font-weight="bold" font-size="14.00">show</text>
<text text-anchor="start" x="144" y="-256.3" font-family="Times,serif" font-size="14.00"> </text>
</g>
<!-- show&#45;&gt;comment -->
<g id="edge3" class="edge"><title>show&#45;&gt;comment</title>
<path fill="none" stroke="black" d="M127.388,-240.776C125.8,-228.907 125.54,-213.146 132,-201 134.186,-196.89 137.095,-193.159 140.413,-189.799"/>
<polygon fill="black" stroke="black" points="142.953,-192.23 148.212,-183.032 138.365,-186.943 142.953,-192.23"/>
<text text-anchor="middle" x="172" y="-215" font-family="Times,serif" font-size="10.00">has_many </text>
<text text-anchor="middle" x="172" y="-204" font-family="Times,serif" font-size="10.00">as =&gt; commentable</text>
</g>
<!-- sound -->
<g id="node4" class="node"><title>sound</title>
<polygon fill="none" stroke="black" points="261.25,-277 206.75,-277 206.75,-241 261.25,-241 261.25,-277"/>
<text text-anchor="start" x="214.5" y="-256.3" font-family="Times,serif" font-weight="bold" font-size="14.00">sound</text>
<text text-anchor="start" x="249.5" y="-256.3" font-family="Times,serif" font-size="14.00"> </text>
</g>
<!-- sound&#45;&gt;comment -->
<g id="edge4" class="edge"><title>sound&#45;&gt;comment</title>
<path fill="none" stroke="black" d="M229.071,-240.843C225.313,-229.148 219.507,-213.567 212,-201 210.038,-197.715 207.762,-194.436 205.358,-191.276"/>
<polygon fill="black" stroke="black" points="207.857,-188.802 198.824,-183.264 202.432,-193.226 207.857,-188.802"/>
<text text-anchor="middle" x="263" y="-215" font-family="Times,serif" font-size="10.00">has_many </text>
<text text-anchor="middle" x="263" y="-204" font-family="Times,serif" font-size="10.00">as =&gt; commentable</text>
</g>
<!-- user -->
<g id="node5" class="node"><title>user</title>
<polygon fill="none" stroke="black" points="558,-183 504,-183 504,-147 558,-147 558,-183"/>
<text text-anchor="start" x="516.5" y="-162.3" font-family="Times,serif" font-weight="bold" font-size="14.00">user</text>
<text text-anchor="start" x="541.5" y="-162.3" font-family="Times,serif" font-size="14.00"> </text>
</g>
<!-- user_video -->
<g id="node6" class="node"><title>user_video</title>
<polygon fill="none" stroke="black" points="655.25,-99 572.75,-99 572.75,-63 655.25,-63 655.25,-99"/>
<text text-anchor="start" x="580.5" y="-78.3" font-family="Times,serif" font-weight="bold" font-size="14.00">user_video</text>
<text text-anchor="start" x="643.5" y="-78.3" font-family="Times,serif" font-size="14.00"> </text>
</g>
<!-- user&#45;&gt;user_video -->
<g id="edge5" class="edge"><title>user&#45;&gt;user_video</title>
<path fill="none" stroke="black" d="M518.515,-146.774C513.32,-137.345 509.783,-125.822 516,-117 526.845,-101.612 545.098,-92.9517 562.932,-88.0924"/>
<polygon fill="black" stroke="black" points="563.824,-91.4779 572.746,-85.7651 562.209,-84.6668 563.824,-91.4779"/>
<text text-anchor="middle" x="538" y="-120.5" font-family="Times,serif" font-size="10.00">has_many </text>
</g>
<!-- video -->
<g id="node7" class="node"><title>video</title>
<polygon fill="none" stroke="black" points="574,-277 520,-277 520,-241 574,-241 574,-277"/>
<text text-anchor="start" x="529.5" y="-256.3" font-family="Times,serif" font-weight="bold" font-size="14.00">video</text>
<text text-anchor="start" x="560.5" y="-256.3" font-family="Times,serif" font-size="14.00"> </text>
</g>
<!-- user&#45;&gt;video -->
<g id="edge6" class="edge"><title>user&#45;&gt;video</title>
<path fill="none" stroke="black" d="M533.996,-183.227C536.317,-196.57 539.576,-215.311 542.251,-230.691"/>
<polygon fill="black" stroke="black" points="538.829,-231.443 543.991,-240.696 545.725,-230.244 538.829,-231.443"/>
<text text-anchor="middle" x="583" y="-215" font-family="Times,serif" font-size="10.00">has_many </text>
<text text-anchor="middle" x="583" y="-204" font-family="Times,serif" font-size="10.00">through user_videos</text>
</g>
<!-- user_video&#45;&gt;user -->
<g id="edge8" class="edge"><title>user_video&#45;&gt;user</title>
<path fill="none" stroke="black" d="M596.708,-99.0838C584.923,-110.726 569.134,-126.325 555.987,-139.314"/>
<polygon fill="black" stroke="black" points="553.256,-137.092 548.602,-146.61 558.176,-142.072 553.256,-137.092"/>
<text text-anchor="middle" x="602.5" y="-120.5" font-family="Times,serif" font-size="10.00">belongs_to </text>
</g>
<!-- user_video&#45;&gt;video -->
<g id="edge7" class="edge"><title>user_video&#45;&gt;video</title>
<path fill="none" stroke="black" d="M647.348,-99.1005C664.89,-110.126 684.652,-126.284 694,-147 700.581,-161.584 699.52,-167.982 694,-183 677.827,-226.999 622.28,-245.392 584.295,-252.938"/>
<polygon fill="black" stroke="black" points="583.308,-249.56 574.095,-254.791 584.559,-256.447 583.308,-249.56"/>
<text text-anchor="middle" x="722.5" y="-162.5" font-family="Times,serif" font-size="10.00">belongs_to </text>
</g>
<!-- video&#45;&gt;comment -->
<g id="edge11" class="edge"><title>video&#45;&gt;comment</title>
<path fill="none" stroke="black" d="M519.963,-254.558C483.581,-249.549 417.073,-239.06 362,-223 336.725,-215.63 331.934,-209.45 307,-201 281.601,-192.392 252.805,-184.224 229.259,-177.947"/>
<polygon fill="black" stroke="black" points="230.076,-174.543 219.514,-175.377 228.291,-181.311 230.076,-174.543"/>
<text text-anchor="middle" x="402" y="-215" font-family="Times,serif" font-size="10.00">has_many </text>
<text text-anchor="middle" x="402" y="-204" font-family="Times,serif" font-size="10.00">as =&gt; commentable</text>
</g>
<!-- video&#45;&gt;user -->
<g id="edge10" class="edge"><title>video&#45;&gt;user</title>
<path fill="none" stroke="black" d="M519.724,-256.39C496.903,-253.433 465.639,-245.27 450,-223 444.381,-214.998 444.63,-209.171 450,-201 459.825,-186.052 477.538,-177.459 493.9,-172.533"/>
<polygon fill="black" stroke="black" points="495.053,-175.849 503.831,-169.916 493.269,-169.08 495.053,-175.849"/>
<text text-anchor="middle" x="492" y="-215" font-family="Times,serif" font-size="10.00">has_many </text>
<text text-anchor="middle" x="492" y="-204" font-family="Times,serif" font-size="10.00">through user_videos</text>
</g>
<!-- video&#45;&gt;user_video -->
<g id="edge9" class="edge"><title>video&#45;&gt;user_video</title>
<path fill="none" stroke="black" d="M574.377,-254.104C593.145,-249.864 616.779,-241.083 629,-223 655.385,-183.96 641.562,-162.92 631,-117 630.347,-114.161 629.432,-111.285 628.361,-108.466"/>
<polygon fill="black" stroke="black" points="631.522,-106.961 624.276,-99.2312 625.12,-109.792 631.522,-106.961"/>
<text text-anchor="middle" x="667" y="-162.5" font-family="Times,serif" font-size="10.00">has_many </text>
</g>
</g>
</svg>
