<?xml version="1.0" encoding="UTF-8" standalone="no"?>
<!DOCTYPE svg PUBLIC "-//W3C//DTD SVG 1.1//EN"
 "http://www.w3.org/Graphics/SVG/1.1/DTD/svg11.dtd">
<!-- Generated by graphviz version 2.36.0 (20140111.2315)
 -->
<!-- Title: G Pages: 1 -->
<svg width="554pt" height="116pt"
 viewBox="0.00 0.00 554.00 116.00" xmlns="http://www.w3.org/2000/svg" xmlns:xlink="http://www.w3.org/1999/xlink">
<g id="graph0" class="graph" transform="scale(1 1) rotate(0) translate(4 112)">
<title>G</title>
<polygon fill="white" stroke="none" points="-4,4 -4,-112 550,-112 550,4 -4,4"/>
<!-- groups -->
<g id="node1" class="node"><title>groups</title>
<ellipse fill="blue" stroke="black" cx="236" cy="-90" rx="34.1708" ry="18"/>
<text text-anchor="middle" x="236" y="-86.3" font-family="Times,serif" font-size="14.00">groups</text>
</g>
<!-- create -->
<g id="node2" class="node"><title>create</title>
<ellipse fill="red" stroke="black" cx="31" cy="-18" rx="31.2735" ry="18"/>
<text text-anchor="middle" x="31" y="-14.3" font-family="Times,serif" font-size="14.00">create</text>
</g>
<!-- groups&#45;&gt;create -->
<g id="edge1" class="edge"><title>groups&#45;&gt;create</title>
<path fill="none" stroke="black" d="M207.023,-80.4079C174.063,-70.4565 118.752,-53.2151 72,-36 69.7426,-35.1688 67.426,-34.2874 65.0983,-33.3806"/>
<polygon fill="black" stroke="black" points="66.1739,-30.0412 55.5894,-29.5722 63.5712,-36.5394 66.1739,-30.0412"/>
</g>
<!-- show -->
<g id="node3" class="node"><title>show</title>
<ellipse fill="red" stroke="black" cx="110" cy="-18" rx="29.3722" ry="18"/>
<text text-anchor="middle" x="110" y="-14.3" font-family="Times,serif" font-size="14.00">show</text>
</g>
<!-- groups&#45;&gt;show -->
<g id="edge2" class="edge"><title>groups&#45;&gt;show</title>
<path fill="none" stroke="black" d="M213.182,-76.3235C192.614,-64.8964 162.237,-48.0205 139.765,-35.5362"/>
<polygon fill="black" stroke="black" points="141.415,-32.4487 130.973,-30.6518 138.015,-38.5678 141.415,-32.4487"/>
</g>
<!-- ajax_head_to_head -->
<g id="node4" class="node"><title>ajax_head_to_head</title>
<ellipse fill="red" stroke="black" cx="236" cy="-18" rx="78.4642" ry="18"/>
<text text-anchor="middle" x="236" y="-14.3" font-family="Times,serif" font-size="14.00">ajax_head_to_head</text>
</g>
<!-- groups&#45;&gt;ajax_head_to_head -->
<g id="edge3" class="edge"><title>groups&#45;&gt;ajax_head_to_head</title>
<path fill="none" stroke="black" d="M236,-71.6966C236,-63.9827 236,-54.7125 236,-46.1124"/>
<polygon fill="black" stroke="black" points="239.5,-46.1043 236,-36.1043 232.5,-46.1044 239.5,-46.1043"/>
</g>
<!-- destroy -->
<g id="node5" class="node"><title>destroy</title>
<ellipse fill="red" stroke="black" cx="369" cy="-18" rx="36.096" ry="18"/>
<text text-anchor="middle" x="369" y="-14.3" font-family="Times,serif" font-size="14.00">destroy</text>
</g>
<!-- groups&#45;&gt;destroy -->
<g id="edge4" class="edge"><title>groups&#45;&gt;destroy</title>
<path fill="none" stroke="black" d="M259.472,-76.6465C280.67,-65.4893 312.092,-48.9514 335.851,-36.4469"/>
<polygon fill="black" stroke="black" points="337.646,-39.4572 344.865,-31.7025 334.386,-33.2628 337.646,-39.4572"/>
</g>
<!-- group_params -->
<g id="node6" class="node"><title>group_params</title>
<ellipse fill="red" stroke="black" cx="485" cy="-18" rx="61.6163" ry="18"/>
<text text-anchor="middle" x="485" y="-14.3" font-family="Times,serif" font-size="14.00">group_params</text>
</g>
<!-- groups&#45;&gt;group_params -->
<g id="edge5" class="edge"><title>groups&#45;&gt;group_params</title>
<path fill="none" stroke="black" d="M265.541,-80.6952C306.604,-69.1515 381.596,-48.0693 432.357,-33.7992"/>
<polygon fill="black" stroke="black" points="433.489,-37.1167 442.169,-31.0409 431.595,-30.3779 433.489,-37.1167"/>
</g>
</g>
</svg>
