<?xml version="1.0" encoding="UTF-8" standalone="no"?>
<!DOCTYPE svg PUBLIC "-//W3C//DTD SVG 1.1//EN"
 "http://www.w3.org/Graphics/SVG/1.1/DTD/svg11.dtd">
<!-- Generated by graphviz version 2.36.0 (20140111.2315)
 -->
<!-- Title: G Pages: 1 -->
<svg width="157pt" height="116pt"
 viewBox="0.00 0.00 157.00 116.00" xmlns="http://www.w3.org/2000/svg" xmlns:xlink="http://www.w3.org/1999/xlink">
<g id="graph0" class="graph" transform="scale(1 1) rotate(0) translate(4 112)">
<title>G</title>
<polygon fill="white" stroke="none" points="-4,4 -4,-112 153,-112 153,4 -4,4"/>
<!-- memberships -->
<g id="node1" class="node"><title>memberships</title>
<ellipse fill="blue" stroke="black" cx="73" cy="-90" rx="58.2422" ry="18"/>
<text text-anchor="middle" x="73" y="-86.3" font-family="Times,serif" font-size="14.00">memberships</text>
</g>
<!-- create -->
<g id="node2" class="node"><title>create</title>
<ellipse fill="teal" stroke="black" cx="31" cy="-18" rx="31.2735" ry="18"/>
<text text-anchor="middle" x="31" y="-14.3" font-family="Times,serif" font-size="14.00">create</text>
</g>
<!-- memberships&#45;&gt;create -->
<g id="edge1" class="edge"><title>memberships&#45;&gt;create</title>
<path fill="none" stroke="black" d="M62.833,-72.055C57.8076,-63.6793 51.6424,-53.4039 46.0805,-44.1341"/>
<polygon fill="black" stroke="black" points="48.9304,-42.0812 40.7842,-35.307 42.928,-45.6827 48.9304,-42.0812"/>
</g>
<!-- update -->
<g id="node3" class="node"><title>update</title>
<ellipse fill="teal" stroke="black" cx="115" cy="-18" rx="34.1708" ry="18"/>
<text text-anchor="middle" x="115" y="-14.3" font-family="Times,serif" font-size="14.00">update</text>
</g>
<!-- memberships&#45;&gt;update -->
<g id="edge2" class="edge"><title>memberships&#45;&gt;update</title>
<path fill="none" stroke="black" d="M83.167,-72.055C88.1924,-63.6793 94.3576,-53.4039 99.9195,-44.1341"/>
<polygon fill="black" stroke="black" points="103.072,-45.6827 105.216,-35.307 97.0696,-42.0812 103.072,-45.6827"/>
</g>
</g>
</svg>
