<?xml version="1.0" encoding="UTF-8" standalone="no"?>
<!DOCTYPE svg PUBLIC "-//W3C//DTD SVG 1.1//EN"
 "http://www.w3.org/Graphics/SVG/1.1/DTD/svg11.dtd">
<!-- Generated by graphviz version 2.36.0 (20140111.2315)
 -->
<!-- Title: G Pages: 1 -->
<svg width="473pt" height="116pt"
 viewBox="0.00 0.00 473.00 116.00" xmlns="http://www.w3.org/2000/svg" xmlns:xlink="http://www.w3.org/1999/xlink">
<g id="graph0" class="graph" transform="scale(1 1) rotate(0) translate(4 112)">
<title>G</title>
<polygon fill="white" stroke="none" points="-4,4 -4,-112 469,-112 469,4 -4,4"/>
<!-- notes -->
<g id="node1" class="node"><title>notes</title>
<ellipse fill="blue" stroke="black" cx="192" cy="-90" rx="29.3722" ry="18"/>
<text text-anchor="middle" x="192" y="-86.3" font-family="Times,serif" font-size="14.00">notes</text>
</g>
<!-- index -->
<g id="node2" class="node"><title>index</title>
<ellipse fill="red" stroke="black" cx="30" cy="-18" rx="30.3206" ry="18"/>
<text text-anchor="middle" x="30" y="-14.3" font-family="Times,serif" font-size="14.00">index</text>
</g>
<!-- notes&#45;&gt;index -->
<g id="edge1" class="edge"><title>notes&#45;&gt;index</title>
<path fill="none" stroke="black" d="M168.789,-78.9707C141.039,-66.9798 94.4058,-46.8297 62.9363,-33.2317"/>
<polygon fill="black" stroke="black" points="64.2624,-29.992 53.6944,-29.2383 61.4858,-36.4178 64.2624,-29.992"/>
</g>
<!-- show -->
<g id="node3" class="node"><title>show</title>
<ellipse fill="red" stroke="black" cx="108" cy="-18" rx="29.3722" ry="18"/>
<text text-anchor="middle" x="108" y="-14.3" font-family="Times,serif" font-size="14.00">show</text>
</g>
<!-- notes&#45;&gt;show -->
<g id="edge2" class="edge"><title>notes&#45;&gt;show</title>
<path fill="none" stroke="black" d="M175.404,-75.1703C163.174,-64.9783 146.34,-50.9499 132.555,-39.4624"/>
<polygon fill="black" stroke="black" points="134.772,-36.7537 124.849,-33.0406 130.29,-42.1313 134.772,-36.7537"/>
</g>
<!-- destroy -->
<g id="node4" class="node"><title>destroy</title>
<ellipse fill="red" stroke="black" cx="192" cy="-18" rx="36.096" ry="18"/>
<text text-anchor="middle" x="192" y="-14.3" font-family="Times,serif" font-size="14.00">destroy</text>
</g>
<!-- notes&#45;&gt;destroy -->
<g id="edge3" class="edge"><title>notes&#45;&gt;destroy</title>
<path fill="none" stroke="black" d="M192,-71.6966C192,-63.9827 192,-54.7125 192,-46.1124"/>
<polygon fill="black" stroke="black" points="195.5,-46.1043 192,-36.1043 188.5,-46.1044 195.5,-46.1043"/>
</g>
<!-- create -->
<g id="node5" class="node"><title>create</title>
<ellipse fill="red" stroke="black" cx="278" cy="-18" rx="31.2735" ry="18"/>
<text text-anchor="middle" x="278" y="-14.3" font-family="Times,serif" font-size="14.00">create</text>
</g>
<!-- notes&#45;&gt;create -->
<g id="edge4" class="edge"><title>notes&#45;&gt;create</title>
<path fill="none" stroke="black" d="M208.991,-75.1703C221.431,-65.0449 238.522,-51.1331 252.583,-39.688"/>
<polygon fill="black" stroke="black" points="254.908,-42.3088 260.454,-33.2816 250.489,-36.8799 254.908,-42.3088"/>
</g>
<!-- allowed_params -->
<g id="node6" class="node"><title>allowed_params</title>
<ellipse fill="red" stroke="black" cx="397" cy="-18" rx="68.3417" ry="18"/>
<text text-anchor="middle" x="397" y="-14.3" font-family="Times,serif" font-size="14.00">allowed_params</text>
</g>
<!-- notes&#45;&gt;allowed_params -->
<g id="edge5" class="edge"><title>notes&#45;&gt;allowed_params</title>
<path fill="none" stroke="black" d="M217.137,-80.4166C249.405,-69.3984 306.127,-50.0296 347.263,-35.9835"/>
<polygon fill="black" stroke="black" points="348.502,-39.2587 356.835,-32.715 346.24,-32.6342 348.502,-39.2587"/>
</g>
</g>
</svg>
