<?xml version="1.0" encoding="UTF-8" standalone="no"?>
<!DOCTYPE svg PUBLIC "-//W3C//DTD SVG 1.1//EN"
 "http://www.w3.org/Graphics/SVG/1.1/DTD/svg11.dtd">
<!-- Generated by graphviz version 2.36.0 (20140111.2315)
 -->
<!-- Title: G Pages: 1 -->
<svg width="1512pt" height="116pt"
 viewBox="0.00 0.00 1512.00 116.00" xmlns="http://www.w3.org/2000/svg" xmlns:xlink="http://www.w3.org/1999/xlink">
<g id="graph0" class="graph" transform="scale(1 1) rotate(0) translate(4 112)">
<title>G</title>
<polygon fill="white" stroke="none" points="-4,4 -4,-112 1508,-112 1508,4 -4,4"/>
<!-- people -->
<g id="node1" class="node"><title>people</title>
<ellipse fill="blue" stroke="black" cx="476" cy="-90" rx="34.1708" ry="18"/>
<text text-anchor="middle" x="476" y="-86.3" font-family="Times,serif" font-size="14.00">people</text>
</g>
<!-- index -->
<g id="node2" class="node"><title>index</title>
<ellipse fill="red" stroke="black" cx="30" cy="-18" rx="30.3206" ry="18"/>
<text text-anchor="middle" x="30" y="-14.3" font-family="Times,serif" font-size="14.00">index</text>
</g>
<!-- people&#45;&gt;index -->
<g id="edge1" class="edge"><title>people&#45;&gt;index</title>
<path fill="none" stroke="black" d="M441.971,-87.6757C371.429,-84.255 204.602,-72.65 70,-36 67.5155,-35.3235 64.9826,-34.5253 62.4584,-33.6499"/>
<polygon fill="black" stroke="black" points="63.4766,-30.292 52.8863,-29.9845 60.9734,-36.8291 63.4766,-30.292"/>
</g>
<!-- tag -->
<g id="node3" class="node"><title>tag</title>
<ellipse fill="red" stroke="black" cx="106" cy="-18" rx="27" ry="18"/>
<text text-anchor="middle" x="106" y="-14.3" font-family="Times,serif" font-size="14.00">tag</text>
</g>
<!-- people&#45;&gt;tag -->
<g id="edge2" class="edge"><title>people&#45;&gt;tag</title>
<path fill="none" stroke="black" d="M442.102,-86.8062C380.944,-82.1528 248.594,-68.8886 142,-36 140.068,-35.4039 138.108,-34.7222 136.151,-33.982"/>
<polygon fill="black" stroke="black" points="137.113,-30.5889 126.539,-29.9218 134.389,-37.0372 137.113,-30.5889"/>
</g>
<!-- show -->
<g id="node4" class="node"><title>show</title>
<ellipse fill="red" stroke="black" cx="180" cy="-18" rx="29.3722" ry="18"/>
<text text-anchor="middle" x="180" y="-14.3" font-family="Times,serif" font-size="14.00">show</text>
</g>
<!-- people&#45;&gt;show -->
<g id="edge3" class="edge"><title>people&#45;&gt;show</title>
<path fill="none" stroke="black" d="M443.238,-84.6122C393.665,-77.4521 296.997,-61.4474 218,-36 215.876,-35.3158 213.712,-34.5494 211.548,-33.7305"/>
<polygon fill="black" stroke="black" points="212.767,-30.448 202.187,-29.8969 210.114,-36.9258 212.767,-30.448"/>
</g>
<!-- new -->
<g id="node5" class="node"><title>new</title>
<ellipse fill="red" stroke="black" cx="254" cy="-18" rx="27" ry="18"/>
<text text-anchor="middle" x="254" y="-14.3" font-family="Times,serif" font-size="14.00">new</text>
</g>
<!-- people&#45;&gt;new -->
<g id="edge4" class="edge"><title>people&#45;&gt;new</title>
<path fill="none" stroke="black" d="M445.221,-81.8716C407.923,-72.86 343.434,-56.0753 290,-36 288.156,-35.3072 286.276,-34.558 284.392,-33.7734"/>
<polygon fill="black" stroke="black" points="285.634,-30.4956 275.072,-29.6547 282.804,-36.8983 285.634,-30.4956"/>
</g>
<!-- create -->
<g id="node6" class="node"><title>create</title>
<ellipse fill="red" stroke="black" cx="331" cy="-18" rx="31.2735" ry="18"/>
<text text-anchor="middle" x="331" y="-14.3" font-family="Times,serif" font-size="14.00">create</text>
</g>
<!-- people&#45;&gt;create -->
<g id="edge5" class="edge"><title>people&#45;&gt;create</title>
<path fill="none" stroke="black" d="M451.73,-77.2836C427.604,-65.6366 390.438,-47.6942 363.716,-34.794"/>
<polygon fill="black" stroke="black" points="364.915,-31.4861 354.387,-30.2904 361.871,-37.7899 364.915,-31.4861"/>
</g>
<!-- claim -->
<g id="node7" class="node"><title>claim</title>
<ellipse fill="red" stroke="black" cx="411" cy="-18" rx="30.3206" ry="18"/>
<text text-anchor="middle" x="411" y="-14.3" font-family="Times,serif" font-size="14.00">claim</text>
</g>
<!-- people&#45;&gt;claim -->
<g id="edge6" class="edge"><title>people&#45;&gt;claim</title>
<path fill="none" stroke="black" d="M461.574,-73.4647C452.872,-64.0924 441.633,-51.9898 431.962,-41.5742"/>
<polygon fill="black" stroke="black" points="434.308,-38.9578 424.939,-34.0114 429.179,-43.7209 434.308,-38.9578"/>
</g>
<!-- show_contact_form -->
<g id="node8" class="node"><title>show_contact_form</title>
<ellipse fill="red" stroke="black" cx="541" cy="-18" rx="81.3646" ry="18"/>
<text text-anchor="middle" x="541" y="-14.3" font-family="Times,serif" font-size="14.00">show_contact_form</text>
</g>
<!-- people&#45;&gt;show_contact_form -->
<g id="edge7" class="edge"><title>people&#45;&gt;show_contact_form</title>
<path fill="none" stroke="black" d="M490.426,-73.4647C498.652,-64.606 509.143,-53.3079 518.435,-43.3008"/>
<polygon fill="black" stroke="black" points="521.01,-45.6713 525.25,-35.9618 515.88,-40.9082 521.01,-45.6713"/>
</g>
<!-- submit_contact_form -->
<g id="node9" class="node"><title>submit_contact_form</title>
<ellipse fill="red" stroke="black" cx="727" cy="-18" rx="87.1385" ry="18"/>
<text text-anchor="middle" x="727" y="-14.3" font-family="Times,serif" font-size="14.00">submit_contact_form</text>
</g>
<!-- people&#45;&gt;submit_contact_form -->
<g id="edge8" class="edge"><title>people&#45;&gt;submit_contact_form</title>
<path fill="none" stroke="black" d="M505.779,-80.6952C545.467,-69.6269 616.598,-49.7893 667.493,-35.5955"/>
<polygon fill="black" stroke="black" points="668.695,-38.894 677.387,-32.8363 666.814,-32.1513 668.695,-38.894"/>
</g>
<!-- collection -->
<g id="node10" class="node"><title>collection</title>
<ellipse fill="red" stroke="black" cx="878" cy="-18" rx="45.244" ry="18"/>
<text text-anchor="middle" x="878" y="-14.3" font-family="Times,serif" font-size="14.00">collection</text>
</g>
<!-- people&#45;&gt;collection -->
<g id="edge9" class="edge"><title>people&#45;&gt;collection</title>
<path fill="none" stroke="black" d="M509.322,-85.5751C571.511,-78.8162 709.256,-62.1136 823,-36 826.835,-35.1194 830.792,-34.1076 834.742,-33.0257"/>
<polygon fill="black" stroke="black" points="835.831,-36.3545 844.474,-30.2268 833.896,-29.6272 835.831,-36.3545"/>
</g>
<!-- require_owner_or_admin! -->
<g id="node11" class="node"><title>require_owner_or_admin!</title>
<ellipse fill="red" stroke="black" cx="1045" cy="-18" rx="103.012" ry="18"/>
<text text-anchor="middle" x="1045" y="-14.3" font-family="Times,serif" font-size="14.00">require_owner_or_admin!</text>
</g>
<!-- people&#45;&gt;require_owner_or_admin! -->
<g id="edge10" class="edge"><title>people&#45;&gt;require_owner_or_admin!</title>
<path fill="none" stroke="black" d="M509.233,-85.5246C584.554,-77.5629 773.998,-57.0611 932,-36 941.268,-34.7646 950.953,-33.4079 960.588,-32.0165"/>
<polygon fill="black" stroke="black" points="961.201,-35.4643 970.591,-30.5575 960.19,-28.5376 961.201,-35.4643"/>
</g>
<!-- pick_photo_input -->
<g id="node12" class="node"><title>pick_photo_input</title>
<ellipse fill="red" stroke="black" cx="1239" cy="-18" rx="72.192" ry="18"/>
<text text-anchor="middle" x="1239" y="-14.3" font-family="Times,serif" font-size="14.00">pick_photo_input</text>
</g>
<!-- people&#45;&gt;pick_photo_input -->
<g id="edge11" class="edge"><title>people&#45;&gt;pick_photo_input</title>
<path fill="none" stroke="black" d="M510.179,-87.8723C610.139,-84.2456 910.441,-71.0085 1157,-36 1163.67,-35.0525 1170.62,-33.8906 1177.52,-32.6232"/>
<polygon fill="black" stroke="black" points="1178.39,-36.0193 1187.56,-30.7033 1177.08,-29.1438 1178.39,-36.0193"/>
</g>
<!-- set_user_id_if_admin -->
<g id="node13" class="node"><title>set_user_id_if_admin</title>
<ellipse fill="red" stroke="black" cx="1417" cy="-18" rx="87.1385" ry="18"/>
<text text-anchor="middle" x="1417" y="-14.3" font-family="Times,serif" font-size="14.00">set_user_id_if_admin</text>
</g>
<!-- people&#45;&gt;set_user_id_if_admin -->
<g id="edge12" class="edge"><title>people&#45;&gt;set_user_id_if_admin</title>
<path fill="none" stroke="black" d="M510.291,-88.2089C625.18,-85.2683 1006.91,-73.1505 1320,-36 1328.3,-35.0154 1336.96,-33.7871 1345.55,-32.4441"/>
<polygon fill="black" stroke="black" points="1346.26,-35.8748 1355.57,-30.8225 1345.14,-28.9647 1346.26,-35.8748"/>
</g>
</g>
</svg>
