<?xml version="1.0" encoding="UTF-8" standalone="no"?>
<!DOCTYPE svg PUBLIC "-//W3C//DTD SVG 1.1//EN"
 "http://www.w3.org/Graphics/SVG/1.1/DTD/svg11.dtd">
<!-- Generated by graphviz version 2.36.0 (20140111.2315)
 -->
<!-- Title: G Pages: 1 -->
<svg width="395pt" height="116pt"
 viewBox="0.00 0.00 395.00 116.00" xmlns="http://www.w3.org/2000/svg" xmlns:xlink="http://www.w3.org/1999/xlink">
<g id="graph0" class="graph" transform="scale(1 1) rotate(0) translate(4 112)">
<title>G</title>
<polygon fill="white" stroke="none" points="-4,4 -4,-112 391,-112 391,4 -4,4"/>
<!-- projects -->
<g id="node1" class="node"><title>projects</title>
<ellipse fill="blue" stroke="black" cx="175" cy="-90" rx="38.0212" ry="18"/>
<text text-anchor="middle" x="175" y="-86.3" font-family="Times,serif" font-size="14.00">projects</text>
</g>
<!-- tag -->
<g id="node2" class="node"><title>tag</title>
<ellipse fill="red" stroke="black" cx="27" cy="-18" rx="27" ry="18"/>
<text text-anchor="middle" x="27" y="-14.3" font-family="Times,serif" font-size="14.00">tag</text>
</g>
<!-- projects&#45;&gt;tag -->
<g id="edge1" class="edge"><title>projects&#45;&gt;tag</title>
<path fill="none" stroke="black" d="M148.881,-76.6465C123.457,-64.6216 84.818,-46.3464 57.883,-33.6068"/>
<polygon fill="black" stroke="black" points="59.0717,-30.2973 48.5353,-29.1856 56.0787,-36.6252 59.0717,-30.2973"/>
</g>
<!-- show -->
<g id="node3" class="node"><title>show</title>
<ellipse fill="red" stroke="black" cx="101" cy="-18" rx="29.3722" ry="18"/>
<text text-anchor="middle" x="101" y="-14.3" font-family="Times,serif" font-size="14.00">show</text>
</g>
<!-- projects&#45;&gt;show -->
<g id="edge2" class="edge"><title>projects&#45;&gt;show</title>
<path fill="none" stroke="black" d="M158.577,-73.4647C148.336,-63.7778 135.012,-51.174 123.761,-40.531"/>
<polygon fill="black" stroke="black" points="126.036,-37.8653 116.367,-33.5359 121.226,-42.9506 126.036,-37.8653"/>
</g>
<!-- join -->
<g id="node4" class="node"><title>join</title>
<ellipse fill="red" stroke="black" cx="175" cy="-18" rx="27" ry="18"/>
<text text-anchor="middle" x="175" y="-14.3" font-family="Times,serif" font-size="14.00">join</text>
</g>
<!-- projects&#45;&gt;join -->
<g id="edge3" class="edge"><title>projects&#45;&gt;join</title>
<path fill="none" stroke="black" d="M175,-71.6966C175,-63.9827 175,-54.7125 175,-46.1124"/>
<polygon fill="black" stroke="black" points="178.5,-46.1043 175,-36.1043 171.5,-46.1044 178.5,-46.1043"/>
</g>
<!-- leave -->
<g id="node5" class="node"><title>leave</title>
<ellipse fill="red" stroke="black" cx="249" cy="-18" rx="29.3722" ry="18"/>
<text text-anchor="middle" x="249" y="-14.3" font-family="Times,serif" font-size="14.00">leave</text>
</g>
<!-- projects&#45;&gt;leave -->
<g id="edge4" class="edge"><title>projects&#45;&gt;leave</title>
<path fill="none" stroke="black" d="M191.423,-73.4647C201.664,-63.7778 214.988,-51.174 226.239,-40.531"/>
<polygon fill="black" stroke="black" points="228.774,-42.9506 233.633,-33.5359 223.964,-37.8653 228.774,-42.9506"/>
</g>
<!-- collection -->
<g id="node6" class="node"><title>collection</title>
<ellipse fill="red" stroke="black" cx="342" cy="-18" rx="45.244" ry="18"/>
<text text-anchor="middle" x="342" y="-14.3" font-family="Times,serif" font-size="14.00">collection</text>
</g>
<!-- projects&#45;&gt;collection -->
<g id="edge5" class="edge"><title>projects&#45;&gt;collection</title>
<path fill="none" stroke="black" d="M202.577,-77.4409C229.829,-66.018 271.789,-48.4298 302.561,-35.5314"/>
<polygon fill="black" stroke="black" points="304.256,-38.6159 312.126,-31.5222 301.55,-32.1601 304.256,-38.6159"/>
</g>
</g>
</svg>
