<?xml version="1.0" encoding="UTF-8" standalone="no"?>
<!DOCTYPE svg PUBLIC "-//W3C//DTD SVG 1.1//EN"
 "http://www.w3.org/Graphics/SVG/1.1/DTD/svg11.dtd">
<!-- Generated by graphviz version 2.36.0 (20140111.2315)
 -->
<!-- Title: G Pages: 1 -->
<svg width="703pt" height="116pt"
 viewBox="0.00 0.00 703.00 116.00" xmlns="http://www.w3.org/2000/svg" xmlns:xlink="http://www.w3.org/1999/xlink">
<g id="graph0" class="graph" transform="scale(1 1) rotate(0) translate(4 112)">
<title>G</title>
<polygon fill="white" stroke="none" points="-4,4 -4,-112 699,-112 699,4 -4,4"/>
<!-- projects -->
<g id="node1" class="node"><title>projects</title>
<ellipse fill="blue" stroke="black" cx="292" cy="-90" rx="38.0212" ry="18"/>
<text text-anchor="middle" x="292" y="-86.3" font-family="Times,serif" font-size="14.00">projects</text>
</g>
<!-- index -->
<g id="node2" class="node"><title>index</title>
<ellipse fill="red" stroke="black" cx="30" cy="-18" rx="30.3206" ry="18"/>
<text text-anchor="middle" x="30" y="-14.3" font-family="Times,serif" font-size="14.00">index</text>
</g>
<!-- projects&#45;&gt;index -->
<g id="edge1" class="edge"><title>projects&#45;&gt;index</title>
<path fill="none" stroke="black" d="M256.889,-82.5112C212.697,-73.9143 134.735,-57.317 70,-36 67.617,-35.2153 65.1782,-34.3476 62.7383,-33.4318"/>
<polygon fill="black" stroke="black" points="64.024,-30.1765 53.4384,-29.7345 61.4379,-36.6813 64.024,-30.1765"/>
</g>
<!-- show -->
<g id="node3" class="node"><title>show</title>
<ellipse fill="red" stroke="black" cx="108" cy="-18" rx="29.3722" ry="18"/>
<text text-anchor="middle" x="108" y="-14.3" font-family="Times,serif" font-size="14.00">show</text>
</g>
<!-- projects&#45;&gt;show -->
<g id="edge2" class="edge"><title>projects&#45;&gt;show</title>
<path fill="none" stroke="black" d="M261.839,-78.7678C232.147,-68.5267 185.621,-52.0295 146,-36 144.141,-35.2478 142.238,-34.459 140.323,-33.6502"/>
<polygon fill="black" stroke="black" points="141.36,-30.2848 130.793,-29.5184 138.575,-36.7072 141.36,-30.2848"/>
</g>
<!-- new -->
<g id="node4" class="node"><title>new</title>
<ellipse fill="red" stroke="black" cx="182" cy="-18" rx="27" ry="18"/>
<text text-anchor="middle" x="182" y="-14.3" font-family="Times,serif" font-size="14.00">new</text>
</g>
<!-- projects&#45;&gt;new -->
<g id="edge3" class="edge"><title>projects&#45;&gt;new</title>
<path fill="none" stroke="black" d="M270.268,-75.1703C252.863,-64.0945 228.339,-48.4883 209.556,-36.5357"/>
<polygon fill="black" stroke="black" points="211.431,-33.5803 201.115,-31.1643 207.673,-39.486 211.431,-33.5803"/>
</g>
<!-- edit -->
<g id="node5" class="node"><title>edit</title>
<ellipse fill="red" stroke="black" cx="254" cy="-18" rx="27" ry="18"/>
<text text-anchor="middle" x="254" y="-14.3" font-family="Times,serif" font-size="14.00">edit</text>
</g>
<!-- projects&#45;&gt;edit -->
<g id="edge4" class="edge"><title>projects&#45;&gt;edit</title>
<path fill="none" stroke="black" d="M282.995,-72.411C278.451,-64.0421 272.842,-53.7098 267.772,-44.3698"/>
<polygon fill="black" stroke="black" points="270.788,-42.5887 262.941,-35.4699 264.636,-45.9283 270.788,-42.5887"/>
</g>
<!-- create -->
<g id="node6" class="node"><title>create</title>
<ellipse fill="red" stroke="black" cx="331" cy="-18" rx="31.2735" ry="18"/>
<text text-anchor="middle" x="331" y="-14.3" font-family="Times,serif" font-size="14.00">create</text>
</g>
<!-- projects&#45;&gt;create -->
<g id="edge5" class="edge"><title>projects&#45;&gt;create</title>
<path fill="none" stroke="black" d="M301.242,-72.411C305.905,-64.0421 311.662,-53.7098 316.865,-44.3698"/>
<polygon fill="black" stroke="black" points="320.014,-45.9091 321.824,-35.4699 313.899,-42.5022 320.014,-45.9091"/>
</g>
<!-- update -->
<g id="node7" class="node"><title>update</title>
<ellipse fill="red" stroke="black" cx="415" cy="-18" rx="34.1708" ry="18"/>
<text text-anchor="middle" x="415" y="-14.3" font-family="Times,serif" font-size="14.00">update</text>
</g>
<!-- projects&#45;&gt;update -->
<g id="edge6" class="edge"><title>projects&#45;&gt;update</title>
<path fill="none" stroke="black" d="M315.425,-75.6688C334.733,-64.6805 362.295,-48.9945 383.529,-36.9103"/>
<polygon fill="black" stroke="black" points="385.533,-39.7973 392.492,-31.8092 382.07,-33.7135 385.533,-39.7973"/>
</g>
<!-- destroy -->
<g id="node8" class="node"><title>destroy</title>
<ellipse fill="red" stroke="black" cx="504" cy="-18" rx="36.096" ry="18"/>
<text text-anchor="middle" x="504" y="-14.3" font-family="Times,serif" font-size="14.00">destroy</text>
</g>
<!-- projects&#45;&gt;destroy -->
<g id="edge7" class="edge"><title>projects&#45;&gt;destroy</title>
<path fill="none" stroke="black" d="M323.345,-79.4528C356.825,-69.1482 411.373,-52.0502 458,-36 460.717,-35.0647 463.517,-34.0806 466.331,-33.0767"/>
<polygon fill="black" stroke="black" points="467.641,-36.325 475.852,-29.63 465.258,-29.743 467.641,-36.325"/>
</g>
<!-- allowed_params -->
<g id="node9" class="node"><title>allowed_params</title>
<ellipse fill="red" stroke="black" cx="627" cy="-18" rx="68.3417" ry="18"/>
<text text-anchor="middle" x="627" y="-14.3" font-family="Times,serif" font-size="14.00">allowed_params</text>
</g>
<!-- projects&#45;&gt;allowed_params -->
<g id="edge8" class="edge"><title>projects&#45;&gt;allowed_params</title>
<path fill="none" stroke="black" d="M326.528,-82.0075C375.887,-71.9823 469.45,-52.871 549,-36 554.646,-34.8027 560.518,-33.5451 566.395,-32.2785"/>
<polygon fill="black" stroke="black" points="567.215,-35.6822 576.249,-30.1475 565.735,-28.8403 567.215,-35.6822"/>
</g>
</g>
</svg>
