<?xml version="1.0" encoding="UTF-8" standalone="no"?>
<!DOCTYPE svg PUBLIC "-//W3C//DTD SVG 1.1//EN"
 "http://www.w3.org/Graphics/SVG/1.1/DTD/svg11.dtd">
<!-- Generated by graphviz version 2.36.0 (20140111.2315)
 -->
<!-- Title: G Pages: 1 -->
<svg width="707pt" height="116pt"
 viewBox="0.00 0.00 707.00 116.00" xmlns="http://www.w3.org/2000/svg" xmlns:xlink="http://www.w3.org/1999/xlink">
<g id="graph0" class="graph" transform="scale(1 1) rotate(0) translate(4 112)">
<title>G</title>
<polygon fill="white" stroke="none" points="-4,4 -4,-112 703,-112 703,4 -4,4"/>
<!-- registrations -->
<g id="node1" class="node"><title>registrations</title>
<ellipse fill="blue" stroke="black" cx="447" cy="-90" rx="53.4184" ry="18"/>
<text text-anchor="middle" x="447" y="-86.3" font-family="Times,serif" font-size="14.00">registrations</text>
</g>
<!-- after_inactive_sign_up_path_for(resource) -->
<g id="node2" class="node"><title>after_inactive_sign_up_path_for(resource)</title>
<ellipse fill="red" stroke="black" cx="161" cy="-18" rx="161.279" ry="18"/>
<text text-anchor="middle" x="161" y="-14.3" font-family="Times,serif" font-size="14.00">after_inactive_sign_up_path_for(resource)</text>
</g>
<!-- registrations&#45;&gt;after_inactive_sign_up_path_for(resource) -->
<g id="edge1" class="edge"><title>registrations&#45;&gt;after_inactive_sign_up_path_for(resource)</title>
<path fill="none" stroke="black" d="M405.107,-78.7464C360.411,-67.807 288.736,-50.264 234.589,-37.0113"/>
<polygon fill="black" stroke="black" points="235.239,-33.5671 224.693,-34.5893 233.574,-40.3664 235.239,-33.5671"/>
</g>
<!-- check_registration_enabled -->
<g id="node3" class="node"><title>check_registration_enabled</title>
<ellipse fill="red" stroke="black" cx="447" cy="-18" rx="107.361" ry="18"/>
<text text-anchor="middle" x="447" y="-14.3" font-family="Times,serif" font-size="14.00">check_registration_enabled</text>
</g>
<!-- registrations&#45;&gt;check_registration_enabled -->
<g id="edge2" class="edge"><title>registrations&#45;&gt;check_registration_enabled</title>
<path fill="none" stroke="black" d="M447,-71.6966C447,-63.9827 447,-54.7125 447,-46.1124"/>
<polygon fill="black" stroke="black" points="450.5,-46.1043 447,-36.1043 443.5,-46.1044 450.5,-46.1043"/>
</g>
<!-- devise_params -->
<g id="node4" class="node"><title>devise_params</title>
<ellipse fill="red" stroke="black" cx="636" cy="-18" rx="63.5411" ry="18"/>
<text text-anchor="middle" x="636" y="-14.3" font-family="Times,serif" font-size="14.00">devise_params</text>
</g>
<!-- registrations&#45;&gt;devise_params -->
<g id="edge3" class="edge"><title>registrations&#45;&gt;devise_params</title>
<path fill="none" stroke="black" d="M481.666,-76.1609C511.927,-64.9528 556.096,-48.594 589.437,-36.2457"/>
<polygon fill="black" stroke="black" points="590.808,-39.4703 598.97,-32.715 588.377,-32.906 590.808,-39.4703"/>
</g>
</g>
</svg>
