<?xml version="1.0" encoding="UTF-8" standalone="no"?>
<!DOCTYPE svg PUBLIC "-//W3C//DTD SVG 1.1//EN"
 "http://www.w3.org/Graphics/SVG/1.1/DTD/svg11.dtd">
<!-- Generated by graphviz version 2.36.0 (20140111.2315)
 -->
<!-- Title: G Pages: 1 -->
<svg width="145pt" height="116pt"
 viewBox="0.00 0.00 145.00 116.00" xmlns="http://www.w3.org/2000/svg" xmlns:xlink="http://www.w3.org/1999/xlink">
<g id="graph0" class="graph" transform="scale(1 1) rotate(0) translate(4 112)">
<title>G</title>
<polygon fill="white" stroke="none" points="-4,4 -4,-112 141,-112 141,4 -4,4"/>
<!-- resource -->
<g id="node1" class="node"><title>resource</title>
<ellipse fill="blue" stroke="black" cx="69" cy="-90" rx="39.9464" ry="18"/>
<text text-anchor="middle" x="69" y="-86.3" font-family="Times,serif" font-size="14.00">resource</text>
</g>
<!-- index -->
<g id="node2" class="node"><title>index</title>
<ellipse fill="red" stroke="black" cx="30" cy="-18" rx="30.3206" ry="18"/>
<text text-anchor="middle" x="30" y="-14.3" font-family="Times,serif" font-size="14.00">index</text>
</g>
<!-- resource&#45;&gt;index -->
<g id="edge1" class="edge"><title>resource&#45;&gt;index</title>
<path fill="none" stroke="black" d="M59.7575,-72.411C55.0949,-64.0421 49.3383,-53.7098 44.1346,-44.3698"/>
<polygon fill="black" stroke="black" points="47.1007,-42.5022 39.1761,-35.4699 40.9857,-45.9091 47.1007,-42.5022"/>
</g>
<!-- show -->
<g id="node3" class="node"><title>show</title>
<ellipse fill="red" stroke="black" cx="108" cy="-18" rx="29.3722" ry="18"/>
<text text-anchor="middle" x="108" y="-14.3" font-family="Times,serif" font-size="14.00">show</text>
</g>
<!-- resource&#45;&gt;show -->
<g id="edge2" class="edge"><title>resource&#45;&gt;show</title>
<path fill="none" stroke="black" d="M78.2425,-72.411C82.9051,-64.0421 88.6617,-53.7098 93.8654,-44.3698"/>
<polygon fill="black" stroke="black" points="97.0143,-45.9091 98.8239,-35.4699 90.8993,-42.5022 97.0143,-45.9091"/>
</g>
</g>
</svg>
