<?xml version="1.0" encoding="UTF-8" standalone="no"?>
<!DOCTYPE svg PUBLIC "-//W3C//DTD SVG 1.1//EN"
 "http://www.w3.org/Graphics/SVG/1.1/DTD/svg11.dtd">
<!-- Generated by graphviz version 2.36.0 (20140111.2315)
 -->
<!-- Title: G Pages: 1 -->
<svg width="143pt" height="116pt"
 viewBox="0.00 0.00 143.00 116.00" xmlns="http://www.w3.org/2000/svg" xmlns:xlink="http://www.w3.org/1999/xlink">
<g id="graph0" class="graph" transform="scale(1 1) rotate(0) translate(4 112)">
<title>G</title>
<polygon fill="white" stroke="none" points="-4,4 -4,-112 139,-112 139,4 -4,4"/>
<!-- sessions -->
<g id="node1" class="node"><title>sessions</title>
<ellipse fill="blue" stroke="black" cx="65" cy="-90" rx="39.4691" ry="18"/>
<text text-anchor="middle" x="65" y="-86.3" font-family="Times,serif" font-size="14.00">sessions</text>
</g>
<!-- new -->
<g id="node2" class="node"><title>new</title>
<ellipse fill="red" stroke="black" cx="27" cy="-18" rx="27" ry="18"/>
<text text-anchor="middle" x="27" y="-14.3" font-family="Times,serif" font-size="14.00">new</text>
</g>
<!-- sessions&#45;&gt;new -->
<g id="edge1" class="edge"><title>sessions&#45;&gt;new</title>
<path fill="none" stroke="black" d="M55.9945,-72.411C51.4514,-64.0421 45.8425,-53.7098 40.7722,-44.3698"/>
<polygon fill="black" stroke="black" points="43.7878,-42.5887 35.9408,-35.4699 37.6358,-45.9283 43.7878,-42.5887"/>
</g>
<!-- create -->
<g id="node3" class="node"><title>create</title>
<ellipse fill="red" stroke="black" cx="104" cy="-18" rx="31.2735" ry="18"/>
<text text-anchor="middle" x="104" y="-14.3" font-family="Times,serif" font-size="14.00">create</text>
</g>
<!-- sessions&#45;&gt;create -->
<g id="edge2" class="edge"><title>sessions&#45;&gt;create</title>
<path fill="none" stroke="black" d="M74.2425,-72.411C78.9051,-64.0421 84.6617,-53.7098 89.8654,-44.3698"/>
<polygon fill="black" stroke="black" points="93.0143,-45.9091 94.8239,-35.4699 86.8993,-42.5022 93.0143,-45.9091"/>
</g>
</g>
</svg>
