<?xml version="1.0" encoding="UTF-8" standalone="no"?>
<!DOCTYPE svg PUBLIC "-//W3C//DTD SVG 1.1//EN"
 "http://www.w3.org/Graphics/SVG/1.1/DTD/svg11.dtd">
<!-- Generated by graphviz version 2.36.0 (20140111.2315)
 -->
<!-- Title: G Pages: 1 -->
<svg width="271pt" height="116pt"
 viewBox="0.00 0.00 271.00 116.00" xmlns="http://www.w3.org/2000/svg" xmlns:xlink="http://www.w3.org/1999/xlink">
<g id="graph0" class="graph" transform="scale(1 1) rotate(0) translate(4 112)">
<title>G</title>
<polygon fill="white" stroke="none" points="-4,4 -4,-112 267,-112 267,4 -4,4"/>
<!-- site -->
<g id="node1" class="node"><title>site</title>
<ellipse fill="blue" stroke="black" cx="112" cy="-90" rx="27" ry="18"/>
<text text-anchor="middle" x="112" y="-86.3" font-family="Times,serif" font-size="14.00">site</text>
</g>
<!-- index -->
<g id="node2" class="node"><title>index</title>
<ellipse fill="red" stroke="black" cx="30" cy="-18" rx="30.3206" ry="18"/>
<text text-anchor="middle" x="30" y="-14.3" font-family="Times,serif" font-size="14.00">index</text>
</g>
<!-- site&#45;&gt;index -->
<g id="edge1" class="edge"><title>site&#45;&gt;index</title>
<path fill="none" stroke="black" d="M95.7994,-75.1703C84.0492,-65.1395 67.9459,-51.3928 54.6112,-40.0095"/>
<polygon fill="black" stroke="black" points="56.608,-37.1123 46.7299,-33.2816 52.0631,-42.4362 56.608,-37.1123"/>
</g>
<!-- search -->
<g id="node3" class="node"><title>search</title>
<ellipse fill="red" stroke="black" cx="112" cy="-18" rx="33.2209" ry="18"/>
<text text-anchor="middle" x="112" y="-14.3" font-family="Times,serif" font-size="14.00">search</text>
</g>
<!-- site&#45;&gt;search -->
<g id="edge2" class="edge"><title>site&#45;&gt;search</title>
<path fill="none" stroke="black" d="M112,-71.6966C112,-63.9827 112,-54.7125 112,-46.1124"/>
<polygon fill="black" stroke="black" points="115.5,-46.1043 112,-36.1043 108.5,-46.1044 115.5,-46.1043"/>
</g>
<!-- opensearch -->
<g id="node4" class="node"><title>opensearch</title>
<ellipse fill="red" stroke="black" cx="213" cy="-18" rx="50.0684" ry="18"/>
<text text-anchor="middle" x="213" y="-14.3" font-family="Times,serif" font-size="14.00">opensearch</text>
</g>
<!-- site&#45;&gt;opensearch -->
<g id="edge3" class="edge"><title>site&#45;&gt;opensearch</title>
<path fill="none" stroke="black" d="M130.057,-76.4854C144.552,-66.4391 165.232,-52.1064 182.316,-40.2661"/>
<polygon fill="black" stroke="black" points="184.645,-42.9105 190.87,-34.3375 180.658,-37.1572 184.645,-42.9105"/>
</g>
</g>
</svg>
