<?xml version="1.0" encoding="UTF-8" standalone="no"?>
<!DOCTYPE svg PUBLIC "-//W3C//DTD SVG 1.1//EN"
 "http://www.w3.org/Graphics/SVG/1.1/DTD/svg11.dtd">
<!-- Generated by graphviz version 2.36.0 (20140111.2315)
 -->
<!-- Title: G Pages: 1 -->
<svg width="929pt" height="116pt"
 viewBox="0.00 0.00 929.00 116.00" xmlns="http://www.w3.org/2000/svg" xmlns:xlink="http://www.w3.org/1999/xlink">
<g id="graph0" class="graph" transform="scale(1 1) rotate(0) translate(4 112)">
<title>G</title>
<polygon fill="white" stroke="none" points="-4,4 -4,-112 925,-112 925,4 -4,4"/>
<!-- static -->
<g id="node1" class="node"><title>static</title>
<ellipse fill="blue" stroke="black" cx="449" cy="-90" rx="29.3722" ry="18"/>
<text text-anchor="middle" x="449" y="-86.3" font-family="Times,serif" font-size="14.00">static</text>
</g>
<!-- to_model -->
<g id="node2" class="node"><title>to_model</title>
<ellipse fill="red" stroke="black" cx="44" cy="-18" rx="44.2946" ry="18"/>
<text text-anchor="middle" x="44" y="-14.3" font-family="Times,serif" font-size="14.00">to_model</text>
</g>
<!-- static&#45;&gt;to_model -->
<g id="edge1" class="edge"><title>static&#45;&gt;to_model</title>
<path fill="none" stroke="black" d="M420.51,-86.2142C360.375,-80.0032 216.281,-63.3742 98,-36 94.1773,-35.1153 90.2336,-34.0931 86.2997,-32.9978"/>
<polygon fill="black" stroke="black" points="87.1961,-29.6134 76.6155,-30.1613 85.2284,-36.3312 87.1961,-29.6134"/>
</g>
<!-- valid?() -->
<g id="node3" class="node"><title>valid?()</title>
<ellipse fill="red" stroke="black" cx="145" cy="-18" rx="38.0212" ry="18"/>
<text text-anchor="middle" x="145" y="-14.3" font-family="Times,serif" font-size="14.00">valid?()</text>
</g>
<!-- static&#45;&gt;valid?() -->
<g id="edge2" class="edge"><title>static&#45;&gt;valid?()</title>
<path fill="none" stroke="black" d="M420.922,-84.5703C373.327,-76.76 273.985,-59.1514 192,-36 189.088,-35.1776 186.097,-34.2638 183.102,-33.2988"/>
<polygon fill="black" stroke="black" points="184.214,-29.9801 173.62,-30.091 181.971,-36.6109 184.214,-29.9801"/>
</g>
<!-- new_record?() -->
<g id="node4" class="node"><title>new_record?()</title>
<ellipse fill="red" stroke="black" cx="263" cy="-18" rx="61.6163" ry="18"/>
<text text-anchor="middle" x="263" y="-14.3" font-family="Times,serif" font-size="14.00">new_record?()</text>
</g>
<!-- static&#45;&gt;new_record?() -->
<g id="edge3" class="edge"><title>static&#45;&gt;new_record?()</title>
<path fill="none" stroke="black" d="M424.684,-79.8487C395.306,-68.7925 345.268,-49.9609 308.621,-36.1692"/>
<polygon fill="black" stroke="black" points="309.734,-32.8484 299.142,-32.6018 307.268,-39.3998 309.734,-32.8484"/>
</g>
<!-- destroyed?() -->
<g id="node5" class="node"><title>destroyed?()</title>
<ellipse fill="red" stroke="black" cx="397" cy="-18" rx="54.3924" ry="18"/>
<text text-anchor="middle" x="397" y="-14.3" font-family="Times,serif" font-size="14.00">destroyed?()</text>
</g>
<!-- static&#45;&gt;destroyed?() -->
<g id="edge4" class="edge"><title>static&#45;&gt;destroyed?()</title>
<path fill="none" stroke="black" d="M437.46,-73.4647C431.072,-64.8665 422.978,-53.9704 415.71,-44.187"/>
<polygon fill="black" stroke="black" points="418.373,-41.9021 409.6,-35.9618 412.754,-46.0764 418.373,-41.9021"/>
</g>
<!-- errors -->
<g id="node6" class="node"><title>errors</title>
<ellipse fill="red" stroke="black" cx="501" cy="-18" rx="31.2965" ry="18"/>
<text text-anchor="middle" x="501" y="-14.3" font-family="Times,serif" font-size="14.00">errors</text>
</g>
<!-- static&#45;&gt;errors -->
<g id="edge5" class="edge"><title>static&#45;&gt;errors</title>
<path fill="none" stroke="black" d="M460.54,-73.4647C467.179,-64.5279 475.662,-53.1086 483.144,-43.0367"/>
<polygon fill="black" stroke="black" points="485.978,-45.0918 489.131,-34.9772 480.358,-40.9175 485.978,-45.0918"/>
</g>
<!-- obj.[](key) -->
<g id="node7" class="node"><title>obj.[](key)</title>
<ellipse fill="red" stroke="black" cx="599" cy="-18" rx="48.6179" ry="18"/>
<text text-anchor="middle" x="599" y="-14.3" font-family="Times,serif" font-size="14.00">obj.[](key)</text>
</g>
<!-- static&#45;&gt;obj.[](key) -->
<g id="edge6" class="edge"><title>static&#45;&gt;obj.[](key)</title>
<path fill="none" stroke="black" d="M471.457,-78.5203C495.027,-67.5208 532.511,-50.0281 560.756,-36.8471"/>
<polygon fill="black" stroke="black" points="562.365,-39.9585 569.947,-32.558 559.405,-33.6152 562.365,-39.9585"/>
</g>
<!-- obj.full_messages() -->
<g id="node8" class="node"><title>obj.full_messages()</title>
<ellipse fill="red" stroke="black" cx="746" cy="-18" rx="80.389" ry="18"/>
<text text-anchor="middle" x="746" y="-14.3" font-family="Times,serif" font-size="14.00">obj.full_messages()</text>
</g>
<!-- static&#45;&gt;obj.full_messages() -->
<g id="edge7" class="edge"><title>static&#45;&gt;obj.full_messages()</title>
<path fill="none" stroke="black" d="M475.881,-82.6645C522.303,-71.7232 618.682,-49.0077 682.857,-33.8821"/>
<polygon fill="black" stroke="black" points="683.938,-37.2234 692.868,-31.5226 682.332,-30.4101 683.938,-37.2234"/>
</g>
<!-- testcard -->
<g id="node9" class="node"><title>testcard</title>
<ellipse fill="red" stroke="black" cx="883" cy="-18" rx="38.0212" ry="18"/>
<text text-anchor="middle" x="883" y="-14.3" font-family="Times,serif" font-size="14.00">testcard</text>
</g>
<!-- static&#45;&gt;testcard -->
<g id="edge8" class="edge"><title>static&#45;&gt;testcard</title>
<path fill="none" stroke="black" d="M477.945,-87.0518C542.699,-82.2546 703.87,-67.8698 835,-36 838.221,-35.2171 841.529,-34.2987 844.828,-33.3015"/>
<polygon fill="black" stroke="black" points="846.176,-36.5441 854.608,-30.1293 844.016,-29.8856 846.176,-36.5441"/>
</g>
</g>
</svg>
