<?xml version="1.0" encoding="UTF-8" standalone="no"?>
<!DOCTYPE svg PUBLIC "-//W3C//DTD SVG 1.1//EN"
 "http://www.w3.org/Graphics/SVG/1.1/DTD/svg11.dtd">
<!-- Generated by graphviz version 2.36.0 (20140111.2315)
 -->
<!-- Title: G Pages: 1 -->
<svg width="1692pt" height="116pt"
 viewBox="0.00 0.00 1692.00 116.00" xmlns="http://www.w3.org/2000/svg" xmlns:xlink="http://www.w3.org/1999/xlink">
<g id="graph0" class="graph" transform="scale(1 1) rotate(0) translate(4 112)">
<title>G</title>
<polygon fill="white" stroke="none" points="-4,4 -4,-112 1688,-112 1688,4 -4,4"/>
<!-- stories -->
<g id="node1" class="node"><title>stories</title>
<ellipse fill="blue" stroke="black" cx="732" cy="-90" rx="33.1991" ry="18"/>
<text text-anchor="middle" x="732" y="-86.3" font-family="Times,serif" font-size="14.00">stories</text>
</g>
<!-- index -->
<g id="node2" class="node"><title>index</title>
<ellipse fill="red" stroke="black" cx="30" cy="-18" rx="30.3206" ry="18"/>
<text text-anchor="middle" x="30" y="-14.3" font-family="Times,serif" font-size="14.00">index</text>
</g>
<!-- stories&#45;&gt;index -->
<g id="edge1" class="edge"><title>stories&#45;&gt;index</title>
<path fill="none" stroke="black" d="M698.644,-87.7466C581.776,-83.1345 191.347,-65.8089 70,-36 67.4994,-35.3857 64.9547,-34.6332 62.4221,-33.79"/>
<polygon fill="black" stroke="black" points="63.425,-30.4281 52.8329,-30.1908 60.9651,-36.9817 63.425,-30.4281"/>
</g>
<!-- show -->
<g id="node3" class="node"><title>show</title>
<ellipse fill="red" stroke="black" cx="108" cy="-18" rx="29.3722" ry="18"/>
<text text-anchor="middle" x="108" y="-14.3" font-family="Times,serif" font-size="14.00">show</text>
</g>
<!-- stories&#45;&gt;show -->
<g id="edge2" class="edge"><title>stories&#45;&gt;show</title>
<path fill="none" stroke="black" d="M698.384,-89.6741C607.771,-90.7008 351.496,-88.3707 147,-36 144.496,-35.3587 141.947,-34.5749 139.413,-33.6997"/>
<polygon fill="black" stroke="black" points="140.427,-30.3385 129.838,-29.9785 137.891,-36.8632 140.427,-30.3385"/>
</g>
<!-- update -->
<g id="node4" class="node"><title>update</title>
<ellipse fill="red" stroke="black" cx="190" cy="-18" rx="34.1708" ry="18"/>
<text text-anchor="middle" x="190" y="-14.3" font-family="Times,serif" font-size="14.00">update</text>
</g>
<!-- stories&#45;&gt;update -->
<g id="edge3" class="edge"><title>stories&#45;&gt;update</title>
<path fill="none" stroke="black" d="M698.563,-88.4549C617.652,-86.4887 405.342,-77.4512 234,-36 231.164,-35.314 228.266,-34.4897 225.377,-33.5789"/>
<polygon fill="black" stroke="black" points="226.291,-30.1917 215.697,-30.2242 223.999,-36.8058 226.291,-30.1917"/>
</g>
<!-- destroy -->
<g id="node5" class="node"><title>destroy</title>
<ellipse fill="red" stroke="black" cx="279" cy="-18" rx="36.096" ry="18"/>
<text text-anchor="middle" x="279" y="-14.3" font-family="Times,serif" font-size="14.00">destroy</text>
</g>
<!-- stories&#45;&gt;destroy -->
<g id="edge4" class="edge"><title>stories&#45;&gt;destroy</title>
<path fill="none" stroke="black" d="M698.727,-87.295C628.529,-83.1298 460.505,-70.1572 324,-36 321.19,-35.2968 318.315,-34.4721 315.444,-33.5716"/>
<polygon fill="black" stroke="black" points="316.398,-30.1988 305.803,-30.2851 314.139,-36.8244 316.398,-30.1988"/>
</g>
<!-- done -->
<g id="node6" class="node"><title>done</title>
<ellipse fill="red" stroke="black" cx="361" cy="-18" rx="27.4223" ry="18"/>
<text text-anchor="middle" x="361" y="-14.3" font-family="Times,serif" font-size="14.00">done</text>
</g>
<!-- stories&#45;&gt;done -->
<g id="edge5" class="edge"><title>stories&#45;&gt;done</title>
<path fill="none" stroke="black" d="M699.095,-86.7702C638.425,-82.0064 505.327,-68.4994 398,-36 395.856,-35.3508 393.676,-34.6019 391.502,-33.7878"/>
<polygon fill="black" stroke="black" points="392.713,-30.5011 382.134,-29.9094 390.035,-36.9687 392.713,-30.5011"/>
</g>
<!-- backlog -->
<g id="node7" class="node"><title>backlog</title>
<ellipse fill="red" stroke="black" cx="445" cy="-18" rx="38.0212" ry="18"/>
<text text-anchor="middle" x="445" y="-14.3" font-family="Times,serif" font-size="14.00">backlog</text>
</g>
<!-- stories&#45;&gt;backlog -->
<g id="edge6" class="edge"><title>stories&#45;&gt;backlog</title>
<path fill="none" stroke="black" d="M700.607,-83.4153C654.453,-74.9019 565.769,-57.3886 492,-36 489.094,-35.1573 486.107,-34.2287 483.115,-33.2533"/>
<polygon fill="black" stroke="black" points="484.233,-29.9365 473.639,-30.0259 481.976,-36.5628 484.233,-29.9365"/>
</g>
<!-- in_progress -->
<g id="node8" class="node"><title>in_progress</title>
<ellipse fill="red" stroke="black" cx="553" cy="-18" rx="51.4931" ry="18"/>
<text text-anchor="middle" x="553" y="-14.3" font-family="Times,serif" font-size="14.00">in_progress</text>
</g>
<!-- stories&#45;&gt;in_progress -->
<g id="edge7" class="edge"><title>stories&#45;&gt;in_progress</title>
<path fill="none" stroke="black" d="M705.588,-78.6713C676.644,-67.3525 629.791,-49.0299 595.629,-35.6705"/>
<polygon fill="black" stroke="black" points="596.501,-32.2534 585.913,-31.8709 593.951,-38.7726 596.501,-32.2534"/>
</g>
<!-- create -->
<g id="node9" class="node"><title>create</title>
<ellipse fill="red" stroke="black" cx="655" cy="-18" rx="31.2735" ry="18"/>
<text text-anchor="middle" x="655" y="-14.3" font-family="Times,serif" font-size="14.00">create</text>
</g>
<!-- stories&#45;&gt;create -->
<g id="edge8" class="edge"><title>stories&#45;&gt;create</title>
<path fill="none" stroke="black" d="M715.67,-74.1548C704.879,-64.3443 690.562,-51.3289 678.546,-40.4053"/>
<polygon fill="black" stroke="black" points="680.796,-37.7207 671.042,-33.5838 676.087,-42.9003 680.796,-37.7207"/>
</g>
<!-- start -->
<g id="node10" class="node"><title>start</title>
<ellipse fill="red" stroke="black" cx="732" cy="-18" rx="27" ry="18"/>
<text text-anchor="middle" x="732" y="-14.3" font-family="Times,serif" font-size="14.00">start</text>
</g>
<!-- stories&#45;&gt;start -->
<g id="edge9" class="edge"><title>stories&#45;&gt;start</title>
<path fill="none" stroke="black" d="M732,-71.6966C732,-63.9827 732,-54.7125 732,-46.1124"/>
<polygon fill="black" stroke="black" points="735.5,-46.1043 732,-36.1043 728.5,-46.1044 735.5,-46.1043"/>
</g>
<!-- finish -->
<g id="node11" class="node"><title>finish</title>
<ellipse fill="red" stroke="black" cx="808" cy="-18" rx="30.3206" ry="18"/>
<text text-anchor="middle" x="808" y="-14.3" font-family="Times,serif" font-size="14.00">finish</text>
</g>
<!-- stories&#45;&gt;finish -->
<g id="edge10" class="edge"><title>stories&#45;&gt;finish</title>
<path fill="none" stroke="black" d="M748.118,-74.1548C758.769,-64.3443 772.9,-51.3289 784.76,-40.4053"/>
<polygon fill="black" stroke="black" points="787.182,-42.933 792.166,-33.5838 782.44,-37.7841 787.182,-42.933"/>
</g>
<!-- deliver -->
<g id="node12" class="node"><title>deliver</title>
<ellipse fill="red" stroke="black" cx="892" cy="-18" rx="35.1455" ry="18"/>
<text text-anchor="middle" x="892" y="-14.3" font-family="Times,serif" font-size="14.00">deliver</text>
</g>
<!-- stories&#45;&gt;deliver -->
<g id="edge11" class="edge"><title>stories&#45;&gt;deliver</title>
<path fill="none" stroke="black" d="M757,-78.0625C783.806,-66.3349 826.58,-47.6213 856.786,-34.4061"/>
<polygon fill="black" stroke="black" points="858.357,-37.5393 866.115,-30.3245 855.551,-31.1262 858.357,-37.5393"/>
</g>
<!-- accept -->
<g id="node13" class="node"><title>accept</title>
<ellipse fill="red" stroke="black" cx="978" cy="-18" rx="33.2209" ry="18"/>
<text text-anchor="middle" x="978" y="-14.3" font-family="Times,serif" font-size="14.00">accept</text>
</g>
<!-- stories&#45;&gt;accept -->
<g id="edge12" class="edge"><title>stories&#45;&gt;accept</title>
<path fill="none" stroke="black" d="M762.43,-82.4014C802.614,-73.3915 875.376,-56.0496 936,-36 938.418,-35.2003 940.896,-34.3311 943.38,-33.4226"/>
<polygon fill="black" stroke="black" points="944.79,-36.6306 952.879,-29.7884 942.289,-30.0928 944.79,-36.6306"/>
</g>
<!-- reject -->
<g id="node14" class="node"><title>reject</title>
<ellipse fill="red" stroke="black" cx="1060" cy="-18" rx="30.3206" ry="18"/>
<text text-anchor="middle" x="1060" y="-14.3" font-family="Times,serif" font-size="14.00">reject</text>
</g>
<!-- stories&#45;&gt;reject -->
<g id="edge13" class="edge"><title>stories&#45;&gt;reject</title>
<path fill="none" stroke="black" d="M764.51,-85.3834C818.441,-78.8616 929.439,-63.2151 1020,-36 1022.47,-35.2589 1024.99,-34.4134 1027.5,-33.5043"/>
<polygon fill="black" stroke="black" points="1029.01,-36.6709 1037.05,-29.7704 1026.46,-30.1512 1029.01,-36.6709"/>
</g>
<!-- import -->
<g id="node15" class="node"><title>import</title>
<ellipse fill="red" stroke="black" cx="1143" cy="-18" rx="34.1708" ry="18"/>
<text text-anchor="middle" x="1143" y="-14.3" font-family="Times,serif" font-size="14.00">import</text>
</g>
<!-- stories&#45;&gt;import -->
<g id="edge14" class="edge"><title>stories&#45;&gt;import</title>
<path fill="none" stroke="black" d="M764.892,-86.7456C829.718,-81.758 978.182,-67.6309 1099,-36 1101.82,-35.2611 1104.71,-34.3986 1107.59,-33.4613"/>
<polygon fill="black" stroke="black" points="1108.99,-36.6797 1117.26,-30.0568 1106.67,-30.0772 1108.99,-36.6797"/>
</g>
<!-- import_upload -->
<g id="node16" class="node"><title>import_upload</title>
<ellipse fill="red" stroke="black" cx="1258" cy="-18" rx="63.0666" ry="18"/>
<text text-anchor="middle" x="1258" y="-14.3" font-family="Times,serif" font-size="14.00">import_upload</text>
</g>
<!-- stories&#45;&gt;import_upload -->
<g id="edge15" class="edge"><title>stories&#45;&gt;import_upload</title>
<path fill="none" stroke="black" d="M764.948,-86.4691C840.041,-80.4144 1029.49,-63.5168 1186,-36 1191.38,-35.0548 1196.95,-33.9549 1202.51,-32.7777"/>
<polygon fill="black" stroke="black" points="1203.44,-36.1568 1212.46,-30.592 1201.94,-29.3199 1203.44,-36.1568"/>
</g>
<!-- state_change(transition) -->
<g id="node17" class="node"><title>state_change(transition)</title>
<ellipse fill="red" stroke="black" cx="1434" cy="-18" rx="94.338" ry="18"/>
<text text-anchor="middle" x="1434" y="-14.3" font-family="Times,serif" font-size="14.00">state_change(transition)</text>
</g>
<!-- stories&#45;&gt;state_change(transition) -->
<g id="edge16" class="edge"><title>stories&#45;&gt;state_change(transition)</title>
<path fill="none" stroke="black" d="M765.153,-86.9222C855.818,-81.0542 1115.42,-63.0091 1330,-36 1338.7,-34.9044 1347.8,-33.6227 1356.83,-32.2631"/>
<polygon fill="black" stroke="black" points="1357.62,-35.6823 1366.97,-30.7008 1356.55,-28.7638 1357.62,-35.6823"/>
</g>
<!-- allowed_params -->
<g id="node18" class="node"><title>allowed_params</title>
<ellipse fill="red" stroke="black" cx="1616" cy="-18" rx="68.3417" ry="18"/>
<text text-anchor="middle" x="1616" y="-14.3" font-family="Times,serif" font-size="14.00">allowed_params</text>
</g>
<!-- stories&#45;&gt;allowed_params -->
<g id="edge17" class="edge"><title>stories&#45;&gt;allowed_params</title>
<path fill="none" stroke="black" d="M765.535,-88.5448C876.223,-86.6692 1239.81,-77.5322 1537,-36 1543.38,-35.108 1550.02,-33.9888 1556.61,-32.7525"/>
<polygon fill="black" stroke="black" points="1557.76,-36.0943 1566.89,-30.7294 1556.4,-29.226 1557.76,-36.0943"/>
</g>
</g>
</svg>
