<?xml version="1.0" encoding="UTF-8" standalone="no"?>
<!DOCTYPE svg PUBLIC "-//W3C//DTD SVG 1.1//EN"
 "http://www.w3.org/Graphics/SVG/1.1/DTD/svg11.dtd">
<!-- Generated by graphviz version 2.36.0 (20140111.2315)
 -->
<!-- Title: G Pages: 1 -->
<svg width="506pt" height="116pt"
 viewBox="0.00 0.00 506.00 116.00" xmlns="http://www.w3.org/2000/svg" xmlns:xlink="http://www.w3.org/1999/xlink">
<g id="graph0" class="graph" transform="scale(1 1) rotate(0) translate(4 112)">
<title>G</title>
<polygon fill="white" stroke="none" points="-4,4 -4,-112 502,-112 502,4 -4,4"/>
<!-- tournaments -->
<g id="node1" class="node"><title>tournaments</title>
<ellipse fill="blue" stroke="black" cx="192" cy="-90" rx="54.3924" ry="18"/>
<text text-anchor="middle" x="192" y="-86.3" font-family="Times,serif" font-size="14.00">tournaments</text>
</g>
<!-- create -->
<g id="node2" class="node"><title>create</title>
<ellipse fill="red" stroke="black" cx="31" cy="-18" rx="31.2735" ry="18"/>
<text text-anchor="middle" x="31" y="-14.3" font-family="Times,serif" font-size="14.00">create</text>
</g>
<!-- tournaments&#45;&gt;create -->
<g id="edge1" class="edge"><title>tournaments&#45;&gt;create</title>
<path fill="none" stroke="black" d="M160.192,-75.1703C132.648,-63.1946 92.9214,-45.9223 64.8077,-33.699"/>
<polygon fill="black" stroke="black" points="65.9531,-30.3805 55.3868,-29.603 63.162,-36.8 65.9531,-30.3805"/>
</g>
<!-- show -->
<g id="node3" class="node"><title>show</title>
<ellipse fill="red" stroke="black" cx="110" cy="-18" rx="29.3722" ry="18"/>
<text text-anchor="middle" x="110" y="-14.3" font-family="Times,serif" font-size="14.00">show</text>
</g>
<!-- tournaments&#45;&gt;show -->
<g id="edge2" class="edge"><title>tournaments&#45;&gt;show</title>
<path fill="none" stroke="black" d="M172.981,-72.7646C161.416,-62.8916 146.537,-50.1903 134.146,-39.6121"/>
<polygon fill="black" stroke="black" points="136.3,-36.849 126.421,-33.0183 131.755,-42.1729 136.3,-36.849"/>
</g>
<!-- update -->
<g id="node4" class="node"><title>update</title>
<ellipse fill="red" stroke="black" cx="192" cy="-18" rx="34.1708" ry="18"/>
<text text-anchor="middle" x="192" y="-14.3" font-family="Times,serif" font-size="14.00">update</text>
</g>
<!-- tournaments&#45;&gt;update -->
<g id="edge3" class="edge"><title>tournaments&#45;&gt;update</title>
<path fill="none" stroke="black" d="M192,-71.6966C192,-63.9827 192,-54.7125 192,-46.1124"/>
<polygon fill="black" stroke="black" points="195.5,-46.1043 192,-36.1043 188.5,-46.1044 195.5,-46.1043"/>
</g>
<!-- destroy -->
<g id="node5" class="node"><title>destroy</title>
<ellipse fill="red" stroke="black" cx="281" cy="-18" rx="36.096" ry="18"/>
<text text-anchor="middle" x="281" y="-14.3" font-family="Times,serif" font-size="14.00">destroy</text>
</g>
<!-- tournaments&#45;&gt;destroy -->
<g id="edge4" class="edge"><title>tournaments&#45;&gt;destroy</title>
<path fill="none" stroke="black" d="M212.195,-73.1159C224.682,-63.2949 240.852,-50.5773 254.378,-39.9386"/>
<polygon fill="black" stroke="black" points="256.706,-42.5609 262.402,-33.6277 252.378,-37.0588 256.706,-42.5609"/>
</g>
<!-- tournament_params -->
<g id="node6" class="node"><title>tournament_params</title>
<ellipse fill="red" stroke="black" cx="417" cy="-18" rx="81.3646" ry="18"/>
<text text-anchor="middle" x="417" y="-14.3" font-family="Times,serif" font-size="14.00">tournament_params</text>
</g>
<!-- tournaments&#45;&gt;tournament_params -->
<g id="edge5" class="edge"><title>tournaments&#45;&gt;tournament_params</title>
<path fill="none" stroke="black" d="M230.168,-77.1255C266.383,-65.8587 321.198,-48.805 362.102,-36.0795"/>
<polygon fill="black" stroke="black" points="363.145,-39.4204 371.654,-33.1076 361.066,-32.7364 363.145,-39.4204"/>
</g>
</g>
</svg>
