<?xml version="1.0" encoding="UTF-8" standalone="no"?>
<!DOCTYPE svg PUBLIC "-//W3C//DTD SVG 1.1//EN"
 "http://www.w3.org/Graphics/SVG/1.1/DTD/svg11.dtd">
<!-- Generated by graphviz version 2.36.0 (20140111.2315)
 -->
<!-- Title: G Pages: 1 -->
<svg width="240pt" height="116pt"
 viewBox="0.00 0.00 240.00 116.00" xmlns="http://www.w3.org/2000/svg" xmlns:xlink="http://www.w3.org/1999/xlink">
<g id="graph0" class="graph" transform="scale(1 1) rotate(0) translate(4 112)">
<title>G</title>
<polygon fill="white" stroke="none" points="-4,4 -4,-112 236,-112 236,4 -4,4"/>
<!-- users -->
<g id="node1" class="node"><title>users</title>
<ellipse fill="blue" stroke="black" cx="110" cy="-90" rx="28.3955" ry="18"/>
<text text-anchor="middle" x="110" y="-86.3" font-family="Times,serif" font-size="14.00">users</text>
</g>
<!-- index -->
<g id="node2" class="node"><title>index</title>
<ellipse fill="red" stroke="black" cx="30" cy="-18" rx="30.3206" ry="18"/>
<text text-anchor="middle" x="30" y="-14.3" font-family="Times,serif" font-size="14.00">index</text>
</g>
<!-- users&#45;&gt;index -->
<g id="edge1" class="edge"><title>users&#45;&gt;index</title>
<path fill="none" stroke="black" d="M93.8108,-74.8345C82.3923,-64.8433 66.9038,-51.2908 54.0458,-40.0401"/>
<polygon fill="black" stroke="black" points="56.2703,-37.3358 46.4397,-33.3847 51.6607,-42.6038 56.2703,-37.3358"/>
</g>
<!-- create -->
<g id="node3" class="node"><title>create</title>
<ellipse fill="red" stroke="black" cx="110" cy="-18" rx="31.2735" ry="18"/>
<text text-anchor="middle" x="110" y="-14.3" font-family="Times,serif" font-size="14.00">create</text>
</g>
<!-- users&#45;&gt;create -->
<g id="edge2" class="edge"><title>users&#45;&gt;create</title>
<path fill="none" stroke="black" d="M110,-71.6966C110,-63.9827 110,-54.7125 110,-46.1124"/>
<polygon fill="black" stroke="black" points="113.5,-46.1043 110,-36.1043 106.5,-46.1044 113.5,-46.1043"/>
</g>
<!-- destroy -->
<g id="node4" class="node"><title>destroy</title>
<ellipse fill="red" stroke="black" cx="196" cy="-18" rx="36.096" ry="18"/>
<text text-anchor="middle" x="196" y="-14.3" font-family="Times,serif" font-size="14.00">destroy</text>
</g>
<!-- users&#45;&gt;destroy -->
<g id="edge3" class="edge"><title>users&#45;&gt;destroy</title>
<path fill="none" stroke="black" d="M126.991,-75.1703C139.267,-65.1781 156.073,-51.4986 170.027,-40.1411"/>
<polygon fill="black" stroke="black" points="172.311,-42.7949 177.857,-33.7677 167.892,-37.366 172.311,-42.7949"/>
</g>
</g>
</svg>
